G04 #@! TF.GenerationSoftware,KiCad,Pcbnew,(5.1.0)-1*
G04 #@! TF.CreationDate,2021-02-13T20:01:35+01:00*
G04 #@! TF.ProjectId,GreaseWeazle,47726561-7365-4576-9561-7a6c652e6b69,rev?*
G04 #@! TF.SameCoordinates,Original*
G04 #@! TF.FileFunction,Soldermask,Top*
G04 #@! TF.FilePolarity,Negative*
%FSLAX46Y46*%
G04 Gerber Fmt 4.6, Leading zero omitted, Abs format (unit mm)*
G04 Created by KiCad (PCBNEW (5.1.0)-1) date 2021-02-13 20:01:35*
%MOMM*%
%LPD*%
G04 APERTURE LIST*
%ADD10C,0.100000*%
G04 APERTURE END LIST*
D10*
G36*
X110260443Y-95285119D02*
G01*
X110326627Y-95291637D01*
X110496466Y-95343157D01*
X110652991Y-95426822D01*
X110688729Y-95456152D01*
X110790186Y-95539414D01*
X110873448Y-95640871D01*
X110902778Y-95676609D01*
X110986443Y-95833134D01*
X111037963Y-96002973D01*
X111055359Y-96179600D01*
X111037963Y-96356227D01*
X110986443Y-96526066D01*
X110902778Y-96682591D01*
X110873448Y-96718329D01*
X110790186Y-96819786D01*
X110688729Y-96903048D01*
X110652991Y-96932378D01*
X110496466Y-97016043D01*
X110326627Y-97067563D01*
X110260443Y-97074081D01*
X110194260Y-97080600D01*
X110105740Y-97080600D01*
X110039558Y-97074082D01*
X109973373Y-97067563D01*
X109803534Y-97016043D01*
X109647009Y-96932378D01*
X109611271Y-96903048D01*
X109509814Y-96819786D01*
X109426552Y-96718329D01*
X109397222Y-96682591D01*
X109313557Y-96526066D01*
X109262037Y-96356227D01*
X109244641Y-96179600D01*
X109262037Y-96002973D01*
X109313557Y-95833134D01*
X109397222Y-95676609D01*
X109426552Y-95640871D01*
X109509814Y-95539414D01*
X109611271Y-95456152D01*
X109647009Y-95426822D01*
X109803534Y-95343157D01*
X109973373Y-95291637D01*
X110039557Y-95285119D01*
X110105740Y-95278600D01*
X110194260Y-95278600D01*
X110260443Y-95285119D01*
X110260443Y-95285119D01*
G37*
G36*
X91121368Y-94556865D02*
G01*
X91160038Y-94568596D01*
X91195677Y-94587646D01*
X91226917Y-94613283D01*
X91252554Y-94644523D01*
X91271604Y-94680162D01*
X91283335Y-94718832D01*
X91287900Y-94765188D01*
X91287900Y-95841412D01*
X91283335Y-95887768D01*
X91271604Y-95926438D01*
X91252554Y-95962077D01*
X91226917Y-95993317D01*
X91195677Y-96018954D01*
X91160038Y-96038004D01*
X91121368Y-96049735D01*
X91075012Y-96054300D01*
X90423788Y-96054300D01*
X90377432Y-96049735D01*
X90338762Y-96038004D01*
X90303123Y-96018954D01*
X90271883Y-95993317D01*
X90246246Y-95962077D01*
X90227196Y-95926438D01*
X90215465Y-95887768D01*
X90210900Y-95841412D01*
X90210900Y-94765188D01*
X90215465Y-94718832D01*
X90227196Y-94680162D01*
X90246246Y-94644523D01*
X90271883Y-94613283D01*
X90303123Y-94587646D01*
X90338762Y-94568596D01*
X90377432Y-94556865D01*
X90423788Y-94552300D01*
X91075012Y-94552300D01*
X91121368Y-94556865D01*
X91121368Y-94556865D01*
G37*
G36*
X89246368Y-94556865D02*
G01*
X89285038Y-94568596D01*
X89320677Y-94587646D01*
X89351917Y-94613283D01*
X89377554Y-94644523D01*
X89396604Y-94680162D01*
X89408335Y-94718832D01*
X89412900Y-94765188D01*
X89412900Y-95841412D01*
X89408335Y-95887768D01*
X89396604Y-95926438D01*
X89377554Y-95962077D01*
X89351917Y-95993317D01*
X89320677Y-96018954D01*
X89285038Y-96038004D01*
X89246368Y-96049735D01*
X89200012Y-96054300D01*
X88548788Y-96054300D01*
X88502432Y-96049735D01*
X88463762Y-96038004D01*
X88428123Y-96018954D01*
X88396883Y-95993317D01*
X88371246Y-95962077D01*
X88352196Y-95926438D01*
X88340465Y-95887768D01*
X88335900Y-95841412D01*
X88335900Y-94765188D01*
X88340465Y-94718832D01*
X88352196Y-94680162D01*
X88371246Y-94644523D01*
X88396883Y-94613283D01*
X88428123Y-94587646D01*
X88463762Y-94568596D01*
X88502432Y-94556865D01*
X88548788Y-94552300D01*
X89200012Y-94552300D01*
X89246368Y-94556865D01*
X89246368Y-94556865D01*
G37*
G36*
X84816100Y-94694200D02*
G01*
X82514100Y-94694200D01*
X82514100Y-93092200D01*
X84816100Y-93092200D01*
X84816100Y-94694200D01*
X84816100Y-94694200D01*
G37*
G36*
X110260442Y-92745118D02*
G01*
X110326627Y-92751637D01*
X110496466Y-92803157D01*
X110652991Y-92886822D01*
X110688729Y-92916152D01*
X110790186Y-92999414D01*
X110866332Y-93092200D01*
X110902778Y-93136609D01*
X110986443Y-93293134D01*
X111037963Y-93462973D01*
X111055359Y-93639600D01*
X111037963Y-93816227D01*
X110986443Y-93986066D01*
X110902778Y-94142591D01*
X110873448Y-94178329D01*
X110790186Y-94279786D01*
X110688729Y-94363048D01*
X110652991Y-94392378D01*
X110496466Y-94476043D01*
X110326627Y-94527563D01*
X110260443Y-94534081D01*
X110194260Y-94540600D01*
X110105740Y-94540600D01*
X110039557Y-94534081D01*
X109973373Y-94527563D01*
X109803534Y-94476043D01*
X109647009Y-94392378D01*
X109611271Y-94363048D01*
X109509814Y-94279786D01*
X109426552Y-94178329D01*
X109397222Y-94142591D01*
X109313557Y-93986066D01*
X109262037Y-93816227D01*
X109244641Y-93639600D01*
X109262037Y-93462973D01*
X109313557Y-93293134D01*
X109397222Y-93136609D01*
X109433668Y-93092200D01*
X109509814Y-92999414D01*
X109611271Y-92916152D01*
X109647009Y-92886822D01*
X109803534Y-92803157D01*
X109973373Y-92751637D01*
X110039558Y-92745118D01*
X110105740Y-92738600D01*
X110194260Y-92738600D01*
X110260442Y-92745118D01*
X110260442Y-92745118D01*
G37*
G36*
X91264900Y-93822000D02*
G01*
X88612900Y-93822000D01*
X88612900Y-92660000D01*
X91264900Y-92660000D01*
X91264900Y-93822000D01*
X91264900Y-93822000D01*
G37*
G36*
X93571368Y-92531865D02*
G01*
X93610038Y-92543596D01*
X93645677Y-92562646D01*
X93676917Y-92588283D01*
X93702554Y-92619523D01*
X93721604Y-92655162D01*
X93733335Y-92693832D01*
X93737900Y-92740188D01*
X93737900Y-93391412D01*
X93733335Y-93437768D01*
X93721604Y-93476438D01*
X93702554Y-93512077D01*
X93676917Y-93543317D01*
X93645677Y-93568954D01*
X93610038Y-93588004D01*
X93571368Y-93599735D01*
X93525012Y-93604300D01*
X92448788Y-93604300D01*
X92402432Y-93599735D01*
X92363762Y-93588004D01*
X92328123Y-93568954D01*
X92296883Y-93543317D01*
X92271246Y-93512077D01*
X92252196Y-93476438D01*
X92240465Y-93437768D01*
X92235900Y-93391412D01*
X92235900Y-92740188D01*
X92240465Y-92693832D01*
X92252196Y-92655162D01*
X92271246Y-92619523D01*
X92296883Y-92588283D01*
X92328123Y-92562646D01*
X92363762Y-92543596D01*
X92402432Y-92531865D01*
X92448788Y-92527300D01*
X93525012Y-92527300D01*
X93571368Y-92531865D01*
X93571368Y-92531865D01*
G37*
G36*
X101251294Y-90335033D02*
G01*
X101423695Y-90387331D01*
X101582583Y-90472258D01*
X101721849Y-90586551D01*
X101836142Y-90725817D01*
X101921069Y-90884705D01*
X101973367Y-91057106D01*
X101991025Y-91236400D01*
X101973367Y-91415694D01*
X101921069Y-91588095D01*
X101836142Y-91746983D01*
X101721849Y-91886249D01*
X101582583Y-92000542D01*
X101423695Y-92085469D01*
X101251294Y-92137767D01*
X101116931Y-92151000D01*
X101027069Y-92151000D01*
X100892706Y-92137767D01*
X100720305Y-92085469D01*
X100561417Y-92000542D01*
X100422151Y-91886249D01*
X100307858Y-91746983D01*
X100222931Y-91588095D01*
X100170633Y-91415694D01*
X100152975Y-91236400D01*
X100170633Y-91057106D01*
X100222931Y-90884705D01*
X100307858Y-90725817D01*
X100422151Y-90586551D01*
X100561417Y-90472258D01*
X100720305Y-90387331D01*
X100892706Y-90335033D01*
X101027069Y-90321800D01*
X101116931Y-90321800D01*
X101251294Y-90335033D01*
X101251294Y-90335033D01*
G37*
G36*
X103791294Y-90335033D02*
G01*
X103963695Y-90387331D01*
X104122583Y-90472258D01*
X104261849Y-90586551D01*
X104376142Y-90725817D01*
X104461069Y-90884705D01*
X104513367Y-91057106D01*
X104531025Y-91236400D01*
X104513367Y-91415694D01*
X104461069Y-91588095D01*
X104376142Y-91746983D01*
X104261849Y-91886249D01*
X104122583Y-92000542D01*
X103963695Y-92085469D01*
X103791294Y-92137767D01*
X103656931Y-92151000D01*
X103567069Y-92151000D01*
X103432706Y-92137767D01*
X103260305Y-92085469D01*
X103101417Y-92000542D01*
X102962151Y-91886249D01*
X102847858Y-91746983D01*
X102762931Y-91588095D01*
X102710633Y-91415694D01*
X102692975Y-91236400D01*
X102710633Y-91057106D01*
X102762931Y-90884705D01*
X102847858Y-90725817D01*
X102962151Y-90586551D01*
X103101417Y-90472258D01*
X103260305Y-90387331D01*
X103432706Y-90335033D01*
X103567069Y-90321800D01*
X103656931Y-90321800D01*
X103791294Y-90335033D01*
X103791294Y-90335033D01*
G37*
G36*
X110260443Y-90205119D02*
G01*
X110326627Y-90211637D01*
X110496466Y-90263157D01*
X110652991Y-90346822D01*
X110688729Y-90376152D01*
X110790186Y-90459414D01*
X110873448Y-90560871D01*
X110902778Y-90596609D01*
X110986443Y-90753134D01*
X111037963Y-90922973D01*
X111055359Y-91099600D01*
X111037963Y-91276227D01*
X110986443Y-91446066D01*
X110902778Y-91602591D01*
X110896995Y-91609637D01*
X110790186Y-91739786D01*
X110688729Y-91823048D01*
X110652991Y-91852378D01*
X110496466Y-91936043D01*
X110326627Y-91987563D01*
X110260443Y-91994081D01*
X110194260Y-92000600D01*
X110105740Y-92000600D01*
X110039557Y-91994081D01*
X109973373Y-91987563D01*
X109803534Y-91936043D01*
X109647009Y-91852378D01*
X109611271Y-91823048D01*
X109509814Y-91739786D01*
X109403005Y-91609637D01*
X109397222Y-91602591D01*
X109313557Y-91446066D01*
X109262037Y-91276227D01*
X109244641Y-91099600D01*
X109262037Y-90922973D01*
X109313557Y-90753134D01*
X109397222Y-90596609D01*
X109426552Y-90560871D01*
X109509814Y-90459414D01*
X109611271Y-90376152D01*
X109647009Y-90346822D01*
X109803534Y-90263157D01*
X109973373Y-90211637D01*
X110039557Y-90205119D01*
X110105740Y-90198600D01*
X110194260Y-90198600D01*
X110260443Y-90205119D01*
X110260443Y-90205119D01*
G37*
G36*
X93571368Y-90656865D02*
G01*
X93610038Y-90668596D01*
X93645677Y-90687646D01*
X93676917Y-90713283D01*
X93702554Y-90744523D01*
X93721604Y-90780162D01*
X93733335Y-90818832D01*
X93737900Y-90865188D01*
X93737900Y-91516412D01*
X93733335Y-91562768D01*
X93721604Y-91601438D01*
X93702554Y-91637077D01*
X93676917Y-91668317D01*
X93645677Y-91693954D01*
X93610038Y-91713004D01*
X93571368Y-91724735D01*
X93525012Y-91729300D01*
X92448788Y-91729300D01*
X92402432Y-91724735D01*
X92363762Y-91713004D01*
X92328123Y-91693954D01*
X92296883Y-91668317D01*
X92271246Y-91637077D01*
X92252196Y-91601438D01*
X92240465Y-91562768D01*
X92235900Y-91516412D01*
X92235900Y-90865188D01*
X92240465Y-90818832D01*
X92252196Y-90780162D01*
X92271246Y-90744523D01*
X92296883Y-90713283D01*
X92328123Y-90687646D01*
X92363762Y-90668596D01*
X92402432Y-90656865D01*
X92448788Y-90652300D01*
X93525012Y-90652300D01*
X93571368Y-90656865D01*
X93571368Y-90656865D01*
G37*
G36*
X91264900Y-91622000D02*
G01*
X88612900Y-91622000D01*
X88612900Y-90460000D01*
X91264900Y-90460000D01*
X91264900Y-91622000D01*
X91264900Y-91622000D01*
G37*
G36*
X91121368Y-88244965D02*
G01*
X91160038Y-88256696D01*
X91195677Y-88275746D01*
X91226917Y-88301383D01*
X91252554Y-88332623D01*
X91271604Y-88368262D01*
X91283335Y-88406932D01*
X91287900Y-88453288D01*
X91287900Y-89529512D01*
X91283335Y-89575868D01*
X91271604Y-89614538D01*
X91252554Y-89650177D01*
X91226917Y-89681417D01*
X91195677Y-89707054D01*
X91160038Y-89726104D01*
X91121368Y-89737835D01*
X91075012Y-89742400D01*
X90423788Y-89742400D01*
X90377432Y-89737835D01*
X90338762Y-89726104D01*
X90303123Y-89707054D01*
X90271883Y-89681417D01*
X90246246Y-89650177D01*
X90227196Y-89614538D01*
X90215465Y-89575868D01*
X90210900Y-89529512D01*
X90210900Y-88453288D01*
X90215465Y-88406932D01*
X90227196Y-88368262D01*
X90246246Y-88332623D01*
X90271883Y-88301383D01*
X90303123Y-88275746D01*
X90338762Y-88256696D01*
X90377432Y-88244965D01*
X90423788Y-88240400D01*
X91075012Y-88240400D01*
X91121368Y-88244965D01*
X91121368Y-88244965D01*
G37*
G36*
X89246368Y-88244965D02*
G01*
X89285038Y-88256696D01*
X89320677Y-88275746D01*
X89351917Y-88301383D01*
X89377554Y-88332623D01*
X89396604Y-88368262D01*
X89408335Y-88406932D01*
X89412900Y-88453288D01*
X89412900Y-89529512D01*
X89408335Y-89575868D01*
X89396604Y-89614538D01*
X89377554Y-89650177D01*
X89351917Y-89681417D01*
X89320677Y-89707054D01*
X89285038Y-89726104D01*
X89246368Y-89737835D01*
X89200012Y-89742400D01*
X88548788Y-89742400D01*
X88502432Y-89737835D01*
X88463762Y-89726104D01*
X88428123Y-89707054D01*
X88396883Y-89681417D01*
X88371246Y-89650177D01*
X88352196Y-89614538D01*
X88340465Y-89575868D01*
X88335900Y-89529512D01*
X88335900Y-88453288D01*
X88340465Y-88406932D01*
X88352196Y-88368262D01*
X88371246Y-88332623D01*
X88396883Y-88301383D01*
X88428123Y-88275746D01*
X88463762Y-88256696D01*
X88502432Y-88244965D01*
X88548788Y-88240400D01*
X89200012Y-88240400D01*
X89246368Y-88244965D01*
X89246368Y-88244965D01*
G37*
G36*
X101251294Y-87795033D02*
G01*
X101423695Y-87847331D01*
X101582583Y-87932258D01*
X101721849Y-88046551D01*
X101836142Y-88185817D01*
X101921069Y-88344705D01*
X101973367Y-88517106D01*
X101991025Y-88696400D01*
X101973367Y-88875694D01*
X101921069Y-89048095D01*
X101836142Y-89206983D01*
X101721849Y-89346249D01*
X101582583Y-89460542D01*
X101423695Y-89545469D01*
X101251294Y-89597767D01*
X101116931Y-89611000D01*
X101027069Y-89611000D01*
X100892706Y-89597767D01*
X100720305Y-89545469D01*
X100561417Y-89460542D01*
X100422151Y-89346249D01*
X100307858Y-89206983D01*
X100222931Y-89048095D01*
X100170633Y-88875694D01*
X100152975Y-88696400D01*
X100170633Y-88517106D01*
X100222931Y-88344705D01*
X100307858Y-88185817D01*
X100422151Y-88046551D01*
X100561417Y-87932258D01*
X100720305Y-87847331D01*
X100892706Y-87795033D01*
X101027069Y-87781800D01*
X101116931Y-87781800D01*
X101251294Y-87795033D01*
X101251294Y-87795033D01*
G37*
G36*
X103791294Y-87795033D02*
G01*
X103963695Y-87847331D01*
X104122583Y-87932258D01*
X104261849Y-88046551D01*
X104376142Y-88185817D01*
X104461069Y-88344705D01*
X104513367Y-88517106D01*
X104531025Y-88696400D01*
X104513367Y-88875694D01*
X104461069Y-89048095D01*
X104376142Y-89206983D01*
X104261849Y-89346249D01*
X104122583Y-89460542D01*
X103963695Y-89545469D01*
X103791294Y-89597767D01*
X103656931Y-89611000D01*
X103567069Y-89611000D01*
X103432706Y-89597767D01*
X103260305Y-89545469D01*
X103101417Y-89460542D01*
X102962151Y-89346249D01*
X102847858Y-89206983D01*
X102762931Y-89048095D01*
X102710633Y-88875694D01*
X102692975Y-88696400D01*
X102710633Y-88517106D01*
X102762931Y-88344705D01*
X102847858Y-88185817D01*
X102962151Y-88046551D01*
X103101417Y-87932258D01*
X103260305Y-87847331D01*
X103432706Y-87795033D01*
X103567069Y-87781800D01*
X103656931Y-87781800D01*
X103791294Y-87795033D01*
X103791294Y-87795033D01*
G37*
G36*
X111051000Y-89460600D02*
G01*
X109249000Y-89460600D01*
X109249000Y-87658600D01*
X111051000Y-87658600D01*
X111051000Y-89460600D01*
X111051000Y-89460600D01*
G37*
G36*
X84816100Y-88294200D02*
G01*
X82514100Y-88294200D01*
X82514100Y-86692200D01*
X84816100Y-86692200D01*
X84816100Y-88294200D01*
X84816100Y-88294200D01*
G37*
G36*
X91526668Y-86258065D02*
G01*
X91565338Y-86269796D01*
X91600977Y-86288846D01*
X91632217Y-86314483D01*
X91657854Y-86345723D01*
X91676904Y-86381362D01*
X91688635Y-86420032D01*
X91693200Y-86466388D01*
X91693200Y-87117612D01*
X91688635Y-87163968D01*
X91676904Y-87202638D01*
X91657854Y-87238277D01*
X91632217Y-87269517D01*
X91600977Y-87295154D01*
X91565338Y-87314204D01*
X91526668Y-87325935D01*
X91480312Y-87330500D01*
X90404088Y-87330500D01*
X90357732Y-87325935D01*
X90319062Y-87314204D01*
X90283423Y-87295154D01*
X90252183Y-87269517D01*
X90226546Y-87238277D01*
X90207496Y-87202638D01*
X90195765Y-87163968D01*
X90191200Y-87117612D01*
X90191200Y-86466388D01*
X90195765Y-86420032D01*
X90207496Y-86381362D01*
X90226546Y-86345723D01*
X90252183Y-86314483D01*
X90283423Y-86288846D01*
X90319062Y-86269796D01*
X90357732Y-86258065D01*
X90404088Y-86253500D01*
X91480312Y-86253500D01*
X91526668Y-86258065D01*
X91526668Y-86258065D01*
G37*
G36*
X89469268Y-86255765D02*
G01*
X89507938Y-86267496D01*
X89543577Y-86286546D01*
X89574817Y-86312183D01*
X89600454Y-86343423D01*
X89619504Y-86379062D01*
X89631235Y-86417732D01*
X89635800Y-86464088D01*
X89635800Y-87115312D01*
X89631235Y-87161668D01*
X89619504Y-87200338D01*
X89600454Y-87235977D01*
X89574817Y-87267217D01*
X89543577Y-87292854D01*
X89507938Y-87311904D01*
X89469268Y-87323635D01*
X89422912Y-87328200D01*
X88346688Y-87328200D01*
X88300332Y-87323635D01*
X88261662Y-87311904D01*
X88226023Y-87292854D01*
X88194783Y-87267217D01*
X88169146Y-87235977D01*
X88150096Y-87200338D01*
X88138365Y-87161668D01*
X88133800Y-87115312D01*
X88133800Y-86464088D01*
X88138365Y-86417732D01*
X88150096Y-86379062D01*
X88169146Y-86343423D01*
X88194783Y-86312183D01*
X88226023Y-86286546D01*
X88261662Y-86267496D01*
X88300332Y-86255765D01*
X88346688Y-86251200D01*
X89422912Y-86251200D01*
X89469268Y-86255765D01*
X89469268Y-86255765D01*
G37*
G36*
X103791294Y-85255033D02*
G01*
X103963695Y-85307331D01*
X104122583Y-85392258D01*
X104261849Y-85506551D01*
X104376142Y-85645817D01*
X104461069Y-85804705D01*
X104513367Y-85977106D01*
X104531025Y-86156400D01*
X104513367Y-86335694D01*
X104461069Y-86508095D01*
X104376142Y-86666983D01*
X104261849Y-86806249D01*
X104122583Y-86920542D01*
X103963695Y-87005469D01*
X103791294Y-87057767D01*
X103656931Y-87071000D01*
X103567069Y-87071000D01*
X103432706Y-87057767D01*
X103260305Y-87005469D01*
X103101417Y-86920542D01*
X102962151Y-86806249D01*
X102847858Y-86666983D01*
X102762931Y-86508095D01*
X102710633Y-86335694D01*
X102692975Y-86156400D01*
X102710633Y-85977106D01*
X102762931Y-85804705D01*
X102847858Y-85645817D01*
X102962151Y-85506551D01*
X103101417Y-85392258D01*
X103260305Y-85307331D01*
X103432706Y-85255033D01*
X103567069Y-85241800D01*
X103656931Y-85241800D01*
X103791294Y-85255033D01*
X103791294Y-85255033D01*
G37*
G36*
X101251294Y-85255033D02*
G01*
X101423695Y-85307331D01*
X101582583Y-85392258D01*
X101721849Y-85506551D01*
X101836142Y-85645817D01*
X101921069Y-85804705D01*
X101973367Y-85977106D01*
X101991025Y-86156400D01*
X101973367Y-86335694D01*
X101921069Y-86508095D01*
X101836142Y-86666983D01*
X101721849Y-86806249D01*
X101582583Y-86920542D01*
X101423695Y-87005469D01*
X101251294Y-87057767D01*
X101116931Y-87071000D01*
X101027069Y-87071000D01*
X100892706Y-87057767D01*
X100720305Y-87005469D01*
X100561417Y-86920542D01*
X100422151Y-86806249D01*
X100307858Y-86666983D01*
X100222931Y-86508095D01*
X100170633Y-86335694D01*
X100152975Y-86156400D01*
X100170633Y-85977106D01*
X100222931Y-85804705D01*
X100307858Y-85645817D01*
X100422151Y-85506551D01*
X100561417Y-85392258D01*
X100720305Y-85307331D01*
X100892706Y-85255033D01*
X101027069Y-85241800D01*
X101116931Y-85241800D01*
X101251294Y-85255033D01*
X101251294Y-85255033D01*
G37*
G36*
X87467100Y-85578400D02*
G01*
X86465100Y-85578400D01*
X86465100Y-84276400D01*
X87467100Y-84276400D01*
X87467100Y-85578400D01*
X87467100Y-85578400D01*
G37*
G36*
X84167100Y-85578400D02*
G01*
X83165100Y-85578400D01*
X83165100Y-84276400D01*
X84167100Y-84276400D01*
X84167100Y-85578400D01*
X84167100Y-85578400D01*
G37*
G36*
X91526668Y-84383065D02*
G01*
X91565338Y-84394796D01*
X91600977Y-84413846D01*
X91632217Y-84439483D01*
X91657854Y-84470723D01*
X91676904Y-84506362D01*
X91688635Y-84545032D01*
X91693200Y-84591388D01*
X91693200Y-85242612D01*
X91688635Y-85288968D01*
X91676904Y-85327638D01*
X91657854Y-85363277D01*
X91632217Y-85394517D01*
X91600977Y-85420154D01*
X91565338Y-85439204D01*
X91526668Y-85450935D01*
X91480312Y-85455500D01*
X90404088Y-85455500D01*
X90357732Y-85450935D01*
X90319062Y-85439204D01*
X90283423Y-85420154D01*
X90252183Y-85394517D01*
X90226546Y-85363277D01*
X90207496Y-85327638D01*
X90195765Y-85288968D01*
X90191200Y-85242612D01*
X90191200Y-84591388D01*
X90195765Y-84545032D01*
X90207496Y-84506362D01*
X90226546Y-84470723D01*
X90252183Y-84439483D01*
X90283423Y-84413846D01*
X90319062Y-84394796D01*
X90357732Y-84383065D01*
X90404088Y-84378500D01*
X91480312Y-84378500D01*
X91526668Y-84383065D01*
X91526668Y-84383065D01*
G37*
G36*
X89469268Y-84380765D02*
G01*
X89507938Y-84392496D01*
X89543577Y-84411546D01*
X89574817Y-84437183D01*
X89600454Y-84468423D01*
X89619504Y-84504062D01*
X89631235Y-84542732D01*
X89635800Y-84589088D01*
X89635800Y-85240312D01*
X89631235Y-85286668D01*
X89619504Y-85325338D01*
X89600454Y-85360977D01*
X89574817Y-85392217D01*
X89543577Y-85417854D01*
X89507938Y-85436904D01*
X89469268Y-85448635D01*
X89422912Y-85453200D01*
X88346688Y-85453200D01*
X88300332Y-85448635D01*
X88261662Y-85436904D01*
X88226023Y-85417854D01*
X88194783Y-85392217D01*
X88169146Y-85360977D01*
X88150096Y-85325338D01*
X88138365Y-85286668D01*
X88133800Y-85240312D01*
X88133800Y-84589088D01*
X88138365Y-84542732D01*
X88150096Y-84504062D01*
X88169146Y-84468423D01*
X88194783Y-84437183D01*
X88226023Y-84411546D01*
X88261662Y-84392496D01*
X88300332Y-84380765D01*
X88346688Y-84376200D01*
X89422912Y-84376200D01*
X89469268Y-84380765D01*
X89469268Y-84380765D01*
G37*
G36*
X101251294Y-82715033D02*
G01*
X101423695Y-82767331D01*
X101582583Y-82852258D01*
X101721849Y-82966551D01*
X101836142Y-83105817D01*
X101921069Y-83264705D01*
X101973367Y-83437106D01*
X101991025Y-83616400D01*
X101973367Y-83795694D01*
X101921069Y-83968095D01*
X101836142Y-84126983D01*
X101721849Y-84266249D01*
X101582583Y-84380542D01*
X101423695Y-84465469D01*
X101251294Y-84517767D01*
X101116931Y-84531000D01*
X101027069Y-84531000D01*
X100892706Y-84517767D01*
X100720305Y-84465469D01*
X100561417Y-84380542D01*
X100422151Y-84266249D01*
X100307858Y-84126983D01*
X100222931Y-83968095D01*
X100170633Y-83795694D01*
X100152975Y-83616400D01*
X100170633Y-83437106D01*
X100222931Y-83264705D01*
X100307858Y-83105817D01*
X100422151Y-82966551D01*
X100561417Y-82852258D01*
X100720305Y-82767331D01*
X100892706Y-82715033D01*
X101027069Y-82701800D01*
X101116931Y-82701800D01*
X101251294Y-82715033D01*
X101251294Y-82715033D01*
G37*
G36*
X103791294Y-82715033D02*
G01*
X103963695Y-82767331D01*
X104122583Y-82852258D01*
X104261849Y-82966551D01*
X104376142Y-83105817D01*
X104461069Y-83264705D01*
X104513367Y-83437106D01*
X104531025Y-83616400D01*
X104513367Y-83795694D01*
X104461069Y-83968095D01*
X104376142Y-84126983D01*
X104261849Y-84266249D01*
X104122583Y-84380542D01*
X103963695Y-84465469D01*
X103791294Y-84517767D01*
X103656931Y-84531000D01*
X103567069Y-84531000D01*
X103432706Y-84517767D01*
X103260305Y-84465469D01*
X103101417Y-84380542D01*
X102962151Y-84266249D01*
X102847858Y-84126983D01*
X102762931Y-83968095D01*
X102710633Y-83795694D01*
X102692975Y-83616400D01*
X102710633Y-83437106D01*
X102762931Y-83264705D01*
X102847858Y-83105817D01*
X102962151Y-82966551D01*
X103101417Y-82852258D01*
X103260305Y-82767331D01*
X103432706Y-82715033D01*
X103567069Y-82701800D01*
X103656931Y-82701800D01*
X103791294Y-82715033D01*
X103791294Y-82715033D01*
G37*
G36*
X114511294Y-80175033D02*
G01*
X114683695Y-80227331D01*
X114842583Y-80312258D01*
X114981849Y-80426551D01*
X115096142Y-80565817D01*
X115181069Y-80724705D01*
X115233367Y-80897106D01*
X115251025Y-81076400D01*
X115233367Y-81255694D01*
X115181069Y-81428095D01*
X115096142Y-81586983D01*
X114981849Y-81726249D01*
X114842583Y-81840542D01*
X114683695Y-81925469D01*
X114511294Y-81977767D01*
X114376931Y-81991000D01*
X114287069Y-81991000D01*
X114152706Y-81977767D01*
X113980305Y-81925469D01*
X113821417Y-81840542D01*
X113682151Y-81726249D01*
X113567858Y-81586983D01*
X113482931Y-81428095D01*
X113430633Y-81255694D01*
X113412975Y-81076400D01*
X113430633Y-80897106D01*
X113482931Y-80724705D01*
X113567858Y-80565817D01*
X113682151Y-80426551D01*
X113821417Y-80312258D01*
X113980305Y-80227331D01*
X114152706Y-80175033D01*
X114287069Y-80161800D01*
X114376931Y-80161800D01*
X114511294Y-80175033D01*
X114511294Y-80175033D01*
G37*
G36*
X111971294Y-80175033D02*
G01*
X112143695Y-80227331D01*
X112302583Y-80312258D01*
X112441849Y-80426551D01*
X112556142Y-80565817D01*
X112641069Y-80724705D01*
X112693367Y-80897106D01*
X112711025Y-81076400D01*
X112693367Y-81255694D01*
X112641069Y-81428095D01*
X112556142Y-81586983D01*
X112441849Y-81726249D01*
X112302583Y-81840542D01*
X112143695Y-81925469D01*
X111971294Y-81977767D01*
X111836931Y-81991000D01*
X111747069Y-81991000D01*
X111612706Y-81977767D01*
X111440305Y-81925469D01*
X111281417Y-81840542D01*
X111142151Y-81726249D01*
X111027858Y-81586983D01*
X110942931Y-81428095D01*
X110890633Y-81255694D01*
X110872975Y-81076400D01*
X110890633Y-80897106D01*
X110942931Y-80724705D01*
X111027858Y-80565817D01*
X111142151Y-80426551D01*
X111281417Y-80312258D01*
X111440305Y-80227331D01*
X111612706Y-80175033D01*
X111747069Y-80161800D01*
X111836931Y-80161800D01*
X111971294Y-80175033D01*
X111971294Y-80175033D01*
G37*
G36*
X101251294Y-80175033D02*
G01*
X101423695Y-80227331D01*
X101582583Y-80312258D01*
X101721849Y-80426551D01*
X101836142Y-80565817D01*
X101921069Y-80724705D01*
X101973367Y-80897106D01*
X101991025Y-81076400D01*
X101973367Y-81255694D01*
X101921069Y-81428095D01*
X101836142Y-81586983D01*
X101721849Y-81726249D01*
X101582583Y-81840542D01*
X101423695Y-81925469D01*
X101251294Y-81977767D01*
X101116931Y-81991000D01*
X101027069Y-81991000D01*
X100892706Y-81977767D01*
X100720305Y-81925469D01*
X100561417Y-81840542D01*
X100422151Y-81726249D01*
X100307858Y-81586983D01*
X100222931Y-81428095D01*
X100170633Y-81255694D01*
X100152975Y-81076400D01*
X100170633Y-80897106D01*
X100222931Y-80724705D01*
X100307858Y-80565817D01*
X100422151Y-80426551D01*
X100561417Y-80312258D01*
X100720305Y-80227331D01*
X100892706Y-80175033D01*
X101027069Y-80161800D01*
X101116931Y-80161800D01*
X101251294Y-80175033D01*
X101251294Y-80175033D01*
G37*
G36*
X103791294Y-80175033D02*
G01*
X103963695Y-80227331D01*
X104122583Y-80312258D01*
X104261849Y-80426551D01*
X104376142Y-80565817D01*
X104461069Y-80724705D01*
X104513367Y-80897106D01*
X104531025Y-81076400D01*
X104513367Y-81255694D01*
X104461069Y-81428095D01*
X104376142Y-81586983D01*
X104261849Y-81726249D01*
X104122583Y-81840542D01*
X103963695Y-81925469D01*
X103791294Y-81977767D01*
X103656931Y-81991000D01*
X103567069Y-81991000D01*
X103432706Y-81977767D01*
X103260305Y-81925469D01*
X103101417Y-81840542D01*
X102962151Y-81726249D01*
X102847858Y-81586983D01*
X102762931Y-81428095D01*
X102710633Y-81255694D01*
X102692975Y-81076400D01*
X102710633Y-80897106D01*
X102762931Y-80724705D01*
X102847858Y-80565817D01*
X102962151Y-80426551D01*
X103101417Y-80312258D01*
X103260305Y-80227331D01*
X103432706Y-80175033D01*
X103567069Y-80161800D01*
X103656931Y-80161800D01*
X103791294Y-80175033D01*
X103791294Y-80175033D01*
G37*
G36*
X95467142Y-79740318D02*
G01*
X95533327Y-79746837D01*
X95703166Y-79798357D01*
X95859691Y-79882022D01*
X95895429Y-79911352D01*
X95996886Y-79994614D01*
X96080148Y-80096071D01*
X96109478Y-80131809D01*
X96193143Y-80288334D01*
X96244663Y-80458173D01*
X96262059Y-80634800D01*
X96244663Y-80811427D01*
X96193143Y-80981266D01*
X96109478Y-81137791D01*
X96080148Y-81173529D01*
X95996886Y-81274986D01*
X95895429Y-81358248D01*
X95859691Y-81387578D01*
X95703166Y-81471243D01*
X95533327Y-81522763D01*
X95467142Y-81529282D01*
X95400960Y-81535800D01*
X95312440Y-81535800D01*
X95246258Y-81529282D01*
X95180073Y-81522763D01*
X95010234Y-81471243D01*
X94853709Y-81387578D01*
X94817971Y-81358248D01*
X94716514Y-81274986D01*
X94633252Y-81173529D01*
X94603922Y-81137791D01*
X94520257Y-80981266D01*
X94468737Y-80811427D01*
X94451341Y-80634800D01*
X94468737Y-80458173D01*
X94520257Y-80288334D01*
X94603922Y-80131809D01*
X94633252Y-80096071D01*
X94716514Y-79994614D01*
X94817971Y-79911352D01*
X94853709Y-79882022D01*
X95010234Y-79798357D01*
X95180073Y-79746837D01*
X95246258Y-79740318D01*
X95312440Y-79733800D01*
X95400960Y-79733800D01*
X95467142Y-79740318D01*
X95467142Y-79740318D01*
G37*
G36*
X91845042Y-79740318D02*
G01*
X91911227Y-79746837D01*
X92081066Y-79798357D01*
X92237591Y-79882022D01*
X92273329Y-79911352D01*
X92374786Y-79994614D01*
X92458048Y-80096071D01*
X92487378Y-80131809D01*
X92571043Y-80288334D01*
X92622563Y-80458173D01*
X92639959Y-80634800D01*
X92622563Y-80811427D01*
X92571043Y-80981266D01*
X92487378Y-81137791D01*
X92458048Y-81173529D01*
X92374786Y-81274986D01*
X92273329Y-81358248D01*
X92237591Y-81387578D01*
X92081066Y-81471243D01*
X91911227Y-81522763D01*
X91845042Y-81529282D01*
X91778860Y-81535800D01*
X91690340Y-81535800D01*
X91624158Y-81529282D01*
X91557973Y-81522763D01*
X91388134Y-81471243D01*
X91231609Y-81387578D01*
X91195871Y-81358248D01*
X91094414Y-81274986D01*
X91011152Y-81173529D01*
X90981822Y-81137791D01*
X90898157Y-80981266D01*
X90846637Y-80811427D01*
X90829241Y-80634800D01*
X90846637Y-80458173D01*
X90898157Y-80288334D01*
X90981822Y-80131809D01*
X91011152Y-80096071D01*
X91094414Y-79994614D01*
X91195871Y-79911352D01*
X91231609Y-79882022D01*
X91388134Y-79798357D01*
X91557973Y-79746837D01*
X91624158Y-79740318D01*
X91690340Y-79733800D01*
X91778860Y-79733800D01*
X91845042Y-79740318D01*
X91845042Y-79740318D01*
G37*
G36*
X85727200Y-81109700D02*
G01*
X83825200Y-81109700D01*
X83825200Y-79907700D01*
X85727200Y-79907700D01*
X85727200Y-81109700D01*
X85727200Y-81109700D01*
G37*
G36*
X79527200Y-81109700D02*
G01*
X77625200Y-81109700D01*
X77625200Y-79907700D01*
X79527200Y-79907700D01*
X79527200Y-81109700D01*
X79527200Y-81109700D01*
G37*
G36*
X87444538Y-80161916D02*
G01*
X87465157Y-80168171D01*
X87484153Y-80178324D01*
X87500808Y-80191992D01*
X87514476Y-80208647D01*
X87524629Y-80227643D01*
X87530884Y-80248262D01*
X87533600Y-80275840D01*
X87533600Y-80734560D01*
X87530884Y-80762138D01*
X87524629Y-80782757D01*
X87514476Y-80801753D01*
X87500808Y-80818408D01*
X87484153Y-80832076D01*
X87465157Y-80842229D01*
X87444538Y-80848484D01*
X87416960Y-80851200D01*
X86908240Y-80851200D01*
X86880662Y-80848484D01*
X86860043Y-80842229D01*
X86841047Y-80832076D01*
X86824392Y-80818408D01*
X86810724Y-80801753D01*
X86800571Y-80782757D01*
X86794316Y-80762138D01*
X86791600Y-80734560D01*
X86791600Y-80275840D01*
X86794316Y-80248262D01*
X86800571Y-80227643D01*
X86810724Y-80208647D01*
X86824392Y-80191992D01*
X86841047Y-80178324D01*
X86860043Y-80168171D01*
X86880662Y-80161916D01*
X86908240Y-80159200D01*
X87416960Y-80159200D01*
X87444538Y-80161916D01*
X87444538Y-80161916D01*
G37*
G36*
X87444538Y-79191916D02*
G01*
X87465157Y-79198171D01*
X87484153Y-79208324D01*
X87500808Y-79221992D01*
X87514476Y-79238647D01*
X87524629Y-79257643D01*
X87530884Y-79278262D01*
X87533600Y-79305840D01*
X87533600Y-79764560D01*
X87530884Y-79792138D01*
X87524629Y-79812757D01*
X87514476Y-79831753D01*
X87500808Y-79848408D01*
X87484153Y-79862076D01*
X87465157Y-79872229D01*
X87444538Y-79878484D01*
X87416960Y-79881200D01*
X86908240Y-79881200D01*
X86880662Y-79878484D01*
X86860043Y-79872229D01*
X86841047Y-79862076D01*
X86824392Y-79848408D01*
X86810724Y-79831753D01*
X86800571Y-79812757D01*
X86794316Y-79792138D01*
X86791600Y-79764560D01*
X86791600Y-79305840D01*
X86794316Y-79278262D01*
X86800571Y-79257643D01*
X86810724Y-79238647D01*
X86824392Y-79221992D01*
X86841047Y-79208324D01*
X86860043Y-79198171D01*
X86880662Y-79191916D01*
X86908240Y-79189200D01*
X87416960Y-79189200D01*
X87444538Y-79191916D01*
X87444538Y-79191916D01*
G37*
G36*
X111971294Y-77635033D02*
G01*
X112143695Y-77687331D01*
X112302583Y-77772258D01*
X112441849Y-77886551D01*
X112556142Y-78025817D01*
X112641069Y-78184705D01*
X112693367Y-78357106D01*
X112711025Y-78536400D01*
X112693367Y-78715694D01*
X112641069Y-78888095D01*
X112556142Y-79046983D01*
X112441849Y-79186249D01*
X112302583Y-79300542D01*
X112143695Y-79385469D01*
X111971294Y-79437767D01*
X111836931Y-79451000D01*
X111747069Y-79451000D01*
X111612706Y-79437767D01*
X111440305Y-79385469D01*
X111281417Y-79300542D01*
X111142151Y-79186249D01*
X111027858Y-79046983D01*
X110942931Y-78888095D01*
X110890633Y-78715694D01*
X110872975Y-78536400D01*
X110890633Y-78357106D01*
X110942931Y-78184705D01*
X111027858Y-78025817D01*
X111142151Y-77886551D01*
X111281417Y-77772258D01*
X111440305Y-77687331D01*
X111612706Y-77635033D01*
X111747069Y-77621800D01*
X111836931Y-77621800D01*
X111971294Y-77635033D01*
X111971294Y-77635033D01*
G37*
G36*
X101251294Y-77635033D02*
G01*
X101423695Y-77687331D01*
X101582583Y-77772258D01*
X101721849Y-77886551D01*
X101836142Y-78025817D01*
X101921069Y-78184705D01*
X101973367Y-78357106D01*
X101991025Y-78536400D01*
X101973367Y-78715694D01*
X101921069Y-78888095D01*
X101836142Y-79046983D01*
X101721849Y-79186249D01*
X101582583Y-79300542D01*
X101423695Y-79385469D01*
X101251294Y-79437767D01*
X101116931Y-79451000D01*
X101027069Y-79451000D01*
X100892706Y-79437767D01*
X100720305Y-79385469D01*
X100561417Y-79300542D01*
X100422151Y-79186249D01*
X100307858Y-79046983D01*
X100222931Y-78888095D01*
X100170633Y-78715694D01*
X100152975Y-78536400D01*
X100170633Y-78357106D01*
X100222931Y-78184705D01*
X100307858Y-78025817D01*
X100422151Y-77886551D01*
X100561417Y-77772258D01*
X100720305Y-77687331D01*
X100892706Y-77635033D01*
X101027069Y-77621800D01*
X101116931Y-77621800D01*
X101251294Y-77635033D01*
X101251294Y-77635033D01*
G37*
G36*
X103791294Y-77635033D02*
G01*
X103963695Y-77687331D01*
X104122583Y-77772258D01*
X104261849Y-77886551D01*
X104376142Y-78025817D01*
X104461069Y-78184705D01*
X104513367Y-78357106D01*
X104531025Y-78536400D01*
X104513367Y-78715694D01*
X104461069Y-78888095D01*
X104376142Y-79046983D01*
X104261849Y-79186249D01*
X104122583Y-79300542D01*
X103963695Y-79385469D01*
X103791294Y-79437767D01*
X103656931Y-79451000D01*
X103567069Y-79451000D01*
X103432706Y-79437767D01*
X103260305Y-79385469D01*
X103101417Y-79300542D01*
X102962151Y-79186249D01*
X102847858Y-79046983D01*
X102762931Y-78888095D01*
X102710633Y-78715694D01*
X102692975Y-78536400D01*
X102710633Y-78357106D01*
X102762931Y-78184705D01*
X102847858Y-78025817D01*
X102962151Y-77886551D01*
X103101417Y-77772258D01*
X103260305Y-77687331D01*
X103432706Y-77635033D01*
X103567069Y-77621800D01*
X103656931Y-77621800D01*
X103791294Y-77635033D01*
X103791294Y-77635033D01*
G37*
G36*
X114511294Y-77635033D02*
G01*
X114683695Y-77687331D01*
X114842583Y-77772258D01*
X114981849Y-77886551D01*
X115096142Y-78025817D01*
X115181069Y-78184705D01*
X115233367Y-78357106D01*
X115251025Y-78536400D01*
X115233367Y-78715694D01*
X115181069Y-78888095D01*
X115096142Y-79046983D01*
X114981849Y-79186249D01*
X114842583Y-79300542D01*
X114683695Y-79385469D01*
X114511294Y-79437767D01*
X114376931Y-79451000D01*
X114287069Y-79451000D01*
X114152706Y-79437767D01*
X113980305Y-79385469D01*
X113821417Y-79300542D01*
X113682151Y-79186249D01*
X113567858Y-79046983D01*
X113482931Y-78888095D01*
X113430633Y-78715694D01*
X113412975Y-78536400D01*
X113430633Y-78357106D01*
X113482931Y-78184705D01*
X113567858Y-78025817D01*
X113682151Y-77886551D01*
X113821417Y-77772258D01*
X113980305Y-77687331D01*
X114152706Y-77635033D01*
X114287069Y-77621800D01*
X114376931Y-77621800D01*
X114511294Y-77635033D01*
X114511294Y-77635033D01*
G37*
G36*
X95467142Y-77200318D02*
G01*
X95533327Y-77206837D01*
X95703166Y-77258357D01*
X95859691Y-77342022D01*
X95895429Y-77371352D01*
X95996886Y-77454614D01*
X96061129Y-77532896D01*
X96109478Y-77591809D01*
X96193143Y-77748334D01*
X96244663Y-77918173D01*
X96262059Y-78094800D01*
X96244663Y-78271427D01*
X96193143Y-78441266D01*
X96109478Y-78597791D01*
X96080148Y-78633529D01*
X95996886Y-78734986D01*
X95895429Y-78818248D01*
X95859691Y-78847578D01*
X95703166Y-78931243D01*
X95533327Y-78982763D01*
X95467143Y-78989281D01*
X95400960Y-78995800D01*
X95312440Y-78995800D01*
X95246257Y-78989281D01*
X95180073Y-78982763D01*
X95010234Y-78931243D01*
X94853709Y-78847578D01*
X94817971Y-78818248D01*
X94716514Y-78734986D01*
X94633252Y-78633529D01*
X94603922Y-78597791D01*
X94520257Y-78441266D01*
X94468737Y-78271427D01*
X94451341Y-78094800D01*
X94468737Y-77918173D01*
X94520257Y-77748334D01*
X94603922Y-77591809D01*
X94652271Y-77532896D01*
X94716514Y-77454614D01*
X94817971Y-77371352D01*
X94853709Y-77342022D01*
X95010234Y-77258357D01*
X95180073Y-77206837D01*
X95246258Y-77200318D01*
X95312440Y-77193800D01*
X95400960Y-77193800D01*
X95467142Y-77200318D01*
X95467142Y-77200318D01*
G37*
G36*
X91845042Y-77200318D02*
G01*
X91911227Y-77206837D01*
X92081066Y-77258357D01*
X92237591Y-77342022D01*
X92273329Y-77371352D01*
X92374786Y-77454614D01*
X92439029Y-77532896D01*
X92487378Y-77591809D01*
X92571043Y-77748334D01*
X92622563Y-77918173D01*
X92639959Y-78094800D01*
X92622563Y-78271427D01*
X92571043Y-78441266D01*
X92487378Y-78597791D01*
X92458048Y-78633529D01*
X92374786Y-78734986D01*
X92273329Y-78818248D01*
X92237591Y-78847578D01*
X92081066Y-78931243D01*
X91911227Y-78982763D01*
X91845043Y-78989281D01*
X91778860Y-78995800D01*
X91690340Y-78995800D01*
X91624157Y-78989281D01*
X91557973Y-78982763D01*
X91388134Y-78931243D01*
X91231609Y-78847578D01*
X91195871Y-78818248D01*
X91094414Y-78734986D01*
X91011152Y-78633529D01*
X90981822Y-78597791D01*
X90898157Y-78441266D01*
X90846637Y-78271427D01*
X90829241Y-78094800D01*
X90846637Y-77918173D01*
X90898157Y-77748334D01*
X90981822Y-77591809D01*
X91030171Y-77532896D01*
X91094414Y-77454614D01*
X91195871Y-77371352D01*
X91231609Y-77342022D01*
X91388134Y-77258357D01*
X91557973Y-77206837D01*
X91624158Y-77200318D01*
X91690340Y-77193800D01*
X91778860Y-77193800D01*
X91845042Y-77200318D01*
X91845042Y-77200318D01*
G37*
G36*
X87444538Y-77428816D02*
G01*
X87465157Y-77435071D01*
X87484153Y-77445224D01*
X87500808Y-77458892D01*
X87514476Y-77475547D01*
X87524629Y-77494543D01*
X87530884Y-77515162D01*
X87533600Y-77542740D01*
X87533600Y-78001460D01*
X87530884Y-78029038D01*
X87524629Y-78049657D01*
X87514476Y-78068653D01*
X87500808Y-78085308D01*
X87484153Y-78098976D01*
X87465157Y-78109129D01*
X87444538Y-78115384D01*
X87416960Y-78118100D01*
X86908240Y-78118100D01*
X86880662Y-78115384D01*
X86860043Y-78109129D01*
X86841047Y-78098976D01*
X86824392Y-78085308D01*
X86810724Y-78068653D01*
X86800571Y-78049657D01*
X86794316Y-78029038D01*
X86791600Y-78001460D01*
X86791600Y-77542740D01*
X86794316Y-77515162D01*
X86800571Y-77494543D01*
X86810724Y-77475547D01*
X86824392Y-77458892D01*
X86841047Y-77445224D01*
X86860043Y-77435071D01*
X86880662Y-77428816D01*
X86908240Y-77426100D01*
X87416960Y-77426100D01*
X87444538Y-77428816D01*
X87444538Y-77428816D01*
G37*
G36*
X85727200Y-77409700D02*
G01*
X83825200Y-77409700D01*
X83825200Y-76207700D01*
X85727200Y-76207700D01*
X85727200Y-77409700D01*
X85727200Y-77409700D01*
G37*
G36*
X79527200Y-77409700D02*
G01*
X77625200Y-77409700D01*
X77625200Y-76207700D01*
X79527200Y-76207700D01*
X79527200Y-77409700D01*
X79527200Y-77409700D01*
G37*
G36*
X87444538Y-76458816D02*
G01*
X87465157Y-76465071D01*
X87484153Y-76475224D01*
X87500808Y-76488892D01*
X87514476Y-76505547D01*
X87524629Y-76524543D01*
X87530884Y-76545162D01*
X87533600Y-76572740D01*
X87533600Y-77031460D01*
X87530884Y-77059038D01*
X87524629Y-77079657D01*
X87514476Y-77098653D01*
X87500808Y-77115308D01*
X87484153Y-77128976D01*
X87465157Y-77139129D01*
X87444538Y-77145384D01*
X87416960Y-77148100D01*
X86908240Y-77148100D01*
X86880662Y-77145384D01*
X86860043Y-77139129D01*
X86841047Y-77128976D01*
X86824392Y-77115308D01*
X86810724Y-77098653D01*
X86800571Y-77079657D01*
X86794316Y-77059038D01*
X86791600Y-77031460D01*
X86791600Y-76572740D01*
X86794316Y-76545162D01*
X86800571Y-76524543D01*
X86810724Y-76505547D01*
X86824392Y-76488892D01*
X86841047Y-76475224D01*
X86860043Y-76465071D01*
X86880662Y-76458816D01*
X86908240Y-76456100D01*
X87416960Y-76456100D01*
X87444538Y-76458816D01*
X87444538Y-76458816D01*
G37*
G36*
X114511294Y-75095033D02*
G01*
X114683695Y-75147331D01*
X114842583Y-75232258D01*
X114981849Y-75346551D01*
X115096142Y-75485817D01*
X115181069Y-75644705D01*
X115233367Y-75817106D01*
X115251025Y-75996400D01*
X115233367Y-76175694D01*
X115181069Y-76348095D01*
X115096142Y-76506983D01*
X114981849Y-76646249D01*
X114842583Y-76760542D01*
X114683695Y-76845469D01*
X114511294Y-76897767D01*
X114376931Y-76911000D01*
X114287069Y-76911000D01*
X114152706Y-76897767D01*
X113980305Y-76845469D01*
X113821417Y-76760542D01*
X113682151Y-76646249D01*
X113567858Y-76506983D01*
X113482931Y-76348095D01*
X113430633Y-76175694D01*
X113412975Y-75996400D01*
X113430633Y-75817106D01*
X113482931Y-75644705D01*
X113567858Y-75485817D01*
X113682151Y-75346551D01*
X113821417Y-75232258D01*
X113980305Y-75147331D01*
X114152706Y-75095033D01*
X114287069Y-75081800D01*
X114376931Y-75081800D01*
X114511294Y-75095033D01*
X114511294Y-75095033D01*
G37*
G36*
X111971294Y-75095033D02*
G01*
X112143695Y-75147331D01*
X112302583Y-75232258D01*
X112441849Y-75346551D01*
X112556142Y-75485817D01*
X112641069Y-75644705D01*
X112693367Y-75817106D01*
X112711025Y-75996400D01*
X112693367Y-76175694D01*
X112641069Y-76348095D01*
X112556142Y-76506983D01*
X112441849Y-76646249D01*
X112302583Y-76760542D01*
X112143695Y-76845469D01*
X111971294Y-76897767D01*
X111836931Y-76911000D01*
X111747069Y-76911000D01*
X111612706Y-76897767D01*
X111440305Y-76845469D01*
X111281417Y-76760542D01*
X111142151Y-76646249D01*
X111027858Y-76506983D01*
X110942931Y-76348095D01*
X110890633Y-76175694D01*
X110872975Y-75996400D01*
X110890633Y-75817106D01*
X110942931Y-75644705D01*
X111027858Y-75485817D01*
X111142151Y-75346551D01*
X111281417Y-75232258D01*
X111440305Y-75147331D01*
X111612706Y-75095033D01*
X111747069Y-75081800D01*
X111836931Y-75081800D01*
X111971294Y-75095033D01*
X111971294Y-75095033D01*
G37*
G36*
X103791294Y-75095033D02*
G01*
X103963695Y-75147331D01*
X104122583Y-75232258D01*
X104261849Y-75346551D01*
X104376142Y-75485817D01*
X104461069Y-75644705D01*
X104513367Y-75817106D01*
X104531025Y-75996400D01*
X104513367Y-76175694D01*
X104461069Y-76348095D01*
X104376142Y-76506983D01*
X104261849Y-76646249D01*
X104122583Y-76760542D01*
X103963695Y-76845469D01*
X103791294Y-76897767D01*
X103656931Y-76911000D01*
X103567069Y-76911000D01*
X103432706Y-76897767D01*
X103260305Y-76845469D01*
X103101417Y-76760542D01*
X102962151Y-76646249D01*
X102847858Y-76506983D01*
X102762931Y-76348095D01*
X102710633Y-76175694D01*
X102692975Y-75996400D01*
X102710633Y-75817106D01*
X102762931Y-75644705D01*
X102847858Y-75485817D01*
X102962151Y-75346551D01*
X103101417Y-75232258D01*
X103260305Y-75147331D01*
X103432706Y-75095033D01*
X103567069Y-75081800D01*
X103656931Y-75081800D01*
X103791294Y-75095033D01*
X103791294Y-75095033D01*
G37*
G36*
X101251294Y-75095033D02*
G01*
X101423695Y-75147331D01*
X101582583Y-75232258D01*
X101721849Y-75346551D01*
X101836142Y-75485817D01*
X101921069Y-75644705D01*
X101973367Y-75817106D01*
X101991025Y-75996400D01*
X101973367Y-76175694D01*
X101921069Y-76348095D01*
X101836142Y-76506983D01*
X101721849Y-76646249D01*
X101582583Y-76760542D01*
X101423695Y-76845469D01*
X101251294Y-76897767D01*
X101116931Y-76911000D01*
X101027069Y-76911000D01*
X100892706Y-76897767D01*
X100720305Y-76845469D01*
X100561417Y-76760542D01*
X100422151Y-76646249D01*
X100307858Y-76506983D01*
X100222931Y-76348095D01*
X100170633Y-76175694D01*
X100152975Y-75996400D01*
X100170633Y-75817106D01*
X100222931Y-75644705D01*
X100307858Y-75485817D01*
X100422151Y-75346551D01*
X100561417Y-75232258D01*
X100720305Y-75147331D01*
X100892706Y-75095033D01*
X101027069Y-75081800D01*
X101116931Y-75081800D01*
X101251294Y-75095033D01*
X101251294Y-75095033D01*
G37*
G36*
X92635600Y-76455800D02*
G01*
X90833600Y-76455800D01*
X90833600Y-74653800D01*
X92635600Y-74653800D01*
X92635600Y-76455800D01*
X92635600Y-76455800D01*
G37*
G36*
X96257700Y-76455800D02*
G01*
X94455700Y-76455800D01*
X94455700Y-74653800D01*
X96257700Y-74653800D01*
X96257700Y-76455800D01*
X96257700Y-76455800D01*
G37*
G36*
X89433638Y-75181516D02*
G01*
X89454257Y-75187771D01*
X89473253Y-75197924D01*
X89489908Y-75211592D01*
X89503576Y-75228247D01*
X89513729Y-75247243D01*
X89519984Y-75267862D01*
X89522700Y-75295440D01*
X89522700Y-75804160D01*
X89519984Y-75831738D01*
X89513729Y-75852357D01*
X89503576Y-75871353D01*
X89489908Y-75888008D01*
X89473253Y-75901676D01*
X89454257Y-75911829D01*
X89433638Y-75918084D01*
X89406060Y-75920800D01*
X88947340Y-75920800D01*
X88919762Y-75918084D01*
X88899143Y-75911829D01*
X88880147Y-75901676D01*
X88863492Y-75888008D01*
X88849824Y-75871353D01*
X88839671Y-75852357D01*
X88833416Y-75831738D01*
X88830700Y-75804160D01*
X88830700Y-75295440D01*
X88833416Y-75267862D01*
X88839671Y-75247243D01*
X88849824Y-75228247D01*
X88863492Y-75211592D01*
X88880147Y-75197924D01*
X88899143Y-75187771D01*
X88919762Y-75181516D01*
X88947340Y-75178800D01*
X89406060Y-75178800D01*
X89433638Y-75181516D01*
X89433638Y-75181516D01*
G37*
G36*
X88463638Y-75181516D02*
G01*
X88484257Y-75187771D01*
X88503253Y-75197924D01*
X88519908Y-75211592D01*
X88533576Y-75228247D01*
X88543729Y-75247243D01*
X88549984Y-75267862D01*
X88552700Y-75295440D01*
X88552700Y-75804160D01*
X88549984Y-75831738D01*
X88543729Y-75852357D01*
X88533576Y-75871353D01*
X88519908Y-75888008D01*
X88503253Y-75901676D01*
X88484257Y-75911829D01*
X88463638Y-75918084D01*
X88436060Y-75920800D01*
X87977340Y-75920800D01*
X87949762Y-75918084D01*
X87929143Y-75911829D01*
X87910147Y-75901676D01*
X87893492Y-75888008D01*
X87879824Y-75871353D01*
X87869671Y-75852357D01*
X87863416Y-75831738D01*
X87860700Y-75804160D01*
X87860700Y-75295440D01*
X87863416Y-75267862D01*
X87869671Y-75247243D01*
X87879824Y-75228247D01*
X87893492Y-75211592D01*
X87910147Y-75197924D01*
X87929143Y-75187771D01*
X87949762Y-75181516D01*
X87977340Y-75178800D01*
X88436060Y-75178800D01*
X88463638Y-75181516D01*
X88463638Y-75181516D01*
G37*
G36*
X111971294Y-72555033D02*
G01*
X112143695Y-72607331D01*
X112302583Y-72692258D01*
X112441849Y-72806551D01*
X112556142Y-72945817D01*
X112641069Y-73104705D01*
X112693367Y-73277106D01*
X112711025Y-73456400D01*
X112693367Y-73635694D01*
X112641069Y-73808095D01*
X112556142Y-73966983D01*
X112441849Y-74106249D01*
X112302583Y-74220542D01*
X112143695Y-74305469D01*
X111971294Y-74357767D01*
X111836931Y-74371000D01*
X111747069Y-74371000D01*
X111612706Y-74357767D01*
X111440305Y-74305469D01*
X111281417Y-74220542D01*
X111142151Y-74106249D01*
X111027858Y-73966983D01*
X110942931Y-73808095D01*
X110890633Y-73635694D01*
X110872975Y-73456400D01*
X110890633Y-73277106D01*
X110942931Y-73104705D01*
X111027858Y-72945817D01*
X111142151Y-72806551D01*
X111281417Y-72692258D01*
X111440305Y-72607331D01*
X111612706Y-72555033D01*
X111747069Y-72541800D01*
X111836931Y-72541800D01*
X111971294Y-72555033D01*
X111971294Y-72555033D01*
G37*
G36*
X101251294Y-72555033D02*
G01*
X101423695Y-72607331D01*
X101582583Y-72692258D01*
X101721849Y-72806551D01*
X101836142Y-72945817D01*
X101921069Y-73104705D01*
X101973367Y-73277106D01*
X101991025Y-73456400D01*
X101973367Y-73635694D01*
X101921069Y-73808095D01*
X101836142Y-73966983D01*
X101721849Y-74106249D01*
X101582583Y-74220542D01*
X101423695Y-74305469D01*
X101251294Y-74357767D01*
X101116931Y-74371000D01*
X101027069Y-74371000D01*
X100892706Y-74357767D01*
X100720305Y-74305469D01*
X100561417Y-74220542D01*
X100422151Y-74106249D01*
X100307858Y-73966983D01*
X100222931Y-73808095D01*
X100170633Y-73635694D01*
X100152975Y-73456400D01*
X100170633Y-73277106D01*
X100222931Y-73104705D01*
X100307858Y-72945817D01*
X100422151Y-72806551D01*
X100561417Y-72692258D01*
X100720305Y-72607331D01*
X100892706Y-72555033D01*
X101027069Y-72541800D01*
X101116931Y-72541800D01*
X101251294Y-72555033D01*
X101251294Y-72555033D01*
G37*
G36*
X103791294Y-72555033D02*
G01*
X103963695Y-72607331D01*
X104122583Y-72692258D01*
X104261849Y-72806551D01*
X104376142Y-72945817D01*
X104461069Y-73104705D01*
X104513367Y-73277106D01*
X104531025Y-73456400D01*
X104513367Y-73635694D01*
X104461069Y-73808095D01*
X104376142Y-73966983D01*
X104261849Y-74106249D01*
X104122583Y-74220542D01*
X103963695Y-74305469D01*
X103791294Y-74357767D01*
X103656931Y-74371000D01*
X103567069Y-74371000D01*
X103432706Y-74357767D01*
X103260305Y-74305469D01*
X103101417Y-74220542D01*
X102962151Y-74106249D01*
X102847858Y-73966983D01*
X102762931Y-73808095D01*
X102710633Y-73635694D01*
X102692975Y-73456400D01*
X102710633Y-73277106D01*
X102762931Y-73104705D01*
X102847858Y-72945817D01*
X102962151Y-72806551D01*
X103101417Y-72692258D01*
X103260305Y-72607331D01*
X103432706Y-72555033D01*
X103567069Y-72541800D01*
X103656931Y-72541800D01*
X103791294Y-72555033D01*
X103791294Y-72555033D01*
G37*
G36*
X114511294Y-72555033D02*
G01*
X114683695Y-72607331D01*
X114842583Y-72692258D01*
X114981849Y-72806551D01*
X115096142Y-72945817D01*
X115181069Y-73104705D01*
X115233367Y-73277106D01*
X115251025Y-73456400D01*
X115233367Y-73635694D01*
X115181069Y-73808095D01*
X115096142Y-73966983D01*
X114981849Y-74106249D01*
X114842583Y-74220542D01*
X114683695Y-74305469D01*
X114511294Y-74357767D01*
X114376931Y-74371000D01*
X114287069Y-74371000D01*
X114152706Y-74357767D01*
X113980305Y-74305469D01*
X113821417Y-74220542D01*
X113682151Y-74106249D01*
X113567858Y-73966983D01*
X113482931Y-73808095D01*
X113430633Y-73635694D01*
X113412975Y-73456400D01*
X113430633Y-73277106D01*
X113482931Y-73104705D01*
X113567858Y-72945817D01*
X113682151Y-72806551D01*
X113821417Y-72692258D01*
X113980305Y-72607331D01*
X114152706Y-72555033D01*
X114287069Y-72541800D01*
X114376931Y-72541800D01*
X114511294Y-72555033D01*
X114511294Y-72555033D01*
G37*
G36*
X78564738Y-72694316D02*
G01*
X78585357Y-72700571D01*
X78604353Y-72710724D01*
X78621008Y-72724392D01*
X78634676Y-72741047D01*
X78644829Y-72760043D01*
X78651084Y-72780662D01*
X78653800Y-72808240D01*
X78653800Y-73266960D01*
X78651084Y-73294538D01*
X78644829Y-73315157D01*
X78634676Y-73334153D01*
X78621008Y-73350808D01*
X78604353Y-73364476D01*
X78585357Y-73374629D01*
X78564738Y-73380884D01*
X78537160Y-73383600D01*
X78028440Y-73383600D01*
X78000862Y-73380884D01*
X77980243Y-73374629D01*
X77961247Y-73364476D01*
X77944592Y-73350808D01*
X77930924Y-73334153D01*
X77920771Y-73315157D01*
X77914516Y-73294538D01*
X77911800Y-73266960D01*
X77911800Y-72808240D01*
X77914516Y-72780662D01*
X77920771Y-72760043D01*
X77930924Y-72741047D01*
X77944592Y-72724392D01*
X77961247Y-72710724D01*
X77980243Y-72700571D01*
X78000862Y-72694316D01*
X78028440Y-72691600D01*
X78537160Y-72691600D01*
X78564738Y-72694316D01*
X78564738Y-72694316D01*
G37*
G36*
X79702638Y-72684116D02*
G01*
X79723257Y-72690371D01*
X79742253Y-72700524D01*
X79758908Y-72714192D01*
X79772576Y-72730847D01*
X79782729Y-72749843D01*
X79788984Y-72770462D01*
X79791700Y-72798040D01*
X79791700Y-73256760D01*
X79788984Y-73284338D01*
X79782729Y-73304957D01*
X79772576Y-73323953D01*
X79758908Y-73340608D01*
X79742253Y-73354276D01*
X79723257Y-73364429D01*
X79702638Y-73370684D01*
X79675060Y-73373400D01*
X79166340Y-73373400D01*
X79138762Y-73370684D01*
X79118143Y-73364429D01*
X79099147Y-73354276D01*
X79082492Y-73340608D01*
X79068824Y-73323953D01*
X79058671Y-73304957D01*
X79052416Y-73284338D01*
X79049700Y-73256760D01*
X79049700Y-72798040D01*
X79052416Y-72770462D01*
X79058671Y-72749843D01*
X79068824Y-72730847D01*
X79082492Y-72714192D01*
X79099147Y-72700524D01*
X79118143Y-72690371D01*
X79138762Y-72684116D01*
X79166340Y-72681400D01*
X79675060Y-72681400D01*
X79702638Y-72684116D01*
X79702638Y-72684116D01*
G37*
G36*
X95616038Y-72534816D02*
G01*
X95636657Y-72541071D01*
X95655653Y-72551224D01*
X95672308Y-72564892D01*
X95685976Y-72581547D01*
X95696129Y-72600543D01*
X95702384Y-72621162D01*
X95705100Y-72648740D01*
X95705100Y-73157460D01*
X95702384Y-73185038D01*
X95696129Y-73205657D01*
X95685976Y-73224653D01*
X95672308Y-73241308D01*
X95655653Y-73254976D01*
X95636657Y-73265129D01*
X95616038Y-73271384D01*
X95588460Y-73274100D01*
X95129740Y-73274100D01*
X95102162Y-73271384D01*
X95081543Y-73265129D01*
X95062547Y-73254976D01*
X95045892Y-73241308D01*
X95032224Y-73224653D01*
X95022071Y-73205657D01*
X95015816Y-73185038D01*
X95013100Y-73157460D01*
X95013100Y-72648740D01*
X95015816Y-72621162D01*
X95022071Y-72600543D01*
X95032224Y-72581547D01*
X95045892Y-72564892D01*
X95062547Y-72551224D01*
X95081543Y-72541071D01*
X95102162Y-72534816D01*
X95129740Y-72532100D01*
X95588460Y-72532100D01*
X95616038Y-72534816D01*
X95616038Y-72534816D01*
G37*
G36*
X94646038Y-72534816D02*
G01*
X94666657Y-72541071D01*
X94685653Y-72551224D01*
X94702308Y-72564892D01*
X94715976Y-72581547D01*
X94726129Y-72600543D01*
X94732384Y-72621162D01*
X94735100Y-72648740D01*
X94735100Y-73157460D01*
X94732384Y-73185038D01*
X94726129Y-73205657D01*
X94715976Y-73224653D01*
X94702308Y-73241308D01*
X94685653Y-73254976D01*
X94666657Y-73265129D01*
X94646038Y-73271384D01*
X94618460Y-73274100D01*
X94159740Y-73274100D01*
X94132162Y-73271384D01*
X94111543Y-73265129D01*
X94092547Y-73254976D01*
X94075892Y-73241308D01*
X94062224Y-73224653D01*
X94052071Y-73205657D01*
X94045816Y-73185038D01*
X94043100Y-73157460D01*
X94043100Y-72648740D01*
X94045816Y-72621162D01*
X94052071Y-72600543D01*
X94062224Y-72581547D01*
X94075892Y-72564892D01*
X94092547Y-72551224D01*
X94111543Y-72541071D01*
X94132162Y-72534816D01*
X94159740Y-72532100D01*
X94618460Y-72532100D01*
X94646038Y-72534816D01*
X94646038Y-72534816D01*
G37*
G36*
X85479700Y-73110100D02*
G01*
X83377700Y-73110100D01*
X83377700Y-70608100D01*
X85479700Y-70608100D01*
X85479700Y-73110100D01*
X85479700Y-73110100D01*
G37*
G36*
X89179700Y-73110100D02*
G01*
X87077700Y-73110100D01*
X87077700Y-70608100D01*
X89179700Y-70608100D01*
X89179700Y-73110100D01*
X89179700Y-73110100D01*
G37*
G36*
X78564738Y-71724316D02*
G01*
X78585357Y-71730571D01*
X78604353Y-71740724D01*
X78621008Y-71754392D01*
X78634676Y-71771047D01*
X78644829Y-71790043D01*
X78651084Y-71810662D01*
X78653800Y-71838240D01*
X78653800Y-72296960D01*
X78651084Y-72324538D01*
X78644829Y-72345157D01*
X78634676Y-72364153D01*
X78621008Y-72380808D01*
X78604353Y-72394476D01*
X78585357Y-72404629D01*
X78564738Y-72410884D01*
X78537160Y-72413600D01*
X78028440Y-72413600D01*
X78000862Y-72410884D01*
X77980243Y-72404629D01*
X77961247Y-72394476D01*
X77944592Y-72380808D01*
X77930924Y-72364153D01*
X77920771Y-72345157D01*
X77914516Y-72324538D01*
X77911800Y-72296960D01*
X77911800Y-71838240D01*
X77914516Y-71810662D01*
X77920771Y-71790043D01*
X77930924Y-71771047D01*
X77944592Y-71754392D01*
X77961247Y-71740724D01*
X77980243Y-71730571D01*
X78000862Y-71724316D01*
X78028440Y-71721600D01*
X78537160Y-71721600D01*
X78564738Y-71724316D01*
X78564738Y-71724316D01*
G37*
G36*
X79702638Y-71714116D02*
G01*
X79723257Y-71720371D01*
X79742253Y-71730524D01*
X79758908Y-71744192D01*
X79772576Y-71760847D01*
X79782729Y-71779843D01*
X79788984Y-71800462D01*
X79791700Y-71828040D01*
X79791700Y-72286760D01*
X79788984Y-72314338D01*
X79782729Y-72334957D01*
X79772576Y-72353953D01*
X79758908Y-72370608D01*
X79742253Y-72384276D01*
X79723257Y-72394429D01*
X79702638Y-72400684D01*
X79675060Y-72403400D01*
X79166340Y-72403400D01*
X79138762Y-72400684D01*
X79118143Y-72394429D01*
X79099147Y-72384276D01*
X79082492Y-72370608D01*
X79068824Y-72353953D01*
X79058671Y-72334957D01*
X79052416Y-72314338D01*
X79049700Y-72286760D01*
X79049700Y-71828040D01*
X79052416Y-71800462D01*
X79058671Y-71779843D01*
X79068824Y-71760847D01*
X79082492Y-71744192D01*
X79099147Y-71730524D01*
X79118143Y-71720371D01*
X79138762Y-71714116D01*
X79166340Y-71711400D01*
X79675060Y-71711400D01*
X79702638Y-71714116D01*
X79702638Y-71714116D01*
G37*
G36*
X90624638Y-71505516D02*
G01*
X90645257Y-71511771D01*
X90664253Y-71521924D01*
X90680908Y-71535592D01*
X90694576Y-71552247D01*
X90704729Y-71571243D01*
X90710984Y-71591862D01*
X90713700Y-71619440D01*
X90713700Y-72078160D01*
X90710984Y-72105738D01*
X90704729Y-72126357D01*
X90694576Y-72145353D01*
X90680908Y-72162008D01*
X90664253Y-72175676D01*
X90645257Y-72185829D01*
X90624638Y-72192084D01*
X90597060Y-72194800D01*
X90088340Y-72194800D01*
X90060762Y-72192084D01*
X90040143Y-72185829D01*
X90021147Y-72175676D01*
X90004492Y-72162008D01*
X89990824Y-72145353D01*
X89980671Y-72126357D01*
X89974416Y-72105738D01*
X89971700Y-72078160D01*
X89971700Y-71619440D01*
X89974416Y-71591862D01*
X89980671Y-71571243D01*
X89990824Y-71552247D01*
X90004492Y-71535592D01*
X90021147Y-71521924D01*
X90040143Y-71511771D01*
X90060762Y-71505516D01*
X90088340Y-71502800D01*
X90597060Y-71502800D01*
X90624638Y-71505516D01*
X90624638Y-71505516D01*
G37*
G36*
X82522038Y-71492816D02*
G01*
X82542657Y-71499071D01*
X82561653Y-71509224D01*
X82578308Y-71522892D01*
X82591976Y-71539547D01*
X82602129Y-71558543D01*
X82608384Y-71579162D01*
X82611100Y-71606740D01*
X82611100Y-72065460D01*
X82608384Y-72093038D01*
X82602129Y-72113657D01*
X82591976Y-72132653D01*
X82578308Y-72149308D01*
X82561653Y-72162976D01*
X82542657Y-72173129D01*
X82522038Y-72179384D01*
X82494460Y-72182100D01*
X81985740Y-72182100D01*
X81958162Y-72179384D01*
X81937543Y-72173129D01*
X81918547Y-72162976D01*
X81901892Y-72149308D01*
X81888224Y-72132653D01*
X81878071Y-72113657D01*
X81871816Y-72093038D01*
X81869100Y-72065460D01*
X81869100Y-71606740D01*
X81871816Y-71579162D01*
X81878071Y-71558543D01*
X81888224Y-71539547D01*
X81901892Y-71522892D01*
X81918547Y-71509224D01*
X81937543Y-71499071D01*
X81958162Y-71492816D01*
X81985740Y-71490100D01*
X82494460Y-71490100D01*
X82522038Y-71492816D01*
X82522038Y-71492816D01*
G37*
G36*
X101251294Y-70015033D02*
G01*
X101423695Y-70067331D01*
X101582583Y-70152258D01*
X101721849Y-70266551D01*
X101836142Y-70405817D01*
X101921069Y-70564705D01*
X101973367Y-70737106D01*
X101991025Y-70916400D01*
X101973367Y-71095694D01*
X101921069Y-71268095D01*
X101836142Y-71426983D01*
X101721849Y-71566249D01*
X101582583Y-71680542D01*
X101423695Y-71765469D01*
X101251294Y-71817767D01*
X101116931Y-71831000D01*
X101027069Y-71831000D01*
X100892706Y-71817767D01*
X100720305Y-71765469D01*
X100561417Y-71680542D01*
X100422151Y-71566249D01*
X100307858Y-71426983D01*
X100222931Y-71268095D01*
X100170633Y-71095694D01*
X100152975Y-70916400D01*
X100170633Y-70737106D01*
X100222931Y-70564705D01*
X100307858Y-70405817D01*
X100422151Y-70266551D01*
X100561417Y-70152258D01*
X100720305Y-70067331D01*
X100892706Y-70015033D01*
X101027069Y-70001800D01*
X101116931Y-70001800D01*
X101251294Y-70015033D01*
X101251294Y-70015033D01*
G37*
G36*
X114511294Y-70015033D02*
G01*
X114683695Y-70067331D01*
X114842583Y-70152258D01*
X114981849Y-70266551D01*
X115096142Y-70405817D01*
X115181069Y-70564705D01*
X115233367Y-70737106D01*
X115251025Y-70916400D01*
X115233367Y-71095694D01*
X115181069Y-71268095D01*
X115096142Y-71426983D01*
X114981849Y-71566249D01*
X114842583Y-71680542D01*
X114683695Y-71765469D01*
X114511294Y-71817767D01*
X114376931Y-71831000D01*
X114287069Y-71831000D01*
X114152706Y-71817767D01*
X113980305Y-71765469D01*
X113821417Y-71680542D01*
X113682151Y-71566249D01*
X113567858Y-71426983D01*
X113482931Y-71268095D01*
X113430633Y-71095694D01*
X113412975Y-70916400D01*
X113430633Y-70737106D01*
X113482931Y-70564705D01*
X113567858Y-70405817D01*
X113682151Y-70266551D01*
X113821417Y-70152258D01*
X113980305Y-70067331D01*
X114152706Y-70015033D01*
X114287069Y-70001800D01*
X114376931Y-70001800D01*
X114511294Y-70015033D01*
X114511294Y-70015033D01*
G37*
G36*
X111971294Y-70015033D02*
G01*
X112143695Y-70067331D01*
X112302583Y-70152258D01*
X112441849Y-70266551D01*
X112556142Y-70405817D01*
X112641069Y-70564705D01*
X112693367Y-70737106D01*
X112711025Y-70916400D01*
X112693367Y-71095694D01*
X112641069Y-71268095D01*
X112556142Y-71426983D01*
X112441849Y-71566249D01*
X112302583Y-71680542D01*
X112143695Y-71765469D01*
X111971294Y-71817767D01*
X111836931Y-71831000D01*
X111747069Y-71831000D01*
X111612706Y-71817767D01*
X111440305Y-71765469D01*
X111281417Y-71680542D01*
X111142151Y-71566249D01*
X111027858Y-71426983D01*
X110942931Y-71268095D01*
X110890633Y-71095694D01*
X110872975Y-70916400D01*
X110890633Y-70737106D01*
X110942931Y-70564705D01*
X111027858Y-70405817D01*
X111142151Y-70266551D01*
X111281417Y-70152258D01*
X111440305Y-70067331D01*
X111612706Y-70015033D01*
X111747069Y-70001800D01*
X111836931Y-70001800D01*
X111971294Y-70015033D01*
X111971294Y-70015033D01*
G37*
G36*
X103791294Y-70015033D02*
G01*
X103963695Y-70067331D01*
X104122583Y-70152258D01*
X104261849Y-70266551D01*
X104376142Y-70405817D01*
X104461069Y-70564705D01*
X104513367Y-70737106D01*
X104531025Y-70916400D01*
X104513367Y-71095694D01*
X104461069Y-71268095D01*
X104376142Y-71426983D01*
X104261849Y-71566249D01*
X104122583Y-71680542D01*
X103963695Y-71765469D01*
X103791294Y-71817767D01*
X103656931Y-71831000D01*
X103567069Y-71831000D01*
X103432706Y-71817767D01*
X103260305Y-71765469D01*
X103101417Y-71680542D01*
X102962151Y-71566249D01*
X102847858Y-71426983D01*
X102762931Y-71268095D01*
X102710633Y-71095694D01*
X102692975Y-70916400D01*
X102710633Y-70737106D01*
X102762931Y-70564705D01*
X102847858Y-70405817D01*
X102962151Y-70266551D01*
X103101417Y-70152258D01*
X103260305Y-70067331D01*
X103432706Y-70015033D01*
X103567069Y-70001800D01*
X103656931Y-70001800D01*
X103791294Y-70015033D01*
X103791294Y-70015033D01*
G37*
G36*
X90624638Y-70535516D02*
G01*
X90645257Y-70541771D01*
X90664253Y-70551924D01*
X90680908Y-70565592D01*
X90694576Y-70582247D01*
X90704729Y-70601243D01*
X90710984Y-70621862D01*
X90713700Y-70649440D01*
X90713700Y-71108160D01*
X90710984Y-71135738D01*
X90704729Y-71156357D01*
X90694576Y-71175353D01*
X90680908Y-71192008D01*
X90664253Y-71205676D01*
X90645257Y-71215829D01*
X90624638Y-71222084D01*
X90597060Y-71224800D01*
X90088340Y-71224800D01*
X90060762Y-71222084D01*
X90040143Y-71215829D01*
X90021147Y-71205676D01*
X90004492Y-71192008D01*
X89990824Y-71175353D01*
X89980671Y-71156357D01*
X89974416Y-71135738D01*
X89971700Y-71108160D01*
X89971700Y-70649440D01*
X89974416Y-70621862D01*
X89980671Y-70601243D01*
X89990824Y-70582247D01*
X90004492Y-70565592D01*
X90021147Y-70551924D01*
X90040143Y-70541771D01*
X90060762Y-70535516D01*
X90088340Y-70532800D01*
X90597060Y-70532800D01*
X90624638Y-70535516D01*
X90624638Y-70535516D01*
G37*
G36*
X82522038Y-70522816D02*
G01*
X82542657Y-70529071D01*
X82561653Y-70539224D01*
X82578308Y-70552892D01*
X82591976Y-70569547D01*
X82602129Y-70588543D01*
X82608384Y-70609162D01*
X82611100Y-70636740D01*
X82611100Y-71095460D01*
X82608384Y-71123038D01*
X82602129Y-71143657D01*
X82591976Y-71162653D01*
X82578308Y-71179308D01*
X82561653Y-71192976D01*
X82542657Y-71203129D01*
X82522038Y-71209384D01*
X82494460Y-71212100D01*
X81985740Y-71212100D01*
X81958162Y-71209384D01*
X81937543Y-71203129D01*
X81918547Y-71192976D01*
X81901892Y-71179308D01*
X81888224Y-71162653D01*
X81878071Y-71143657D01*
X81871816Y-71123038D01*
X81869100Y-71095460D01*
X81869100Y-70636740D01*
X81871816Y-70609162D01*
X81878071Y-70588543D01*
X81888224Y-70569547D01*
X81901892Y-70552892D01*
X81918547Y-70539224D01*
X81937543Y-70529071D01*
X81958162Y-70522816D01*
X81985740Y-70520100D01*
X82494460Y-70520100D01*
X82522038Y-70522816D01*
X82522038Y-70522816D01*
G37*
G36*
X103791294Y-67475033D02*
G01*
X103963695Y-67527331D01*
X104122583Y-67612258D01*
X104261849Y-67726551D01*
X104376142Y-67865817D01*
X104461069Y-68024705D01*
X104513367Y-68197106D01*
X104531025Y-68376400D01*
X104513367Y-68555694D01*
X104461069Y-68728095D01*
X104376142Y-68886983D01*
X104261849Y-69026249D01*
X104122583Y-69140542D01*
X103963695Y-69225469D01*
X103791294Y-69277767D01*
X103656931Y-69291000D01*
X103567069Y-69291000D01*
X103432706Y-69277767D01*
X103260305Y-69225469D01*
X103101417Y-69140542D01*
X102962151Y-69026249D01*
X102847858Y-68886983D01*
X102762931Y-68728095D01*
X102710633Y-68555694D01*
X102692975Y-68376400D01*
X102710633Y-68197106D01*
X102762931Y-68024705D01*
X102847858Y-67865817D01*
X102962151Y-67726551D01*
X103101417Y-67612258D01*
X103260305Y-67527331D01*
X103432706Y-67475033D01*
X103567069Y-67461800D01*
X103656931Y-67461800D01*
X103791294Y-67475033D01*
X103791294Y-67475033D01*
G37*
G36*
X101251294Y-67475033D02*
G01*
X101423695Y-67527331D01*
X101582583Y-67612258D01*
X101721849Y-67726551D01*
X101836142Y-67865817D01*
X101921069Y-68024705D01*
X101973367Y-68197106D01*
X101991025Y-68376400D01*
X101973367Y-68555694D01*
X101921069Y-68728095D01*
X101836142Y-68886983D01*
X101721849Y-69026249D01*
X101582583Y-69140542D01*
X101423695Y-69225469D01*
X101251294Y-69277767D01*
X101116931Y-69291000D01*
X101027069Y-69291000D01*
X100892706Y-69277767D01*
X100720305Y-69225469D01*
X100561417Y-69140542D01*
X100422151Y-69026249D01*
X100307858Y-68886983D01*
X100222931Y-68728095D01*
X100170633Y-68555694D01*
X100152975Y-68376400D01*
X100170633Y-68197106D01*
X100222931Y-68024705D01*
X100307858Y-67865817D01*
X100422151Y-67726551D01*
X100561417Y-67612258D01*
X100720305Y-67527331D01*
X100892706Y-67475033D01*
X101027069Y-67461800D01*
X101116931Y-67461800D01*
X101251294Y-67475033D01*
X101251294Y-67475033D01*
G37*
G36*
X114511294Y-67475033D02*
G01*
X114683695Y-67527331D01*
X114842583Y-67612258D01*
X114981849Y-67726551D01*
X115096142Y-67865817D01*
X115181069Y-68024705D01*
X115233367Y-68197106D01*
X115251025Y-68376400D01*
X115233367Y-68555694D01*
X115181069Y-68728095D01*
X115096142Y-68886983D01*
X114981849Y-69026249D01*
X114842583Y-69140542D01*
X114683695Y-69225469D01*
X114511294Y-69277767D01*
X114376931Y-69291000D01*
X114287069Y-69291000D01*
X114152706Y-69277767D01*
X113980305Y-69225469D01*
X113821417Y-69140542D01*
X113682151Y-69026249D01*
X113567858Y-68886983D01*
X113482931Y-68728095D01*
X113430633Y-68555694D01*
X113412975Y-68376400D01*
X113430633Y-68197106D01*
X113482931Y-68024705D01*
X113567858Y-67865817D01*
X113682151Y-67726551D01*
X113821417Y-67612258D01*
X113980305Y-67527331D01*
X114152706Y-67475033D01*
X114287069Y-67461800D01*
X114376931Y-67461800D01*
X114511294Y-67475033D01*
X114511294Y-67475033D01*
G37*
G36*
X111971294Y-67475033D02*
G01*
X112143695Y-67527331D01*
X112302583Y-67612258D01*
X112441849Y-67726551D01*
X112556142Y-67865817D01*
X112641069Y-68024705D01*
X112693367Y-68197106D01*
X112711025Y-68376400D01*
X112693367Y-68555694D01*
X112641069Y-68728095D01*
X112556142Y-68886983D01*
X112441849Y-69026249D01*
X112302583Y-69140542D01*
X112143695Y-69225469D01*
X111971294Y-69277767D01*
X111836931Y-69291000D01*
X111747069Y-69291000D01*
X111612706Y-69277767D01*
X111440305Y-69225469D01*
X111281417Y-69140542D01*
X111142151Y-69026249D01*
X111027858Y-68886983D01*
X110942931Y-68728095D01*
X110890633Y-68555694D01*
X110872975Y-68376400D01*
X110890633Y-68197106D01*
X110942931Y-68024705D01*
X111027858Y-67865817D01*
X111142151Y-67726551D01*
X111281417Y-67612258D01*
X111440305Y-67527331D01*
X111612706Y-67475033D01*
X111747069Y-67461800D01*
X111836931Y-67461800D01*
X111971294Y-67475033D01*
X111971294Y-67475033D01*
G37*
G36*
X82323938Y-68549016D02*
G01*
X82344557Y-68555271D01*
X82363553Y-68565424D01*
X82380208Y-68579092D01*
X82393876Y-68595747D01*
X82404029Y-68614743D01*
X82410284Y-68635362D01*
X82413000Y-68662940D01*
X82413000Y-69121660D01*
X82410284Y-69149238D01*
X82404029Y-69169857D01*
X82393876Y-69188853D01*
X82380208Y-69205508D01*
X82363553Y-69219176D01*
X82344557Y-69229329D01*
X82323938Y-69235584D01*
X82296360Y-69238300D01*
X81787640Y-69238300D01*
X81760062Y-69235584D01*
X81739443Y-69229329D01*
X81720447Y-69219176D01*
X81703792Y-69205508D01*
X81690124Y-69188853D01*
X81679971Y-69169857D01*
X81673716Y-69149238D01*
X81671000Y-69121660D01*
X81671000Y-68662940D01*
X81673716Y-68635362D01*
X81679971Y-68614743D01*
X81690124Y-68595747D01*
X81703792Y-68579092D01*
X81720447Y-68565424D01*
X81739443Y-68555271D01*
X81760062Y-68549016D01*
X81787640Y-68546300D01*
X82296360Y-68546300D01*
X82323938Y-68549016D01*
X82323938Y-68549016D01*
G37*
G36*
X79016200Y-68851100D02*
G01*
X77214200Y-68851100D01*
X77214200Y-67049100D01*
X79016200Y-67049100D01*
X79016200Y-68851100D01*
X79016200Y-68851100D01*
G37*
G36*
X84016495Y-67106423D02*
G01*
X84023509Y-67108551D01*
X84037277Y-67115910D01*
X84059916Y-67125287D01*
X84083949Y-67130067D01*
X84108453Y-67130067D01*
X84132486Y-67125286D01*
X84155123Y-67115910D01*
X84168891Y-67108551D01*
X84175905Y-67106423D01*
X84189340Y-67105100D01*
X84503060Y-67105100D01*
X84516495Y-67106423D01*
X84523509Y-67108551D01*
X84537277Y-67115910D01*
X84559916Y-67125287D01*
X84583949Y-67130067D01*
X84608453Y-67130067D01*
X84632486Y-67125286D01*
X84655123Y-67115910D01*
X84668891Y-67108551D01*
X84675905Y-67106423D01*
X84689340Y-67105100D01*
X85003060Y-67105100D01*
X85016495Y-67106423D01*
X85023509Y-67108551D01*
X85037277Y-67115910D01*
X85059916Y-67125287D01*
X85083949Y-67130067D01*
X85108453Y-67130067D01*
X85132486Y-67125286D01*
X85155123Y-67115910D01*
X85168891Y-67108551D01*
X85175905Y-67106423D01*
X85189340Y-67105100D01*
X85503060Y-67105100D01*
X85516495Y-67106423D01*
X85523509Y-67108551D01*
X85537277Y-67115910D01*
X85559916Y-67125287D01*
X85583949Y-67130067D01*
X85608453Y-67130067D01*
X85632486Y-67125286D01*
X85655123Y-67115910D01*
X85668891Y-67108551D01*
X85675905Y-67106423D01*
X85689340Y-67105100D01*
X86003060Y-67105100D01*
X86016495Y-67106423D01*
X86023509Y-67108551D01*
X86037277Y-67115910D01*
X86059916Y-67125287D01*
X86083949Y-67130067D01*
X86108453Y-67130067D01*
X86132486Y-67125286D01*
X86155123Y-67115910D01*
X86168891Y-67108551D01*
X86175905Y-67106423D01*
X86189340Y-67105100D01*
X86503060Y-67105100D01*
X86516495Y-67106423D01*
X86523509Y-67108551D01*
X86537277Y-67115910D01*
X86559916Y-67125287D01*
X86583949Y-67130067D01*
X86608453Y-67130067D01*
X86632486Y-67125286D01*
X86655123Y-67115910D01*
X86668891Y-67108551D01*
X86675905Y-67106423D01*
X86689340Y-67105100D01*
X87003060Y-67105100D01*
X87016495Y-67106423D01*
X87023509Y-67108551D01*
X87037277Y-67115910D01*
X87059916Y-67125287D01*
X87083949Y-67130067D01*
X87108453Y-67130067D01*
X87132486Y-67125286D01*
X87155123Y-67115910D01*
X87168891Y-67108551D01*
X87175905Y-67106423D01*
X87189340Y-67105100D01*
X87503060Y-67105100D01*
X87516495Y-67106423D01*
X87523509Y-67108551D01*
X87537277Y-67115910D01*
X87559916Y-67125287D01*
X87583949Y-67130067D01*
X87608453Y-67130067D01*
X87632486Y-67125286D01*
X87655123Y-67115910D01*
X87668891Y-67108551D01*
X87675905Y-67106423D01*
X87689340Y-67105100D01*
X88003060Y-67105100D01*
X88016495Y-67106423D01*
X88023509Y-67108551D01*
X88037277Y-67115910D01*
X88059916Y-67125287D01*
X88083949Y-67130067D01*
X88108453Y-67130067D01*
X88132486Y-67125286D01*
X88155123Y-67115910D01*
X88168891Y-67108551D01*
X88175905Y-67106423D01*
X88189340Y-67105100D01*
X88503060Y-67105100D01*
X88516495Y-67106423D01*
X88523509Y-67108551D01*
X88537277Y-67115910D01*
X88559916Y-67125287D01*
X88583949Y-67130067D01*
X88608453Y-67130067D01*
X88632486Y-67125286D01*
X88655123Y-67115910D01*
X88668891Y-67108551D01*
X88675905Y-67106423D01*
X88689340Y-67105100D01*
X89003060Y-67105100D01*
X89016495Y-67106423D01*
X89023509Y-67108551D01*
X89037277Y-67115910D01*
X89059916Y-67125287D01*
X89083949Y-67130067D01*
X89108453Y-67130067D01*
X89132486Y-67125286D01*
X89155123Y-67115910D01*
X89168891Y-67108551D01*
X89175905Y-67106423D01*
X89189340Y-67105100D01*
X89503060Y-67105100D01*
X89516495Y-67106423D01*
X89523510Y-67108551D01*
X89529976Y-67112008D01*
X89535642Y-67116658D01*
X89540292Y-67122324D01*
X89543749Y-67128790D01*
X89545877Y-67135805D01*
X89547200Y-67149240D01*
X89547200Y-68637960D01*
X89545877Y-68651395D01*
X89543749Y-68658410D01*
X89540292Y-68664876D01*
X89535642Y-68670542D01*
X89529976Y-68675192D01*
X89523510Y-68678649D01*
X89516495Y-68680777D01*
X89503060Y-68682100D01*
X89189340Y-68682100D01*
X89175905Y-68680777D01*
X89168891Y-68678649D01*
X89155123Y-68671290D01*
X89132484Y-68661913D01*
X89108451Y-68657133D01*
X89083947Y-68657133D01*
X89059914Y-68661914D01*
X89037277Y-68671290D01*
X89023509Y-68678649D01*
X89016495Y-68680777D01*
X89003060Y-68682100D01*
X88689340Y-68682100D01*
X88675905Y-68680777D01*
X88668891Y-68678649D01*
X88655123Y-68671290D01*
X88632484Y-68661913D01*
X88608451Y-68657133D01*
X88583947Y-68657133D01*
X88559914Y-68661914D01*
X88537277Y-68671290D01*
X88523509Y-68678649D01*
X88516495Y-68680777D01*
X88503060Y-68682100D01*
X88189340Y-68682100D01*
X88175905Y-68680777D01*
X88168891Y-68678649D01*
X88155123Y-68671290D01*
X88132484Y-68661913D01*
X88108451Y-68657133D01*
X88083947Y-68657133D01*
X88059914Y-68661914D01*
X88037277Y-68671290D01*
X88023509Y-68678649D01*
X88016495Y-68680777D01*
X88003060Y-68682100D01*
X87689340Y-68682100D01*
X87675905Y-68680777D01*
X87668891Y-68678649D01*
X87655123Y-68671290D01*
X87632484Y-68661913D01*
X87608451Y-68657133D01*
X87583947Y-68657133D01*
X87559914Y-68661914D01*
X87537277Y-68671290D01*
X87523509Y-68678649D01*
X87516495Y-68680777D01*
X87503060Y-68682100D01*
X87189340Y-68682100D01*
X87175905Y-68680777D01*
X87168891Y-68678649D01*
X87155123Y-68671290D01*
X87132484Y-68661913D01*
X87108451Y-68657133D01*
X87083947Y-68657133D01*
X87059914Y-68661914D01*
X87037277Y-68671290D01*
X87023509Y-68678649D01*
X87016495Y-68680777D01*
X87003060Y-68682100D01*
X86689340Y-68682100D01*
X86675905Y-68680777D01*
X86668891Y-68678649D01*
X86655123Y-68671290D01*
X86632484Y-68661913D01*
X86608451Y-68657133D01*
X86583947Y-68657133D01*
X86559914Y-68661914D01*
X86537277Y-68671290D01*
X86523509Y-68678649D01*
X86516495Y-68680777D01*
X86503060Y-68682100D01*
X86189340Y-68682100D01*
X86175905Y-68680777D01*
X86168891Y-68678649D01*
X86155123Y-68671290D01*
X86132484Y-68661913D01*
X86108451Y-68657133D01*
X86083947Y-68657133D01*
X86059914Y-68661914D01*
X86037277Y-68671290D01*
X86023509Y-68678649D01*
X86016495Y-68680777D01*
X86003060Y-68682100D01*
X85689340Y-68682100D01*
X85675905Y-68680777D01*
X85668891Y-68678649D01*
X85655123Y-68671290D01*
X85632484Y-68661913D01*
X85608451Y-68657133D01*
X85583947Y-68657133D01*
X85559914Y-68661914D01*
X85537277Y-68671290D01*
X85523509Y-68678649D01*
X85516495Y-68680777D01*
X85503060Y-68682100D01*
X85189340Y-68682100D01*
X85175905Y-68680777D01*
X85168891Y-68678649D01*
X85155123Y-68671290D01*
X85132484Y-68661913D01*
X85108451Y-68657133D01*
X85083947Y-68657133D01*
X85059914Y-68661914D01*
X85037277Y-68671290D01*
X85023509Y-68678649D01*
X85016495Y-68680777D01*
X85003060Y-68682100D01*
X84689340Y-68682100D01*
X84675905Y-68680777D01*
X84668891Y-68678649D01*
X84655123Y-68671290D01*
X84632484Y-68661913D01*
X84608451Y-68657133D01*
X84583947Y-68657133D01*
X84559914Y-68661914D01*
X84537277Y-68671290D01*
X84523509Y-68678649D01*
X84516495Y-68680777D01*
X84503060Y-68682100D01*
X84189340Y-68682100D01*
X84175905Y-68680777D01*
X84168891Y-68678649D01*
X84155123Y-68671290D01*
X84132484Y-68661913D01*
X84108451Y-68657133D01*
X84083947Y-68657133D01*
X84059914Y-68661914D01*
X84037277Y-68671290D01*
X84023509Y-68678649D01*
X84016495Y-68680777D01*
X84003060Y-68682100D01*
X83689340Y-68682100D01*
X83675905Y-68680777D01*
X83668890Y-68678649D01*
X83662424Y-68675192D01*
X83656758Y-68670542D01*
X83652108Y-68664876D01*
X83648651Y-68658410D01*
X83646523Y-68651395D01*
X83645200Y-68637960D01*
X83645200Y-67149240D01*
X83646523Y-67135805D01*
X83648651Y-67128790D01*
X83652108Y-67122324D01*
X83656758Y-67116658D01*
X83662424Y-67112008D01*
X83668890Y-67108551D01*
X83675905Y-67106423D01*
X83689340Y-67105100D01*
X84003060Y-67105100D01*
X84016495Y-67106423D01*
X84016495Y-67106423D01*
G37*
G36*
X82323938Y-67579016D02*
G01*
X82344557Y-67585271D01*
X82363553Y-67595424D01*
X82380208Y-67609092D01*
X82393876Y-67625747D01*
X82404029Y-67644743D01*
X82410284Y-67665362D01*
X82413000Y-67692940D01*
X82413000Y-68151660D01*
X82410284Y-68179238D01*
X82404029Y-68199857D01*
X82393876Y-68218853D01*
X82380208Y-68235508D01*
X82363553Y-68249176D01*
X82344557Y-68259329D01*
X82323938Y-68265584D01*
X82296360Y-68268300D01*
X81787640Y-68268300D01*
X81760062Y-68265584D01*
X81739443Y-68259329D01*
X81720447Y-68249176D01*
X81703792Y-68235508D01*
X81690124Y-68218853D01*
X81679971Y-68199857D01*
X81673716Y-68179238D01*
X81671000Y-68151660D01*
X81671000Y-67692940D01*
X81673716Y-67665362D01*
X81679971Y-67644743D01*
X81690124Y-67625747D01*
X81703792Y-67609092D01*
X81720447Y-67595424D01*
X81739443Y-67585271D01*
X81760062Y-67579016D01*
X81787640Y-67576300D01*
X82296360Y-67576300D01*
X82323938Y-67579016D01*
X82323938Y-67579016D01*
G37*
G36*
X103791294Y-64935033D02*
G01*
X103963695Y-64987331D01*
X104122583Y-65072258D01*
X104261849Y-65186551D01*
X104376142Y-65325817D01*
X104461069Y-65484705D01*
X104513367Y-65657106D01*
X104531025Y-65836400D01*
X104513367Y-66015694D01*
X104461069Y-66188095D01*
X104376142Y-66346983D01*
X104261849Y-66486249D01*
X104122583Y-66600542D01*
X103963695Y-66685469D01*
X103791294Y-66737767D01*
X103656931Y-66751000D01*
X103567069Y-66751000D01*
X103432706Y-66737767D01*
X103260305Y-66685469D01*
X103101417Y-66600542D01*
X102962151Y-66486249D01*
X102847858Y-66346983D01*
X102762931Y-66188095D01*
X102710633Y-66015694D01*
X102692975Y-65836400D01*
X102710633Y-65657106D01*
X102762931Y-65484705D01*
X102847858Y-65325817D01*
X102962151Y-65186551D01*
X103101417Y-65072258D01*
X103260305Y-64987331D01*
X103432706Y-64935033D01*
X103567069Y-64921800D01*
X103656931Y-64921800D01*
X103791294Y-64935033D01*
X103791294Y-64935033D01*
G37*
G36*
X111971294Y-64935033D02*
G01*
X112143695Y-64987331D01*
X112302583Y-65072258D01*
X112441849Y-65186551D01*
X112556142Y-65325817D01*
X112641069Y-65484705D01*
X112693367Y-65657106D01*
X112711025Y-65836400D01*
X112693367Y-66015694D01*
X112641069Y-66188095D01*
X112556142Y-66346983D01*
X112441849Y-66486249D01*
X112302583Y-66600542D01*
X112143695Y-66685469D01*
X111971294Y-66737767D01*
X111836931Y-66751000D01*
X111747069Y-66751000D01*
X111612706Y-66737767D01*
X111440305Y-66685469D01*
X111281417Y-66600542D01*
X111142151Y-66486249D01*
X111027858Y-66346983D01*
X110942931Y-66188095D01*
X110890633Y-66015694D01*
X110872975Y-65836400D01*
X110890633Y-65657106D01*
X110942931Y-65484705D01*
X111027858Y-65325817D01*
X111142151Y-65186551D01*
X111281417Y-65072258D01*
X111440305Y-64987331D01*
X111612706Y-64935033D01*
X111747069Y-64921800D01*
X111836931Y-64921800D01*
X111971294Y-64935033D01*
X111971294Y-64935033D01*
G37*
G36*
X114511294Y-64935033D02*
G01*
X114683695Y-64987331D01*
X114842583Y-65072258D01*
X114981849Y-65186551D01*
X115096142Y-65325817D01*
X115181069Y-65484705D01*
X115233367Y-65657106D01*
X115251025Y-65836400D01*
X115233367Y-66015694D01*
X115181069Y-66188095D01*
X115096142Y-66346983D01*
X114981849Y-66486249D01*
X114842583Y-66600542D01*
X114683695Y-66685469D01*
X114511294Y-66737767D01*
X114376931Y-66751000D01*
X114287069Y-66751000D01*
X114152706Y-66737767D01*
X113980305Y-66685469D01*
X113821417Y-66600542D01*
X113682151Y-66486249D01*
X113567858Y-66346983D01*
X113482931Y-66188095D01*
X113430633Y-66015694D01*
X113412975Y-65836400D01*
X113430633Y-65657106D01*
X113482931Y-65484705D01*
X113567858Y-65325817D01*
X113682151Y-65186551D01*
X113821417Y-65072258D01*
X113980305Y-64987331D01*
X114152706Y-64935033D01*
X114287069Y-64921800D01*
X114376931Y-64921800D01*
X114511294Y-64935033D01*
X114511294Y-64935033D01*
G37*
G36*
X101251294Y-64935033D02*
G01*
X101423695Y-64987331D01*
X101582583Y-65072258D01*
X101721849Y-65186551D01*
X101836142Y-65325817D01*
X101921069Y-65484705D01*
X101973367Y-65657106D01*
X101991025Y-65836400D01*
X101973367Y-66015694D01*
X101921069Y-66188095D01*
X101836142Y-66346983D01*
X101721849Y-66486249D01*
X101582583Y-66600542D01*
X101423695Y-66685469D01*
X101251294Y-66737767D01*
X101116931Y-66751000D01*
X101027069Y-66751000D01*
X100892706Y-66737767D01*
X100720305Y-66685469D01*
X100561417Y-66600542D01*
X100422151Y-66486249D01*
X100307858Y-66346983D01*
X100222931Y-66188095D01*
X100170633Y-66015694D01*
X100152975Y-65836400D01*
X100170633Y-65657106D01*
X100222931Y-65484705D01*
X100307858Y-65325817D01*
X100422151Y-65186551D01*
X100561417Y-65072258D01*
X100720305Y-64987331D01*
X100892706Y-64935033D01*
X101027069Y-64921800D01*
X101116931Y-64921800D01*
X101251294Y-64935033D01*
X101251294Y-64935033D01*
G37*
G36*
X91516495Y-60781423D02*
G01*
X91523510Y-60783551D01*
X91529976Y-60787008D01*
X91535642Y-60791658D01*
X91540292Y-60797324D01*
X91543749Y-60803790D01*
X91545877Y-60810805D01*
X91547200Y-60824240D01*
X91547200Y-61137960D01*
X91545877Y-61151395D01*
X91543749Y-61158409D01*
X91536390Y-61172177D01*
X91527013Y-61194816D01*
X91522233Y-61218849D01*
X91522233Y-61243353D01*
X91527014Y-61267386D01*
X91536390Y-61290023D01*
X91543749Y-61303791D01*
X91545877Y-61310805D01*
X91547200Y-61324240D01*
X91547200Y-61637960D01*
X91545877Y-61651395D01*
X91543749Y-61658409D01*
X91536390Y-61672177D01*
X91527013Y-61694816D01*
X91522233Y-61718849D01*
X91522233Y-61743353D01*
X91527014Y-61767386D01*
X91536390Y-61790023D01*
X91543749Y-61803791D01*
X91545877Y-61810805D01*
X91547200Y-61824240D01*
X91547200Y-62137960D01*
X91545877Y-62151395D01*
X91543749Y-62158409D01*
X91536390Y-62172177D01*
X91527013Y-62194816D01*
X91522233Y-62218849D01*
X91522233Y-62243353D01*
X91527014Y-62267386D01*
X91536390Y-62290023D01*
X91543749Y-62303791D01*
X91545877Y-62310805D01*
X91547200Y-62324240D01*
X91547200Y-62637960D01*
X91545877Y-62651395D01*
X91543749Y-62658409D01*
X91536390Y-62672177D01*
X91527013Y-62694816D01*
X91522233Y-62718849D01*
X91522233Y-62743353D01*
X91527014Y-62767386D01*
X91536390Y-62790023D01*
X91543749Y-62803791D01*
X91545877Y-62810805D01*
X91547200Y-62824240D01*
X91547200Y-63137960D01*
X91545877Y-63151395D01*
X91543749Y-63158409D01*
X91536390Y-63172177D01*
X91527013Y-63194816D01*
X91522233Y-63218849D01*
X91522233Y-63243353D01*
X91527014Y-63267386D01*
X91536390Y-63290023D01*
X91543749Y-63303791D01*
X91545877Y-63310805D01*
X91547200Y-63324240D01*
X91547200Y-63637960D01*
X91545877Y-63651395D01*
X91543749Y-63658409D01*
X91536390Y-63672177D01*
X91527013Y-63694816D01*
X91522233Y-63718849D01*
X91522233Y-63743353D01*
X91527014Y-63767386D01*
X91536390Y-63790023D01*
X91543749Y-63803791D01*
X91545877Y-63810805D01*
X91547200Y-63824240D01*
X91547200Y-64137960D01*
X91545877Y-64151395D01*
X91543749Y-64158409D01*
X91536390Y-64172177D01*
X91527013Y-64194816D01*
X91522233Y-64218849D01*
X91522233Y-64243353D01*
X91527014Y-64267386D01*
X91536390Y-64290023D01*
X91543749Y-64303791D01*
X91545877Y-64310805D01*
X91547200Y-64324240D01*
X91547200Y-64637960D01*
X91545877Y-64651395D01*
X91543749Y-64658409D01*
X91536390Y-64672177D01*
X91527013Y-64694816D01*
X91522233Y-64718849D01*
X91522233Y-64743353D01*
X91527014Y-64767386D01*
X91536390Y-64790023D01*
X91543749Y-64803791D01*
X91545877Y-64810805D01*
X91547200Y-64824240D01*
X91547200Y-65137960D01*
X91545877Y-65151395D01*
X91543749Y-65158409D01*
X91536390Y-65172177D01*
X91527013Y-65194816D01*
X91522233Y-65218849D01*
X91522233Y-65243353D01*
X91527014Y-65267386D01*
X91536390Y-65290023D01*
X91543749Y-65303791D01*
X91545877Y-65310805D01*
X91547200Y-65324240D01*
X91547200Y-65637960D01*
X91545877Y-65651395D01*
X91543749Y-65658409D01*
X91536390Y-65672177D01*
X91527013Y-65694816D01*
X91522233Y-65718849D01*
X91522233Y-65743353D01*
X91527014Y-65767386D01*
X91536390Y-65790023D01*
X91543749Y-65803791D01*
X91545877Y-65810805D01*
X91547200Y-65824240D01*
X91547200Y-66137960D01*
X91545877Y-66151395D01*
X91543749Y-66158409D01*
X91536390Y-66172177D01*
X91527013Y-66194816D01*
X91522233Y-66218849D01*
X91522233Y-66243353D01*
X91527014Y-66267386D01*
X91536390Y-66290023D01*
X91543749Y-66303791D01*
X91545877Y-66310805D01*
X91547200Y-66324240D01*
X91547200Y-66637960D01*
X91545877Y-66651395D01*
X91543749Y-66658410D01*
X91540292Y-66664876D01*
X91535642Y-66670542D01*
X91529976Y-66675192D01*
X91523510Y-66678649D01*
X91516495Y-66680777D01*
X91503060Y-66682100D01*
X90014340Y-66682100D01*
X90000905Y-66680777D01*
X89993890Y-66678649D01*
X89987424Y-66675192D01*
X89981758Y-66670542D01*
X89977108Y-66664876D01*
X89973651Y-66658410D01*
X89971523Y-66651395D01*
X89970200Y-66637960D01*
X89970200Y-66324240D01*
X89971523Y-66310805D01*
X89973651Y-66303791D01*
X89981010Y-66290023D01*
X89990387Y-66267384D01*
X89995167Y-66243351D01*
X89995167Y-66218847D01*
X89990386Y-66194814D01*
X89981010Y-66172177D01*
X89973651Y-66158409D01*
X89971523Y-66151395D01*
X89970200Y-66137960D01*
X89970200Y-65824240D01*
X89971523Y-65810805D01*
X89973651Y-65803791D01*
X89981010Y-65790023D01*
X89990387Y-65767384D01*
X89995167Y-65743351D01*
X89995167Y-65718847D01*
X89990386Y-65694814D01*
X89981010Y-65672177D01*
X89973651Y-65658409D01*
X89971523Y-65651395D01*
X89970200Y-65637960D01*
X89970200Y-65324240D01*
X89971523Y-65310805D01*
X89973651Y-65303791D01*
X89981010Y-65290023D01*
X89990387Y-65267384D01*
X89995167Y-65243351D01*
X89995167Y-65218847D01*
X89990386Y-65194814D01*
X89981010Y-65172177D01*
X89973651Y-65158409D01*
X89971523Y-65151395D01*
X89970200Y-65137960D01*
X89970200Y-64824240D01*
X89971523Y-64810805D01*
X89973651Y-64803791D01*
X89981010Y-64790023D01*
X89990387Y-64767384D01*
X89995167Y-64743351D01*
X89995167Y-64718847D01*
X89990386Y-64694814D01*
X89981010Y-64672177D01*
X89973651Y-64658409D01*
X89971523Y-64651395D01*
X89970200Y-64637960D01*
X89970200Y-64324240D01*
X89971523Y-64310805D01*
X89973651Y-64303791D01*
X89981010Y-64290023D01*
X89990387Y-64267384D01*
X89995167Y-64243351D01*
X89995167Y-64218847D01*
X89990386Y-64194814D01*
X89981010Y-64172177D01*
X89973651Y-64158409D01*
X89971523Y-64151395D01*
X89970200Y-64137960D01*
X89970200Y-63824240D01*
X89971523Y-63810805D01*
X89973651Y-63803791D01*
X89981010Y-63790023D01*
X89990387Y-63767384D01*
X89995167Y-63743351D01*
X89995167Y-63718847D01*
X89990386Y-63694814D01*
X89981010Y-63672177D01*
X89973651Y-63658409D01*
X89971523Y-63651395D01*
X89970200Y-63637960D01*
X89970200Y-63324240D01*
X89971523Y-63310805D01*
X89973651Y-63303791D01*
X89981010Y-63290023D01*
X89990387Y-63267384D01*
X89995167Y-63243351D01*
X89995167Y-63218847D01*
X89990386Y-63194814D01*
X89981010Y-63172177D01*
X89973651Y-63158409D01*
X89971523Y-63151395D01*
X89970200Y-63137960D01*
X89970200Y-62824240D01*
X89971523Y-62810805D01*
X89973651Y-62803791D01*
X89981010Y-62790023D01*
X89990387Y-62767384D01*
X89995167Y-62743351D01*
X89995167Y-62718847D01*
X89990386Y-62694814D01*
X89981010Y-62672177D01*
X89973651Y-62658409D01*
X89971523Y-62651395D01*
X89970200Y-62637960D01*
X89970200Y-62324240D01*
X89971523Y-62310805D01*
X89973651Y-62303791D01*
X89981010Y-62290023D01*
X89990387Y-62267384D01*
X89995167Y-62243351D01*
X89995167Y-62218847D01*
X89990386Y-62194814D01*
X89981010Y-62172177D01*
X89973651Y-62158409D01*
X89971523Y-62151395D01*
X89970200Y-62137960D01*
X89970200Y-61824240D01*
X89971523Y-61810805D01*
X89973651Y-61803791D01*
X89981010Y-61790023D01*
X89990387Y-61767384D01*
X89995167Y-61743351D01*
X89995167Y-61718847D01*
X89990386Y-61694814D01*
X89981010Y-61672177D01*
X89973651Y-61658409D01*
X89971523Y-61651395D01*
X89970200Y-61637960D01*
X89970200Y-61324240D01*
X89971523Y-61310805D01*
X89973651Y-61303791D01*
X89981010Y-61290023D01*
X89990387Y-61267384D01*
X89995167Y-61243351D01*
X89995167Y-61218847D01*
X89990386Y-61194814D01*
X89981010Y-61172177D01*
X89973651Y-61158409D01*
X89971523Y-61151395D01*
X89970200Y-61137960D01*
X89970200Y-60824240D01*
X89971523Y-60810805D01*
X89973651Y-60803790D01*
X89977108Y-60797324D01*
X89981758Y-60791658D01*
X89987424Y-60787008D01*
X89993890Y-60783551D01*
X90000905Y-60781423D01*
X90014340Y-60780100D01*
X91503060Y-60780100D01*
X91516495Y-60781423D01*
X91516495Y-60781423D01*
G37*
G36*
X83191495Y-60781423D02*
G01*
X83198510Y-60783551D01*
X83204976Y-60787008D01*
X83210642Y-60791658D01*
X83215292Y-60797324D01*
X83218749Y-60803790D01*
X83220877Y-60810805D01*
X83222200Y-60824240D01*
X83222200Y-61137960D01*
X83220877Y-61151395D01*
X83218749Y-61158409D01*
X83211390Y-61172177D01*
X83202013Y-61194816D01*
X83197233Y-61218849D01*
X83197233Y-61243353D01*
X83202014Y-61267386D01*
X83211390Y-61290023D01*
X83218749Y-61303791D01*
X83220877Y-61310805D01*
X83222200Y-61324240D01*
X83222200Y-61637960D01*
X83220877Y-61651395D01*
X83218749Y-61658409D01*
X83211390Y-61672177D01*
X83202013Y-61694816D01*
X83197233Y-61718849D01*
X83197233Y-61743353D01*
X83202014Y-61767386D01*
X83211390Y-61790023D01*
X83218749Y-61803791D01*
X83220877Y-61810805D01*
X83222200Y-61824240D01*
X83222200Y-62137960D01*
X83220877Y-62151395D01*
X83218749Y-62158409D01*
X83211390Y-62172177D01*
X83202013Y-62194816D01*
X83197233Y-62218849D01*
X83197233Y-62243353D01*
X83202014Y-62267386D01*
X83211390Y-62290023D01*
X83218749Y-62303791D01*
X83220877Y-62310805D01*
X83222200Y-62324240D01*
X83222200Y-62637960D01*
X83220877Y-62651395D01*
X83218749Y-62658409D01*
X83211390Y-62672177D01*
X83202013Y-62694816D01*
X83197233Y-62718849D01*
X83197233Y-62743353D01*
X83202014Y-62767386D01*
X83211390Y-62790023D01*
X83218749Y-62803791D01*
X83220877Y-62810805D01*
X83222200Y-62824240D01*
X83222200Y-63137960D01*
X83220877Y-63151395D01*
X83218749Y-63158409D01*
X83211390Y-63172177D01*
X83202013Y-63194816D01*
X83197233Y-63218849D01*
X83197233Y-63243353D01*
X83202014Y-63267386D01*
X83211390Y-63290023D01*
X83218749Y-63303791D01*
X83220877Y-63310805D01*
X83222200Y-63324240D01*
X83222200Y-63637960D01*
X83220877Y-63651395D01*
X83218749Y-63658409D01*
X83211390Y-63672177D01*
X83202013Y-63694816D01*
X83197233Y-63718849D01*
X83197233Y-63743353D01*
X83202014Y-63767386D01*
X83211390Y-63790023D01*
X83218749Y-63803791D01*
X83220877Y-63810805D01*
X83222200Y-63824240D01*
X83222200Y-64137960D01*
X83220877Y-64151395D01*
X83218749Y-64158409D01*
X83211390Y-64172177D01*
X83202013Y-64194816D01*
X83197233Y-64218849D01*
X83197233Y-64243353D01*
X83202014Y-64267386D01*
X83211390Y-64290023D01*
X83218749Y-64303791D01*
X83220877Y-64310805D01*
X83222200Y-64324240D01*
X83222200Y-64637960D01*
X83220877Y-64651395D01*
X83218749Y-64658409D01*
X83211390Y-64672177D01*
X83202013Y-64694816D01*
X83197233Y-64718849D01*
X83197233Y-64743353D01*
X83202014Y-64767386D01*
X83211390Y-64790023D01*
X83218749Y-64803791D01*
X83220877Y-64810805D01*
X83222200Y-64824240D01*
X83222200Y-65137960D01*
X83220877Y-65151395D01*
X83218749Y-65158409D01*
X83211390Y-65172177D01*
X83202013Y-65194816D01*
X83197233Y-65218849D01*
X83197233Y-65243353D01*
X83202014Y-65267386D01*
X83211390Y-65290023D01*
X83218749Y-65303791D01*
X83220877Y-65310805D01*
X83222200Y-65324240D01*
X83222200Y-65637960D01*
X83220877Y-65651395D01*
X83218749Y-65658409D01*
X83211390Y-65672177D01*
X83202013Y-65694816D01*
X83197233Y-65718849D01*
X83197233Y-65743353D01*
X83202014Y-65767386D01*
X83211390Y-65790023D01*
X83218749Y-65803791D01*
X83220877Y-65810805D01*
X83222200Y-65824240D01*
X83222200Y-66137960D01*
X83220877Y-66151395D01*
X83218749Y-66158409D01*
X83211390Y-66172177D01*
X83202013Y-66194816D01*
X83197233Y-66218849D01*
X83197233Y-66243353D01*
X83202014Y-66267386D01*
X83211390Y-66290023D01*
X83218749Y-66303791D01*
X83220877Y-66310805D01*
X83222200Y-66324240D01*
X83222200Y-66637960D01*
X83220877Y-66651395D01*
X83218749Y-66658410D01*
X83215292Y-66664876D01*
X83210642Y-66670542D01*
X83204976Y-66675192D01*
X83198510Y-66678649D01*
X83191495Y-66680777D01*
X83178060Y-66682100D01*
X81689340Y-66682100D01*
X81675905Y-66680777D01*
X81668890Y-66678649D01*
X81662424Y-66675192D01*
X81656758Y-66670542D01*
X81652108Y-66664876D01*
X81648651Y-66658410D01*
X81646523Y-66651395D01*
X81645200Y-66637960D01*
X81645200Y-66324240D01*
X81646523Y-66310805D01*
X81648651Y-66303791D01*
X81656010Y-66290023D01*
X81665387Y-66267384D01*
X81670167Y-66243351D01*
X81670167Y-66218847D01*
X81665386Y-66194814D01*
X81656010Y-66172177D01*
X81648651Y-66158409D01*
X81646523Y-66151395D01*
X81645200Y-66137960D01*
X81645200Y-65824240D01*
X81646523Y-65810805D01*
X81648651Y-65803791D01*
X81656010Y-65790023D01*
X81665387Y-65767384D01*
X81670167Y-65743351D01*
X81670167Y-65718847D01*
X81665386Y-65694814D01*
X81656010Y-65672177D01*
X81648651Y-65658409D01*
X81646523Y-65651395D01*
X81645200Y-65637960D01*
X81645200Y-65324240D01*
X81646523Y-65310805D01*
X81648651Y-65303791D01*
X81656010Y-65290023D01*
X81665387Y-65267384D01*
X81670167Y-65243351D01*
X81670167Y-65218847D01*
X81665386Y-65194814D01*
X81656010Y-65172177D01*
X81648651Y-65158409D01*
X81646523Y-65151395D01*
X81645200Y-65137960D01*
X81645200Y-64824240D01*
X81646523Y-64810805D01*
X81648651Y-64803791D01*
X81656010Y-64790023D01*
X81665387Y-64767384D01*
X81670167Y-64743351D01*
X81670167Y-64718847D01*
X81665386Y-64694814D01*
X81656010Y-64672177D01*
X81648651Y-64658409D01*
X81646523Y-64651395D01*
X81645200Y-64637960D01*
X81645200Y-64324240D01*
X81646523Y-64310805D01*
X81648651Y-64303791D01*
X81656010Y-64290023D01*
X81665387Y-64267384D01*
X81670167Y-64243351D01*
X81670167Y-64218847D01*
X81665386Y-64194814D01*
X81656010Y-64172177D01*
X81648651Y-64158409D01*
X81646523Y-64151395D01*
X81645200Y-64137960D01*
X81645200Y-63824240D01*
X81646523Y-63810805D01*
X81648651Y-63803791D01*
X81656010Y-63790023D01*
X81665387Y-63767384D01*
X81670167Y-63743351D01*
X81670167Y-63718847D01*
X81665386Y-63694814D01*
X81656010Y-63672177D01*
X81648651Y-63658409D01*
X81646523Y-63651395D01*
X81645200Y-63637960D01*
X81645200Y-63324240D01*
X81646523Y-63310805D01*
X81648651Y-63303791D01*
X81656010Y-63290023D01*
X81665387Y-63267384D01*
X81670167Y-63243351D01*
X81670167Y-63218847D01*
X81665386Y-63194814D01*
X81656010Y-63172177D01*
X81648651Y-63158409D01*
X81646523Y-63151395D01*
X81645200Y-63137960D01*
X81645200Y-62824240D01*
X81646523Y-62810805D01*
X81648651Y-62803791D01*
X81656010Y-62790023D01*
X81665387Y-62767384D01*
X81670167Y-62743351D01*
X81670167Y-62718847D01*
X81665386Y-62694814D01*
X81656010Y-62672177D01*
X81648651Y-62658409D01*
X81646523Y-62651395D01*
X81645200Y-62637960D01*
X81645200Y-62324240D01*
X81646523Y-62310805D01*
X81648651Y-62303791D01*
X81656010Y-62290023D01*
X81665387Y-62267384D01*
X81670167Y-62243351D01*
X81670167Y-62218847D01*
X81665386Y-62194814D01*
X81656010Y-62172177D01*
X81648651Y-62158409D01*
X81646523Y-62151395D01*
X81645200Y-62137960D01*
X81645200Y-61824240D01*
X81646523Y-61810805D01*
X81648651Y-61803791D01*
X81656010Y-61790023D01*
X81665387Y-61767384D01*
X81670167Y-61743351D01*
X81670167Y-61718847D01*
X81665386Y-61694814D01*
X81656010Y-61672177D01*
X81648651Y-61658409D01*
X81646523Y-61651395D01*
X81645200Y-61637960D01*
X81645200Y-61324240D01*
X81646523Y-61310805D01*
X81648651Y-61303791D01*
X81656010Y-61290023D01*
X81665387Y-61267384D01*
X81670167Y-61243351D01*
X81670167Y-61218847D01*
X81665386Y-61194814D01*
X81656010Y-61172177D01*
X81648651Y-61158409D01*
X81646523Y-61151395D01*
X81645200Y-61137960D01*
X81645200Y-60824240D01*
X81646523Y-60810805D01*
X81648651Y-60803790D01*
X81652108Y-60797324D01*
X81656758Y-60791658D01*
X81662424Y-60787008D01*
X81668890Y-60783551D01*
X81675905Y-60781423D01*
X81689340Y-60780100D01*
X83178060Y-60780100D01*
X83191495Y-60781423D01*
X83191495Y-60781423D01*
G37*
G36*
X78225642Y-64515618D02*
G01*
X78291827Y-64522137D01*
X78461666Y-64573657D01*
X78618191Y-64657322D01*
X78639061Y-64674450D01*
X78755386Y-64769914D01*
X78800400Y-64824765D01*
X78867978Y-64907109D01*
X78951643Y-65063634D01*
X79003163Y-65233473D01*
X79020559Y-65410100D01*
X79003163Y-65586727D01*
X78951643Y-65756566D01*
X78867978Y-65913091D01*
X78838648Y-65948829D01*
X78755386Y-66050286D01*
X78670365Y-66120060D01*
X78618191Y-66162878D01*
X78461666Y-66246543D01*
X78291827Y-66298063D01*
X78225642Y-66304582D01*
X78159460Y-66311100D01*
X78070940Y-66311100D01*
X78004758Y-66304582D01*
X77938573Y-66298063D01*
X77768734Y-66246543D01*
X77612209Y-66162878D01*
X77560035Y-66120060D01*
X77475014Y-66050286D01*
X77391752Y-65948829D01*
X77362422Y-65913091D01*
X77278757Y-65756566D01*
X77227237Y-65586727D01*
X77209841Y-65410100D01*
X77227237Y-65233473D01*
X77278757Y-65063634D01*
X77362422Y-64907109D01*
X77430000Y-64824765D01*
X77475014Y-64769914D01*
X77591339Y-64674450D01*
X77612209Y-64657322D01*
X77768734Y-64573657D01*
X77938573Y-64522137D01*
X78004758Y-64515618D01*
X78070940Y-64509100D01*
X78159460Y-64509100D01*
X78225642Y-64515618D01*
X78225642Y-64515618D01*
G37*
G36*
X101251294Y-62395033D02*
G01*
X101423695Y-62447331D01*
X101582583Y-62532258D01*
X101721849Y-62646551D01*
X101836142Y-62785817D01*
X101921069Y-62944705D01*
X101973367Y-63117106D01*
X101991025Y-63296400D01*
X101973367Y-63475694D01*
X101921069Y-63648095D01*
X101836142Y-63806983D01*
X101721849Y-63946249D01*
X101582583Y-64060542D01*
X101423695Y-64145469D01*
X101251294Y-64197767D01*
X101116931Y-64211000D01*
X101027069Y-64211000D01*
X100892706Y-64197767D01*
X100720305Y-64145469D01*
X100561417Y-64060542D01*
X100422151Y-63946249D01*
X100307858Y-63806983D01*
X100222931Y-63648095D01*
X100170633Y-63475694D01*
X100152975Y-63296400D01*
X100170633Y-63117106D01*
X100222931Y-62944705D01*
X100307858Y-62785817D01*
X100422151Y-62646551D01*
X100561417Y-62532258D01*
X100720305Y-62447331D01*
X100892706Y-62395033D01*
X101027069Y-62381800D01*
X101116931Y-62381800D01*
X101251294Y-62395033D01*
X101251294Y-62395033D01*
G37*
G36*
X111971294Y-62395033D02*
G01*
X112143695Y-62447331D01*
X112302583Y-62532258D01*
X112441849Y-62646551D01*
X112556142Y-62785817D01*
X112641069Y-62944705D01*
X112693367Y-63117106D01*
X112711025Y-63296400D01*
X112693367Y-63475694D01*
X112641069Y-63648095D01*
X112556142Y-63806983D01*
X112441849Y-63946249D01*
X112302583Y-64060542D01*
X112143695Y-64145469D01*
X111971294Y-64197767D01*
X111836931Y-64211000D01*
X111747069Y-64211000D01*
X111612706Y-64197767D01*
X111440305Y-64145469D01*
X111281417Y-64060542D01*
X111142151Y-63946249D01*
X111027858Y-63806983D01*
X110942931Y-63648095D01*
X110890633Y-63475694D01*
X110872975Y-63296400D01*
X110890633Y-63117106D01*
X110942931Y-62944705D01*
X111027858Y-62785817D01*
X111142151Y-62646551D01*
X111281417Y-62532258D01*
X111440305Y-62447331D01*
X111612706Y-62395033D01*
X111747069Y-62381800D01*
X111836931Y-62381800D01*
X111971294Y-62395033D01*
X111971294Y-62395033D01*
G37*
G36*
X114511294Y-62395033D02*
G01*
X114683695Y-62447331D01*
X114842583Y-62532258D01*
X114981849Y-62646551D01*
X115096142Y-62785817D01*
X115181069Y-62944705D01*
X115233367Y-63117106D01*
X115251025Y-63296400D01*
X115233367Y-63475694D01*
X115181069Y-63648095D01*
X115096142Y-63806983D01*
X114981849Y-63946249D01*
X114842583Y-64060542D01*
X114683695Y-64145469D01*
X114511294Y-64197767D01*
X114376931Y-64211000D01*
X114287069Y-64211000D01*
X114152706Y-64197767D01*
X113980305Y-64145469D01*
X113821417Y-64060542D01*
X113682151Y-63946249D01*
X113567858Y-63806983D01*
X113482931Y-63648095D01*
X113430633Y-63475694D01*
X113412975Y-63296400D01*
X113430633Y-63117106D01*
X113482931Y-62944705D01*
X113567858Y-62785817D01*
X113682151Y-62646551D01*
X113821417Y-62532258D01*
X113980305Y-62447331D01*
X114152706Y-62395033D01*
X114287069Y-62381800D01*
X114376931Y-62381800D01*
X114511294Y-62395033D01*
X114511294Y-62395033D01*
G37*
G36*
X103791294Y-62395033D02*
G01*
X103963695Y-62447331D01*
X104122583Y-62532258D01*
X104261849Y-62646551D01*
X104376142Y-62785817D01*
X104461069Y-62944705D01*
X104513367Y-63117106D01*
X104531025Y-63296400D01*
X104513367Y-63475694D01*
X104461069Y-63648095D01*
X104376142Y-63806983D01*
X104261849Y-63946249D01*
X104122583Y-64060542D01*
X103963695Y-64145469D01*
X103791294Y-64197767D01*
X103656931Y-64211000D01*
X103567069Y-64211000D01*
X103432706Y-64197767D01*
X103260305Y-64145469D01*
X103101417Y-64060542D01*
X102962151Y-63946249D01*
X102847858Y-63806983D01*
X102762931Y-63648095D01*
X102710633Y-63475694D01*
X102692975Y-63296400D01*
X102710633Y-63117106D01*
X102762931Y-62944705D01*
X102847858Y-62785817D01*
X102962151Y-62646551D01*
X103101417Y-62532258D01*
X103260305Y-62447331D01*
X103432706Y-62395033D01*
X103567069Y-62381800D01*
X103656931Y-62381800D01*
X103791294Y-62395033D01*
X103791294Y-62395033D01*
G37*
G36*
X78225643Y-61975619D02*
G01*
X78291827Y-61982137D01*
X78461666Y-62033657D01*
X78461668Y-62033658D01*
X78515885Y-62062638D01*
X78618191Y-62117322D01*
X78643338Y-62137960D01*
X78755386Y-62229914D01*
X78832796Y-62324240D01*
X78867978Y-62367109D01*
X78951643Y-62523634D01*
X79003163Y-62693473D01*
X79020559Y-62870100D01*
X79003163Y-63046727D01*
X78951643Y-63216566D01*
X78867978Y-63373091D01*
X78861815Y-63380600D01*
X78755386Y-63510286D01*
X78668488Y-63581600D01*
X78618191Y-63622878D01*
X78461666Y-63706543D01*
X78291827Y-63758063D01*
X78225643Y-63764581D01*
X78159460Y-63771100D01*
X78070940Y-63771100D01*
X78004757Y-63764581D01*
X77938573Y-63758063D01*
X77768734Y-63706543D01*
X77612209Y-63622878D01*
X77561912Y-63581600D01*
X77475014Y-63510286D01*
X77368585Y-63380600D01*
X77362422Y-63373091D01*
X77278757Y-63216566D01*
X77227237Y-63046727D01*
X77209841Y-62870100D01*
X77227237Y-62693473D01*
X77278757Y-62523634D01*
X77362422Y-62367109D01*
X77397604Y-62324240D01*
X77475014Y-62229914D01*
X77587062Y-62137960D01*
X77612209Y-62117322D01*
X77714515Y-62062638D01*
X77768732Y-62033658D01*
X77768734Y-62033657D01*
X77938573Y-61982137D01*
X78004757Y-61975619D01*
X78070940Y-61969100D01*
X78159460Y-61969100D01*
X78225643Y-61975619D01*
X78225643Y-61975619D01*
G37*
G36*
X92839538Y-61462416D02*
G01*
X92860157Y-61468671D01*
X92879153Y-61478824D01*
X92895808Y-61492492D01*
X92909476Y-61509147D01*
X92919629Y-61528143D01*
X92925884Y-61548762D01*
X92928600Y-61576340D01*
X92928600Y-62035060D01*
X92925884Y-62062638D01*
X92919629Y-62083257D01*
X92909476Y-62102253D01*
X92895808Y-62118908D01*
X92879153Y-62132576D01*
X92860157Y-62142729D01*
X92839538Y-62148984D01*
X92811960Y-62151700D01*
X92303240Y-62151700D01*
X92275662Y-62148984D01*
X92255043Y-62142729D01*
X92236047Y-62132576D01*
X92219392Y-62118908D01*
X92205724Y-62102253D01*
X92195571Y-62083257D01*
X92189316Y-62062638D01*
X92186600Y-62035060D01*
X92186600Y-61576340D01*
X92189316Y-61548762D01*
X92195571Y-61528143D01*
X92205724Y-61509147D01*
X92219392Y-61492492D01*
X92236047Y-61478824D01*
X92255043Y-61468671D01*
X92275662Y-61462416D01*
X92303240Y-61459700D01*
X92811960Y-61459700D01*
X92839538Y-61462416D01*
X92839538Y-61462416D01*
G37*
G36*
X114511294Y-59855033D02*
G01*
X114683695Y-59907331D01*
X114842583Y-59992258D01*
X114981849Y-60106551D01*
X115096142Y-60245817D01*
X115181069Y-60404705D01*
X115233367Y-60577106D01*
X115251025Y-60756400D01*
X115233367Y-60935694D01*
X115181069Y-61108095D01*
X115096142Y-61266983D01*
X114981849Y-61406249D01*
X114842583Y-61520542D01*
X114683695Y-61605469D01*
X114511294Y-61657767D01*
X114376931Y-61671000D01*
X114287069Y-61671000D01*
X114152706Y-61657767D01*
X113980305Y-61605469D01*
X113821417Y-61520542D01*
X113682151Y-61406249D01*
X113567858Y-61266983D01*
X113482931Y-61108095D01*
X113430633Y-60935694D01*
X113412975Y-60756400D01*
X113430633Y-60577106D01*
X113482931Y-60404705D01*
X113567858Y-60245817D01*
X113682151Y-60106551D01*
X113821417Y-59992258D01*
X113980305Y-59907331D01*
X114152706Y-59855033D01*
X114287069Y-59841800D01*
X114376931Y-59841800D01*
X114511294Y-59855033D01*
X114511294Y-59855033D01*
G37*
G36*
X111971294Y-59855033D02*
G01*
X112143695Y-59907331D01*
X112302583Y-59992258D01*
X112441849Y-60106551D01*
X112556142Y-60245817D01*
X112641069Y-60404705D01*
X112693367Y-60577106D01*
X112711025Y-60756400D01*
X112693367Y-60935694D01*
X112641069Y-61108095D01*
X112556142Y-61266983D01*
X112441849Y-61406249D01*
X112302583Y-61520542D01*
X112143695Y-61605469D01*
X111971294Y-61657767D01*
X111836931Y-61671000D01*
X111747069Y-61671000D01*
X111612706Y-61657767D01*
X111440305Y-61605469D01*
X111281417Y-61520542D01*
X111142151Y-61406249D01*
X111027858Y-61266983D01*
X110942931Y-61108095D01*
X110890633Y-60935694D01*
X110872975Y-60756400D01*
X110890633Y-60577106D01*
X110942931Y-60404705D01*
X111027858Y-60245817D01*
X111142151Y-60106551D01*
X111281417Y-59992258D01*
X111440305Y-59907331D01*
X111612706Y-59855033D01*
X111747069Y-59841800D01*
X111836931Y-59841800D01*
X111971294Y-59855033D01*
X111971294Y-59855033D01*
G37*
G36*
X103791294Y-59855033D02*
G01*
X103963695Y-59907331D01*
X104122583Y-59992258D01*
X104261849Y-60106551D01*
X104376142Y-60245817D01*
X104461069Y-60404705D01*
X104513367Y-60577106D01*
X104531025Y-60756400D01*
X104513367Y-60935694D01*
X104461069Y-61108095D01*
X104376142Y-61266983D01*
X104261849Y-61406249D01*
X104122583Y-61520542D01*
X103963695Y-61605469D01*
X103791294Y-61657767D01*
X103656931Y-61671000D01*
X103567069Y-61671000D01*
X103432706Y-61657767D01*
X103260305Y-61605469D01*
X103101417Y-61520542D01*
X102962151Y-61406249D01*
X102847858Y-61266983D01*
X102762931Y-61108095D01*
X102710633Y-60935694D01*
X102692975Y-60756400D01*
X102710633Y-60577106D01*
X102762931Y-60404705D01*
X102847858Y-60245817D01*
X102962151Y-60106551D01*
X103101417Y-59992258D01*
X103260305Y-59907331D01*
X103432706Y-59855033D01*
X103567069Y-59841800D01*
X103656931Y-59841800D01*
X103791294Y-59855033D01*
X103791294Y-59855033D01*
G37*
G36*
X101251294Y-59855033D02*
G01*
X101423695Y-59907331D01*
X101582583Y-59992258D01*
X101721849Y-60106551D01*
X101836142Y-60245817D01*
X101921069Y-60404705D01*
X101973367Y-60577106D01*
X101991025Y-60756400D01*
X101973367Y-60935694D01*
X101921069Y-61108095D01*
X101836142Y-61266983D01*
X101721849Y-61406249D01*
X101582583Y-61520542D01*
X101423695Y-61605469D01*
X101251294Y-61657767D01*
X101116931Y-61671000D01*
X101027069Y-61671000D01*
X100892706Y-61657767D01*
X100720305Y-61605469D01*
X100561417Y-61520542D01*
X100422151Y-61406249D01*
X100307858Y-61266983D01*
X100222931Y-61108095D01*
X100170633Y-60935694D01*
X100152975Y-60756400D01*
X100170633Y-60577106D01*
X100222931Y-60404705D01*
X100307858Y-60245817D01*
X100422151Y-60106551D01*
X100561417Y-59992258D01*
X100720305Y-59907331D01*
X100892706Y-59855033D01*
X101027069Y-59841800D01*
X101116931Y-59841800D01*
X101251294Y-59855033D01*
X101251294Y-59855033D01*
G37*
G36*
X78225642Y-59435618D02*
G01*
X78291827Y-59442137D01*
X78461666Y-59493657D01*
X78618191Y-59577322D01*
X78653929Y-59606652D01*
X78755386Y-59689914D01*
X78838648Y-59791371D01*
X78867978Y-59827109D01*
X78951643Y-59983634D01*
X79003163Y-60153473D01*
X79020559Y-60330100D01*
X79003163Y-60506727D01*
X78951643Y-60676566D01*
X78867978Y-60833091D01*
X78845079Y-60860993D01*
X78755386Y-60970286D01*
X78667451Y-61042451D01*
X78618191Y-61082878D01*
X78461666Y-61166543D01*
X78291827Y-61218063D01*
X78225643Y-61224581D01*
X78159460Y-61231100D01*
X78070940Y-61231100D01*
X78004757Y-61224581D01*
X77938573Y-61218063D01*
X77768734Y-61166543D01*
X77612209Y-61082878D01*
X77562949Y-61042451D01*
X77475014Y-60970286D01*
X77385321Y-60860993D01*
X77362422Y-60833091D01*
X77278757Y-60676566D01*
X77227237Y-60506727D01*
X77209841Y-60330100D01*
X77227237Y-60153473D01*
X77278757Y-59983634D01*
X77362422Y-59827109D01*
X77391752Y-59791371D01*
X77475014Y-59689914D01*
X77576471Y-59606652D01*
X77612209Y-59577322D01*
X77768734Y-59493657D01*
X77938573Y-59442137D01*
X78004758Y-59435618D01*
X78070940Y-59429100D01*
X78159460Y-59429100D01*
X78225642Y-59435618D01*
X78225642Y-59435618D01*
G37*
G36*
X92839538Y-60492416D02*
G01*
X92860157Y-60498671D01*
X92879153Y-60508824D01*
X92895808Y-60522492D01*
X92909476Y-60539147D01*
X92919629Y-60558143D01*
X92925884Y-60578762D01*
X92928600Y-60606340D01*
X92928600Y-61065060D01*
X92925884Y-61092638D01*
X92919629Y-61113257D01*
X92909476Y-61132253D01*
X92895808Y-61148908D01*
X92879153Y-61162576D01*
X92860157Y-61172729D01*
X92839538Y-61178984D01*
X92811960Y-61181700D01*
X92303240Y-61181700D01*
X92275662Y-61178984D01*
X92255043Y-61172729D01*
X92236047Y-61162576D01*
X92219392Y-61148908D01*
X92205724Y-61132253D01*
X92195571Y-61113257D01*
X92189316Y-61092638D01*
X92186600Y-61065060D01*
X92186600Y-60606340D01*
X92189316Y-60578762D01*
X92195571Y-60558143D01*
X92205724Y-60539147D01*
X92219392Y-60522492D01*
X92236047Y-60508824D01*
X92255043Y-60498671D01*
X92275662Y-60492416D01*
X92303240Y-60489700D01*
X92811960Y-60489700D01*
X92839538Y-60492416D01*
X92839538Y-60492416D01*
G37*
G36*
X84016495Y-58781423D02*
G01*
X84023509Y-58783551D01*
X84037277Y-58790910D01*
X84059916Y-58800287D01*
X84083949Y-58805067D01*
X84108453Y-58805067D01*
X84132486Y-58800286D01*
X84155123Y-58790910D01*
X84168891Y-58783551D01*
X84175905Y-58781423D01*
X84189340Y-58780100D01*
X84503060Y-58780100D01*
X84516495Y-58781423D01*
X84523509Y-58783551D01*
X84537277Y-58790910D01*
X84559916Y-58800287D01*
X84583949Y-58805067D01*
X84608453Y-58805067D01*
X84632486Y-58800286D01*
X84655123Y-58790910D01*
X84668891Y-58783551D01*
X84675905Y-58781423D01*
X84689340Y-58780100D01*
X85003060Y-58780100D01*
X85016495Y-58781423D01*
X85023509Y-58783551D01*
X85037277Y-58790910D01*
X85059916Y-58800287D01*
X85083949Y-58805067D01*
X85108453Y-58805067D01*
X85132486Y-58800286D01*
X85155123Y-58790910D01*
X85168891Y-58783551D01*
X85175905Y-58781423D01*
X85189340Y-58780100D01*
X85503060Y-58780100D01*
X85516495Y-58781423D01*
X85523509Y-58783551D01*
X85537277Y-58790910D01*
X85559916Y-58800287D01*
X85583949Y-58805067D01*
X85608453Y-58805067D01*
X85632486Y-58800286D01*
X85655123Y-58790910D01*
X85668891Y-58783551D01*
X85675905Y-58781423D01*
X85689340Y-58780100D01*
X86003060Y-58780100D01*
X86016495Y-58781423D01*
X86023509Y-58783551D01*
X86037277Y-58790910D01*
X86059916Y-58800287D01*
X86083949Y-58805067D01*
X86108453Y-58805067D01*
X86132486Y-58800286D01*
X86155123Y-58790910D01*
X86168891Y-58783551D01*
X86175905Y-58781423D01*
X86189340Y-58780100D01*
X86503060Y-58780100D01*
X86516495Y-58781423D01*
X86523509Y-58783551D01*
X86537277Y-58790910D01*
X86559916Y-58800287D01*
X86583949Y-58805067D01*
X86608453Y-58805067D01*
X86632486Y-58800286D01*
X86655123Y-58790910D01*
X86668891Y-58783551D01*
X86675905Y-58781423D01*
X86689340Y-58780100D01*
X87003060Y-58780100D01*
X87016495Y-58781423D01*
X87023509Y-58783551D01*
X87037277Y-58790910D01*
X87059916Y-58800287D01*
X87083949Y-58805067D01*
X87108453Y-58805067D01*
X87132486Y-58800286D01*
X87155123Y-58790910D01*
X87168891Y-58783551D01*
X87175905Y-58781423D01*
X87189340Y-58780100D01*
X87503060Y-58780100D01*
X87516495Y-58781423D01*
X87523509Y-58783551D01*
X87537277Y-58790910D01*
X87559916Y-58800287D01*
X87583949Y-58805067D01*
X87608453Y-58805067D01*
X87632486Y-58800286D01*
X87655123Y-58790910D01*
X87668891Y-58783551D01*
X87675905Y-58781423D01*
X87689340Y-58780100D01*
X88003060Y-58780100D01*
X88016495Y-58781423D01*
X88023509Y-58783551D01*
X88037277Y-58790910D01*
X88059916Y-58800287D01*
X88083949Y-58805067D01*
X88108453Y-58805067D01*
X88132486Y-58800286D01*
X88155123Y-58790910D01*
X88168891Y-58783551D01*
X88175905Y-58781423D01*
X88189340Y-58780100D01*
X88503060Y-58780100D01*
X88516495Y-58781423D01*
X88523509Y-58783551D01*
X88537277Y-58790910D01*
X88559916Y-58800287D01*
X88583949Y-58805067D01*
X88608453Y-58805067D01*
X88632486Y-58800286D01*
X88655123Y-58790910D01*
X88668891Y-58783551D01*
X88675905Y-58781423D01*
X88689340Y-58780100D01*
X89003060Y-58780100D01*
X89016495Y-58781423D01*
X89023509Y-58783551D01*
X89037277Y-58790910D01*
X89059916Y-58800287D01*
X89083949Y-58805067D01*
X89108453Y-58805067D01*
X89132486Y-58800286D01*
X89155123Y-58790910D01*
X89168891Y-58783551D01*
X89175905Y-58781423D01*
X89189340Y-58780100D01*
X89503060Y-58780100D01*
X89516495Y-58781423D01*
X89523510Y-58783551D01*
X89529976Y-58787008D01*
X89535642Y-58791658D01*
X89540292Y-58797324D01*
X89543749Y-58803790D01*
X89545877Y-58810805D01*
X89547200Y-58824240D01*
X89547200Y-60312960D01*
X89545877Y-60326395D01*
X89543749Y-60333410D01*
X89540292Y-60339876D01*
X89535642Y-60345542D01*
X89529976Y-60350192D01*
X89523510Y-60353649D01*
X89516495Y-60355777D01*
X89503060Y-60357100D01*
X89189340Y-60357100D01*
X89175905Y-60355777D01*
X89168891Y-60353649D01*
X89155123Y-60346290D01*
X89132484Y-60336913D01*
X89108451Y-60332133D01*
X89083947Y-60332133D01*
X89059914Y-60336914D01*
X89037277Y-60346290D01*
X89023509Y-60353649D01*
X89016495Y-60355777D01*
X89003060Y-60357100D01*
X88689340Y-60357100D01*
X88675905Y-60355777D01*
X88668891Y-60353649D01*
X88655123Y-60346290D01*
X88632484Y-60336913D01*
X88608451Y-60332133D01*
X88583947Y-60332133D01*
X88559914Y-60336914D01*
X88537277Y-60346290D01*
X88523509Y-60353649D01*
X88516495Y-60355777D01*
X88503060Y-60357100D01*
X88189340Y-60357100D01*
X88175905Y-60355777D01*
X88168891Y-60353649D01*
X88155123Y-60346290D01*
X88132484Y-60336913D01*
X88108451Y-60332133D01*
X88083947Y-60332133D01*
X88059914Y-60336914D01*
X88037277Y-60346290D01*
X88023509Y-60353649D01*
X88016495Y-60355777D01*
X88003060Y-60357100D01*
X87689340Y-60357100D01*
X87675905Y-60355777D01*
X87668891Y-60353649D01*
X87655123Y-60346290D01*
X87632484Y-60336913D01*
X87608451Y-60332133D01*
X87583947Y-60332133D01*
X87559914Y-60336914D01*
X87537277Y-60346290D01*
X87523509Y-60353649D01*
X87516495Y-60355777D01*
X87503060Y-60357100D01*
X87189340Y-60357100D01*
X87175905Y-60355777D01*
X87168891Y-60353649D01*
X87155123Y-60346290D01*
X87132484Y-60336913D01*
X87108451Y-60332133D01*
X87083947Y-60332133D01*
X87059914Y-60336914D01*
X87037277Y-60346290D01*
X87023509Y-60353649D01*
X87016495Y-60355777D01*
X87003060Y-60357100D01*
X86689340Y-60357100D01*
X86675905Y-60355777D01*
X86668891Y-60353649D01*
X86655123Y-60346290D01*
X86632484Y-60336913D01*
X86608451Y-60332133D01*
X86583947Y-60332133D01*
X86559914Y-60336914D01*
X86537277Y-60346290D01*
X86523509Y-60353649D01*
X86516495Y-60355777D01*
X86503060Y-60357100D01*
X86189340Y-60357100D01*
X86175905Y-60355777D01*
X86168891Y-60353649D01*
X86155123Y-60346290D01*
X86132484Y-60336913D01*
X86108451Y-60332133D01*
X86083947Y-60332133D01*
X86059914Y-60336914D01*
X86037277Y-60346290D01*
X86023509Y-60353649D01*
X86016495Y-60355777D01*
X86003060Y-60357100D01*
X85689340Y-60357100D01*
X85675905Y-60355777D01*
X85668891Y-60353649D01*
X85655123Y-60346290D01*
X85632484Y-60336913D01*
X85608451Y-60332133D01*
X85583947Y-60332133D01*
X85559914Y-60336914D01*
X85537277Y-60346290D01*
X85523509Y-60353649D01*
X85516495Y-60355777D01*
X85503060Y-60357100D01*
X85189340Y-60357100D01*
X85175905Y-60355777D01*
X85168891Y-60353649D01*
X85155123Y-60346290D01*
X85132484Y-60336913D01*
X85108451Y-60332133D01*
X85083947Y-60332133D01*
X85059914Y-60336914D01*
X85037277Y-60346290D01*
X85023509Y-60353649D01*
X85016495Y-60355777D01*
X85003060Y-60357100D01*
X84689340Y-60357100D01*
X84675905Y-60355777D01*
X84668891Y-60353649D01*
X84655123Y-60346290D01*
X84632484Y-60336913D01*
X84608451Y-60332133D01*
X84583947Y-60332133D01*
X84559914Y-60336914D01*
X84537277Y-60346290D01*
X84523509Y-60353649D01*
X84516495Y-60355777D01*
X84503060Y-60357100D01*
X84189340Y-60357100D01*
X84175905Y-60355777D01*
X84168891Y-60353649D01*
X84155123Y-60346290D01*
X84132484Y-60336913D01*
X84108451Y-60332133D01*
X84083947Y-60332133D01*
X84059914Y-60336914D01*
X84037277Y-60346290D01*
X84023509Y-60353649D01*
X84016495Y-60355777D01*
X84003060Y-60357100D01*
X83689340Y-60357100D01*
X83675905Y-60355777D01*
X83668890Y-60353649D01*
X83662424Y-60350192D01*
X83656758Y-60345542D01*
X83652108Y-60339876D01*
X83648651Y-60333410D01*
X83646523Y-60326395D01*
X83645200Y-60312960D01*
X83645200Y-58824240D01*
X83646523Y-58810805D01*
X83648651Y-58803790D01*
X83652108Y-58797324D01*
X83656758Y-58791658D01*
X83662424Y-58787008D01*
X83668890Y-58783551D01*
X83675905Y-58781423D01*
X83689340Y-58780100D01*
X84003060Y-58780100D01*
X84016495Y-58781423D01*
X84016495Y-58781423D01*
G37*
G36*
X95841838Y-58770016D02*
G01*
X95862457Y-58776271D01*
X95881453Y-58786424D01*
X95898108Y-58800092D01*
X95911776Y-58816747D01*
X95921929Y-58835743D01*
X95928184Y-58856362D01*
X95930900Y-58883940D01*
X95930900Y-59342660D01*
X95928184Y-59370238D01*
X95921929Y-59390857D01*
X95911776Y-59409853D01*
X95898108Y-59426508D01*
X95881453Y-59440176D01*
X95862457Y-59450329D01*
X95841838Y-59456584D01*
X95814260Y-59459300D01*
X95305540Y-59459300D01*
X95277962Y-59456584D01*
X95257343Y-59450329D01*
X95238347Y-59440176D01*
X95221692Y-59426508D01*
X95208024Y-59409853D01*
X95197871Y-59390857D01*
X95191616Y-59370238D01*
X95188900Y-59342660D01*
X95188900Y-58883940D01*
X95191616Y-58856362D01*
X95197871Y-58835743D01*
X95208024Y-58816747D01*
X95221692Y-58800092D01*
X95238347Y-58786424D01*
X95257343Y-58776271D01*
X95277962Y-58770016D01*
X95305540Y-58767300D01*
X95814260Y-58767300D01*
X95841838Y-58770016D01*
X95841838Y-58770016D01*
G37*
G36*
X101251294Y-57315033D02*
G01*
X101423695Y-57367331D01*
X101582583Y-57452258D01*
X101721849Y-57566551D01*
X101836142Y-57705817D01*
X101921069Y-57864705D01*
X101973367Y-58037106D01*
X101991025Y-58216400D01*
X101973367Y-58395694D01*
X101921069Y-58568095D01*
X101836142Y-58726983D01*
X101721849Y-58866249D01*
X101582583Y-58980542D01*
X101423695Y-59065469D01*
X101251294Y-59117767D01*
X101116931Y-59131000D01*
X101027069Y-59131000D01*
X100892706Y-59117767D01*
X100720305Y-59065469D01*
X100561417Y-58980542D01*
X100422151Y-58866249D01*
X100307858Y-58726983D01*
X100222931Y-58568095D01*
X100170633Y-58395694D01*
X100152975Y-58216400D01*
X100170633Y-58037106D01*
X100222931Y-57864705D01*
X100307858Y-57705817D01*
X100422151Y-57566551D01*
X100561417Y-57452258D01*
X100720305Y-57367331D01*
X100892706Y-57315033D01*
X101027069Y-57301800D01*
X101116931Y-57301800D01*
X101251294Y-57315033D01*
X101251294Y-57315033D01*
G37*
G36*
X114511294Y-57315033D02*
G01*
X114683695Y-57367331D01*
X114842583Y-57452258D01*
X114981849Y-57566551D01*
X115096142Y-57705817D01*
X115181069Y-57864705D01*
X115233367Y-58037106D01*
X115251025Y-58216400D01*
X115233367Y-58395694D01*
X115181069Y-58568095D01*
X115096142Y-58726983D01*
X114981849Y-58866249D01*
X114842583Y-58980542D01*
X114683695Y-59065469D01*
X114511294Y-59117767D01*
X114376931Y-59131000D01*
X114287069Y-59131000D01*
X114152706Y-59117767D01*
X113980305Y-59065469D01*
X113821417Y-58980542D01*
X113682151Y-58866249D01*
X113567858Y-58726983D01*
X113482931Y-58568095D01*
X113430633Y-58395694D01*
X113412975Y-58216400D01*
X113430633Y-58037106D01*
X113482931Y-57864705D01*
X113567858Y-57705817D01*
X113682151Y-57566551D01*
X113821417Y-57452258D01*
X113980305Y-57367331D01*
X114152706Y-57315033D01*
X114287069Y-57301800D01*
X114376931Y-57301800D01*
X114511294Y-57315033D01*
X114511294Y-57315033D01*
G37*
G36*
X103791294Y-57315033D02*
G01*
X103963695Y-57367331D01*
X104122583Y-57452258D01*
X104261849Y-57566551D01*
X104376142Y-57705817D01*
X104461069Y-57864705D01*
X104513367Y-58037106D01*
X104531025Y-58216400D01*
X104513367Y-58395694D01*
X104461069Y-58568095D01*
X104376142Y-58726983D01*
X104261849Y-58866249D01*
X104122583Y-58980542D01*
X103963695Y-59065469D01*
X103791294Y-59117767D01*
X103656931Y-59131000D01*
X103567069Y-59131000D01*
X103432706Y-59117767D01*
X103260305Y-59065469D01*
X103101417Y-58980542D01*
X102962151Y-58866249D01*
X102847858Y-58726983D01*
X102762931Y-58568095D01*
X102710633Y-58395694D01*
X102692975Y-58216400D01*
X102710633Y-58037106D01*
X102762931Y-57864705D01*
X102847858Y-57705817D01*
X102962151Y-57566551D01*
X103101417Y-57452258D01*
X103260305Y-57367331D01*
X103432706Y-57315033D01*
X103567069Y-57301800D01*
X103656931Y-57301800D01*
X103791294Y-57315033D01*
X103791294Y-57315033D01*
G37*
G36*
X111971294Y-57315033D02*
G01*
X112143695Y-57367331D01*
X112302583Y-57452258D01*
X112441849Y-57566551D01*
X112556142Y-57705817D01*
X112641069Y-57864705D01*
X112693367Y-58037106D01*
X112711025Y-58216400D01*
X112693367Y-58395694D01*
X112641069Y-58568095D01*
X112556142Y-58726983D01*
X112441849Y-58866249D01*
X112302583Y-58980542D01*
X112143695Y-59065469D01*
X111971294Y-59117767D01*
X111836931Y-59131000D01*
X111747069Y-59131000D01*
X111612706Y-59117767D01*
X111440305Y-59065469D01*
X111281417Y-58980542D01*
X111142151Y-58866249D01*
X111027858Y-58726983D01*
X110942931Y-58568095D01*
X110890633Y-58395694D01*
X110872975Y-58216400D01*
X110890633Y-58037106D01*
X110942931Y-57864705D01*
X111027858Y-57705817D01*
X111142151Y-57566551D01*
X111281417Y-57452258D01*
X111440305Y-57367331D01*
X111612706Y-57315033D01*
X111747069Y-57301800D01*
X111836931Y-57301800D01*
X111971294Y-57315033D01*
X111971294Y-57315033D01*
G37*
G36*
X95841838Y-57800016D02*
G01*
X95862457Y-57806271D01*
X95881453Y-57816424D01*
X95898108Y-57830092D01*
X95911776Y-57846747D01*
X95921929Y-57865743D01*
X95928184Y-57886362D01*
X95930900Y-57913940D01*
X95930900Y-58372660D01*
X95928184Y-58400238D01*
X95921929Y-58420857D01*
X95911776Y-58439853D01*
X95898108Y-58456508D01*
X95881453Y-58470176D01*
X95862457Y-58480329D01*
X95841838Y-58486584D01*
X95814260Y-58489300D01*
X95305540Y-58489300D01*
X95277962Y-58486584D01*
X95257343Y-58480329D01*
X95238347Y-58470176D01*
X95221692Y-58456508D01*
X95208024Y-58439853D01*
X95197871Y-58420857D01*
X95191616Y-58400238D01*
X95188900Y-58372660D01*
X95188900Y-57913940D01*
X95191616Y-57886362D01*
X95197871Y-57865743D01*
X95208024Y-57846747D01*
X95221692Y-57830092D01*
X95238347Y-57816424D01*
X95257343Y-57806271D01*
X95277962Y-57800016D01*
X95305540Y-57797300D01*
X95814260Y-57797300D01*
X95841838Y-57800016D01*
X95841838Y-57800016D01*
G37*
G36*
X84879438Y-57289716D02*
G01*
X84900057Y-57295971D01*
X84919053Y-57306124D01*
X84935708Y-57319792D01*
X84949376Y-57336447D01*
X84959529Y-57355443D01*
X84965784Y-57376062D01*
X84968500Y-57403640D01*
X84968500Y-57912360D01*
X84965784Y-57939938D01*
X84959529Y-57960557D01*
X84949376Y-57979553D01*
X84935708Y-57996208D01*
X84919053Y-58009876D01*
X84900057Y-58020029D01*
X84879438Y-58026284D01*
X84851860Y-58029000D01*
X84393140Y-58029000D01*
X84365562Y-58026284D01*
X84344943Y-58020029D01*
X84325947Y-58009876D01*
X84309292Y-57996208D01*
X84295624Y-57979553D01*
X84285471Y-57960557D01*
X84279216Y-57939938D01*
X84276500Y-57912360D01*
X84276500Y-57403640D01*
X84279216Y-57376062D01*
X84285471Y-57355443D01*
X84295624Y-57336447D01*
X84309292Y-57319792D01*
X84325947Y-57306124D01*
X84344943Y-57295971D01*
X84365562Y-57289716D01*
X84393140Y-57287000D01*
X84851860Y-57287000D01*
X84879438Y-57289716D01*
X84879438Y-57289716D01*
G37*
G36*
X83909438Y-57289716D02*
G01*
X83930057Y-57295971D01*
X83949053Y-57306124D01*
X83965708Y-57319792D01*
X83979376Y-57336447D01*
X83989529Y-57355443D01*
X83995784Y-57376062D01*
X83998500Y-57403640D01*
X83998500Y-57912360D01*
X83995784Y-57939938D01*
X83989529Y-57960557D01*
X83979376Y-57979553D01*
X83965708Y-57996208D01*
X83949053Y-58009876D01*
X83930057Y-58020029D01*
X83909438Y-58026284D01*
X83881860Y-58029000D01*
X83423140Y-58029000D01*
X83395562Y-58026284D01*
X83374943Y-58020029D01*
X83355947Y-58009876D01*
X83339292Y-57996208D01*
X83325624Y-57979553D01*
X83315471Y-57960557D01*
X83309216Y-57939938D01*
X83306500Y-57912360D01*
X83306500Y-57403640D01*
X83309216Y-57376062D01*
X83315471Y-57355443D01*
X83325624Y-57336447D01*
X83339292Y-57319792D01*
X83355947Y-57306124D01*
X83374943Y-57295971D01*
X83395562Y-57289716D01*
X83423140Y-57287000D01*
X83881860Y-57287000D01*
X83909438Y-57289716D01*
X83909438Y-57289716D01*
G37*
G36*
X90206138Y-57127116D02*
G01*
X90226757Y-57133371D01*
X90245753Y-57143524D01*
X90262408Y-57157192D01*
X90276076Y-57173847D01*
X90286229Y-57192843D01*
X90292484Y-57213462D01*
X90295200Y-57241040D01*
X90295200Y-57749760D01*
X90292484Y-57777338D01*
X90286229Y-57797957D01*
X90276076Y-57816953D01*
X90262408Y-57833608D01*
X90245753Y-57847276D01*
X90226757Y-57857429D01*
X90206138Y-57863684D01*
X90178560Y-57866400D01*
X89719840Y-57866400D01*
X89692262Y-57863684D01*
X89671643Y-57857429D01*
X89652647Y-57847276D01*
X89635992Y-57833608D01*
X89622324Y-57816953D01*
X89612171Y-57797957D01*
X89605916Y-57777338D01*
X89603200Y-57749760D01*
X89603200Y-57241040D01*
X89605916Y-57213462D01*
X89612171Y-57192843D01*
X89622324Y-57173847D01*
X89635992Y-57157192D01*
X89652647Y-57143524D01*
X89671643Y-57133371D01*
X89692262Y-57127116D01*
X89719840Y-57124400D01*
X90178560Y-57124400D01*
X90206138Y-57127116D01*
X90206138Y-57127116D01*
G37*
G36*
X91176138Y-57127116D02*
G01*
X91196757Y-57133371D01*
X91215753Y-57143524D01*
X91232408Y-57157192D01*
X91246076Y-57173847D01*
X91256229Y-57192843D01*
X91262484Y-57213462D01*
X91265200Y-57241040D01*
X91265200Y-57749760D01*
X91262484Y-57777338D01*
X91256229Y-57797957D01*
X91246076Y-57816953D01*
X91232408Y-57833608D01*
X91215753Y-57847276D01*
X91196757Y-57857429D01*
X91176138Y-57863684D01*
X91148560Y-57866400D01*
X90689840Y-57866400D01*
X90662262Y-57863684D01*
X90641643Y-57857429D01*
X90622647Y-57847276D01*
X90605992Y-57833608D01*
X90592324Y-57816953D01*
X90582171Y-57797957D01*
X90575916Y-57777338D01*
X90573200Y-57749760D01*
X90573200Y-57241040D01*
X90575916Y-57213462D01*
X90582171Y-57192843D01*
X90592324Y-57173847D01*
X90605992Y-57157192D01*
X90622647Y-57143524D01*
X90641643Y-57133371D01*
X90662262Y-57127116D01*
X90689840Y-57124400D01*
X91148560Y-57124400D01*
X91176138Y-57127116D01*
X91176138Y-57127116D01*
G37*
G36*
X81458058Y-56951896D02*
G01*
X81478677Y-56958151D01*
X81497673Y-56968304D01*
X81514328Y-56981972D01*
X81527996Y-56998627D01*
X81538149Y-57017623D01*
X81544404Y-57038242D01*
X81547120Y-57065820D01*
X81547120Y-57574540D01*
X81544404Y-57602118D01*
X81538149Y-57622737D01*
X81527996Y-57641733D01*
X81514328Y-57658388D01*
X81497673Y-57672056D01*
X81478677Y-57682209D01*
X81458058Y-57688464D01*
X81430480Y-57691180D01*
X80971760Y-57691180D01*
X80944182Y-57688464D01*
X80923563Y-57682209D01*
X80904567Y-57672056D01*
X80887912Y-57658388D01*
X80874244Y-57641733D01*
X80864091Y-57622737D01*
X80857836Y-57602118D01*
X80855120Y-57574540D01*
X80855120Y-57065820D01*
X80857836Y-57038242D01*
X80864091Y-57017623D01*
X80874244Y-56998627D01*
X80887912Y-56981972D01*
X80904567Y-56968304D01*
X80923563Y-56958151D01*
X80944182Y-56951896D01*
X80971760Y-56949180D01*
X81430480Y-56949180D01*
X81458058Y-56951896D01*
X81458058Y-56951896D01*
G37*
G36*
X80488058Y-56951896D02*
G01*
X80508677Y-56958151D01*
X80527673Y-56968304D01*
X80544328Y-56981972D01*
X80557996Y-56998627D01*
X80568149Y-57017623D01*
X80574404Y-57038242D01*
X80577120Y-57065820D01*
X80577120Y-57574540D01*
X80574404Y-57602118D01*
X80568149Y-57622737D01*
X80557996Y-57641733D01*
X80544328Y-57658388D01*
X80527673Y-57672056D01*
X80508677Y-57682209D01*
X80488058Y-57688464D01*
X80460480Y-57691180D01*
X80001760Y-57691180D01*
X79974182Y-57688464D01*
X79953563Y-57682209D01*
X79934567Y-57672056D01*
X79917912Y-57658388D01*
X79904244Y-57641733D01*
X79894091Y-57622737D01*
X79887836Y-57602118D01*
X79885120Y-57574540D01*
X79885120Y-57065820D01*
X79887836Y-57038242D01*
X79894091Y-57017623D01*
X79904244Y-56998627D01*
X79917912Y-56981972D01*
X79934567Y-56968304D01*
X79953563Y-56958151D01*
X79974182Y-56951896D01*
X80001760Y-56949180D01*
X80460480Y-56949180D01*
X80488058Y-56951896D01*
X80488058Y-56951896D01*
G37*
G36*
X89649304Y-54750047D02*
G01*
X89685844Y-54761132D01*
X89719521Y-54779133D01*
X89749041Y-54803359D01*
X89773267Y-54832879D01*
X89791268Y-54866556D01*
X89802353Y-54903096D01*
X89806700Y-54947238D01*
X89806700Y-56396162D01*
X89802353Y-56440304D01*
X89791268Y-56476844D01*
X89773267Y-56510521D01*
X89749041Y-56540041D01*
X89719521Y-56564267D01*
X89685844Y-56582268D01*
X89649304Y-56593353D01*
X89605162Y-56597700D01*
X88656238Y-56597700D01*
X88612096Y-56593353D01*
X88575556Y-56582268D01*
X88541879Y-56564267D01*
X88512359Y-56540041D01*
X88488133Y-56510521D01*
X88470132Y-56476844D01*
X88459047Y-56440304D01*
X88454700Y-56396162D01*
X88454700Y-54947238D01*
X88459047Y-54903096D01*
X88470132Y-54866556D01*
X88488133Y-54832879D01*
X88512359Y-54803359D01*
X88541879Y-54779133D01*
X88575556Y-54761132D01*
X88612096Y-54750047D01*
X88656238Y-54745700D01*
X89605162Y-54745700D01*
X89649304Y-54750047D01*
X89649304Y-54750047D01*
G37*
G36*
X92449304Y-54750047D02*
G01*
X92485844Y-54761132D01*
X92519521Y-54779133D01*
X92549041Y-54803359D01*
X92573267Y-54832879D01*
X92591268Y-54866556D01*
X92602353Y-54903096D01*
X92606700Y-54947238D01*
X92606700Y-56396162D01*
X92602353Y-56440304D01*
X92591268Y-56476844D01*
X92573267Y-56510521D01*
X92549041Y-56540041D01*
X92519521Y-56564267D01*
X92485844Y-56582268D01*
X92449304Y-56593353D01*
X92405162Y-56597700D01*
X91456238Y-56597700D01*
X91412096Y-56593353D01*
X91375556Y-56582268D01*
X91341879Y-56564267D01*
X91312359Y-56540041D01*
X91288133Y-56510521D01*
X91270132Y-56476844D01*
X91259047Y-56440304D01*
X91254700Y-56396162D01*
X91254700Y-54947238D01*
X91259047Y-54903096D01*
X91270132Y-54866556D01*
X91288133Y-54832879D01*
X91312359Y-54803359D01*
X91341879Y-54779133D01*
X91375556Y-54761132D01*
X91412096Y-54750047D01*
X91456238Y-54745700D01*
X92405162Y-54745700D01*
X92449304Y-54750047D01*
X92449304Y-54750047D01*
G37*
G36*
X114511294Y-54775033D02*
G01*
X114683695Y-54827331D01*
X114842583Y-54912258D01*
X114981849Y-55026551D01*
X115096142Y-55165817D01*
X115181069Y-55324705D01*
X115233367Y-55497106D01*
X115251025Y-55676400D01*
X115233367Y-55855694D01*
X115181069Y-56028095D01*
X115096142Y-56186983D01*
X114981849Y-56326249D01*
X114842583Y-56440542D01*
X114683695Y-56525469D01*
X114511294Y-56577767D01*
X114376931Y-56591000D01*
X114287069Y-56591000D01*
X114152706Y-56577767D01*
X113980305Y-56525469D01*
X113821417Y-56440542D01*
X113682151Y-56326249D01*
X113567858Y-56186983D01*
X113482931Y-56028095D01*
X113430633Y-55855694D01*
X113412975Y-55676400D01*
X113430633Y-55497106D01*
X113482931Y-55324705D01*
X113567858Y-55165817D01*
X113682151Y-55026551D01*
X113821417Y-54912258D01*
X113980305Y-54827331D01*
X114152706Y-54775033D01*
X114287069Y-54761800D01*
X114376931Y-54761800D01*
X114511294Y-54775033D01*
X114511294Y-54775033D01*
G37*
G36*
X103791294Y-54775033D02*
G01*
X103963695Y-54827331D01*
X104122583Y-54912258D01*
X104261849Y-55026551D01*
X104376142Y-55165817D01*
X104461069Y-55324705D01*
X104513367Y-55497106D01*
X104531025Y-55676400D01*
X104513367Y-55855694D01*
X104461069Y-56028095D01*
X104376142Y-56186983D01*
X104261849Y-56326249D01*
X104122583Y-56440542D01*
X103963695Y-56525469D01*
X103791294Y-56577767D01*
X103656931Y-56591000D01*
X103567069Y-56591000D01*
X103432706Y-56577767D01*
X103260305Y-56525469D01*
X103101417Y-56440542D01*
X102962151Y-56326249D01*
X102847858Y-56186983D01*
X102762931Y-56028095D01*
X102710633Y-55855694D01*
X102692975Y-55676400D01*
X102710633Y-55497106D01*
X102762931Y-55324705D01*
X102847858Y-55165817D01*
X102962151Y-55026551D01*
X103101417Y-54912258D01*
X103260305Y-54827331D01*
X103432706Y-54775033D01*
X103567069Y-54761800D01*
X103656931Y-54761800D01*
X103791294Y-54775033D01*
X103791294Y-54775033D01*
G37*
G36*
X101251294Y-54775033D02*
G01*
X101423695Y-54827331D01*
X101582583Y-54912258D01*
X101721849Y-55026551D01*
X101836142Y-55165817D01*
X101921069Y-55324705D01*
X101973367Y-55497106D01*
X101991025Y-55676400D01*
X101973367Y-55855694D01*
X101921069Y-56028095D01*
X101836142Y-56186983D01*
X101721849Y-56326249D01*
X101582583Y-56440542D01*
X101423695Y-56525469D01*
X101251294Y-56577767D01*
X101116931Y-56591000D01*
X101027069Y-56591000D01*
X100892706Y-56577767D01*
X100720305Y-56525469D01*
X100561417Y-56440542D01*
X100422151Y-56326249D01*
X100307858Y-56186983D01*
X100222931Y-56028095D01*
X100170633Y-55855694D01*
X100152975Y-55676400D01*
X100170633Y-55497106D01*
X100222931Y-55324705D01*
X100307858Y-55165817D01*
X100422151Y-55026551D01*
X100561417Y-54912258D01*
X100720305Y-54827331D01*
X100892706Y-54775033D01*
X101027069Y-54761800D01*
X101116931Y-54761800D01*
X101251294Y-54775033D01*
X101251294Y-54775033D01*
G37*
G36*
X111971294Y-54775033D02*
G01*
X112143695Y-54827331D01*
X112302583Y-54912258D01*
X112441849Y-55026551D01*
X112556142Y-55165817D01*
X112641069Y-55324705D01*
X112693367Y-55497106D01*
X112711025Y-55676400D01*
X112693367Y-55855694D01*
X112641069Y-56028095D01*
X112556142Y-56186983D01*
X112441849Y-56326249D01*
X112302583Y-56440542D01*
X112143695Y-56525469D01*
X111971294Y-56577767D01*
X111836931Y-56591000D01*
X111747069Y-56591000D01*
X111612706Y-56577767D01*
X111440305Y-56525469D01*
X111281417Y-56440542D01*
X111142151Y-56326249D01*
X111027858Y-56186983D01*
X110942931Y-56028095D01*
X110890633Y-55855694D01*
X110872975Y-55676400D01*
X110890633Y-55497106D01*
X110942931Y-55324705D01*
X111027858Y-55165817D01*
X111142151Y-55026551D01*
X111281417Y-54912258D01*
X111440305Y-54827331D01*
X111612706Y-54775033D01*
X111747069Y-54761800D01*
X111836931Y-54761800D01*
X111971294Y-54775033D01*
X111971294Y-54775033D01*
G37*
G36*
X85324600Y-55874300D02*
G01*
X83522600Y-55874300D01*
X83522600Y-53772300D01*
X85324600Y-53772300D01*
X85324600Y-55874300D01*
X85324600Y-55874300D01*
G37*
G36*
X79874600Y-55874300D02*
G01*
X78072600Y-55874300D01*
X78072600Y-53772300D01*
X79874600Y-53772300D01*
X79874600Y-55874300D01*
X79874600Y-55874300D01*
G37*
G36*
X101251294Y-52235033D02*
G01*
X101423695Y-52287331D01*
X101582583Y-52372258D01*
X101721849Y-52486551D01*
X101836142Y-52625817D01*
X101921069Y-52784705D01*
X101973367Y-52957106D01*
X101991025Y-53136400D01*
X101973367Y-53315694D01*
X101921069Y-53488095D01*
X101836142Y-53646983D01*
X101721849Y-53786249D01*
X101582583Y-53900542D01*
X101423695Y-53985469D01*
X101251294Y-54037767D01*
X101116931Y-54051000D01*
X101027069Y-54051000D01*
X100892706Y-54037767D01*
X100720305Y-53985469D01*
X100561417Y-53900542D01*
X100422151Y-53786249D01*
X100307858Y-53646983D01*
X100222931Y-53488095D01*
X100170633Y-53315694D01*
X100152975Y-53136400D01*
X100170633Y-52957106D01*
X100222931Y-52784705D01*
X100307858Y-52625817D01*
X100422151Y-52486551D01*
X100561417Y-52372258D01*
X100720305Y-52287331D01*
X100892706Y-52235033D01*
X101027069Y-52221800D01*
X101116931Y-52221800D01*
X101251294Y-52235033D01*
X101251294Y-52235033D01*
G37*
G36*
X103791294Y-52235033D02*
G01*
X103963695Y-52287331D01*
X104122583Y-52372258D01*
X104261849Y-52486551D01*
X104376142Y-52625817D01*
X104461069Y-52784705D01*
X104513367Y-52957106D01*
X104531025Y-53136400D01*
X104513367Y-53315694D01*
X104461069Y-53488095D01*
X104376142Y-53646983D01*
X104261849Y-53786249D01*
X104122583Y-53900542D01*
X103963695Y-53985469D01*
X103791294Y-54037767D01*
X103656931Y-54051000D01*
X103567069Y-54051000D01*
X103432706Y-54037767D01*
X103260305Y-53985469D01*
X103101417Y-53900542D01*
X102962151Y-53786249D01*
X102847858Y-53646983D01*
X102762931Y-53488095D01*
X102710633Y-53315694D01*
X102692975Y-53136400D01*
X102710633Y-52957106D01*
X102762931Y-52784705D01*
X102847858Y-52625817D01*
X102962151Y-52486551D01*
X103101417Y-52372258D01*
X103260305Y-52287331D01*
X103432706Y-52235033D01*
X103567069Y-52221800D01*
X103656931Y-52221800D01*
X103791294Y-52235033D01*
X103791294Y-52235033D01*
G37*
G36*
X111971294Y-52235033D02*
G01*
X112143695Y-52287331D01*
X112302583Y-52372258D01*
X112441849Y-52486551D01*
X112556142Y-52625817D01*
X112641069Y-52784705D01*
X112693367Y-52957106D01*
X112711025Y-53136400D01*
X112693367Y-53315694D01*
X112641069Y-53488095D01*
X112556142Y-53646983D01*
X112441849Y-53786249D01*
X112302583Y-53900542D01*
X112143695Y-53985469D01*
X111971294Y-54037767D01*
X111836931Y-54051000D01*
X111747069Y-54051000D01*
X111612706Y-54037767D01*
X111440305Y-53985469D01*
X111281417Y-53900542D01*
X111142151Y-53786249D01*
X111027858Y-53646983D01*
X110942931Y-53488095D01*
X110890633Y-53315694D01*
X110872975Y-53136400D01*
X110890633Y-52957106D01*
X110942931Y-52784705D01*
X111027858Y-52625817D01*
X111142151Y-52486551D01*
X111281417Y-52372258D01*
X111440305Y-52287331D01*
X111612706Y-52235033D01*
X111747069Y-52221800D01*
X111836931Y-52221800D01*
X111971294Y-52235033D01*
X111971294Y-52235033D01*
G37*
G36*
X114511294Y-52235033D02*
G01*
X114683695Y-52287331D01*
X114842583Y-52372258D01*
X114981849Y-52486551D01*
X115096142Y-52625817D01*
X115181069Y-52784705D01*
X115233367Y-52957106D01*
X115251025Y-53136400D01*
X115233367Y-53315694D01*
X115181069Y-53488095D01*
X115096142Y-53646983D01*
X114981849Y-53786249D01*
X114842583Y-53900542D01*
X114683695Y-53985469D01*
X114511294Y-54037767D01*
X114376931Y-54051000D01*
X114287069Y-54051000D01*
X114152706Y-54037767D01*
X113980305Y-53985469D01*
X113821417Y-53900542D01*
X113682151Y-53786249D01*
X113567858Y-53646983D01*
X113482931Y-53488095D01*
X113430633Y-53315694D01*
X113412975Y-53136400D01*
X113430633Y-52957106D01*
X113482931Y-52784705D01*
X113567858Y-52625817D01*
X113682151Y-52486551D01*
X113821417Y-52372258D01*
X113980305Y-52287331D01*
X114152706Y-52235033D01*
X114287069Y-52221800D01*
X114376931Y-52221800D01*
X114511294Y-52235033D01*
X114511294Y-52235033D01*
G37*
G36*
X96509700Y-53667300D02*
G01*
X94407700Y-53667300D01*
X94407700Y-52065300D01*
X96509700Y-52065300D01*
X96509700Y-53667300D01*
X96509700Y-53667300D01*
G37*
G36*
X81984321Y-52043474D02*
G01*
X82084595Y-52085009D01*
X82084596Y-52085010D01*
X82174842Y-52145310D01*
X82251590Y-52222058D01*
X82260260Y-52235034D01*
X82311891Y-52312305D01*
X82353426Y-52412579D01*
X82374600Y-52519030D01*
X82374600Y-52627570D01*
X82353426Y-52734021D01*
X82311891Y-52834295D01*
X82311890Y-52834296D01*
X82251590Y-52924542D01*
X82174842Y-53001290D01*
X82129412Y-53031645D01*
X82084595Y-53061591D01*
X81984321Y-53103126D01*
X81877870Y-53124300D01*
X81769330Y-53124300D01*
X81662879Y-53103126D01*
X81562605Y-53061591D01*
X81517788Y-53031645D01*
X81472358Y-53001290D01*
X81395610Y-52924542D01*
X81335310Y-52834296D01*
X81335309Y-52834295D01*
X81293774Y-52734021D01*
X81272600Y-52627570D01*
X81272600Y-52519030D01*
X81293774Y-52412579D01*
X81335309Y-52312305D01*
X81386940Y-52235034D01*
X81395610Y-52222058D01*
X81472358Y-52145310D01*
X81562604Y-52085010D01*
X81562605Y-52085009D01*
X81662879Y-52043474D01*
X81769330Y-52022300D01*
X81877870Y-52022300D01*
X81984321Y-52043474D01*
X81984321Y-52043474D01*
G37*
G36*
X90209700Y-52517300D02*
G01*
X88107700Y-52517300D01*
X88107700Y-48615300D01*
X90209700Y-48615300D01*
X90209700Y-52517300D01*
X90209700Y-52517300D01*
G37*
G36*
X85574600Y-52274300D02*
G01*
X83472600Y-52274300D01*
X83472600Y-48472300D01*
X85574600Y-48472300D01*
X85574600Y-52274300D01*
X85574600Y-52274300D01*
G37*
G36*
X101986600Y-51511000D02*
G01*
X100157400Y-51511000D01*
X100157400Y-49681800D01*
X101986600Y-49681800D01*
X101986600Y-51511000D01*
X101986600Y-51511000D01*
G37*
G36*
X112706600Y-51511000D02*
G01*
X110877400Y-51511000D01*
X110877400Y-49681800D01*
X112706600Y-49681800D01*
X112706600Y-51511000D01*
X112706600Y-51511000D01*
G37*
G36*
X103791294Y-49695033D02*
G01*
X103963695Y-49747331D01*
X104122583Y-49832258D01*
X104261849Y-49946551D01*
X104376142Y-50085817D01*
X104461069Y-50244705D01*
X104513367Y-50417106D01*
X104531025Y-50596400D01*
X104513367Y-50775694D01*
X104461069Y-50948095D01*
X104376142Y-51106983D01*
X104261849Y-51246249D01*
X104122583Y-51360542D01*
X103963695Y-51445469D01*
X103791294Y-51497767D01*
X103656931Y-51511000D01*
X103567069Y-51511000D01*
X103432706Y-51497767D01*
X103260305Y-51445469D01*
X103101417Y-51360542D01*
X102962151Y-51246249D01*
X102847858Y-51106983D01*
X102762931Y-50948095D01*
X102710633Y-50775694D01*
X102692975Y-50596400D01*
X102710633Y-50417106D01*
X102762931Y-50244705D01*
X102847858Y-50085817D01*
X102962151Y-49946551D01*
X103101417Y-49832258D01*
X103260305Y-49747331D01*
X103432706Y-49695033D01*
X103567069Y-49681800D01*
X103656931Y-49681800D01*
X103791294Y-49695033D01*
X103791294Y-49695033D01*
G37*
G36*
X114511294Y-49695033D02*
G01*
X114683695Y-49747331D01*
X114842583Y-49832258D01*
X114981849Y-49946551D01*
X115096142Y-50085817D01*
X115181069Y-50244705D01*
X115233367Y-50417106D01*
X115251025Y-50596400D01*
X115233367Y-50775694D01*
X115181069Y-50948095D01*
X115096142Y-51106983D01*
X114981849Y-51246249D01*
X114842583Y-51360542D01*
X114683695Y-51445469D01*
X114511294Y-51497767D01*
X114376931Y-51511000D01*
X114287069Y-51511000D01*
X114152706Y-51497767D01*
X113980305Y-51445469D01*
X113821417Y-51360542D01*
X113682151Y-51246249D01*
X113567858Y-51106983D01*
X113482931Y-50948095D01*
X113430633Y-50775694D01*
X113412975Y-50596400D01*
X113430633Y-50417106D01*
X113482931Y-50244705D01*
X113567858Y-50085817D01*
X113682151Y-49946551D01*
X113821417Y-49832258D01*
X113980305Y-49747331D01*
X114152706Y-49695033D01*
X114287069Y-49681800D01*
X114376931Y-49681800D01*
X114511294Y-49695033D01*
X114511294Y-49695033D01*
G37*
G36*
X96509700Y-51367300D02*
G01*
X94407700Y-51367300D01*
X94407700Y-49765300D01*
X96509700Y-49765300D01*
X96509700Y-51367300D01*
X96509700Y-51367300D01*
G37*
G36*
X96509700Y-49067300D02*
G01*
X94407700Y-49067300D01*
X94407700Y-47465300D01*
X96509700Y-47465300D01*
X96509700Y-49067300D01*
X96509700Y-49067300D01*
G37*
G36*
X81984321Y-47643474D02*
G01*
X82084595Y-47685009D01*
X82084596Y-47685010D01*
X82174842Y-47745310D01*
X82251590Y-47822058D01*
X82251591Y-47822060D01*
X82311891Y-47912305D01*
X82353426Y-48012579D01*
X82374600Y-48119030D01*
X82374600Y-48227570D01*
X82353426Y-48334021D01*
X82311891Y-48434295D01*
X82311890Y-48434296D01*
X82251590Y-48524542D01*
X82174842Y-48601290D01*
X82153874Y-48615300D01*
X82084595Y-48661591D01*
X81984321Y-48703126D01*
X81877870Y-48724300D01*
X81769330Y-48724300D01*
X81662879Y-48703126D01*
X81562605Y-48661591D01*
X81493326Y-48615300D01*
X81472358Y-48601290D01*
X81395610Y-48524542D01*
X81335310Y-48434296D01*
X81335309Y-48434295D01*
X81293774Y-48334021D01*
X81272600Y-48227570D01*
X81272600Y-48119030D01*
X81293774Y-48012579D01*
X81335309Y-47912305D01*
X81395609Y-47822060D01*
X81395610Y-47822058D01*
X81472358Y-47745310D01*
X81562604Y-47685010D01*
X81562605Y-47685009D01*
X81662879Y-47643474D01*
X81769330Y-47622300D01*
X81877870Y-47622300D01*
X81984321Y-47643474D01*
X81984321Y-47643474D01*
G37*
G36*
X85324600Y-46974300D02*
G01*
X83522600Y-46974300D01*
X83522600Y-44872300D01*
X85324600Y-44872300D01*
X85324600Y-46974300D01*
X85324600Y-46974300D01*
G37*
G36*
X79874600Y-46974300D02*
G01*
X78072600Y-46974300D01*
X78072600Y-44872300D01*
X79874600Y-44872300D01*
X79874600Y-46974300D01*
X79874600Y-46974300D01*
G37*
G36*
X92449304Y-44577347D02*
G01*
X92485844Y-44588432D01*
X92519521Y-44606433D01*
X92549041Y-44630659D01*
X92573267Y-44660179D01*
X92591268Y-44693856D01*
X92602353Y-44730396D01*
X92606700Y-44774538D01*
X92606700Y-46223462D01*
X92602353Y-46267604D01*
X92591268Y-46304144D01*
X92573267Y-46337821D01*
X92549041Y-46367341D01*
X92519521Y-46391567D01*
X92485844Y-46409568D01*
X92449304Y-46420653D01*
X92405162Y-46425000D01*
X91456238Y-46425000D01*
X91412096Y-46420653D01*
X91375556Y-46409568D01*
X91341879Y-46391567D01*
X91312359Y-46367341D01*
X91288133Y-46337821D01*
X91270132Y-46304144D01*
X91259047Y-46267604D01*
X91254700Y-46223462D01*
X91254700Y-44774538D01*
X91259047Y-44730396D01*
X91270132Y-44693856D01*
X91288133Y-44660179D01*
X91312359Y-44630659D01*
X91341879Y-44606433D01*
X91375556Y-44588432D01*
X91412096Y-44577347D01*
X91456238Y-44573000D01*
X92405162Y-44573000D01*
X92449304Y-44577347D01*
X92449304Y-44577347D01*
G37*
G36*
X89649304Y-44577347D02*
G01*
X89685844Y-44588432D01*
X89719521Y-44606433D01*
X89749041Y-44630659D01*
X89773267Y-44660179D01*
X89791268Y-44693856D01*
X89802353Y-44730396D01*
X89806700Y-44774538D01*
X89806700Y-46223462D01*
X89802353Y-46267604D01*
X89791268Y-46304144D01*
X89773267Y-46337821D01*
X89749041Y-46367341D01*
X89719521Y-46391567D01*
X89685844Y-46409568D01*
X89649304Y-46420653D01*
X89605162Y-46425000D01*
X88656238Y-46425000D01*
X88612096Y-46420653D01*
X88575556Y-46409568D01*
X88541879Y-46391567D01*
X88512359Y-46367341D01*
X88488133Y-46337821D01*
X88470132Y-46304144D01*
X88459047Y-46267604D01*
X88454700Y-46223462D01*
X88454700Y-44774538D01*
X88459047Y-44730396D01*
X88470132Y-44693856D01*
X88488133Y-44660179D01*
X88512359Y-44630659D01*
X88541879Y-44606433D01*
X88575556Y-44588432D01*
X88612096Y-44577347D01*
X88656238Y-44573000D01*
X89605162Y-44573000D01*
X89649304Y-44577347D01*
X89649304Y-44577347D01*
G37*
M02*
