G04 #@! TF.GenerationSoftware,KiCad,Pcbnew,(5.1.0)-1*
G04 #@! TF.CreationDate,2021-02-13T20:01:35+01:00*
G04 #@! TF.ProjectId,GreaseWeazle,47726561-7365-4576-9561-7a6c652e6b69,rev?*
G04 #@! TF.SameCoordinates,Original*
G04 #@! TF.FileFunction,Paste,Top*
G04 #@! TF.FilePolarity,Positive*
%FSLAX46Y46*%
G04 Gerber Fmt 4.6, Leading zero omitted, Abs format (unit mm)*
G04 Created by KiCad (PCBNEW (5.1.0)-1) date 2021-02-13 20:01:35*
%MOMM*%
%LPD*%
G04 APERTURE LIST*
%ADD10C,0.100000*%
%ADD11C,0.590000*%
%ADD12C,1.250000*%
%ADD13R,2.000000X2.400000*%
%ADD14R,0.650000X1.060000*%
%ADD15R,2.000000X1.500000*%
%ADD16R,2.000000X3.800000*%
%ADD17C,0.300000*%
%ADD18R,1.800000X1.100000*%
%ADD19C,0.975000*%
%ADD20R,2.200000X1.500000*%
%ADD21R,1.700000X2.000000*%
%ADD22R,2.000000X0.500000*%
%ADD23R,0.900000X1.200000*%
G04 APERTURE END LIST*
D10*
G36*
X81363078Y-57000890D02*
G01*
X81377396Y-57003014D01*
X81391437Y-57006531D01*
X81405066Y-57011408D01*
X81418151Y-57017597D01*
X81430567Y-57025038D01*
X81442193Y-57033661D01*
X81452918Y-57043382D01*
X81462639Y-57054107D01*
X81471262Y-57065733D01*
X81478703Y-57078149D01*
X81484892Y-57091234D01*
X81489769Y-57104863D01*
X81493286Y-57118904D01*
X81495410Y-57133222D01*
X81496120Y-57147680D01*
X81496120Y-57492680D01*
X81495410Y-57507138D01*
X81493286Y-57521456D01*
X81489769Y-57535497D01*
X81484892Y-57549126D01*
X81478703Y-57562211D01*
X81471262Y-57574627D01*
X81462639Y-57586253D01*
X81452918Y-57596978D01*
X81442193Y-57606699D01*
X81430567Y-57615322D01*
X81418151Y-57622763D01*
X81405066Y-57628952D01*
X81391437Y-57633829D01*
X81377396Y-57637346D01*
X81363078Y-57639470D01*
X81348620Y-57640180D01*
X81053620Y-57640180D01*
X81039162Y-57639470D01*
X81024844Y-57637346D01*
X81010803Y-57633829D01*
X80997174Y-57628952D01*
X80984089Y-57622763D01*
X80971673Y-57615322D01*
X80960047Y-57606699D01*
X80949322Y-57596978D01*
X80939601Y-57586253D01*
X80930978Y-57574627D01*
X80923537Y-57562211D01*
X80917348Y-57549126D01*
X80912471Y-57535497D01*
X80908954Y-57521456D01*
X80906830Y-57507138D01*
X80906120Y-57492680D01*
X80906120Y-57147680D01*
X80906830Y-57133222D01*
X80908954Y-57118904D01*
X80912471Y-57104863D01*
X80917348Y-57091234D01*
X80923537Y-57078149D01*
X80930978Y-57065733D01*
X80939601Y-57054107D01*
X80949322Y-57043382D01*
X80960047Y-57033661D01*
X80971673Y-57025038D01*
X80984089Y-57017597D01*
X80997174Y-57011408D01*
X81010803Y-57006531D01*
X81024844Y-57003014D01*
X81039162Y-57000890D01*
X81053620Y-57000180D01*
X81348620Y-57000180D01*
X81363078Y-57000890D01*
X81363078Y-57000890D01*
G37*
D11*
X81201120Y-57320180D03*
D10*
G36*
X80393078Y-57000890D02*
G01*
X80407396Y-57003014D01*
X80421437Y-57006531D01*
X80435066Y-57011408D01*
X80448151Y-57017597D01*
X80460567Y-57025038D01*
X80472193Y-57033661D01*
X80482918Y-57043382D01*
X80492639Y-57054107D01*
X80501262Y-57065733D01*
X80508703Y-57078149D01*
X80514892Y-57091234D01*
X80519769Y-57104863D01*
X80523286Y-57118904D01*
X80525410Y-57133222D01*
X80526120Y-57147680D01*
X80526120Y-57492680D01*
X80525410Y-57507138D01*
X80523286Y-57521456D01*
X80519769Y-57535497D01*
X80514892Y-57549126D01*
X80508703Y-57562211D01*
X80501262Y-57574627D01*
X80492639Y-57586253D01*
X80482918Y-57596978D01*
X80472193Y-57606699D01*
X80460567Y-57615322D01*
X80448151Y-57622763D01*
X80435066Y-57628952D01*
X80421437Y-57633829D01*
X80407396Y-57637346D01*
X80393078Y-57639470D01*
X80378620Y-57640180D01*
X80083620Y-57640180D01*
X80069162Y-57639470D01*
X80054844Y-57637346D01*
X80040803Y-57633829D01*
X80027174Y-57628952D01*
X80014089Y-57622763D01*
X80001673Y-57615322D01*
X79990047Y-57606699D01*
X79979322Y-57596978D01*
X79969601Y-57586253D01*
X79960978Y-57574627D01*
X79953537Y-57562211D01*
X79947348Y-57549126D01*
X79942471Y-57535497D01*
X79938954Y-57521456D01*
X79936830Y-57507138D01*
X79936120Y-57492680D01*
X79936120Y-57147680D01*
X79936830Y-57133222D01*
X79938954Y-57118904D01*
X79942471Y-57104863D01*
X79947348Y-57091234D01*
X79953537Y-57078149D01*
X79960978Y-57065733D01*
X79969601Y-57054107D01*
X79979322Y-57043382D01*
X79990047Y-57033661D01*
X80001673Y-57025038D01*
X80014089Y-57017597D01*
X80027174Y-57011408D01*
X80040803Y-57006531D01*
X80054844Y-57003014D01*
X80069162Y-57000890D01*
X80083620Y-57000180D01*
X80378620Y-57000180D01*
X80393078Y-57000890D01*
X80393078Y-57000890D01*
G37*
D11*
X80231120Y-57320180D03*
D10*
G36*
X92330204Y-54797904D02*
G01*
X92354473Y-54801504D01*
X92378271Y-54807465D01*
X92401371Y-54815730D01*
X92423549Y-54826220D01*
X92444593Y-54838833D01*
X92464298Y-54853447D01*
X92482477Y-54869923D01*
X92498953Y-54888102D01*
X92513567Y-54907807D01*
X92526180Y-54928851D01*
X92536670Y-54951029D01*
X92544935Y-54974129D01*
X92550896Y-54997927D01*
X92554496Y-55022196D01*
X92555700Y-55046700D01*
X92555700Y-56296700D01*
X92554496Y-56321204D01*
X92550896Y-56345473D01*
X92544935Y-56369271D01*
X92536670Y-56392371D01*
X92526180Y-56414549D01*
X92513567Y-56435593D01*
X92498953Y-56455298D01*
X92482477Y-56473477D01*
X92464298Y-56489953D01*
X92444593Y-56504567D01*
X92423549Y-56517180D01*
X92401371Y-56527670D01*
X92378271Y-56535935D01*
X92354473Y-56541896D01*
X92330204Y-56545496D01*
X92305700Y-56546700D01*
X91555700Y-56546700D01*
X91531196Y-56545496D01*
X91506927Y-56541896D01*
X91483129Y-56535935D01*
X91460029Y-56527670D01*
X91437851Y-56517180D01*
X91416807Y-56504567D01*
X91397102Y-56489953D01*
X91378923Y-56473477D01*
X91362447Y-56455298D01*
X91347833Y-56435593D01*
X91335220Y-56414549D01*
X91324730Y-56392371D01*
X91316465Y-56369271D01*
X91310504Y-56345473D01*
X91306904Y-56321204D01*
X91305700Y-56296700D01*
X91305700Y-55046700D01*
X91306904Y-55022196D01*
X91310504Y-54997927D01*
X91316465Y-54974129D01*
X91324730Y-54951029D01*
X91335220Y-54928851D01*
X91347833Y-54907807D01*
X91362447Y-54888102D01*
X91378923Y-54869923D01*
X91397102Y-54853447D01*
X91416807Y-54838833D01*
X91437851Y-54826220D01*
X91460029Y-54815730D01*
X91483129Y-54807465D01*
X91506927Y-54801504D01*
X91531196Y-54797904D01*
X91555700Y-54796700D01*
X92305700Y-54796700D01*
X92330204Y-54797904D01*
X92330204Y-54797904D01*
G37*
D12*
X91930700Y-55671700D03*
D10*
G36*
X89530204Y-54797904D02*
G01*
X89554473Y-54801504D01*
X89578271Y-54807465D01*
X89601371Y-54815730D01*
X89623549Y-54826220D01*
X89644593Y-54838833D01*
X89664298Y-54853447D01*
X89682477Y-54869923D01*
X89698953Y-54888102D01*
X89713567Y-54907807D01*
X89726180Y-54928851D01*
X89736670Y-54951029D01*
X89744935Y-54974129D01*
X89750896Y-54997927D01*
X89754496Y-55022196D01*
X89755700Y-55046700D01*
X89755700Y-56296700D01*
X89754496Y-56321204D01*
X89750896Y-56345473D01*
X89744935Y-56369271D01*
X89736670Y-56392371D01*
X89726180Y-56414549D01*
X89713567Y-56435593D01*
X89698953Y-56455298D01*
X89682477Y-56473477D01*
X89664298Y-56489953D01*
X89644593Y-56504567D01*
X89623549Y-56517180D01*
X89601371Y-56527670D01*
X89578271Y-56535935D01*
X89554473Y-56541896D01*
X89530204Y-56545496D01*
X89505700Y-56546700D01*
X88755700Y-56546700D01*
X88731196Y-56545496D01*
X88706927Y-56541896D01*
X88683129Y-56535935D01*
X88660029Y-56527670D01*
X88637851Y-56517180D01*
X88616807Y-56504567D01*
X88597102Y-56489953D01*
X88578923Y-56473477D01*
X88562447Y-56455298D01*
X88547833Y-56435593D01*
X88535220Y-56414549D01*
X88524730Y-56392371D01*
X88516465Y-56369271D01*
X88510504Y-56345473D01*
X88506904Y-56321204D01*
X88505700Y-56296700D01*
X88505700Y-55046700D01*
X88506904Y-55022196D01*
X88510504Y-54997927D01*
X88516465Y-54974129D01*
X88524730Y-54951029D01*
X88535220Y-54928851D01*
X88547833Y-54907807D01*
X88562447Y-54888102D01*
X88578923Y-54869923D01*
X88597102Y-54853447D01*
X88616807Y-54838833D01*
X88637851Y-54826220D01*
X88660029Y-54815730D01*
X88683129Y-54807465D01*
X88706927Y-54801504D01*
X88731196Y-54797904D01*
X88755700Y-54796700D01*
X89505700Y-54796700D01*
X89530204Y-54797904D01*
X89530204Y-54797904D01*
G37*
D12*
X89130700Y-55671700D03*
D10*
G36*
X92330204Y-44625204D02*
G01*
X92354473Y-44628804D01*
X92378271Y-44634765D01*
X92401371Y-44643030D01*
X92423549Y-44653520D01*
X92444593Y-44666133D01*
X92464298Y-44680747D01*
X92482477Y-44697223D01*
X92498953Y-44715402D01*
X92513567Y-44735107D01*
X92526180Y-44756151D01*
X92536670Y-44778329D01*
X92544935Y-44801429D01*
X92550896Y-44825227D01*
X92554496Y-44849496D01*
X92555700Y-44874000D01*
X92555700Y-46124000D01*
X92554496Y-46148504D01*
X92550896Y-46172773D01*
X92544935Y-46196571D01*
X92536670Y-46219671D01*
X92526180Y-46241849D01*
X92513567Y-46262893D01*
X92498953Y-46282598D01*
X92482477Y-46300777D01*
X92464298Y-46317253D01*
X92444593Y-46331867D01*
X92423549Y-46344480D01*
X92401371Y-46354970D01*
X92378271Y-46363235D01*
X92354473Y-46369196D01*
X92330204Y-46372796D01*
X92305700Y-46374000D01*
X91555700Y-46374000D01*
X91531196Y-46372796D01*
X91506927Y-46369196D01*
X91483129Y-46363235D01*
X91460029Y-46354970D01*
X91437851Y-46344480D01*
X91416807Y-46331867D01*
X91397102Y-46317253D01*
X91378923Y-46300777D01*
X91362447Y-46282598D01*
X91347833Y-46262893D01*
X91335220Y-46241849D01*
X91324730Y-46219671D01*
X91316465Y-46196571D01*
X91310504Y-46172773D01*
X91306904Y-46148504D01*
X91305700Y-46124000D01*
X91305700Y-44874000D01*
X91306904Y-44849496D01*
X91310504Y-44825227D01*
X91316465Y-44801429D01*
X91324730Y-44778329D01*
X91335220Y-44756151D01*
X91347833Y-44735107D01*
X91362447Y-44715402D01*
X91378923Y-44697223D01*
X91397102Y-44680747D01*
X91416807Y-44666133D01*
X91437851Y-44653520D01*
X91460029Y-44643030D01*
X91483129Y-44634765D01*
X91506927Y-44628804D01*
X91531196Y-44625204D01*
X91555700Y-44624000D01*
X92305700Y-44624000D01*
X92330204Y-44625204D01*
X92330204Y-44625204D01*
G37*
D12*
X91930700Y-45499000D03*
D10*
G36*
X89530204Y-44625204D02*
G01*
X89554473Y-44628804D01*
X89578271Y-44634765D01*
X89601371Y-44643030D01*
X89623549Y-44653520D01*
X89644593Y-44666133D01*
X89664298Y-44680747D01*
X89682477Y-44697223D01*
X89698953Y-44715402D01*
X89713567Y-44735107D01*
X89726180Y-44756151D01*
X89736670Y-44778329D01*
X89744935Y-44801429D01*
X89750896Y-44825227D01*
X89754496Y-44849496D01*
X89755700Y-44874000D01*
X89755700Y-46124000D01*
X89754496Y-46148504D01*
X89750896Y-46172773D01*
X89744935Y-46196571D01*
X89736670Y-46219671D01*
X89726180Y-46241849D01*
X89713567Y-46262893D01*
X89698953Y-46282598D01*
X89682477Y-46300777D01*
X89664298Y-46317253D01*
X89644593Y-46331867D01*
X89623549Y-46344480D01*
X89601371Y-46354970D01*
X89578271Y-46363235D01*
X89554473Y-46369196D01*
X89530204Y-46372796D01*
X89505700Y-46374000D01*
X88755700Y-46374000D01*
X88731196Y-46372796D01*
X88706927Y-46369196D01*
X88683129Y-46363235D01*
X88660029Y-46354970D01*
X88637851Y-46344480D01*
X88616807Y-46331867D01*
X88597102Y-46317253D01*
X88578923Y-46300777D01*
X88562447Y-46282598D01*
X88547833Y-46262893D01*
X88535220Y-46241849D01*
X88524730Y-46219671D01*
X88516465Y-46196571D01*
X88510504Y-46172773D01*
X88506904Y-46148504D01*
X88505700Y-46124000D01*
X88505700Y-44874000D01*
X88506904Y-44849496D01*
X88510504Y-44825227D01*
X88516465Y-44801429D01*
X88524730Y-44778329D01*
X88535220Y-44756151D01*
X88547833Y-44735107D01*
X88562447Y-44715402D01*
X88578923Y-44697223D01*
X88597102Y-44680747D01*
X88616807Y-44666133D01*
X88637851Y-44653520D01*
X88660029Y-44643030D01*
X88683129Y-44634765D01*
X88706927Y-44628804D01*
X88731196Y-44625204D01*
X88755700Y-44624000D01*
X89505700Y-44624000D01*
X89530204Y-44625204D01*
X89530204Y-44625204D01*
G37*
D12*
X89130700Y-45499000D03*
D13*
X88128700Y-71859100D03*
X84428700Y-71859100D03*
D14*
X89938900Y-93241000D03*
X90888900Y-93241000D03*
X88988900Y-93241000D03*
X88988900Y-91041000D03*
X89938900Y-91041000D03*
X90888900Y-91041000D03*
D15*
X95458700Y-52866300D03*
X95458700Y-48266300D03*
X95458700Y-50566300D03*
D16*
X89158700Y-50566300D03*
D10*
G36*
X83103551Y-66331461D02*
G01*
X83110832Y-66332541D01*
X83117971Y-66334329D01*
X83124901Y-66336809D01*
X83131555Y-66339956D01*
X83137868Y-66343740D01*
X83143779Y-66348124D01*
X83149233Y-66353067D01*
X83154176Y-66358521D01*
X83158560Y-66364432D01*
X83162344Y-66370745D01*
X83165491Y-66377399D01*
X83167971Y-66384329D01*
X83169759Y-66391468D01*
X83170839Y-66398749D01*
X83171200Y-66406100D01*
X83171200Y-66556100D01*
X83170839Y-66563451D01*
X83169759Y-66570732D01*
X83167971Y-66577871D01*
X83165491Y-66584801D01*
X83162344Y-66591455D01*
X83158560Y-66597768D01*
X83154176Y-66603679D01*
X83149233Y-66609133D01*
X83143779Y-66614076D01*
X83137868Y-66618460D01*
X83131555Y-66622244D01*
X83124901Y-66625391D01*
X83117971Y-66627871D01*
X83110832Y-66629659D01*
X83103551Y-66630739D01*
X83096200Y-66631100D01*
X81771200Y-66631100D01*
X81763849Y-66630739D01*
X81756568Y-66629659D01*
X81749429Y-66627871D01*
X81742499Y-66625391D01*
X81735845Y-66622244D01*
X81729532Y-66618460D01*
X81723621Y-66614076D01*
X81718167Y-66609133D01*
X81713224Y-66603679D01*
X81708840Y-66597768D01*
X81705056Y-66591455D01*
X81701909Y-66584801D01*
X81699429Y-66577871D01*
X81697641Y-66570732D01*
X81696561Y-66563451D01*
X81696200Y-66556100D01*
X81696200Y-66406100D01*
X81696561Y-66398749D01*
X81697641Y-66391468D01*
X81699429Y-66384329D01*
X81701909Y-66377399D01*
X81705056Y-66370745D01*
X81708840Y-66364432D01*
X81713224Y-66358521D01*
X81718167Y-66353067D01*
X81723621Y-66348124D01*
X81729532Y-66343740D01*
X81735845Y-66339956D01*
X81742499Y-66336809D01*
X81749429Y-66334329D01*
X81756568Y-66332541D01*
X81763849Y-66331461D01*
X81771200Y-66331100D01*
X83096200Y-66331100D01*
X83103551Y-66331461D01*
X83103551Y-66331461D01*
G37*
D17*
X82433700Y-66481100D03*
D10*
G36*
X83103551Y-65831461D02*
G01*
X83110832Y-65832541D01*
X83117971Y-65834329D01*
X83124901Y-65836809D01*
X83131555Y-65839956D01*
X83137868Y-65843740D01*
X83143779Y-65848124D01*
X83149233Y-65853067D01*
X83154176Y-65858521D01*
X83158560Y-65864432D01*
X83162344Y-65870745D01*
X83165491Y-65877399D01*
X83167971Y-65884329D01*
X83169759Y-65891468D01*
X83170839Y-65898749D01*
X83171200Y-65906100D01*
X83171200Y-66056100D01*
X83170839Y-66063451D01*
X83169759Y-66070732D01*
X83167971Y-66077871D01*
X83165491Y-66084801D01*
X83162344Y-66091455D01*
X83158560Y-66097768D01*
X83154176Y-66103679D01*
X83149233Y-66109133D01*
X83143779Y-66114076D01*
X83137868Y-66118460D01*
X83131555Y-66122244D01*
X83124901Y-66125391D01*
X83117971Y-66127871D01*
X83110832Y-66129659D01*
X83103551Y-66130739D01*
X83096200Y-66131100D01*
X81771200Y-66131100D01*
X81763849Y-66130739D01*
X81756568Y-66129659D01*
X81749429Y-66127871D01*
X81742499Y-66125391D01*
X81735845Y-66122244D01*
X81729532Y-66118460D01*
X81723621Y-66114076D01*
X81718167Y-66109133D01*
X81713224Y-66103679D01*
X81708840Y-66097768D01*
X81705056Y-66091455D01*
X81701909Y-66084801D01*
X81699429Y-66077871D01*
X81697641Y-66070732D01*
X81696561Y-66063451D01*
X81696200Y-66056100D01*
X81696200Y-65906100D01*
X81696561Y-65898749D01*
X81697641Y-65891468D01*
X81699429Y-65884329D01*
X81701909Y-65877399D01*
X81705056Y-65870745D01*
X81708840Y-65864432D01*
X81713224Y-65858521D01*
X81718167Y-65853067D01*
X81723621Y-65848124D01*
X81729532Y-65843740D01*
X81735845Y-65839956D01*
X81742499Y-65836809D01*
X81749429Y-65834329D01*
X81756568Y-65832541D01*
X81763849Y-65831461D01*
X81771200Y-65831100D01*
X83096200Y-65831100D01*
X83103551Y-65831461D01*
X83103551Y-65831461D01*
G37*
D17*
X82433700Y-65981100D03*
D10*
G36*
X83103551Y-65331461D02*
G01*
X83110832Y-65332541D01*
X83117971Y-65334329D01*
X83124901Y-65336809D01*
X83131555Y-65339956D01*
X83137868Y-65343740D01*
X83143779Y-65348124D01*
X83149233Y-65353067D01*
X83154176Y-65358521D01*
X83158560Y-65364432D01*
X83162344Y-65370745D01*
X83165491Y-65377399D01*
X83167971Y-65384329D01*
X83169759Y-65391468D01*
X83170839Y-65398749D01*
X83171200Y-65406100D01*
X83171200Y-65556100D01*
X83170839Y-65563451D01*
X83169759Y-65570732D01*
X83167971Y-65577871D01*
X83165491Y-65584801D01*
X83162344Y-65591455D01*
X83158560Y-65597768D01*
X83154176Y-65603679D01*
X83149233Y-65609133D01*
X83143779Y-65614076D01*
X83137868Y-65618460D01*
X83131555Y-65622244D01*
X83124901Y-65625391D01*
X83117971Y-65627871D01*
X83110832Y-65629659D01*
X83103551Y-65630739D01*
X83096200Y-65631100D01*
X81771200Y-65631100D01*
X81763849Y-65630739D01*
X81756568Y-65629659D01*
X81749429Y-65627871D01*
X81742499Y-65625391D01*
X81735845Y-65622244D01*
X81729532Y-65618460D01*
X81723621Y-65614076D01*
X81718167Y-65609133D01*
X81713224Y-65603679D01*
X81708840Y-65597768D01*
X81705056Y-65591455D01*
X81701909Y-65584801D01*
X81699429Y-65577871D01*
X81697641Y-65570732D01*
X81696561Y-65563451D01*
X81696200Y-65556100D01*
X81696200Y-65406100D01*
X81696561Y-65398749D01*
X81697641Y-65391468D01*
X81699429Y-65384329D01*
X81701909Y-65377399D01*
X81705056Y-65370745D01*
X81708840Y-65364432D01*
X81713224Y-65358521D01*
X81718167Y-65353067D01*
X81723621Y-65348124D01*
X81729532Y-65343740D01*
X81735845Y-65339956D01*
X81742499Y-65336809D01*
X81749429Y-65334329D01*
X81756568Y-65332541D01*
X81763849Y-65331461D01*
X81771200Y-65331100D01*
X83096200Y-65331100D01*
X83103551Y-65331461D01*
X83103551Y-65331461D01*
G37*
D17*
X82433700Y-65481100D03*
D10*
G36*
X83103551Y-64831461D02*
G01*
X83110832Y-64832541D01*
X83117971Y-64834329D01*
X83124901Y-64836809D01*
X83131555Y-64839956D01*
X83137868Y-64843740D01*
X83143779Y-64848124D01*
X83149233Y-64853067D01*
X83154176Y-64858521D01*
X83158560Y-64864432D01*
X83162344Y-64870745D01*
X83165491Y-64877399D01*
X83167971Y-64884329D01*
X83169759Y-64891468D01*
X83170839Y-64898749D01*
X83171200Y-64906100D01*
X83171200Y-65056100D01*
X83170839Y-65063451D01*
X83169759Y-65070732D01*
X83167971Y-65077871D01*
X83165491Y-65084801D01*
X83162344Y-65091455D01*
X83158560Y-65097768D01*
X83154176Y-65103679D01*
X83149233Y-65109133D01*
X83143779Y-65114076D01*
X83137868Y-65118460D01*
X83131555Y-65122244D01*
X83124901Y-65125391D01*
X83117971Y-65127871D01*
X83110832Y-65129659D01*
X83103551Y-65130739D01*
X83096200Y-65131100D01*
X81771200Y-65131100D01*
X81763849Y-65130739D01*
X81756568Y-65129659D01*
X81749429Y-65127871D01*
X81742499Y-65125391D01*
X81735845Y-65122244D01*
X81729532Y-65118460D01*
X81723621Y-65114076D01*
X81718167Y-65109133D01*
X81713224Y-65103679D01*
X81708840Y-65097768D01*
X81705056Y-65091455D01*
X81701909Y-65084801D01*
X81699429Y-65077871D01*
X81697641Y-65070732D01*
X81696561Y-65063451D01*
X81696200Y-65056100D01*
X81696200Y-64906100D01*
X81696561Y-64898749D01*
X81697641Y-64891468D01*
X81699429Y-64884329D01*
X81701909Y-64877399D01*
X81705056Y-64870745D01*
X81708840Y-64864432D01*
X81713224Y-64858521D01*
X81718167Y-64853067D01*
X81723621Y-64848124D01*
X81729532Y-64843740D01*
X81735845Y-64839956D01*
X81742499Y-64836809D01*
X81749429Y-64834329D01*
X81756568Y-64832541D01*
X81763849Y-64831461D01*
X81771200Y-64831100D01*
X83096200Y-64831100D01*
X83103551Y-64831461D01*
X83103551Y-64831461D01*
G37*
D17*
X82433700Y-64981100D03*
D10*
G36*
X83103551Y-64331461D02*
G01*
X83110832Y-64332541D01*
X83117971Y-64334329D01*
X83124901Y-64336809D01*
X83131555Y-64339956D01*
X83137868Y-64343740D01*
X83143779Y-64348124D01*
X83149233Y-64353067D01*
X83154176Y-64358521D01*
X83158560Y-64364432D01*
X83162344Y-64370745D01*
X83165491Y-64377399D01*
X83167971Y-64384329D01*
X83169759Y-64391468D01*
X83170839Y-64398749D01*
X83171200Y-64406100D01*
X83171200Y-64556100D01*
X83170839Y-64563451D01*
X83169759Y-64570732D01*
X83167971Y-64577871D01*
X83165491Y-64584801D01*
X83162344Y-64591455D01*
X83158560Y-64597768D01*
X83154176Y-64603679D01*
X83149233Y-64609133D01*
X83143779Y-64614076D01*
X83137868Y-64618460D01*
X83131555Y-64622244D01*
X83124901Y-64625391D01*
X83117971Y-64627871D01*
X83110832Y-64629659D01*
X83103551Y-64630739D01*
X83096200Y-64631100D01*
X81771200Y-64631100D01*
X81763849Y-64630739D01*
X81756568Y-64629659D01*
X81749429Y-64627871D01*
X81742499Y-64625391D01*
X81735845Y-64622244D01*
X81729532Y-64618460D01*
X81723621Y-64614076D01*
X81718167Y-64609133D01*
X81713224Y-64603679D01*
X81708840Y-64597768D01*
X81705056Y-64591455D01*
X81701909Y-64584801D01*
X81699429Y-64577871D01*
X81697641Y-64570732D01*
X81696561Y-64563451D01*
X81696200Y-64556100D01*
X81696200Y-64406100D01*
X81696561Y-64398749D01*
X81697641Y-64391468D01*
X81699429Y-64384329D01*
X81701909Y-64377399D01*
X81705056Y-64370745D01*
X81708840Y-64364432D01*
X81713224Y-64358521D01*
X81718167Y-64353067D01*
X81723621Y-64348124D01*
X81729532Y-64343740D01*
X81735845Y-64339956D01*
X81742499Y-64336809D01*
X81749429Y-64334329D01*
X81756568Y-64332541D01*
X81763849Y-64331461D01*
X81771200Y-64331100D01*
X83096200Y-64331100D01*
X83103551Y-64331461D01*
X83103551Y-64331461D01*
G37*
D17*
X82433700Y-64481100D03*
D10*
G36*
X83103551Y-63831461D02*
G01*
X83110832Y-63832541D01*
X83117971Y-63834329D01*
X83124901Y-63836809D01*
X83131555Y-63839956D01*
X83137868Y-63843740D01*
X83143779Y-63848124D01*
X83149233Y-63853067D01*
X83154176Y-63858521D01*
X83158560Y-63864432D01*
X83162344Y-63870745D01*
X83165491Y-63877399D01*
X83167971Y-63884329D01*
X83169759Y-63891468D01*
X83170839Y-63898749D01*
X83171200Y-63906100D01*
X83171200Y-64056100D01*
X83170839Y-64063451D01*
X83169759Y-64070732D01*
X83167971Y-64077871D01*
X83165491Y-64084801D01*
X83162344Y-64091455D01*
X83158560Y-64097768D01*
X83154176Y-64103679D01*
X83149233Y-64109133D01*
X83143779Y-64114076D01*
X83137868Y-64118460D01*
X83131555Y-64122244D01*
X83124901Y-64125391D01*
X83117971Y-64127871D01*
X83110832Y-64129659D01*
X83103551Y-64130739D01*
X83096200Y-64131100D01*
X81771200Y-64131100D01*
X81763849Y-64130739D01*
X81756568Y-64129659D01*
X81749429Y-64127871D01*
X81742499Y-64125391D01*
X81735845Y-64122244D01*
X81729532Y-64118460D01*
X81723621Y-64114076D01*
X81718167Y-64109133D01*
X81713224Y-64103679D01*
X81708840Y-64097768D01*
X81705056Y-64091455D01*
X81701909Y-64084801D01*
X81699429Y-64077871D01*
X81697641Y-64070732D01*
X81696561Y-64063451D01*
X81696200Y-64056100D01*
X81696200Y-63906100D01*
X81696561Y-63898749D01*
X81697641Y-63891468D01*
X81699429Y-63884329D01*
X81701909Y-63877399D01*
X81705056Y-63870745D01*
X81708840Y-63864432D01*
X81713224Y-63858521D01*
X81718167Y-63853067D01*
X81723621Y-63848124D01*
X81729532Y-63843740D01*
X81735845Y-63839956D01*
X81742499Y-63836809D01*
X81749429Y-63834329D01*
X81756568Y-63832541D01*
X81763849Y-63831461D01*
X81771200Y-63831100D01*
X83096200Y-63831100D01*
X83103551Y-63831461D01*
X83103551Y-63831461D01*
G37*
D17*
X82433700Y-63981100D03*
D10*
G36*
X83103551Y-63331461D02*
G01*
X83110832Y-63332541D01*
X83117971Y-63334329D01*
X83124901Y-63336809D01*
X83131555Y-63339956D01*
X83137868Y-63343740D01*
X83143779Y-63348124D01*
X83149233Y-63353067D01*
X83154176Y-63358521D01*
X83158560Y-63364432D01*
X83162344Y-63370745D01*
X83165491Y-63377399D01*
X83167971Y-63384329D01*
X83169759Y-63391468D01*
X83170839Y-63398749D01*
X83171200Y-63406100D01*
X83171200Y-63556100D01*
X83170839Y-63563451D01*
X83169759Y-63570732D01*
X83167971Y-63577871D01*
X83165491Y-63584801D01*
X83162344Y-63591455D01*
X83158560Y-63597768D01*
X83154176Y-63603679D01*
X83149233Y-63609133D01*
X83143779Y-63614076D01*
X83137868Y-63618460D01*
X83131555Y-63622244D01*
X83124901Y-63625391D01*
X83117971Y-63627871D01*
X83110832Y-63629659D01*
X83103551Y-63630739D01*
X83096200Y-63631100D01*
X81771200Y-63631100D01*
X81763849Y-63630739D01*
X81756568Y-63629659D01*
X81749429Y-63627871D01*
X81742499Y-63625391D01*
X81735845Y-63622244D01*
X81729532Y-63618460D01*
X81723621Y-63614076D01*
X81718167Y-63609133D01*
X81713224Y-63603679D01*
X81708840Y-63597768D01*
X81705056Y-63591455D01*
X81701909Y-63584801D01*
X81699429Y-63577871D01*
X81697641Y-63570732D01*
X81696561Y-63563451D01*
X81696200Y-63556100D01*
X81696200Y-63406100D01*
X81696561Y-63398749D01*
X81697641Y-63391468D01*
X81699429Y-63384329D01*
X81701909Y-63377399D01*
X81705056Y-63370745D01*
X81708840Y-63364432D01*
X81713224Y-63358521D01*
X81718167Y-63353067D01*
X81723621Y-63348124D01*
X81729532Y-63343740D01*
X81735845Y-63339956D01*
X81742499Y-63336809D01*
X81749429Y-63334329D01*
X81756568Y-63332541D01*
X81763849Y-63331461D01*
X81771200Y-63331100D01*
X83096200Y-63331100D01*
X83103551Y-63331461D01*
X83103551Y-63331461D01*
G37*
D17*
X82433700Y-63481100D03*
D10*
G36*
X83103551Y-62831461D02*
G01*
X83110832Y-62832541D01*
X83117971Y-62834329D01*
X83124901Y-62836809D01*
X83131555Y-62839956D01*
X83137868Y-62843740D01*
X83143779Y-62848124D01*
X83149233Y-62853067D01*
X83154176Y-62858521D01*
X83158560Y-62864432D01*
X83162344Y-62870745D01*
X83165491Y-62877399D01*
X83167971Y-62884329D01*
X83169759Y-62891468D01*
X83170839Y-62898749D01*
X83171200Y-62906100D01*
X83171200Y-63056100D01*
X83170839Y-63063451D01*
X83169759Y-63070732D01*
X83167971Y-63077871D01*
X83165491Y-63084801D01*
X83162344Y-63091455D01*
X83158560Y-63097768D01*
X83154176Y-63103679D01*
X83149233Y-63109133D01*
X83143779Y-63114076D01*
X83137868Y-63118460D01*
X83131555Y-63122244D01*
X83124901Y-63125391D01*
X83117971Y-63127871D01*
X83110832Y-63129659D01*
X83103551Y-63130739D01*
X83096200Y-63131100D01*
X81771200Y-63131100D01*
X81763849Y-63130739D01*
X81756568Y-63129659D01*
X81749429Y-63127871D01*
X81742499Y-63125391D01*
X81735845Y-63122244D01*
X81729532Y-63118460D01*
X81723621Y-63114076D01*
X81718167Y-63109133D01*
X81713224Y-63103679D01*
X81708840Y-63097768D01*
X81705056Y-63091455D01*
X81701909Y-63084801D01*
X81699429Y-63077871D01*
X81697641Y-63070732D01*
X81696561Y-63063451D01*
X81696200Y-63056100D01*
X81696200Y-62906100D01*
X81696561Y-62898749D01*
X81697641Y-62891468D01*
X81699429Y-62884329D01*
X81701909Y-62877399D01*
X81705056Y-62870745D01*
X81708840Y-62864432D01*
X81713224Y-62858521D01*
X81718167Y-62853067D01*
X81723621Y-62848124D01*
X81729532Y-62843740D01*
X81735845Y-62839956D01*
X81742499Y-62836809D01*
X81749429Y-62834329D01*
X81756568Y-62832541D01*
X81763849Y-62831461D01*
X81771200Y-62831100D01*
X83096200Y-62831100D01*
X83103551Y-62831461D01*
X83103551Y-62831461D01*
G37*
D17*
X82433700Y-62981100D03*
D10*
G36*
X83103551Y-62331461D02*
G01*
X83110832Y-62332541D01*
X83117971Y-62334329D01*
X83124901Y-62336809D01*
X83131555Y-62339956D01*
X83137868Y-62343740D01*
X83143779Y-62348124D01*
X83149233Y-62353067D01*
X83154176Y-62358521D01*
X83158560Y-62364432D01*
X83162344Y-62370745D01*
X83165491Y-62377399D01*
X83167971Y-62384329D01*
X83169759Y-62391468D01*
X83170839Y-62398749D01*
X83171200Y-62406100D01*
X83171200Y-62556100D01*
X83170839Y-62563451D01*
X83169759Y-62570732D01*
X83167971Y-62577871D01*
X83165491Y-62584801D01*
X83162344Y-62591455D01*
X83158560Y-62597768D01*
X83154176Y-62603679D01*
X83149233Y-62609133D01*
X83143779Y-62614076D01*
X83137868Y-62618460D01*
X83131555Y-62622244D01*
X83124901Y-62625391D01*
X83117971Y-62627871D01*
X83110832Y-62629659D01*
X83103551Y-62630739D01*
X83096200Y-62631100D01*
X81771200Y-62631100D01*
X81763849Y-62630739D01*
X81756568Y-62629659D01*
X81749429Y-62627871D01*
X81742499Y-62625391D01*
X81735845Y-62622244D01*
X81729532Y-62618460D01*
X81723621Y-62614076D01*
X81718167Y-62609133D01*
X81713224Y-62603679D01*
X81708840Y-62597768D01*
X81705056Y-62591455D01*
X81701909Y-62584801D01*
X81699429Y-62577871D01*
X81697641Y-62570732D01*
X81696561Y-62563451D01*
X81696200Y-62556100D01*
X81696200Y-62406100D01*
X81696561Y-62398749D01*
X81697641Y-62391468D01*
X81699429Y-62384329D01*
X81701909Y-62377399D01*
X81705056Y-62370745D01*
X81708840Y-62364432D01*
X81713224Y-62358521D01*
X81718167Y-62353067D01*
X81723621Y-62348124D01*
X81729532Y-62343740D01*
X81735845Y-62339956D01*
X81742499Y-62336809D01*
X81749429Y-62334329D01*
X81756568Y-62332541D01*
X81763849Y-62331461D01*
X81771200Y-62331100D01*
X83096200Y-62331100D01*
X83103551Y-62331461D01*
X83103551Y-62331461D01*
G37*
D17*
X82433700Y-62481100D03*
D10*
G36*
X83103551Y-61831461D02*
G01*
X83110832Y-61832541D01*
X83117971Y-61834329D01*
X83124901Y-61836809D01*
X83131555Y-61839956D01*
X83137868Y-61843740D01*
X83143779Y-61848124D01*
X83149233Y-61853067D01*
X83154176Y-61858521D01*
X83158560Y-61864432D01*
X83162344Y-61870745D01*
X83165491Y-61877399D01*
X83167971Y-61884329D01*
X83169759Y-61891468D01*
X83170839Y-61898749D01*
X83171200Y-61906100D01*
X83171200Y-62056100D01*
X83170839Y-62063451D01*
X83169759Y-62070732D01*
X83167971Y-62077871D01*
X83165491Y-62084801D01*
X83162344Y-62091455D01*
X83158560Y-62097768D01*
X83154176Y-62103679D01*
X83149233Y-62109133D01*
X83143779Y-62114076D01*
X83137868Y-62118460D01*
X83131555Y-62122244D01*
X83124901Y-62125391D01*
X83117971Y-62127871D01*
X83110832Y-62129659D01*
X83103551Y-62130739D01*
X83096200Y-62131100D01*
X81771200Y-62131100D01*
X81763849Y-62130739D01*
X81756568Y-62129659D01*
X81749429Y-62127871D01*
X81742499Y-62125391D01*
X81735845Y-62122244D01*
X81729532Y-62118460D01*
X81723621Y-62114076D01*
X81718167Y-62109133D01*
X81713224Y-62103679D01*
X81708840Y-62097768D01*
X81705056Y-62091455D01*
X81701909Y-62084801D01*
X81699429Y-62077871D01*
X81697641Y-62070732D01*
X81696561Y-62063451D01*
X81696200Y-62056100D01*
X81696200Y-61906100D01*
X81696561Y-61898749D01*
X81697641Y-61891468D01*
X81699429Y-61884329D01*
X81701909Y-61877399D01*
X81705056Y-61870745D01*
X81708840Y-61864432D01*
X81713224Y-61858521D01*
X81718167Y-61853067D01*
X81723621Y-61848124D01*
X81729532Y-61843740D01*
X81735845Y-61839956D01*
X81742499Y-61836809D01*
X81749429Y-61834329D01*
X81756568Y-61832541D01*
X81763849Y-61831461D01*
X81771200Y-61831100D01*
X83096200Y-61831100D01*
X83103551Y-61831461D01*
X83103551Y-61831461D01*
G37*
D17*
X82433700Y-61981100D03*
D10*
G36*
X83103551Y-61331461D02*
G01*
X83110832Y-61332541D01*
X83117971Y-61334329D01*
X83124901Y-61336809D01*
X83131555Y-61339956D01*
X83137868Y-61343740D01*
X83143779Y-61348124D01*
X83149233Y-61353067D01*
X83154176Y-61358521D01*
X83158560Y-61364432D01*
X83162344Y-61370745D01*
X83165491Y-61377399D01*
X83167971Y-61384329D01*
X83169759Y-61391468D01*
X83170839Y-61398749D01*
X83171200Y-61406100D01*
X83171200Y-61556100D01*
X83170839Y-61563451D01*
X83169759Y-61570732D01*
X83167971Y-61577871D01*
X83165491Y-61584801D01*
X83162344Y-61591455D01*
X83158560Y-61597768D01*
X83154176Y-61603679D01*
X83149233Y-61609133D01*
X83143779Y-61614076D01*
X83137868Y-61618460D01*
X83131555Y-61622244D01*
X83124901Y-61625391D01*
X83117971Y-61627871D01*
X83110832Y-61629659D01*
X83103551Y-61630739D01*
X83096200Y-61631100D01*
X81771200Y-61631100D01*
X81763849Y-61630739D01*
X81756568Y-61629659D01*
X81749429Y-61627871D01*
X81742499Y-61625391D01*
X81735845Y-61622244D01*
X81729532Y-61618460D01*
X81723621Y-61614076D01*
X81718167Y-61609133D01*
X81713224Y-61603679D01*
X81708840Y-61597768D01*
X81705056Y-61591455D01*
X81701909Y-61584801D01*
X81699429Y-61577871D01*
X81697641Y-61570732D01*
X81696561Y-61563451D01*
X81696200Y-61556100D01*
X81696200Y-61406100D01*
X81696561Y-61398749D01*
X81697641Y-61391468D01*
X81699429Y-61384329D01*
X81701909Y-61377399D01*
X81705056Y-61370745D01*
X81708840Y-61364432D01*
X81713224Y-61358521D01*
X81718167Y-61353067D01*
X81723621Y-61348124D01*
X81729532Y-61343740D01*
X81735845Y-61339956D01*
X81742499Y-61336809D01*
X81749429Y-61334329D01*
X81756568Y-61332541D01*
X81763849Y-61331461D01*
X81771200Y-61331100D01*
X83096200Y-61331100D01*
X83103551Y-61331461D01*
X83103551Y-61331461D01*
G37*
D17*
X82433700Y-61481100D03*
D10*
G36*
X83103551Y-60831461D02*
G01*
X83110832Y-60832541D01*
X83117971Y-60834329D01*
X83124901Y-60836809D01*
X83131555Y-60839956D01*
X83137868Y-60843740D01*
X83143779Y-60848124D01*
X83149233Y-60853067D01*
X83154176Y-60858521D01*
X83158560Y-60864432D01*
X83162344Y-60870745D01*
X83165491Y-60877399D01*
X83167971Y-60884329D01*
X83169759Y-60891468D01*
X83170839Y-60898749D01*
X83171200Y-60906100D01*
X83171200Y-61056100D01*
X83170839Y-61063451D01*
X83169759Y-61070732D01*
X83167971Y-61077871D01*
X83165491Y-61084801D01*
X83162344Y-61091455D01*
X83158560Y-61097768D01*
X83154176Y-61103679D01*
X83149233Y-61109133D01*
X83143779Y-61114076D01*
X83137868Y-61118460D01*
X83131555Y-61122244D01*
X83124901Y-61125391D01*
X83117971Y-61127871D01*
X83110832Y-61129659D01*
X83103551Y-61130739D01*
X83096200Y-61131100D01*
X81771200Y-61131100D01*
X81763849Y-61130739D01*
X81756568Y-61129659D01*
X81749429Y-61127871D01*
X81742499Y-61125391D01*
X81735845Y-61122244D01*
X81729532Y-61118460D01*
X81723621Y-61114076D01*
X81718167Y-61109133D01*
X81713224Y-61103679D01*
X81708840Y-61097768D01*
X81705056Y-61091455D01*
X81701909Y-61084801D01*
X81699429Y-61077871D01*
X81697641Y-61070732D01*
X81696561Y-61063451D01*
X81696200Y-61056100D01*
X81696200Y-60906100D01*
X81696561Y-60898749D01*
X81697641Y-60891468D01*
X81699429Y-60884329D01*
X81701909Y-60877399D01*
X81705056Y-60870745D01*
X81708840Y-60864432D01*
X81713224Y-60858521D01*
X81718167Y-60853067D01*
X81723621Y-60848124D01*
X81729532Y-60843740D01*
X81735845Y-60839956D01*
X81742499Y-60836809D01*
X81749429Y-60834329D01*
X81756568Y-60832541D01*
X81763849Y-60831461D01*
X81771200Y-60831100D01*
X83096200Y-60831100D01*
X83103551Y-60831461D01*
X83103551Y-60831461D01*
G37*
D17*
X82433700Y-60981100D03*
D10*
G36*
X83928551Y-58831461D02*
G01*
X83935832Y-58832541D01*
X83942971Y-58834329D01*
X83949901Y-58836809D01*
X83956555Y-58839956D01*
X83962868Y-58843740D01*
X83968779Y-58848124D01*
X83974233Y-58853067D01*
X83979176Y-58858521D01*
X83983560Y-58864432D01*
X83987344Y-58870745D01*
X83990491Y-58877399D01*
X83992971Y-58884329D01*
X83994759Y-58891468D01*
X83995839Y-58898749D01*
X83996200Y-58906100D01*
X83996200Y-60231100D01*
X83995839Y-60238451D01*
X83994759Y-60245732D01*
X83992971Y-60252871D01*
X83990491Y-60259801D01*
X83987344Y-60266455D01*
X83983560Y-60272768D01*
X83979176Y-60278679D01*
X83974233Y-60284133D01*
X83968779Y-60289076D01*
X83962868Y-60293460D01*
X83956555Y-60297244D01*
X83949901Y-60300391D01*
X83942971Y-60302871D01*
X83935832Y-60304659D01*
X83928551Y-60305739D01*
X83921200Y-60306100D01*
X83771200Y-60306100D01*
X83763849Y-60305739D01*
X83756568Y-60304659D01*
X83749429Y-60302871D01*
X83742499Y-60300391D01*
X83735845Y-60297244D01*
X83729532Y-60293460D01*
X83723621Y-60289076D01*
X83718167Y-60284133D01*
X83713224Y-60278679D01*
X83708840Y-60272768D01*
X83705056Y-60266455D01*
X83701909Y-60259801D01*
X83699429Y-60252871D01*
X83697641Y-60245732D01*
X83696561Y-60238451D01*
X83696200Y-60231100D01*
X83696200Y-58906100D01*
X83696561Y-58898749D01*
X83697641Y-58891468D01*
X83699429Y-58884329D01*
X83701909Y-58877399D01*
X83705056Y-58870745D01*
X83708840Y-58864432D01*
X83713224Y-58858521D01*
X83718167Y-58853067D01*
X83723621Y-58848124D01*
X83729532Y-58843740D01*
X83735845Y-58839956D01*
X83742499Y-58836809D01*
X83749429Y-58834329D01*
X83756568Y-58832541D01*
X83763849Y-58831461D01*
X83771200Y-58831100D01*
X83921200Y-58831100D01*
X83928551Y-58831461D01*
X83928551Y-58831461D01*
G37*
D17*
X83846200Y-59568600D03*
D10*
G36*
X84428551Y-58831461D02*
G01*
X84435832Y-58832541D01*
X84442971Y-58834329D01*
X84449901Y-58836809D01*
X84456555Y-58839956D01*
X84462868Y-58843740D01*
X84468779Y-58848124D01*
X84474233Y-58853067D01*
X84479176Y-58858521D01*
X84483560Y-58864432D01*
X84487344Y-58870745D01*
X84490491Y-58877399D01*
X84492971Y-58884329D01*
X84494759Y-58891468D01*
X84495839Y-58898749D01*
X84496200Y-58906100D01*
X84496200Y-60231100D01*
X84495839Y-60238451D01*
X84494759Y-60245732D01*
X84492971Y-60252871D01*
X84490491Y-60259801D01*
X84487344Y-60266455D01*
X84483560Y-60272768D01*
X84479176Y-60278679D01*
X84474233Y-60284133D01*
X84468779Y-60289076D01*
X84462868Y-60293460D01*
X84456555Y-60297244D01*
X84449901Y-60300391D01*
X84442971Y-60302871D01*
X84435832Y-60304659D01*
X84428551Y-60305739D01*
X84421200Y-60306100D01*
X84271200Y-60306100D01*
X84263849Y-60305739D01*
X84256568Y-60304659D01*
X84249429Y-60302871D01*
X84242499Y-60300391D01*
X84235845Y-60297244D01*
X84229532Y-60293460D01*
X84223621Y-60289076D01*
X84218167Y-60284133D01*
X84213224Y-60278679D01*
X84208840Y-60272768D01*
X84205056Y-60266455D01*
X84201909Y-60259801D01*
X84199429Y-60252871D01*
X84197641Y-60245732D01*
X84196561Y-60238451D01*
X84196200Y-60231100D01*
X84196200Y-58906100D01*
X84196561Y-58898749D01*
X84197641Y-58891468D01*
X84199429Y-58884329D01*
X84201909Y-58877399D01*
X84205056Y-58870745D01*
X84208840Y-58864432D01*
X84213224Y-58858521D01*
X84218167Y-58853067D01*
X84223621Y-58848124D01*
X84229532Y-58843740D01*
X84235845Y-58839956D01*
X84242499Y-58836809D01*
X84249429Y-58834329D01*
X84256568Y-58832541D01*
X84263849Y-58831461D01*
X84271200Y-58831100D01*
X84421200Y-58831100D01*
X84428551Y-58831461D01*
X84428551Y-58831461D01*
G37*
D17*
X84346200Y-59568600D03*
D10*
G36*
X84928551Y-58831461D02*
G01*
X84935832Y-58832541D01*
X84942971Y-58834329D01*
X84949901Y-58836809D01*
X84956555Y-58839956D01*
X84962868Y-58843740D01*
X84968779Y-58848124D01*
X84974233Y-58853067D01*
X84979176Y-58858521D01*
X84983560Y-58864432D01*
X84987344Y-58870745D01*
X84990491Y-58877399D01*
X84992971Y-58884329D01*
X84994759Y-58891468D01*
X84995839Y-58898749D01*
X84996200Y-58906100D01*
X84996200Y-60231100D01*
X84995839Y-60238451D01*
X84994759Y-60245732D01*
X84992971Y-60252871D01*
X84990491Y-60259801D01*
X84987344Y-60266455D01*
X84983560Y-60272768D01*
X84979176Y-60278679D01*
X84974233Y-60284133D01*
X84968779Y-60289076D01*
X84962868Y-60293460D01*
X84956555Y-60297244D01*
X84949901Y-60300391D01*
X84942971Y-60302871D01*
X84935832Y-60304659D01*
X84928551Y-60305739D01*
X84921200Y-60306100D01*
X84771200Y-60306100D01*
X84763849Y-60305739D01*
X84756568Y-60304659D01*
X84749429Y-60302871D01*
X84742499Y-60300391D01*
X84735845Y-60297244D01*
X84729532Y-60293460D01*
X84723621Y-60289076D01*
X84718167Y-60284133D01*
X84713224Y-60278679D01*
X84708840Y-60272768D01*
X84705056Y-60266455D01*
X84701909Y-60259801D01*
X84699429Y-60252871D01*
X84697641Y-60245732D01*
X84696561Y-60238451D01*
X84696200Y-60231100D01*
X84696200Y-58906100D01*
X84696561Y-58898749D01*
X84697641Y-58891468D01*
X84699429Y-58884329D01*
X84701909Y-58877399D01*
X84705056Y-58870745D01*
X84708840Y-58864432D01*
X84713224Y-58858521D01*
X84718167Y-58853067D01*
X84723621Y-58848124D01*
X84729532Y-58843740D01*
X84735845Y-58839956D01*
X84742499Y-58836809D01*
X84749429Y-58834329D01*
X84756568Y-58832541D01*
X84763849Y-58831461D01*
X84771200Y-58831100D01*
X84921200Y-58831100D01*
X84928551Y-58831461D01*
X84928551Y-58831461D01*
G37*
D17*
X84846200Y-59568600D03*
D10*
G36*
X85428551Y-58831461D02*
G01*
X85435832Y-58832541D01*
X85442971Y-58834329D01*
X85449901Y-58836809D01*
X85456555Y-58839956D01*
X85462868Y-58843740D01*
X85468779Y-58848124D01*
X85474233Y-58853067D01*
X85479176Y-58858521D01*
X85483560Y-58864432D01*
X85487344Y-58870745D01*
X85490491Y-58877399D01*
X85492971Y-58884329D01*
X85494759Y-58891468D01*
X85495839Y-58898749D01*
X85496200Y-58906100D01*
X85496200Y-60231100D01*
X85495839Y-60238451D01*
X85494759Y-60245732D01*
X85492971Y-60252871D01*
X85490491Y-60259801D01*
X85487344Y-60266455D01*
X85483560Y-60272768D01*
X85479176Y-60278679D01*
X85474233Y-60284133D01*
X85468779Y-60289076D01*
X85462868Y-60293460D01*
X85456555Y-60297244D01*
X85449901Y-60300391D01*
X85442971Y-60302871D01*
X85435832Y-60304659D01*
X85428551Y-60305739D01*
X85421200Y-60306100D01*
X85271200Y-60306100D01*
X85263849Y-60305739D01*
X85256568Y-60304659D01*
X85249429Y-60302871D01*
X85242499Y-60300391D01*
X85235845Y-60297244D01*
X85229532Y-60293460D01*
X85223621Y-60289076D01*
X85218167Y-60284133D01*
X85213224Y-60278679D01*
X85208840Y-60272768D01*
X85205056Y-60266455D01*
X85201909Y-60259801D01*
X85199429Y-60252871D01*
X85197641Y-60245732D01*
X85196561Y-60238451D01*
X85196200Y-60231100D01*
X85196200Y-58906100D01*
X85196561Y-58898749D01*
X85197641Y-58891468D01*
X85199429Y-58884329D01*
X85201909Y-58877399D01*
X85205056Y-58870745D01*
X85208840Y-58864432D01*
X85213224Y-58858521D01*
X85218167Y-58853067D01*
X85223621Y-58848124D01*
X85229532Y-58843740D01*
X85235845Y-58839956D01*
X85242499Y-58836809D01*
X85249429Y-58834329D01*
X85256568Y-58832541D01*
X85263849Y-58831461D01*
X85271200Y-58831100D01*
X85421200Y-58831100D01*
X85428551Y-58831461D01*
X85428551Y-58831461D01*
G37*
D17*
X85346200Y-59568600D03*
D10*
G36*
X85928551Y-58831461D02*
G01*
X85935832Y-58832541D01*
X85942971Y-58834329D01*
X85949901Y-58836809D01*
X85956555Y-58839956D01*
X85962868Y-58843740D01*
X85968779Y-58848124D01*
X85974233Y-58853067D01*
X85979176Y-58858521D01*
X85983560Y-58864432D01*
X85987344Y-58870745D01*
X85990491Y-58877399D01*
X85992971Y-58884329D01*
X85994759Y-58891468D01*
X85995839Y-58898749D01*
X85996200Y-58906100D01*
X85996200Y-60231100D01*
X85995839Y-60238451D01*
X85994759Y-60245732D01*
X85992971Y-60252871D01*
X85990491Y-60259801D01*
X85987344Y-60266455D01*
X85983560Y-60272768D01*
X85979176Y-60278679D01*
X85974233Y-60284133D01*
X85968779Y-60289076D01*
X85962868Y-60293460D01*
X85956555Y-60297244D01*
X85949901Y-60300391D01*
X85942971Y-60302871D01*
X85935832Y-60304659D01*
X85928551Y-60305739D01*
X85921200Y-60306100D01*
X85771200Y-60306100D01*
X85763849Y-60305739D01*
X85756568Y-60304659D01*
X85749429Y-60302871D01*
X85742499Y-60300391D01*
X85735845Y-60297244D01*
X85729532Y-60293460D01*
X85723621Y-60289076D01*
X85718167Y-60284133D01*
X85713224Y-60278679D01*
X85708840Y-60272768D01*
X85705056Y-60266455D01*
X85701909Y-60259801D01*
X85699429Y-60252871D01*
X85697641Y-60245732D01*
X85696561Y-60238451D01*
X85696200Y-60231100D01*
X85696200Y-58906100D01*
X85696561Y-58898749D01*
X85697641Y-58891468D01*
X85699429Y-58884329D01*
X85701909Y-58877399D01*
X85705056Y-58870745D01*
X85708840Y-58864432D01*
X85713224Y-58858521D01*
X85718167Y-58853067D01*
X85723621Y-58848124D01*
X85729532Y-58843740D01*
X85735845Y-58839956D01*
X85742499Y-58836809D01*
X85749429Y-58834329D01*
X85756568Y-58832541D01*
X85763849Y-58831461D01*
X85771200Y-58831100D01*
X85921200Y-58831100D01*
X85928551Y-58831461D01*
X85928551Y-58831461D01*
G37*
D17*
X85846200Y-59568600D03*
D10*
G36*
X86428551Y-58831461D02*
G01*
X86435832Y-58832541D01*
X86442971Y-58834329D01*
X86449901Y-58836809D01*
X86456555Y-58839956D01*
X86462868Y-58843740D01*
X86468779Y-58848124D01*
X86474233Y-58853067D01*
X86479176Y-58858521D01*
X86483560Y-58864432D01*
X86487344Y-58870745D01*
X86490491Y-58877399D01*
X86492971Y-58884329D01*
X86494759Y-58891468D01*
X86495839Y-58898749D01*
X86496200Y-58906100D01*
X86496200Y-60231100D01*
X86495839Y-60238451D01*
X86494759Y-60245732D01*
X86492971Y-60252871D01*
X86490491Y-60259801D01*
X86487344Y-60266455D01*
X86483560Y-60272768D01*
X86479176Y-60278679D01*
X86474233Y-60284133D01*
X86468779Y-60289076D01*
X86462868Y-60293460D01*
X86456555Y-60297244D01*
X86449901Y-60300391D01*
X86442971Y-60302871D01*
X86435832Y-60304659D01*
X86428551Y-60305739D01*
X86421200Y-60306100D01*
X86271200Y-60306100D01*
X86263849Y-60305739D01*
X86256568Y-60304659D01*
X86249429Y-60302871D01*
X86242499Y-60300391D01*
X86235845Y-60297244D01*
X86229532Y-60293460D01*
X86223621Y-60289076D01*
X86218167Y-60284133D01*
X86213224Y-60278679D01*
X86208840Y-60272768D01*
X86205056Y-60266455D01*
X86201909Y-60259801D01*
X86199429Y-60252871D01*
X86197641Y-60245732D01*
X86196561Y-60238451D01*
X86196200Y-60231100D01*
X86196200Y-58906100D01*
X86196561Y-58898749D01*
X86197641Y-58891468D01*
X86199429Y-58884329D01*
X86201909Y-58877399D01*
X86205056Y-58870745D01*
X86208840Y-58864432D01*
X86213224Y-58858521D01*
X86218167Y-58853067D01*
X86223621Y-58848124D01*
X86229532Y-58843740D01*
X86235845Y-58839956D01*
X86242499Y-58836809D01*
X86249429Y-58834329D01*
X86256568Y-58832541D01*
X86263849Y-58831461D01*
X86271200Y-58831100D01*
X86421200Y-58831100D01*
X86428551Y-58831461D01*
X86428551Y-58831461D01*
G37*
D17*
X86346200Y-59568600D03*
D10*
G36*
X86928551Y-58831461D02*
G01*
X86935832Y-58832541D01*
X86942971Y-58834329D01*
X86949901Y-58836809D01*
X86956555Y-58839956D01*
X86962868Y-58843740D01*
X86968779Y-58848124D01*
X86974233Y-58853067D01*
X86979176Y-58858521D01*
X86983560Y-58864432D01*
X86987344Y-58870745D01*
X86990491Y-58877399D01*
X86992971Y-58884329D01*
X86994759Y-58891468D01*
X86995839Y-58898749D01*
X86996200Y-58906100D01*
X86996200Y-60231100D01*
X86995839Y-60238451D01*
X86994759Y-60245732D01*
X86992971Y-60252871D01*
X86990491Y-60259801D01*
X86987344Y-60266455D01*
X86983560Y-60272768D01*
X86979176Y-60278679D01*
X86974233Y-60284133D01*
X86968779Y-60289076D01*
X86962868Y-60293460D01*
X86956555Y-60297244D01*
X86949901Y-60300391D01*
X86942971Y-60302871D01*
X86935832Y-60304659D01*
X86928551Y-60305739D01*
X86921200Y-60306100D01*
X86771200Y-60306100D01*
X86763849Y-60305739D01*
X86756568Y-60304659D01*
X86749429Y-60302871D01*
X86742499Y-60300391D01*
X86735845Y-60297244D01*
X86729532Y-60293460D01*
X86723621Y-60289076D01*
X86718167Y-60284133D01*
X86713224Y-60278679D01*
X86708840Y-60272768D01*
X86705056Y-60266455D01*
X86701909Y-60259801D01*
X86699429Y-60252871D01*
X86697641Y-60245732D01*
X86696561Y-60238451D01*
X86696200Y-60231100D01*
X86696200Y-58906100D01*
X86696561Y-58898749D01*
X86697641Y-58891468D01*
X86699429Y-58884329D01*
X86701909Y-58877399D01*
X86705056Y-58870745D01*
X86708840Y-58864432D01*
X86713224Y-58858521D01*
X86718167Y-58853067D01*
X86723621Y-58848124D01*
X86729532Y-58843740D01*
X86735845Y-58839956D01*
X86742499Y-58836809D01*
X86749429Y-58834329D01*
X86756568Y-58832541D01*
X86763849Y-58831461D01*
X86771200Y-58831100D01*
X86921200Y-58831100D01*
X86928551Y-58831461D01*
X86928551Y-58831461D01*
G37*
D17*
X86846200Y-59568600D03*
D10*
G36*
X87428551Y-58831461D02*
G01*
X87435832Y-58832541D01*
X87442971Y-58834329D01*
X87449901Y-58836809D01*
X87456555Y-58839956D01*
X87462868Y-58843740D01*
X87468779Y-58848124D01*
X87474233Y-58853067D01*
X87479176Y-58858521D01*
X87483560Y-58864432D01*
X87487344Y-58870745D01*
X87490491Y-58877399D01*
X87492971Y-58884329D01*
X87494759Y-58891468D01*
X87495839Y-58898749D01*
X87496200Y-58906100D01*
X87496200Y-60231100D01*
X87495839Y-60238451D01*
X87494759Y-60245732D01*
X87492971Y-60252871D01*
X87490491Y-60259801D01*
X87487344Y-60266455D01*
X87483560Y-60272768D01*
X87479176Y-60278679D01*
X87474233Y-60284133D01*
X87468779Y-60289076D01*
X87462868Y-60293460D01*
X87456555Y-60297244D01*
X87449901Y-60300391D01*
X87442971Y-60302871D01*
X87435832Y-60304659D01*
X87428551Y-60305739D01*
X87421200Y-60306100D01*
X87271200Y-60306100D01*
X87263849Y-60305739D01*
X87256568Y-60304659D01*
X87249429Y-60302871D01*
X87242499Y-60300391D01*
X87235845Y-60297244D01*
X87229532Y-60293460D01*
X87223621Y-60289076D01*
X87218167Y-60284133D01*
X87213224Y-60278679D01*
X87208840Y-60272768D01*
X87205056Y-60266455D01*
X87201909Y-60259801D01*
X87199429Y-60252871D01*
X87197641Y-60245732D01*
X87196561Y-60238451D01*
X87196200Y-60231100D01*
X87196200Y-58906100D01*
X87196561Y-58898749D01*
X87197641Y-58891468D01*
X87199429Y-58884329D01*
X87201909Y-58877399D01*
X87205056Y-58870745D01*
X87208840Y-58864432D01*
X87213224Y-58858521D01*
X87218167Y-58853067D01*
X87223621Y-58848124D01*
X87229532Y-58843740D01*
X87235845Y-58839956D01*
X87242499Y-58836809D01*
X87249429Y-58834329D01*
X87256568Y-58832541D01*
X87263849Y-58831461D01*
X87271200Y-58831100D01*
X87421200Y-58831100D01*
X87428551Y-58831461D01*
X87428551Y-58831461D01*
G37*
D17*
X87346200Y-59568600D03*
D10*
G36*
X87928551Y-58831461D02*
G01*
X87935832Y-58832541D01*
X87942971Y-58834329D01*
X87949901Y-58836809D01*
X87956555Y-58839956D01*
X87962868Y-58843740D01*
X87968779Y-58848124D01*
X87974233Y-58853067D01*
X87979176Y-58858521D01*
X87983560Y-58864432D01*
X87987344Y-58870745D01*
X87990491Y-58877399D01*
X87992971Y-58884329D01*
X87994759Y-58891468D01*
X87995839Y-58898749D01*
X87996200Y-58906100D01*
X87996200Y-60231100D01*
X87995839Y-60238451D01*
X87994759Y-60245732D01*
X87992971Y-60252871D01*
X87990491Y-60259801D01*
X87987344Y-60266455D01*
X87983560Y-60272768D01*
X87979176Y-60278679D01*
X87974233Y-60284133D01*
X87968779Y-60289076D01*
X87962868Y-60293460D01*
X87956555Y-60297244D01*
X87949901Y-60300391D01*
X87942971Y-60302871D01*
X87935832Y-60304659D01*
X87928551Y-60305739D01*
X87921200Y-60306100D01*
X87771200Y-60306100D01*
X87763849Y-60305739D01*
X87756568Y-60304659D01*
X87749429Y-60302871D01*
X87742499Y-60300391D01*
X87735845Y-60297244D01*
X87729532Y-60293460D01*
X87723621Y-60289076D01*
X87718167Y-60284133D01*
X87713224Y-60278679D01*
X87708840Y-60272768D01*
X87705056Y-60266455D01*
X87701909Y-60259801D01*
X87699429Y-60252871D01*
X87697641Y-60245732D01*
X87696561Y-60238451D01*
X87696200Y-60231100D01*
X87696200Y-58906100D01*
X87696561Y-58898749D01*
X87697641Y-58891468D01*
X87699429Y-58884329D01*
X87701909Y-58877399D01*
X87705056Y-58870745D01*
X87708840Y-58864432D01*
X87713224Y-58858521D01*
X87718167Y-58853067D01*
X87723621Y-58848124D01*
X87729532Y-58843740D01*
X87735845Y-58839956D01*
X87742499Y-58836809D01*
X87749429Y-58834329D01*
X87756568Y-58832541D01*
X87763849Y-58831461D01*
X87771200Y-58831100D01*
X87921200Y-58831100D01*
X87928551Y-58831461D01*
X87928551Y-58831461D01*
G37*
D17*
X87846200Y-59568600D03*
D10*
G36*
X88428551Y-58831461D02*
G01*
X88435832Y-58832541D01*
X88442971Y-58834329D01*
X88449901Y-58836809D01*
X88456555Y-58839956D01*
X88462868Y-58843740D01*
X88468779Y-58848124D01*
X88474233Y-58853067D01*
X88479176Y-58858521D01*
X88483560Y-58864432D01*
X88487344Y-58870745D01*
X88490491Y-58877399D01*
X88492971Y-58884329D01*
X88494759Y-58891468D01*
X88495839Y-58898749D01*
X88496200Y-58906100D01*
X88496200Y-60231100D01*
X88495839Y-60238451D01*
X88494759Y-60245732D01*
X88492971Y-60252871D01*
X88490491Y-60259801D01*
X88487344Y-60266455D01*
X88483560Y-60272768D01*
X88479176Y-60278679D01*
X88474233Y-60284133D01*
X88468779Y-60289076D01*
X88462868Y-60293460D01*
X88456555Y-60297244D01*
X88449901Y-60300391D01*
X88442971Y-60302871D01*
X88435832Y-60304659D01*
X88428551Y-60305739D01*
X88421200Y-60306100D01*
X88271200Y-60306100D01*
X88263849Y-60305739D01*
X88256568Y-60304659D01*
X88249429Y-60302871D01*
X88242499Y-60300391D01*
X88235845Y-60297244D01*
X88229532Y-60293460D01*
X88223621Y-60289076D01*
X88218167Y-60284133D01*
X88213224Y-60278679D01*
X88208840Y-60272768D01*
X88205056Y-60266455D01*
X88201909Y-60259801D01*
X88199429Y-60252871D01*
X88197641Y-60245732D01*
X88196561Y-60238451D01*
X88196200Y-60231100D01*
X88196200Y-58906100D01*
X88196561Y-58898749D01*
X88197641Y-58891468D01*
X88199429Y-58884329D01*
X88201909Y-58877399D01*
X88205056Y-58870745D01*
X88208840Y-58864432D01*
X88213224Y-58858521D01*
X88218167Y-58853067D01*
X88223621Y-58848124D01*
X88229532Y-58843740D01*
X88235845Y-58839956D01*
X88242499Y-58836809D01*
X88249429Y-58834329D01*
X88256568Y-58832541D01*
X88263849Y-58831461D01*
X88271200Y-58831100D01*
X88421200Y-58831100D01*
X88428551Y-58831461D01*
X88428551Y-58831461D01*
G37*
D17*
X88346200Y-59568600D03*
D10*
G36*
X88928551Y-58831461D02*
G01*
X88935832Y-58832541D01*
X88942971Y-58834329D01*
X88949901Y-58836809D01*
X88956555Y-58839956D01*
X88962868Y-58843740D01*
X88968779Y-58848124D01*
X88974233Y-58853067D01*
X88979176Y-58858521D01*
X88983560Y-58864432D01*
X88987344Y-58870745D01*
X88990491Y-58877399D01*
X88992971Y-58884329D01*
X88994759Y-58891468D01*
X88995839Y-58898749D01*
X88996200Y-58906100D01*
X88996200Y-60231100D01*
X88995839Y-60238451D01*
X88994759Y-60245732D01*
X88992971Y-60252871D01*
X88990491Y-60259801D01*
X88987344Y-60266455D01*
X88983560Y-60272768D01*
X88979176Y-60278679D01*
X88974233Y-60284133D01*
X88968779Y-60289076D01*
X88962868Y-60293460D01*
X88956555Y-60297244D01*
X88949901Y-60300391D01*
X88942971Y-60302871D01*
X88935832Y-60304659D01*
X88928551Y-60305739D01*
X88921200Y-60306100D01*
X88771200Y-60306100D01*
X88763849Y-60305739D01*
X88756568Y-60304659D01*
X88749429Y-60302871D01*
X88742499Y-60300391D01*
X88735845Y-60297244D01*
X88729532Y-60293460D01*
X88723621Y-60289076D01*
X88718167Y-60284133D01*
X88713224Y-60278679D01*
X88708840Y-60272768D01*
X88705056Y-60266455D01*
X88701909Y-60259801D01*
X88699429Y-60252871D01*
X88697641Y-60245732D01*
X88696561Y-60238451D01*
X88696200Y-60231100D01*
X88696200Y-58906100D01*
X88696561Y-58898749D01*
X88697641Y-58891468D01*
X88699429Y-58884329D01*
X88701909Y-58877399D01*
X88705056Y-58870745D01*
X88708840Y-58864432D01*
X88713224Y-58858521D01*
X88718167Y-58853067D01*
X88723621Y-58848124D01*
X88729532Y-58843740D01*
X88735845Y-58839956D01*
X88742499Y-58836809D01*
X88749429Y-58834329D01*
X88756568Y-58832541D01*
X88763849Y-58831461D01*
X88771200Y-58831100D01*
X88921200Y-58831100D01*
X88928551Y-58831461D01*
X88928551Y-58831461D01*
G37*
D17*
X88846200Y-59568600D03*
D10*
G36*
X89428551Y-58831461D02*
G01*
X89435832Y-58832541D01*
X89442971Y-58834329D01*
X89449901Y-58836809D01*
X89456555Y-58839956D01*
X89462868Y-58843740D01*
X89468779Y-58848124D01*
X89474233Y-58853067D01*
X89479176Y-58858521D01*
X89483560Y-58864432D01*
X89487344Y-58870745D01*
X89490491Y-58877399D01*
X89492971Y-58884329D01*
X89494759Y-58891468D01*
X89495839Y-58898749D01*
X89496200Y-58906100D01*
X89496200Y-60231100D01*
X89495839Y-60238451D01*
X89494759Y-60245732D01*
X89492971Y-60252871D01*
X89490491Y-60259801D01*
X89487344Y-60266455D01*
X89483560Y-60272768D01*
X89479176Y-60278679D01*
X89474233Y-60284133D01*
X89468779Y-60289076D01*
X89462868Y-60293460D01*
X89456555Y-60297244D01*
X89449901Y-60300391D01*
X89442971Y-60302871D01*
X89435832Y-60304659D01*
X89428551Y-60305739D01*
X89421200Y-60306100D01*
X89271200Y-60306100D01*
X89263849Y-60305739D01*
X89256568Y-60304659D01*
X89249429Y-60302871D01*
X89242499Y-60300391D01*
X89235845Y-60297244D01*
X89229532Y-60293460D01*
X89223621Y-60289076D01*
X89218167Y-60284133D01*
X89213224Y-60278679D01*
X89208840Y-60272768D01*
X89205056Y-60266455D01*
X89201909Y-60259801D01*
X89199429Y-60252871D01*
X89197641Y-60245732D01*
X89196561Y-60238451D01*
X89196200Y-60231100D01*
X89196200Y-58906100D01*
X89196561Y-58898749D01*
X89197641Y-58891468D01*
X89199429Y-58884329D01*
X89201909Y-58877399D01*
X89205056Y-58870745D01*
X89208840Y-58864432D01*
X89213224Y-58858521D01*
X89218167Y-58853067D01*
X89223621Y-58848124D01*
X89229532Y-58843740D01*
X89235845Y-58839956D01*
X89242499Y-58836809D01*
X89249429Y-58834329D01*
X89256568Y-58832541D01*
X89263849Y-58831461D01*
X89271200Y-58831100D01*
X89421200Y-58831100D01*
X89428551Y-58831461D01*
X89428551Y-58831461D01*
G37*
D17*
X89346200Y-59568600D03*
D10*
G36*
X91428551Y-60831461D02*
G01*
X91435832Y-60832541D01*
X91442971Y-60834329D01*
X91449901Y-60836809D01*
X91456555Y-60839956D01*
X91462868Y-60843740D01*
X91468779Y-60848124D01*
X91474233Y-60853067D01*
X91479176Y-60858521D01*
X91483560Y-60864432D01*
X91487344Y-60870745D01*
X91490491Y-60877399D01*
X91492971Y-60884329D01*
X91494759Y-60891468D01*
X91495839Y-60898749D01*
X91496200Y-60906100D01*
X91496200Y-61056100D01*
X91495839Y-61063451D01*
X91494759Y-61070732D01*
X91492971Y-61077871D01*
X91490491Y-61084801D01*
X91487344Y-61091455D01*
X91483560Y-61097768D01*
X91479176Y-61103679D01*
X91474233Y-61109133D01*
X91468779Y-61114076D01*
X91462868Y-61118460D01*
X91456555Y-61122244D01*
X91449901Y-61125391D01*
X91442971Y-61127871D01*
X91435832Y-61129659D01*
X91428551Y-61130739D01*
X91421200Y-61131100D01*
X90096200Y-61131100D01*
X90088849Y-61130739D01*
X90081568Y-61129659D01*
X90074429Y-61127871D01*
X90067499Y-61125391D01*
X90060845Y-61122244D01*
X90054532Y-61118460D01*
X90048621Y-61114076D01*
X90043167Y-61109133D01*
X90038224Y-61103679D01*
X90033840Y-61097768D01*
X90030056Y-61091455D01*
X90026909Y-61084801D01*
X90024429Y-61077871D01*
X90022641Y-61070732D01*
X90021561Y-61063451D01*
X90021200Y-61056100D01*
X90021200Y-60906100D01*
X90021561Y-60898749D01*
X90022641Y-60891468D01*
X90024429Y-60884329D01*
X90026909Y-60877399D01*
X90030056Y-60870745D01*
X90033840Y-60864432D01*
X90038224Y-60858521D01*
X90043167Y-60853067D01*
X90048621Y-60848124D01*
X90054532Y-60843740D01*
X90060845Y-60839956D01*
X90067499Y-60836809D01*
X90074429Y-60834329D01*
X90081568Y-60832541D01*
X90088849Y-60831461D01*
X90096200Y-60831100D01*
X91421200Y-60831100D01*
X91428551Y-60831461D01*
X91428551Y-60831461D01*
G37*
D17*
X90758700Y-60981100D03*
D10*
G36*
X91428551Y-61331461D02*
G01*
X91435832Y-61332541D01*
X91442971Y-61334329D01*
X91449901Y-61336809D01*
X91456555Y-61339956D01*
X91462868Y-61343740D01*
X91468779Y-61348124D01*
X91474233Y-61353067D01*
X91479176Y-61358521D01*
X91483560Y-61364432D01*
X91487344Y-61370745D01*
X91490491Y-61377399D01*
X91492971Y-61384329D01*
X91494759Y-61391468D01*
X91495839Y-61398749D01*
X91496200Y-61406100D01*
X91496200Y-61556100D01*
X91495839Y-61563451D01*
X91494759Y-61570732D01*
X91492971Y-61577871D01*
X91490491Y-61584801D01*
X91487344Y-61591455D01*
X91483560Y-61597768D01*
X91479176Y-61603679D01*
X91474233Y-61609133D01*
X91468779Y-61614076D01*
X91462868Y-61618460D01*
X91456555Y-61622244D01*
X91449901Y-61625391D01*
X91442971Y-61627871D01*
X91435832Y-61629659D01*
X91428551Y-61630739D01*
X91421200Y-61631100D01*
X90096200Y-61631100D01*
X90088849Y-61630739D01*
X90081568Y-61629659D01*
X90074429Y-61627871D01*
X90067499Y-61625391D01*
X90060845Y-61622244D01*
X90054532Y-61618460D01*
X90048621Y-61614076D01*
X90043167Y-61609133D01*
X90038224Y-61603679D01*
X90033840Y-61597768D01*
X90030056Y-61591455D01*
X90026909Y-61584801D01*
X90024429Y-61577871D01*
X90022641Y-61570732D01*
X90021561Y-61563451D01*
X90021200Y-61556100D01*
X90021200Y-61406100D01*
X90021561Y-61398749D01*
X90022641Y-61391468D01*
X90024429Y-61384329D01*
X90026909Y-61377399D01*
X90030056Y-61370745D01*
X90033840Y-61364432D01*
X90038224Y-61358521D01*
X90043167Y-61353067D01*
X90048621Y-61348124D01*
X90054532Y-61343740D01*
X90060845Y-61339956D01*
X90067499Y-61336809D01*
X90074429Y-61334329D01*
X90081568Y-61332541D01*
X90088849Y-61331461D01*
X90096200Y-61331100D01*
X91421200Y-61331100D01*
X91428551Y-61331461D01*
X91428551Y-61331461D01*
G37*
D17*
X90758700Y-61481100D03*
D10*
G36*
X91428551Y-61831461D02*
G01*
X91435832Y-61832541D01*
X91442971Y-61834329D01*
X91449901Y-61836809D01*
X91456555Y-61839956D01*
X91462868Y-61843740D01*
X91468779Y-61848124D01*
X91474233Y-61853067D01*
X91479176Y-61858521D01*
X91483560Y-61864432D01*
X91487344Y-61870745D01*
X91490491Y-61877399D01*
X91492971Y-61884329D01*
X91494759Y-61891468D01*
X91495839Y-61898749D01*
X91496200Y-61906100D01*
X91496200Y-62056100D01*
X91495839Y-62063451D01*
X91494759Y-62070732D01*
X91492971Y-62077871D01*
X91490491Y-62084801D01*
X91487344Y-62091455D01*
X91483560Y-62097768D01*
X91479176Y-62103679D01*
X91474233Y-62109133D01*
X91468779Y-62114076D01*
X91462868Y-62118460D01*
X91456555Y-62122244D01*
X91449901Y-62125391D01*
X91442971Y-62127871D01*
X91435832Y-62129659D01*
X91428551Y-62130739D01*
X91421200Y-62131100D01*
X90096200Y-62131100D01*
X90088849Y-62130739D01*
X90081568Y-62129659D01*
X90074429Y-62127871D01*
X90067499Y-62125391D01*
X90060845Y-62122244D01*
X90054532Y-62118460D01*
X90048621Y-62114076D01*
X90043167Y-62109133D01*
X90038224Y-62103679D01*
X90033840Y-62097768D01*
X90030056Y-62091455D01*
X90026909Y-62084801D01*
X90024429Y-62077871D01*
X90022641Y-62070732D01*
X90021561Y-62063451D01*
X90021200Y-62056100D01*
X90021200Y-61906100D01*
X90021561Y-61898749D01*
X90022641Y-61891468D01*
X90024429Y-61884329D01*
X90026909Y-61877399D01*
X90030056Y-61870745D01*
X90033840Y-61864432D01*
X90038224Y-61858521D01*
X90043167Y-61853067D01*
X90048621Y-61848124D01*
X90054532Y-61843740D01*
X90060845Y-61839956D01*
X90067499Y-61836809D01*
X90074429Y-61834329D01*
X90081568Y-61832541D01*
X90088849Y-61831461D01*
X90096200Y-61831100D01*
X91421200Y-61831100D01*
X91428551Y-61831461D01*
X91428551Y-61831461D01*
G37*
D17*
X90758700Y-61981100D03*
D10*
G36*
X91428551Y-62331461D02*
G01*
X91435832Y-62332541D01*
X91442971Y-62334329D01*
X91449901Y-62336809D01*
X91456555Y-62339956D01*
X91462868Y-62343740D01*
X91468779Y-62348124D01*
X91474233Y-62353067D01*
X91479176Y-62358521D01*
X91483560Y-62364432D01*
X91487344Y-62370745D01*
X91490491Y-62377399D01*
X91492971Y-62384329D01*
X91494759Y-62391468D01*
X91495839Y-62398749D01*
X91496200Y-62406100D01*
X91496200Y-62556100D01*
X91495839Y-62563451D01*
X91494759Y-62570732D01*
X91492971Y-62577871D01*
X91490491Y-62584801D01*
X91487344Y-62591455D01*
X91483560Y-62597768D01*
X91479176Y-62603679D01*
X91474233Y-62609133D01*
X91468779Y-62614076D01*
X91462868Y-62618460D01*
X91456555Y-62622244D01*
X91449901Y-62625391D01*
X91442971Y-62627871D01*
X91435832Y-62629659D01*
X91428551Y-62630739D01*
X91421200Y-62631100D01*
X90096200Y-62631100D01*
X90088849Y-62630739D01*
X90081568Y-62629659D01*
X90074429Y-62627871D01*
X90067499Y-62625391D01*
X90060845Y-62622244D01*
X90054532Y-62618460D01*
X90048621Y-62614076D01*
X90043167Y-62609133D01*
X90038224Y-62603679D01*
X90033840Y-62597768D01*
X90030056Y-62591455D01*
X90026909Y-62584801D01*
X90024429Y-62577871D01*
X90022641Y-62570732D01*
X90021561Y-62563451D01*
X90021200Y-62556100D01*
X90021200Y-62406100D01*
X90021561Y-62398749D01*
X90022641Y-62391468D01*
X90024429Y-62384329D01*
X90026909Y-62377399D01*
X90030056Y-62370745D01*
X90033840Y-62364432D01*
X90038224Y-62358521D01*
X90043167Y-62353067D01*
X90048621Y-62348124D01*
X90054532Y-62343740D01*
X90060845Y-62339956D01*
X90067499Y-62336809D01*
X90074429Y-62334329D01*
X90081568Y-62332541D01*
X90088849Y-62331461D01*
X90096200Y-62331100D01*
X91421200Y-62331100D01*
X91428551Y-62331461D01*
X91428551Y-62331461D01*
G37*
D17*
X90758700Y-62481100D03*
D10*
G36*
X91428551Y-62831461D02*
G01*
X91435832Y-62832541D01*
X91442971Y-62834329D01*
X91449901Y-62836809D01*
X91456555Y-62839956D01*
X91462868Y-62843740D01*
X91468779Y-62848124D01*
X91474233Y-62853067D01*
X91479176Y-62858521D01*
X91483560Y-62864432D01*
X91487344Y-62870745D01*
X91490491Y-62877399D01*
X91492971Y-62884329D01*
X91494759Y-62891468D01*
X91495839Y-62898749D01*
X91496200Y-62906100D01*
X91496200Y-63056100D01*
X91495839Y-63063451D01*
X91494759Y-63070732D01*
X91492971Y-63077871D01*
X91490491Y-63084801D01*
X91487344Y-63091455D01*
X91483560Y-63097768D01*
X91479176Y-63103679D01*
X91474233Y-63109133D01*
X91468779Y-63114076D01*
X91462868Y-63118460D01*
X91456555Y-63122244D01*
X91449901Y-63125391D01*
X91442971Y-63127871D01*
X91435832Y-63129659D01*
X91428551Y-63130739D01*
X91421200Y-63131100D01*
X90096200Y-63131100D01*
X90088849Y-63130739D01*
X90081568Y-63129659D01*
X90074429Y-63127871D01*
X90067499Y-63125391D01*
X90060845Y-63122244D01*
X90054532Y-63118460D01*
X90048621Y-63114076D01*
X90043167Y-63109133D01*
X90038224Y-63103679D01*
X90033840Y-63097768D01*
X90030056Y-63091455D01*
X90026909Y-63084801D01*
X90024429Y-63077871D01*
X90022641Y-63070732D01*
X90021561Y-63063451D01*
X90021200Y-63056100D01*
X90021200Y-62906100D01*
X90021561Y-62898749D01*
X90022641Y-62891468D01*
X90024429Y-62884329D01*
X90026909Y-62877399D01*
X90030056Y-62870745D01*
X90033840Y-62864432D01*
X90038224Y-62858521D01*
X90043167Y-62853067D01*
X90048621Y-62848124D01*
X90054532Y-62843740D01*
X90060845Y-62839956D01*
X90067499Y-62836809D01*
X90074429Y-62834329D01*
X90081568Y-62832541D01*
X90088849Y-62831461D01*
X90096200Y-62831100D01*
X91421200Y-62831100D01*
X91428551Y-62831461D01*
X91428551Y-62831461D01*
G37*
D17*
X90758700Y-62981100D03*
D10*
G36*
X91428551Y-63331461D02*
G01*
X91435832Y-63332541D01*
X91442971Y-63334329D01*
X91449901Y-63336809D01*
X91456555Y-63339956D01*
X91462868Y-63343740D01*
X91468779Y-63348124D01*
X91474233Y-63353067D01*
X91479176Y-63358521D01*
X91483560Y-63364432D01*
X91487344Y-63370745D01*
X91490491Y-63377399D01*
X91492971Y-63384329D01*
X91494759Y-63391468D01*
X91495839Y-63398749D01*
X91496200Y-63406100D01*
X91496200Y-63556100D01*
X91495839Y-63563451D01*
X91494759Y-63570732D01*
X91492971Y-63577871D01*
X91490491Y-63584801D01*
X91487344Y-63591455D01*
X91483560Y-63597768D01*
X91479176Y-63603679D01*
X91474233Y-63609133D01*
X91468779Y-63614076D01*
X91462868Y-63618460D01*
X91456555Y-63622244D01*
X91449901Y-63625391D01*
X91442971Y-63627871D01*
X91435832Y-63629659D01*
X91428551Y-63630739D01*
X91421200Y-63631100D01*
X90096200Y-63631100D01*
X90088849Y-63630739D01*
X90081568Y-63629659D01*
X90074429Y-63627871D01*
X90067499Y-63625391D01*
X90060845Y-63622244D01*
X90054532Y-63618460D01*
X90048621Y-63614076D01*
X90043167Y-63609133D01*
X90038224Y-63603679D01*
X90033840Y-63597768D01*
X90030056Y-63591455D01*
X90026909Y-63584801D01*
X90024429Y-63577871D01*
X90022641Y-63570732D01*
X90021561Y-63563451D01*
X90021200Y-63556100D01*
X90021200Y-63406100D01*
X90021561Y-63398749D01*
X90022641Y-63391468D01*
X90024429Y-63384329D01*
X90026909Y-63377399D01*
X90030056Y-63370745D01*
X90033840Y-63364432D01*
X90038224Y-63358521D01*
X90043167Y-63353067D01*
X90048621Y-63348124D01*
X90054532Y-63343740D01*
X90060845Y-63339956D01*
X90067499Y-63336809D01*
X90074429Y-63334329D01*
X90081568Y-63332541D01*
X90088849Y-63331461D01*
X90096200Y-63331100D01*
X91421200Y-63331100D01*
X91428551Y-63331461D01*
X91428551Y-63331461D01*
G37*
D17*
X90758700Y-63481100D03*
D10*
G36*
X91428551Y-63831461D02*
G01*
X91435832Y-63832541D01*
X91442971Y-63834329D01*
X91449901Y-63836809D01*
X91456555Y-63839956D01*
X91462868Y-63843740D01*
X91468779Y-63848124D01*
X91474233Y-63853067D01*
X91479176Y-63858521D01*
X91483560Y-63864432D01*
X91487344Y-63870745D01*
X91490491Y-63877399D01*
X91492971Y-63884329D01*
X91494759Y-63891468D01*
X91495839Y-63898749D01*
X91496200Y-63906100D01*
X91496200Y-64056100D01*
X91495839Y-64063451D01*
X91494759Y-64070732D01*
X91492971Y-64077871D01*
X91490491Y-64084801D01*
X91487344Y-64091455D01*
X91483560Y-64097768D01*
X91479176Y-64103679D01*
X91474233Y-64109133D01*
X91468779Y-64114076D01*
X91462868Y-64118460D01*
X91456555Y-64122244D01*
X91449901Y-64125391D01*
X91442971Y-64127871D01*
X91435832Y-64129659D01*
X91428551Y-64130739D01*
X91421200Y-64131100D01*
X90096200Y-64131100D01*
X90088849Y-64130739D01*
X90081568Y-64129659D01*
X90074429Y-64127871D01*
X90067499Y-64125391D01*
X90060845Y-64122244D01*
X90054532Y-64118460D01*
X90048621Y-64114076D01*
X90043167Y-64109133D01*
X90038224Y-64103679D01*
X90033840Y-64097768D01*
X90030056Y-64091455D01*
X90026909Y-64084801D01*
X90024429Y-64077871D01*
X90022641Y-64070732D01*
X90021561Y-64063451D01*
X90021200Y-64056100D01*
X90021200Y-63906100D01*
X90021561Y-63898749D01*
X90022641Y-63891468D01*
X90024429Y-63884329D01*
X90026909Y-63877399D01*
X90030056Y-63870745D01*
X90033840Y-63864432D01*
X90038224Y-63858521D01*
X90043167Y-63853067D01*
X90048621Y-63848124D01*
X90054532Y-63843740D01*
X90060845Y-63839956D01*
X90067499Y-63836809D01*
X90074429Y-63834329D01*
X90081568Y-63832541D01*
X90088849Y-63831461D01*
X90096200Y-63831100D01*
X91421200Y-63831100D01*
X91428551Y-63831461D01*
X91428551Y-63831461D01*
G37*
D17*
X90758700Y-63981100D03*
D10*
G36*
X91428551Y-64331461D02*
G01*
X91435832Y-64332541D01*
X91442971Y-64334329D01*
X91449901Y-64336809D01*
X91456555Y-64339956D01*
X91462868Y-64343740D01*
X91468779Y-64348124D01*
X91474233Y-64353067D01*
X91479176Y-64358521D01*
X91483560Y-64364432D01*
X91487344Y-64370745D01*
X91490491Y-64377399D01*
X91492971Y-64384329D01*
X91494759Y-64391468D01*
X91495839Y-64398749D01*
X91496200Y-64406100D01*
X91496200Y-64556100D01*
X91495839Y-64563451D01*
X91494759Y-64570732D01*
X91492971Y-64577871D01*
X91490491Y-64584801D01*
X91487344Y-64591455D01*
X91483560Y-64597768D01*
X91479176Y-64603679D01*
X91474233Y-64609133D01*
X91468779Y-64614076D01*
X91462868Y-64618460D01*
X91456555Y-64622244D01*
X91449901Y-64625391D01*
X91442971Y-64627871D01*
X91435832Y-64629659D01*
X91428551Y-64630739D01*
X91421200Y-64631100D01*
X90096200Y-64631100D01*
X90088849Y-64630739D01*
X90081568Y-64629659D01*
X90074429Y-64627871D01*
X90067499Y-64625391D01*
X90060845Y-64622244D01*
X90054532Y-64618460D01*
X90048621Y-64614076D01*
X90043167Y-64609133D01*
X90038224Y-64603679D01*
X90033840Y-64597768D01*
X90030056Y-64591455D01*
X90026909Y-64584801D01*
X90024429Y-64577871D01*
X90022641Y-64570732D01*
X90021561Y-64563451D01*
X90021200Y-64556100D01*
X90021200Y-64406100D01*
X90021561Y-64398749D01*
X90022641Y-64391468D01*
X90024429Y-64384329D01*
X90026909Y-64377399D01*
X90030056Y-64370745D01*
X90033840Y-64364432D01*
X90038224Y-64358521D01*
X90043167Y-64353067D01*
X90048621Y-64348124D01*
X90054532Y-64343740D01*
X90060845Y-64339956D01*
X90067499Y-64336809D01*
X90074429Y-64334329D01*
X90081568Y-64332541D01*
X90088849Y-64331461D01*
X90096200Y-64331100D01*
X91421200Y-64331100D01*
X91428551Y-64331461D01*
X91428551Y-64331461D01*
G37*
D17*
X90758700Y-64481100D03*
D10*
G36*
X91428551Y-64831461D02*
G01*
X91435832Y-64832541D01*
X91442971Y-64834329D01*
X91449901Y-64836809D01*
X91456555Y-64839956D01*
X91462868Y-64843740D01*
X91468779Y-64848124D01*
X91474233Y-64853067D01*
X91479176Y-64858521D01*
X91483560Y-64864432D01*
X91487344Y-64870745D01*
X91490491Y-64877399D01*
X91492971Y-64884329D01*
X91494759Y-64891468D01*
X91495839Y-64898749D01*
X91496200Y-64906100D01*
X91496200Y-65056100D01*
X91495839Y-65063451D01*
X91494759Y-65070732D01*
X91492971Y-65077871D01*
X91490491Y-65084801D01*
X91487344Y-65091455D01*
X91483560Y-65097768D01*
X91479176Y-65103679D01*
X91474233Y-65109133D01*
X91468779Y-65114076D01*
X91462868Y-65118460D01*
X91456555Y-65122244D01*
X91449901Y-65125391D01*
X91442971Y-65127871D01*
X91435832Y-65129659D01*
X91428551Y-65130739D01*
X91421200Y-65131100D01*
X90096200Y-65131100D01*
X90088849Y-65130739D01*
X90081568Y-65129659D01*
X90074429Y-65127871D01*
X90067499Y-65125391D01*
X90060845Y-65122244D01*
X90054532Y-65118460D01*
X90048621Y-65114076D01*
X90043167Y-65109133D01*
X90038224Y-65103679D01*
X90033840Y-65097768D01*
X90030056Y-65091455D01*
X90026909Y-65084801D01*
X90024429Y-65077871D01*
X90022641Y-65070732D01*
X90021561Y-65063451D01*
X90021200Y-65056100D01*
X90021200Y-64906100D01*
X90021561Y-64898749D01*
X90022641Y-64891468D01*
X90024429Y-64884329D01*
X90026909Y-64877399D01*
X90030056Y-64870745D01*
X90033840Y-64864432D01*
X90038224Y-64858521D01*
X90043167Y-64853067D01*
X90048621Y-64848124D01*
X90054532Y-64843740D01*
X90060845Y-64839956D01*
X90067499Y-64836809D01*
X90074429Y-64834329D01*
X90081568Y-64832541D01*
X90088849Y-64831461D01*
X90096200Y-64831100D01*
X91421200Y-64831100D01*
X91428551Y-64831461D01*
X91428551Y-64831461D01*
G37*
D17*
X90758700Y-64981100D03*
D10*
G36*
X91428551Y-65331461D02*
G01*
X91435832Y-65332541D01*
X91442971Y-65334329D01*
X91449901Y-65336809D01*
X91456555Y-65339956D01*
X91462868Y-65343740D01*
X91468779Y-65348124D01*
X91474233Y-65353067D01*
X91479176Y-65358521D01*
X91483560Y-65364432D01*
X91487344Y-65370745D01*
X91490491Y-65377399D01*
X91492971Y-65384329D01*
X91494759Y-65391468D01*
X91495839Y-65398749D01*
X91496200Y-65406100D01*
X91496200Y-65556100D01*
X91495839Y-65563451D01*
X91494759Y-65570732D01*
X91492971Y-65577871D01*
X91490491Y-65584801D01*
X91487344Y-65591455D01*
X91483560Y-65597768D01*
X91479176Y-65603679D01*
X91474233Y-65609133D01*
X91468779Y-65614076D01*
X91462868Y-65618460D01*
X91456555Y-65622244D01*
X91449901Y-65625391D01*
X91442971Y-65627871D01*
X91435832Y-65629659D01*
X91428551Y-65630739D01*
X91421200Y-65631100D01*
X90096200Y-65631100D01*
X90088849Y-65630739D01*
X90081568Y-65629659D01*
X90074429Y-65627871D01*
X90067499Y-65625391D01*
X90060845Y-65622244D01*
X90054532Y-65618460D01*
X90048621Y-65614076D01*
X90043167Y-65609133D01*
X90038224Y-65603679D01*
X90033840Y-65597768D01*
X90030056Y-65591455D01*
X90026909Y-65584801D01*
X90024429Y-65577871D01*
X90022641Y-65570732D01*
X90021561Y-65563451D01*
X90021200Y-65556100D01*
X90021200Y-65406100D01*
X90021561Y-65398749D01*
X90022641Y-65391468D01*
X90024429Y-65384329D01*
X90026909Y-65377399D01*
X90030056Y-65370745D01*
X90033840Y-65364432D01*
X90038224Y-65358521D01*
X90043167Y-65353067D01*
X90048621Y-65348124D01*
X90054532Y-65343740D01*
X90060845Y-65339956D01*
X90067499Y-65336809D01*
X90074429Y-65334329D01*
X90081568Y-65332541D01*
X90088849Y-65331461D01*
X90096200Y-65331100D01*
X91421200Y-65331100D01*
X91428551Y-65331461D01*
X91428551Y-65331461D01*
G37*
D17*
X90758700Y-65481100D03*
D10*
G36*
X91428551Y-65831461D02*
G01*
X91435832Y-65832541D01*
X91442971Y-65834329D01*
X91449901Y-65836809D01*
X91456555Y-65839956D01*
X91462868Y-65843740D01*
X91468779Y-65848124D01*
X91474233Y-65853067D01*
X91479176Y-65858521D01*
X91483560Y-65864432D01*
X91487344Y-65870745D01*
X91490491Y-65877399D01*
X91492971Y-65884329D01*
X91494759Y-65891468D01*
X91495839Y-65898749D01*
X91496200Y-65906100D01*
X91496200Y-66056100D01*
X91495839Y-66063451D01*
X91494759Y-66070732D01*
X91492971Y-66077871D01*
X91490491Y-66084801D01*
X91487344Y-66091455D01*
X91483560Y-66097768D01*
X91479176Y-66103679D01*
X91474233Y-66109133D01*
X91468779Y-66114076D01*
X91462868Y-66118460D01*
X91456555Y-66122244D01*
X91449901Y-66125391D01*
X91442971Y-66127871D01*
X91435832Y-66129659D01*
X91428551Y-66130739D01*
X91421200Y-66131100D01*
X90096200Y-66131100D01*
X90088849Y-66130739D01*
X90081568Y-66129659D01*
X90074429Y-66127871D01*
X90067499Y-66125391D01*
X90060845Y-66122244D01*
X90054532Y-66118460D01*
X90048621Y-66114076D01*
X90043167Y-66109133D01*
X90038224Y-66103679D01*
X90033840Y-66097768D01*
X90030056Y-66091455D01*
X90026909Y-66084801D01*
X90024429Y-66077871D01*
X90022641Y-66070732D01*
X90021561Y-66063451D01*
X90021200Y-66056100D01*
X90021200Y-65906100D01*
X90021561Y-65898749D01*
X90022641Y-65891468D01*
X90024429Y-65884329D01*
X90026909Y-65877399D01*
X90030056Y-65870745D01*
X90033840Y-65864432D01*
X90038224Y-65858521D01*
X90043167Y-65853067D01*
X90048621Y-65848124D01*
X90054532Y-65843740D01*
X90060845Y-65839956D01*
X90067499Y-65836809D01*
X90074429Y-65834329D01*
X90081568Y-65832541D01*
X90088849Y-65831461D01*
X90096200Y-65831100D01*
X91421200Y-65831100D01*
X91428551Y-65831461D01*
X91428551Y-65831461D01*
G37*
D17*
X90758700Y-65981100D03*
D10*
G36*
X91428551Y-66331461D02*
G01*
X91435832Y-66332541D01*
X91442971Y-66334329D01*
X91449901Y-66336809D01*
X91456555Y-66339956D01*
X91462868Y-66343740D01*
X91468779Y-66348124D01*
X91474233Y-66353067D01*
X91479176Y-66358521D01*
X91483560Y-66364432D01*
X91487344Y-66370745D01*
X91490491Y-66377399D01*
X91492971Y-66384329D01*
X91494759Y-66391468D01*
X91495839Y-66398749D01*
X91496200Y-66406100D01*
X91496200Y-66556100D01*
X91495839Y-66563451D01*
X91494759Y-66570732D01*
X91492971Y-66577871D01*
X91490491Y-66584801D01*
X91487344Y-66591455D01*
X91483560Y-66597768D01*
X91479176Y-66603679D01*
X91474233Y-66609133D01*
X91468779Y-66614076D01*
X91462868Y-66618460D01*
X91456555Y-66622244D01*
X91449901Y-66625391D01*
X91442971Y-66627871D01*
X91435832Y-66629659D01*
X91428551Y-66630739D01*
X91421200Y-66631100D01*
X90096200Y-66631100D01*
X90088849Y-66630739D01*
X90081568Y-66629659D01*
X90074429Y-66627871D01*
X90067499Y-66625391D01*
X90060845Y-66622244D01*
X90054532Y-66618460D01*
X90048621Y-66614076D01*
X90043167Y-66609133D01*
X90038224Y-66603679D01*
X90033840Y-66597768D01*
X90030056Y-66591455D01*
X90026909Y-66584801D01*
X90024429Y-66577871D01*
X90022641Y-66570732D01*
X90021561Y-66563451D01*
X90021200Y-66556100D01*
X90021200Y-66406100D01*
X90021561Y-66398749D01*
X90022641Y-66391468D01*
X90024429Y-66384329D01*
X90026909Y-66377399D01*
X90030056Y-66370745D01*
X90033840Y-66364432D01*
X90038224Y-66358521D01*
X90043167Y-66353067D01*
X90048621Y-66348124D01*
X90054532Y-66343740D01*
X90060845Y-66339956D01*
X90067499Y-66336809D01*
X90074429Y-66334329D01*
X90081568Y-66332541D01*
X90088849Y-66331461D01*
X90096200Y-66331100D01*
X91421200Y-66331100D01*
X91428551Y-66331461D01*
X91428551Y-66331461D01*
G37*
D17*
X90758700Y-66481100D03*
D10*
G36*
X89428551Y-67156461D02*
G01*
X89435832Y-67157541D01*
X89442971Y-67159329D01*
X89449901Y-67161809D01*
X89456555Y-67164956D01*
X89462868Y-67168740D01*
X89468779Y-67173124D01*
X89474233Y-67178067D01*
X89479176Y-67183521D01*
X89483560Y-67189432D01*
X89487344Y-67195745D01*
X89490491Y-67202399D01*
X89492971Y-67209329D01*
X89494759Y-67216468D01*
X89495839Y-67223749D01*
X89496200Y-67231100D01*
X89496200Y-68556100D01*
X89495839Y-68563451D01*
X89494759Y-68570732D01*
X89492971Y-68577871D01*
X89490491Y-68584801D01*
X89487344Y-68591455D01*
X89483560Y-68597768D01*
X89479176Y-68603679D01*
X89474233Y-68609133D01*
X89468779Y-68614076D01*
X89462868Y-68618460D01*
X89456555Y-68622244D01*
X89449901Y-68625391D01*
X89442971Y-68627871D01*
X89435832Y-68629659D01*
X89428551Y-68630739D01*
X89421200Y-68631100D01*
X89271200Y-68631100D01*
X89263849Y-68630739D01*
X89256568Y-68629659D01*
X89249429Y-68627871D01*
X89242499Y-68625391D01*
X89235845Y-68622244D01*
X89229532Y-68618460D01*
X89223621Y-68614076D01*
X89218167Y-68609133D01*
X89213224Y-68603679D01*
X89208840Y-68597768D01*
X89205056Y-68591455D01*
X89201909Y-68584801D01*
X89199429Y-68577871D01*
X89197641Y-68570732D01*
X89196561Y-68563451D01*
X89196200Y-68556100D01*
X89196200Y-67231100D01*
X89196561Y-67223749D01*
X89197641Y-67216468D01*
X89199429Y-67209329D01*
X89201909Y-67202399D01*
X89205056Y-67195745D01*
X89208840Y-67189432D01*
X89213224Y-67183521D01*
X89218167Y-67178067D01*
X89223621Y-67173124D01*
X89229532Y-67168740D01*
X89235845Y-67164956D01*
X89242499Y-67161809D01*
X89249429Y-67159329D01*
X89256568Y-67157541D01*
X89263849Y-67156461D01*
X89271200Y-67156100D01*
X89421200Y-67156100D01*
X89428551Y-67156461D01*
X89428551Y-67156461D01*
G37*
D17*
X89346200Y-67893600D03*
D10*
G36*
X88928551Y-67156461D02*
G01*
X88935832Y-67157541D01*
X88942971Y-67159329D01*
X88949901Y-67161809D01*
X88956555Y-67164956D01*
X88962868Y-67168740D01*
X88968779Y-67173124D01*
X88974233Y-67178067D01*
X88979176Y-67183521D01*
X88983560Y-67189432D01*
X88987344Y-67195745D01*
X88990491Y-67202399D01*
X88992971Y-67209329D01*
X88994759Y-67216468D01*
X88995839Y-67223749D01*
X88996200Y-67231100D01*
X88996200Y-68556100D01*
X88995839Y-68563451D01*
X88994759Y-68570732D01*
X88992971Y-68577871D01*
X88990491Y-68584801D01*
X88987344Y-68591455D01*
X88983560Y-68597768D01*
X88979176Y-68603679D01*
X88974233Y-68609133D01*
X88968779Y-68614076D01*
X88962868Y-68618460D01*
X88956555Y-68622244D01*
X88949901Y-68625391D01*
X88942971Y-68627871D01*
X88935832Y-68629659D01*
X88928551Y-68630739D01*
X88921200Y-68631100D01*
X88771200Y-68631100D01*
X88763849Y-68630739D01*
X88756568Y-68629659D01*
X88749429Y-68627871D01*
X88742499Y-68625391D01*
X88735845Y-68622244D01*
X88729532Y-68618460D01*
X88723621Y-68614076D01*
X88718167Y-68609133D01*
X88713224Y-68603679D01*
X88708840Y-68597768D01*
X88705056Y-68591455D01*
X88701909Y-68584801D01*
X88699429Y-68577871D01*
X88697641Y-68570732D01*
X88696561Y-68563451D01*
X88696200Y-68556100D01*
X88696200Y-67231100D01*
X88696561Y-67223749D01*
X88697641Y-67216468D01*
X88699429Y-67209329D01*
X88701909Y-67202399D01*
X88705056Y-67195745D01*
X88708840Y-67189432D01*
X88713224Y-67183521D01*
X88718167Y-67178067D01*
X88723621Y-67173124D01*
X88729532Y-67168740D01*
X88735845Y-67164956D01*
X88742499Y-67161809D01*
X88749429Y-67159329D01*
X88756568Y-67157541D01*
X88763849Y-67156461D01*
X88771200Y-67156100D01*
X88921200Y-67156100D01*
X88928551Y-67156461D01*
X88928551Y-67156461D01*
G37*
D17*
X88846200Y-67893600D03*
D10*
G36*
X88428551Y-67156461D02*
G01*
X88435832Y-67157541D01*
X88442971Y-67159329D01*
X88449901Y-67161809D01*
X88456555Y-67164956D01*
X88462868Y-67168740D01*
X88468779Y-67173124D01*
X88474233Y-67178067D01*
X88479176Y-67183521D01*
X88483560Y-67189432D01*
X88487344Y-67195745D01*
X88490491Y-67202399D01*
X88492971Y-67209329D01*
X88494759Y-67216468D01*
X88495839Y-67223749D01*
X88496200Y-67231100D01*
X88496200Y-68556100D01*
X88495839Y-68563451D01*
X88494759Y-68570732D01*
X88492971Y-68577871D01*
X88490491Y-68584801D01*
X88487344Y-68591455D01*
X88483560Y-68597768D01*
X88479176Y-68603679D01*
X88474233Y-68609133D01*
X88468779Y-68614076D01*
X88462868Y-68618460D01*
X88456555Y-68622244D01*
X88449901Y-68625391D01*
X88442971Y-68627871D01*
X88435832Y-68629659D01*
X88428551Y-68630739D01*
X88421200Y-68631100D01*
X88271200Y-68631100D01*
X88263849Y-68630739D01*
X88256568Y-68629659D01*
X88249429Y-68627871D01*
X88242499Y-68625391D01*
X88235845Y-68622244D01*
X88229532Y-68618460D01*
X88223621Y-68614076D01*
X88218167Y-68609133D01*
X88213224Y-68603679D01*
X88208840Y-68597768D01*
X88205056Y-68591455D01*
X88201909Y-68584801D01*
X88199429Y-68577871D01*
X88197641Y-68570732D01*
X88196561Y-68563451D01*
X88196200Y-68556100D01*
X88196200Y-67231100D01*
X88196561Y-67223749D01*
X88197641Y-67216468D01*
X88199429Y-67209329D01*
X88201909Y-67202399D01*
X88205056Y-67195745D01*
X88208840Y-67189432D01*
X88213224Y-67183521D01*
X88218167Y-67178067D01*
X88223621Y-67173124D01*
X88229532Y-67168740D01*
X88235845Y-67164956D01*
X88242499Y-67161809D01*
X88249429Y-67159329D01*
X88256568Y-67157541D01*
X88263849Y-67156461D01*
X88271200Y-67156100D01*
X88421200Y-67156100D01*
X88428551Y-67156461D01*
X88428551Y-67156461D01*
G37*
D17*
X88346200Y-67893600D03*
D10*
G36*
X87928551Y-67156461D02*
G01*
X87935832Y-67157541D01*
X87942971Y-67159329D01*
X87949901Y-67161809D01*
X87956555Y-67164956D01*
X87962868Y-67168740D01*
X87968779Y-67173124D01*
X87974233Y-67178067D01*
X87979176Y-67183521D01*
X87983560Y-67189432D01*
X87987344Y-67195745D01*
X87990491Y-67202399D01*
X87992971Y-67209329D01*
X87994759Y-67216468D01*
X87995839Y-67223749D01*
X87996200Y-67231100D01*
X87996200Y-68556100D01*
X87995839Y-68563451D01*
X87994759Y-68570732D01*
X87992971Y-68577871D01*
X87990491Y-68584801D01*
X87987344Y-68591455D01*
X87983560Y-68597768D01*
X87979176Y-68603679D01*
X87974233Y-68609133D01*
X87968779Y-68614076D01*
X87962868Y-68618460D01*
X87956555Y-68622244D01*
X87949901Y-68625391D01*
X87942971Y-68627871D01*
X87935832Y-68629659D01*
X87928551Y-68630739D01*
X87921200Y-68631100D01*
X87771200Y-68631100D01*
X87763849Y-68630739D01*
X87756568Y-68629659D01*
X87749429Y-68627871D01*
X87742499Y-68625391D01*
X87735845Y-68622244D01*
X87729532Y-68618460D01*
X87723621Y-68614076D01*
X87718167Y-68609133D01*
X87713224Y-68603679D01*
X87708840Y-68597768D01*
X87705056Y-68591455D01*
X87701909Y-68584801D01*
X87699429Y-68577871D01*
X87697641Y-68570732D01*
X87696561Y-68563451D01*
X87696200Y-68556100D01*
X87696200Y-67231100D01*
X87696561Y-67223749D01*
X87697641Y-67216468D01*
X87699429Y-67209329D01*
X87701909Y-67202399D01*
X87705056Y-67195745D01*
X87708840Y-67189432D01*
X87713224Y-67183521D01*
X87718167Y-67178067D01*
X87723621Y-67173124D01*
X87729532Y-67168740D01*
X87735845Y-67164956D01*
X87742499Y-67161809D01*
X87749429Y-67159329D01*
X87756568Y-67157541D01*
X87763849Y-67156461D01*
X87771200Y-67156100D01*
X87921200Y-67156100D01*
X87928551Y-67156461D01*
X87928551Y-67156461D01*
G37*
D17*
X87846200Y-67893600D03*
D10*
G36*
X87428551Y-67156461D02*
G01*
X87435832Y-67157541D01*
X87442971Y-67159329D01*
X87449901Y-67161809D01*
X87456555Y-67164956D01*
X87462868Y-67168740D01*
X87468779Y-67173124D01*
X87474233Y-67178067D01*
X87479176Y-67183521D01*
X87483560Y-67189432D01*
X87487344Y-67195745D01*
X87490491Y-67202399D01*
X87492971Y-67209329D01*
X87494759Y-67216468D01*
X87495839Y-67223749D01*
X87496200Y-67231100D01*
X87496200Y-68556100D01*
X87495839Y-68563451D01*
X87494759Y-68570732D01*
X87492971Y-68577871D01*
X87490491Y-68584801D01*
X87487344Y-68591455D01*
X87483560Y-68597768D01*
X87479176Y-68603679D01*
X87474233Y-68609133D01*
X87468779Y-68614076D01*
X87462868Y-68618460D01*
X87456555Y-68622244D01*
X87449901Y-68625391D01*
X87442971Y-68627871D01*
X87435832Y-68629659D01*
X87428551Y-68630739D01*
X87421200Y-68631100D01*
X87271200Y-68631100D01*
X87263849Y-68630739D01*
X87256568Y-68629659D01*
X87249429Y-68627871D01*
X87242499Y-68625391D01*
X87235845Y-68622244D01*
X87229532Y-68618460D01*
X87223621Y-68614076D01*
X87218167Y-68609133D01*
X87213224Y-68603679D01*
X87208840Y-68597768D01*
X87205056Y-68591455D01*
X87201909Y-68584801D01*
X87199429Y-68577871D01*
X87197641Y-68570732D01*
X87196561Y-68563451D01*
X87196200Y-68556100D01*
X87196200Y-67231100D01*
X87196561Y-67223749D01*
X87197641Y-67216468D01*
X87199429Y-67209329D01*
X87201909Y-67202399D01*
X87205056Y-67195745D01*
X87208840Y-67189432D01*
X87213224Y-67183521D01*
X87218167Y-67178067D01*
X87223621Y-67173124D01*
X87229532Y-67168740D01*
X87235845Y-67164956D01*
X87242499Y-67161809D01*
X87249429Y-67159329D01*
X87256568Y-67157541D01*
X87263849Y-67156461D01*
X87271200Y-67156100D01*
X87421200Y-67156100D01*
X87428551Y-67156461D01*
X87428551Y-67156461D01*
G37*
D17*
X87346200Y-67893600D03*
D10*
G36*
X86928551Y-67156461D02*
G01*
X86935832Y-67157541D01*
X86942971Y-67159329D01*
X86949901Y-67161809D01*
X86956555Y-67164956D01*
X86962868Y-67168740D01*
X86968779Y-67173124D01*
X86974233Y-67178067D01*
X86979176Y-67183521D01*
X86983560Y-67189432D01*
X86987344Y-67195745D01*
X86990491Y-67202399D01*
X86992971Y-67209329D01*
X86994759Y-67216468D01*
X86995839Y-67223749D01*
X86996200Y-67231100D01*
X86996200Y-68556100D01*
X86995839Y-68563451D01*
X86994759Y-68570732D01*
X86992971Y-68577871D01*
X86990491Y-68584801D01*
X86987344Y-68591455D01*
X86983560Y-68597768D01*
X86979176Y-68603679D01*
X86974233Y-68609133D01*
X86968779Y-68614076D01*
X86962868Y-68618460D01*
X86956555Y-68622244D01*
X86949901Y-68625391D01*
X86942971Y-68627871D01*
X86935832Y-68629659D01*
X86928551Y-68630739D01*
X86921200Y-68631100D01*
X86771200Y-68631100D01*
X86763849Y-68630739D01*
X86756568Y-68629659D01*
X86749429Y-68627871D01*
X86742499Y-68625391D01*
X86735845Y-68622244D01*
X86729532Y-68618460D01*
X86723621Y-68614076D01*
X86718167Y-68609133D01*
X86713224Y-68603679D01*
X86708840Y-68597768D01*
X86705056Y-68591455D01*
X86701909Y-68584801D01*
X86699429Y-68577871D01*
X86697641Y-68570732D01*
X86696561Y-68563451D01*
X86696200Y-68556100D01*
X86696200Y-67231100D01*
X86696561Y-67223749D01*
X86697641Y-67216468D01*
X86699429Y-67209329D01*
X86701909Y-67202399D01*
X86705056Y-67195745D01*
X86708840Y-67189432D01*
X86713224Y-67183521D01*
X86718167Y-67178067D01*
X86723621Y-67173124D01*
X86729532Y-67168740D01*
X86735845Y-67164956D01*
X86742499Y-67161809D01*
X86749429Y-67159329D01*
X86756568Y-67157541D01*
X86763849Y-67156461D01*
X86771200Y-67156100D01*
X86921200Y-67156100D01*
X86928551Y-67156461D01*
X86928551Y-67156461D01*
G37*
D17*
X86846200Y-67893600D03*
D10*
G36*
X86428551Y-67156461D02*
G01*
X86435832Y-67157541D01*
X86442971Y-67159329D01*
X86449901Y-67161809D01*
X86456555Y-67164956D01*
X86462868Y-67168740D01*
X86468779Y-67173124D01*
X86474233Y-67178067D01*
X86479176Y-67183521D01*
X86483560Y-67189432D01*
X86487344Y-67195745D01*
X86490491Y-67202399D01*
X86492971Y-67209329D01*
X86494759Y-67216468D01*
X86495839Y-67223749D01*
X86496200Y-67231100D01*
X86496200Y-68556100D01*
X86495839Y-68563451D01*
X86494759Y-68570732D01*
X86492971Y-68577871D01*
X86490491Y-68584801D01*
X86487344Y-68591455D01*
X86483560Y-68597768D01*
X86479176Y-68603679D01*
X86474233Y-68609133D01*
X86468779Y-68614076D01*
X86462868Y-68618460D01*
X86456555Y-68622244D01*
X86449901Y-68625391D01*
X86442971Y-68627871D01*
X86435832Y-68629659D01*
X86428551Y-68630739D01*
X86421200Y-68631100D01*
X86271200Y-68631100D01*
X86263849Y-68630739D01*
X86256568Y-68629659D01*
X86249429Y-68627871D01*
X86242499Y-68625391D01*
X86235845Y-68622244D01*
X86229532Y-68618460D01*
X86223621Y-68614076D01*
X86218167Y-68609133D01*
X86213224Y-68603679D01*
X86208840Y-68597768D01*
X86205056Y-68591455D01*
X86201909Y-68584801D01*
X86199429Y-68577871D01*
X86197641Y-68570732D01*
X86196561Y-68563451D01*
X86196200Y-68556100D01*
X86196200Y-67231100D01*
X86196561Y-67223749D01*
X86197641Y-67216468D01*
X86199429Y-67209329D01*
X86201909Y-67202399D01*
X86205056Y-67195745D01*
X86208840Y-67189432D01*
X86213224Y-67183521D01*
X86218167Y-67178067D01*
X86223621Y-67173124D01*
X86229532Y-67168740D01*
X86235845Y-67164956D01*
X86242499Y-67161809D01*
X86249429Y-67159329D01*
X86256568Y-67157541D01*
X86263849Y-67156461D01*
X86271200Y-67156100D01*
X86421200Y-67156100D01*
X86428551Y-67156461D01*
X86428551Y-67156461D01*
G37*
D17*
X86346200Y-67893600D03*
D10*
G36*
X85928551Y-67156461D02*
G01*
X85935832Y-67157541D01*
X85942971Y-67159329D01*
X85949901Y-67161809D01*
X85956555Y-67164956D01*
X85962868Y-67168740D01*
X85968779Y-67173124D01*
X85974233Y-67178067D01*
X85979176Y-67183521D01*
X85983560Y-67189432D01*
X85987344Y-67195745D01*
X85990491Y-67202399D01*
X85992971Y-67209329D01*
X85994759Y-67216468D01*
X85995839Y-67223749D01*
X85996200Y-67231100D01*
X85996200Y-68556100D01*
X85995839Y-68563451D01*
X85994759Y-68570732D01*
X85992971Y-68577871D01*
X85990491Y-68584801D01*
X85987344Y-68591455D01*
X85983560Y-68597768D01*
X85979176Y-68603679D01*
X85974233Y-68609133D01*
X85968779Y-68614076D01*
X85962868Y-68618460D01*
X85956555Y-68622244D01*
X85949901Y-68625391D01*
X85942971Y-68627871D01*
X85935832Y-68629659D01*
X85928551Y-68630739D01*
X85921200Y-68631100D01*
X85771200Y-68631100D01*
X85763849Y-68630739D01*
X85756568Y-68629659D01*
X85749429Y-68627871D01*
X85742499Y-68625391D01*
X85735845Y-68622244D01*
X85729532Y-68618460D01*
X85723621Y-68614076D01*
X85718167Y-68609133D01*
X85713224Y-68603679D01*
X85708840Y-68597768D01*
X85705056Y-68591455D01*
X85701909Y-68584801D01*
X85699429Y-68577871D01*
X85697641Y-68570732D01*
X85696561Y-68563451D01*
X85696200Y-68556100D01*
X85696200Y-67231100D01*
X85696561Y-67223749D01*
X85697641Y-67216468D01*
X85699429Y-67209329D01*
X85701909Y-67202399D01*
X85705056Y-67195745D01*
X85708840Y-67189432D01*
X85713224Y-67183521D01*
X85718167Y-67178067D01*
X85723621Y-67173124D01*
X85729532Y-67168740D01*
X85735845Y-67164956D01*
X85742499Y-67161809D01*
X85749429Y-67159329D01*
X85756568Y-67157541D01*
X85763849Y-67156461D01*
X85771200Y-67156100D01*
X85921200Y-67156100D01*
X85928551Y-67156461D01*
X85928551Y-67156461D01*
G37*
D17*
X85846200Y-67893600D03*
D10*
G36*
X85428551Y-67156461D02*
G01*
X85435832Y-67157541D01*
X85442971Y-67159329D01*
X85449901Y-67161809D01*
X85456555Y-67164956D01*
X85462868Y-67168740D01*
X85468779Y-67173124D01*
X85474233Y-67178067D01*
X85479176Y-67183521D01*
X85483560Y-67189432D01*
X85487344Y-67195745D01*
X85490491Y-67202399D01*
X85492971Y-67209329D01*
X85494759Y-67216468D01*
X85495839Y-67223749D01*
X85496200Y-67231100D01*
X85496200Y-68556100D01*
X85495839Y-68563451D01*
X85494759Y-68570732D01*
X85492971Y-68577871D01*
X85490491Y-68584801D01*
X85487344Y-68591455D01*
X85483560Y-68597768D01*
X85479176Y-68603679D01*
X85474233Y-68609133D01*
X85468779Y-68614076D01*
X85462868Y-68618460D01*
X85456555Y-68622244D01*
X85449901Y-68625391D01*
X85442971Y-68627871D01*
X85435832Y-68629659D01*
X85428551Y-68630739D01*
X85421200Y-68631100D01*
X85271200Y-68631100D01*
X85263849Y-68630739D01*
X85256568Y-68629659D01*
X85249429Y-68627871D01*
X85242499Y-68625391D01*
X85235845Y-68622244D01*
X85229532Y-68618460D01*
X85223621Y-68614076D01*
X85218167Y-68609133D01*
X85213224Y-68603679D01*
X85208840Y-68597768D01*
X85205056Y-68591455D01*
X85201909Y-68584801D01*
X85199429Y-68577871D01*
X85197641Y-68570732D01*
X85196561Y-68563451D01*
X85196200Y-68556100D01*
X85196200Y-67231100D01*
X85196561Y-67223749D01*
X85197641Y-67216468D01*
X85199429Y-67209329D01*
X85201909Y-67202399D01*
X85205056Y-67195745D01*
X85208840Y-67189432D01*
X85213224Y-67183521D01*
X85218167Y-67178067D01*
X85223621Y-67173124D01*
X85229532Y-67168740D01*
X85235845Y-67164956D01*
X85242499Y-67161809D01*
X85249429Y-67159329D01*
X85256568Y-67157541D01*
X85263849Y-67156461D01*
X85271200Y-67156100D01*
X85421200Y-67156100D01*
X85428551Y-67156461D01*
X85428551Y-67156461D01*
G37*
D17*
X85346200Y-67893600D03*
D10*
G36*
X84928551Y-67156461D02*
G01*
X84935832Y-67157541D01*
X84942971Y-67159329D01*
X84949901Y-67161809D01*
X84956555Y-67164956D01*
X84962868Y-67168740D01*
X84968779Y-67173124D01*
X84974233Y-67178067D01*
X84979176Y-67183521D01*
X84983560Y-67189432D01*
X84987344Y-67195745D01*
X84990491Y-67202399D01*
X84992971Y-67209329D01*
X84994759Y-67216468D01*
X84995839Y-67223749D01*
X84996200Y-67231100D01*
X84996200Y-68556100D01*
X84995839Y-68563451D01*
X84994759Y-68570732D01*
X84992971Y-68577871D01*
X84990491Y-68584801D01*
X84987344Y-68591455D01*
X84983560Y-68597768D01*
X84979176Y-68603679D01*
X84974233Y-68609133D01*
X84968779Y-68614076D01*
X84962868Y-68618460D01*
X84956555Y-68622244D01*
X84949901Y-68625391D01*
X84942971Y-68627871D01*
X84935832Y-68629659D01*
X84928551Y-68630739D01*
X84921200Y-68631100D01*
X84771200Y-68631100D01*
X84763849Y-68630739D01*
X84756568Y-68629659D01*
X84749429Y-68627871D01*
X84742499Y-68625391D01*
X84735845Y-68622244D01*
X84729532Y-68618460D01*
X84723621Y-68614076D01*
X84718167Y-68609133D01*
X84713224Y-68603679D01*
X84708840Y-68597768D01*
X84705056Y-68591455D01*
X84701909Y-68584801D01*
X84699429Y-68577871D01*
X84697641Y-68570732D01*
X84696561Y-68563451D01*
X84696200Y-68556100D01*
X84696200Y-67231100D01*
X84696561Y-67223749D01*
X84697641Y-67216468D01*
X84699429Y-67209329D01*
X84701909Y-67202399D01*
X84705056Y-67195745D01*
X84708840Y-67189432D01*
X84713224Y-67183521D01*
X84718167Y-67178067D01*
X84723621Y-67173124D01*
X84729532Y-67168740D01*
X84735845Y-67164956D01*
X84742499Y-67161809D01*
X84749429Y-67159329D01*
X84756568Y-67157541D01*
X84763849Y-67156461D01*
X84771200Y-67156100D01*
X84921200Y-67156100D01*
X84928551Y-67156461D01*
X84928551Y-67156461D01*
G37*
D17*
X84846200Y-67893600D03*
D10*
G36*
X84428551Y-67156461D02*
G01*
X84435832Y-67157541D01*
X84442971Y-67159329D01*
X84449901Y-67161809D01*
X84456555Y-67164956D01*
X84462868Y-67168740D01*
X84468779Y-67173124D01*
X84474233Y-67178067D01*
X84479176Y-67183521D01*
X84483560Y-67189432D01*
X84487344Y-67195745D01*
X84490491Y-67202399D01*
X84492971Y-67209329D01*
X84494759Y-67216468D01*
X84495839Y-67223749D01*
X84496200Y-67231100D01*
X84496200Y-68556100D01*
X84495839Y-68563451D01*
X84494759Y-68570732D01*
X84492971Y-68577871D01*
X84490491Y-68584801D01*
X84487344Y-68591455D01*
X84483560Y-68597768D01*
X84479176Y-68603679D01*
X84474233Y-68609133D01*
X84468779Y-68614076D01*
X84462868Y-68618460D01*
X84456555Y-68622244D01*
X84449901Y-68625391D01*
X84442971Y-68627871D01*
X84435832Y-68629659D01*
X84428551Y-68630739D01*
X84421200Y-68631100D01*
X84271200Y-68631100D01*
X84263849Y-68630739D01*
X84256568Y-68629659D01*
X84249429Y-68627871D01*
X84242499Y-68625391D01*
X84235845Y-68622244D01*
X84229532Y-68618460D01*
X84223621Y-68614076D01*
X84218167Y-68609133D01*
X84213224Y-68603679D01*
X84208840Y-68597768D01*
X84205056Y-68591455D01*
X84201909Y-68584801D01*
X84199429Y-68577871D01*
X84197641Y-68570732D01*
X84196561Y-68563451D01*
X84196200Y-68556100D01*
X84196200Y-67231100D01*
X84196561Y-67223749D01*
X84197641Y-67216468D01*
X84199429Y-67209329D01*
X84201909Y-67202399D01*
X84205056Y-67195745D01*
X84208840Y-67189432D01*
X84213224Y-67183521D01*
X84218167Y-67178067D01*
X84223621Y-67173124D01*
X84229532Y-67168740D01*
X84235845Y-67164956D01*
X84242499Y-67161809D01*
X84249429Y-67159329D01*
X84256568Y-67157541D01*
X84263849Y-67156461D01*
X84271200Y-67156100D01*
X84421200Y-67156100D01*
X84428551Y-67156461D01*
X84428551Y-67156461D01*
G37*
D17*
X84346200Y-67893600D03*
D10*
G36*
X83928551Y-67156461D02*
G01*
X83935832Y-67157541D01*
X83942971Y-67159329D01*
X83949901Y-67161809D01*
X83956555Y-67164956D01*
X83962868Y-67168740D01*
X83968779Y-67173124D01*
X83974233Y-67178067D01*
X83979176Y-67183521D01*
X83983560Y-67189432D01*
X83987344Y-67195745D01*
X83990491Y-67202399D01*
X83992971Y-67209329D01*
X83994759Y-67216468D01*
X83995839Y-67223749D01*
X83996200Y-67231100D01*
X83996200Y-68556100D01*
X83995839Y-68563451D01*
X83994759Y-68570732D01*
X83992971Y-68577871D01*
X83990491Y-68584801D01*
X83987344Y-68591455D01*
X83983560Y-68597768D01*
X83979176Y-68603679D01*
X83974233Y-68609133D01*
X83968779Y-68614076D01*
X83962868Y-68618460D01*
X83956555Y-68622244D01*
X83949901Y-68625391D01*
X83942971Y-68627871D01*
X83935832Y-68629659D01*
X83928551Y-68630739D01*
X83921200Y-68631100D01*
X83771200Y-68631100D01*
X83763849Y-68630739D01*
X83756568Y-68629659D01*
X83749429Y-68627871D01*
X83742499Y-68625391D01*
X83735845Y-68622244D01*
X83729532Y-68618460D01*
X83723621Y-68614076D01*
X83718167Y-68609133D01*
X83713224Y-68603679D01*
X83708840Y-68597768D01*
X83705056Y-68591455D01*
X83701909Y-68584801D01*
X83699429Y-68577871D01*
X83697641Y-68570732D01*
X83696561Y-68563451D01*
X83696200Y-68556100D01*
X83696200Y-67231100D01*
X83696561Y-67223749D01*
X83697641Y-67216468D01*
X83699429Y-67209329D01*
X83701909Y-67202399D01*
X83705056Y-67195745D01*
X83708840Y-67189432D01*
X83713224Y-67183521D01*
X83718167Y-67178067D01*
X83723621Y-67173124D01*
X83729532Y-67168740D01*
X83735845Y-67164956D01*
X83742499Y-67161809D01*
X83749429Y-67159329D01*
X83756568Y-67157541D01*
X83763849Y-67156461D01*
X83771200Y-67156100D01*
X83921200Y-67156100D01*
X83928551Y-67156461D01*
X83928551Y-67156461D01*
G37*
D17*
X83846200Y-67893600D03*
D18*
X84776200Y-80508700D03*
X78576200Y-80508700D03*
X84776200Y-76808700D03*
X78576200Y-76808700D03*
D10*
G36*
X91017042Y-88292574D02*
G01*
X91040703Y-88296084D01*
X91063907Y-88301896D01*
X91086429Y-88309954D01*
X91108053Y-88320182D01*
X91128570Y-88332479D01*
X91147783Y-88346729D01*
X91165507Y-88362793D01*
X91181571Y-88380517D01*
X91195821Y-88399730D01*
X91208118Y-88420247D01*
X91218346Y-88441871D01*
X91226404Y-88464393D01*
X91232216Y-88487597D01*
X91235726Y-88511258D01*
X91236900Y-88535150D01*
X91236900Y-89447650D01*
X91235726Y-89471542D01*
X91232216Y-89495203D01*
X91226404Y-89518407D01*
X91218346Y-89540929D01*
X91208118Y-89562553D01*
X91195821Y-89583070D01*
X91181571Y-89602283D01*
X91165507Y-89620007D01*
X91147783Y-89636071D01*
X91128570Y-89650321D01*
X91108053Y-89662618D01*
X91086429Y-89672846D01*
X91063907Y-89680904D01*
X91040703Y-89686716D01*
X91017042Y-89690226D01*
X90993150Y-89691400D01*
X90505650Y-89691400D01*
X90481758Y-89690226D01*
X90458097Y-89686716D01*
X90434893Y-89680904D01*
X90412371Y-89672846D01*
X90390747Y-89662618D01*
X90370230Y-89650321D01*
X90351017Y-89636071D01*
X90333293Y-89620007D01*
X90317229Y-89602283D01*
X90302979Y-89583070D01*
X90290682Y-89562553D01*
X90280454Y-89540929D01*
X90272396Y-89518407D01*
X90266584Y-89495203D01*
X90263074Y-89471542D01*
X90261900Y-89447650D01*
X90261900Y-88535150D01*
X90263074Y-88511258D01*
X90266584Y-88487597D01*
X90272396Y-88464393D01*
X90280454Y-88441871D01*
X90290682Y-88420247D01*
X90302979Y-88399730D01*
X90317229Y-88380517D01*
X90333293Y-88362793D01*
X90351017Y-88346729D01*
X90370230Y-88332479D01*
X90390747Y-88320182D01*
X90412371Y-88309954D01*
X90434893Y-88301896D01*
X90458097Y-88296084D01*
X90481758Y-88292574D01*
X90505650Y-88291400D01*
X90993150Y-88291400D01*
X91017042Y-88292574D01*
X91017042Y-88292574D01*
G37*
D19*
X90749400Y-88991400D03*
D10*
G36*
X89142042Y-88292574D02*
G01*
X89165703Y-88296084D01*
X89188907Y-88301896D01*
X89211429Y-88309954D01*
X89233053Y-88320182D01*
X89253570Y-88332479D01*
X89272783Y-88346729D01*
X89290507Y-88362793D01*
X89306571Y-88380517D01*
X89320821Y-88399730D01*
X89333118Y-88420247D01*
X89343346Y-88441871D01*
X89351404Y-88464393D01*
X89357216Y-88487597D01*
X89360726Y-88511258D01*
X89361900Y-88535150D01*
X89361900Y-89447650D01*
X89360726Y-89471542D01*
X89357216Y-89495203D01*
X89351404Y-89518407D01*
X89343346Y-89540929D01*
X89333118Y-89562553D01*
X89320821Y-89583070D01*
X89306571Y-89602283D01*
X89290507Y-89620007D01*
X89272783Y-89636071D01*
X89253570Y-89650321D01*
X89233053Y-89662618D01*
X89211429Y-89672846D01*
X89188907Y-89680904D01*
X89165703Y-89686716D01*
X89142042Y-89690226D01*
X89118150Y-89691400D01*
X88630650Y-89691400D01*
X88606758Y-89690226D01*
X88583097Y-89686716D01*
X88559893Y-89680904D01*
X88537371Y-89672846D01*
X88515747Y-89662618D01*
X88495230Y-89650321D01*
X88476017Y-89636071D01*
X88458293Y-89620007D01*
X88442229Y-89602283D01*
X88427979Y-89583070D01*
X88415682Y-89562553D01*
X88405454Y-89540929D01*
X88397396Y-89518407D01*
X88391584Y-89495203D01*
X88388074Y-89471542D01*
X88386900Y-89447650D01*
X88386900Y-88535150D01*
X88388074Y-88511258D01*
X88391584Y-88487597D01*
X88397396Y-88464393D01*
X88405454Y-88441871D01*
X88415682Y-88420247D01*
X88427979Y-88399730D01*
X88442229Y-88380517D01*
X88458293Y-88362793D01*
X88476017Y-88346729D01*
X88495230Y-88332479D01*
X88515747Y-88320182D01*
X88537371Y-88309954D01*
X88559893Y-88301896D01*
X88583097Y-88296084D01*
X88606758Y-88292574D01*
X88630650Y-88291400D01*
X89118150Y-88291400D01*
X89142042Y-88292574D01*
X89142042Y-88292574D01*
G37*
D19*
X88874400Y-88991400D03*
D10*
G36*
X93467042Y-92579474D02*
G01*
X93490703Y-92582984D01*
X93513907Y-92588796D01*
X93536429Y-92596854D01*
X93558053Y-92607082D01*
X93578570Y-92619379D01*
X93597783Y-92633629D01*
X93615507Y-92649693D01*
X93631571Y-92667417D01*
X93645821Y-92686630D01*
X93658118Y-92707147D01*
X93668346Y-92728771D01*
X93676404Y-92751293D01*
X93682216Y-92774497D01*
X93685726Y-92798158D01*
X93686900Y-92822050D01*
X93686900Y-93309550D01*
X93685726Y-93333442D01*
X93682216Y-93357103D01*
X93676404Y-93380307D01*
X93668346Y-93402829D01*
X93658118Y-93424453D01*
X93645821Y-93444970D01*
X93631571Y-93464183D01*
X93615507Y-93481907D01*
X93597783Y-93497971D01*
X93578570Y-93512221D01*
X93558053Y-93524518D01*
X93536429Y-93534746D01*
X93513907Y-93542804D01*
X93490703Y-93548616D01*
X93467042Y-93552126D01*
X93443150Y-93553300D01*
X92530650Y-93553300D01*
X92506758Y-93552126D01*
X92483097Y-93548616D01*
X92459893Y-93542804D01*
X92437371Y-93534746D01*
X92415747Y-93524518D01*
X92395230Y-93512221D01*
X92376017Y-93497971D01*
X92358293Y-93481907D01*
X92342229Y-93464183D01*
X92327979Y-93444970D01*
X92315682Y-93424453D01*
X92305454Y-93402829D01*
X92297396Y-93380307D01*
X92291584Y-93357103D01*
X92288074Y-93333442D01*
X92286900Y-93309550D01*
X92286900Y-92822050D01*
X92288074Y-92798158D01*
X92291584Y-92774497D01*
X92297396Y-92751293D01*
X92305454Y-92728771D01*
X92315682Y-92707147D01*
X92327979Y-92686630D01*
X92342229Y-92667417D01*
X92358293Y-92649693D01*
X92376017Y-92633629D01*
X92395230Y-92619379D01*
X92415747Y-92607082D01*
X92437371Y-92596854D01*
X92459893Y-92588796D01*
X92483097Y-92582984D01*
X92506758Y-92579474D01*
X92530650Y-92578300D01*
X93443150Y-92578300D01*
X93467042Y-92579474D01*
X93467042Y-92579474D01*
G37*
D19*
X92986900Y-93065800D03*
D10*
G36*
X93467042Y-90704474D02*
G01*
X93490703Y-90707984D01*
X93513907Y-90713796D01*
X93536429Y-90721854D01*
X93558053Y-90732082D01*
X93578570Y-90744379D01*
X93597783Y-90758629D01*
X93615507Y-90774693D01*
X93631571Y-90792417D01*
X93645821Y-90811630D01*
X93658118Y-90832147D01*
X93668346Y-90853771D01*
X93676404Y-90876293D01*
X93682216Y-90899497D01*
X93685726Y-90923158D01*
X93686900Y-90947050D01*
X93686900Y-91434550D01*
X93685726Y-91458442D01*
X93682216Y-91482103D01*
X93676404Y-91505307D01*
X93668346Y-91527829D01*
X93658118Y-91549453D01*
X93645821Y-91569970D01*
X93631571Y-91589183D01*
X93615507Y-91606907D01*
X93597783Y-91622971D01*
X93578570Y-91637221D01*
X93558053Y-91649518D01*
X93536429Y-91659746D01*
X93513907Y-91667804D01*
X93490703Y-91673616D01*
X93467042Y-91677126D01*
X93443150Y-91678300D01*
X92530650Y-91678300D01*
X92506758Y-91677126D01*
X92483097Y-91673616D01*
X92459893Y-91667804D01*
X92437371Y-91659746D01*
X92415747Y-91649518D01*
X92395230Y-91637221D01*
X92376017Y-91622971D01*
X92358293Y-91606907D01*
X92342229Y-91589183D01*
X92327979Y-91569970D01*
X92315682Y-91549453D01*
X92305454Y-91527829D01*
X92297396Y-91505307D01*
X92291584Y-91482103D01*
X92288074Y-91458442D01*
X92286900Y-91434550D01*
X92286900Y-90947050D01*
X92288074Y-90923158D01*
X92291584Y-90899497D01*
X92297396Y-90876293D01*
X92305454Y-90853771D01*
X92315682Y-90832147D01*
X92327979Y-90811630D01*
X92342229Y-90792417D01*
X92358293Y-90774693D01*
X92376017Y-90758629D01*
X92395230Y-90744379D01*
X92415747Y-90732082D01*
X92437371Y-90721854D01*
X92459893Y-90713796D01*
X92483097Y-90707984D01*
X92506758Y-90704474D01*
X92530650Y-90703300D01*
X93443150Y-90703300D01*
X93467042Y-90704474D01*
X93467042Y-90704474D01*
G37*
D19*
X92986900Y-91190800D03*
D10*
G36*
X91422342Y-86305674D02*
G01*
X91446003Y-86309184D01*
X91469207Y-86314996D01*
X91491729Y-86323054D01*
X91513353Y-86333282D01*
X91533870Y-86345579D01*
X91553083Y-86359829D01*
X91570807Y-86375893D01*
X91586871Y-86393617D01*
X91601121Y-86412830D01*
X91613418Y-86433347D01*
X91623646Y-86454971D01*
X91631704Y-86477493D01*
X91637516Y-86500697D01*
X91641026Y-86524358D01*
X91642200Y-86548250D01*
X91642200Y-87035750D01*
X91641026Y-87059642D01*
X91637516Y-87083303D01*
X91631704Y-87106507D01*
X91623646Y-87129029D01*
X91613418Y-87150653D01*
X91601121Y-87171170D01*
X91586871Y-87190383D01*
X91570807Y-87208107D01*
X91553083Y-87224171D01*
X91533870Y-87238421D01*
X91513353Y-87250718D01*
X91491729Y-87260946D01*
X91469207Y-87269004D01*
X91446003Y-87274816D01*
X91422342Y-87278326D01*
X91398450Y-87279500D01*
X90485950Y-87279500D01*
X90462058Y-87278326D01*
X90438397Y-87274816D01*
X90415193Y-87269004D01*
X90392671Y-87260946D01*
X90371047Y-87250718D01*
X90350530Y-87238421D01*
X90331317Y-87224171D01*
X90313593Y-87208107D01*
X90297529Y-87190383D01*
X90283279Y-87171170D01*
X90270982Y-87150653D01*
X90260754Y-87129029D01*
X90252696Y-87106507D01*
X90246884Y-87083303D01*
X90243374Y-87059642D01*
X90242200Y-87035750D01*
X90242200Y-86548250D01*
X90243374Y-86524358D01*
X90246884Y-86500697D01*
X90252696Y-86477493D01*
X90260754Y-86454971D01*
X90270982Y-86433347D01*
X90283279Y-86412830D01*
X90297529Y-86393617D01*
X90313593Y-86375893D01*
X90331317Y-86359829D01*
X90350530Y-86345579D01*
X90371047Y-86333282D01*
X90392671Y-86323054D01*
X90415193Y-86314996D01*
X90438397Y-86309184D01*
X90462058Y-86305674D01*
X90485950Y-86304500D01*
X91398450Y-86304500D01*
X91422342Y-86305674D01*
X91422342Y-86305674D01*
G37*
D19*
X90942200Y-86792000D03*
D10*
G36*
X91422342Y-84430674D02*
G01*
X91446003Y-84434184D01*
X91469207Y-84439996D01*
X91491729Y-84448054D01*
X91513353Y-84458282D01*
X91533870Y-84470579D01*
X91553083Y-84484829D01*
X91570807Y-84500893D01*
X91586871Y-84518617D01*
X91601121Y-84537830D01*
X91613418Y-84558347D01*
X91623646Y-84579971D01*
X91631704Y-84602493D01*
X91637516Y-84625697D01*
X91641026Y-84649358D01*
X91642200Y-84673250D01*
X91642200Y-85160750D01*
X91641026Y-85184642D01*
X91637516Y-85208303D01*
X91631704Y-85231507D01*
X91623646Y-85254029D01*
X91613418Y-85275653D01*
X91601121Y-85296170D01*
X91586871Y-85315383D01*
X91570807Y-85333107D01*
X91553083Y-85349171D01*
X91533870Y-85363421D01*
X91513353Y-85375718D01*
X91491729Y-85385946D01*
X91469207Y-85394004D01*
X91446003Y-85399816D01*
X91422342Y-85403326D01*
X91398450Y-85404500D01*
X90485950Y-85404500D01*
X90462058Y-85403326D01*
X90438397Y-85399816D01*
X90415193Y-85394004D01*
X90392671Y-85385946D01*
X90371047Y-85375718D01*
X90350530Y-85363421D01*
X90331317Y-85349171D01*
X90313593Y-85333107D01*
X90297529Y-85315383D01*
X90283279Y-85296170D01*
X90270982Y-85275653D01*
X90260754Y-85254029D01*
X90252696Y-85231507D01*
X90246884Y-85208303D01*
X90243374Y-85184642D01*
X90242200Y-85160750D01*
X90242200Y-84673250D01*
X90243374Y-84649358D01*
X90246884Y-84625697D01*
X90252696Y-84602493D01*
X90260754Y-84579971D01*
X90270982Y-84558347D01*
X90283279Y-84537830D01*
X90297529Y-84518617D01*
X90313593Y-84500893D01*
X90331317Y-84484829D01*
X90350530Y-84470579D01*
X90371047Y-84458282D01*
X90392671Y-84448054D01*
X90415193Y-84439996D01*
X90438397Y-84434184D01*
X90462058Y-84430674D01*
X90485950Y-84429500D01*
X91398450Y-84429500D01*
X91422342Y-84430674D01*
X91422342Y-84430674D01*
G37*
D19*
X90942200Y-84917000D03*
D10*
G36*
X78469758Y-71773310D02*
G01*
X78484076Y-71775434D01*
X78498117Y-71778951D01*
X78511746Y-71783828D01*
X78524831Y-71790017D01*
X78537247Y-71797458D01*
X78548873Y-71806081D01*
X78559598Y-71815802D01*
X78569319Y-71826527D01*
X78577942Y-71838153D01*
X78585383Y-71850569D01*
X78591572Y-71863654D01*
X78596449Y-71877283D01*
X78599966Y-71891324D01*
X78602090Y-71905642D01*
X78602800Y-71920100D01*
X78602800Y-72215100D01*
X78602090Y-72229558D01*
X78599966Y-72243876D01*
X78596449Y-72257917D01*
X78591572Y-72271546D01*
X78585383Y-72284631D01*
X78577942Y-72297047D01*
X78569319Y-72308673D01*
X78559598Y-72319398D01*
X78548873Y-72329119D01*
X78537247Y-72337742D01*
X78524831Y-72345183D01*
X78511746Y-72351372D01*
X78498117Y-72356249D01*
X78484076Y-72359766D01*
X78469758Y-72361890D01*
X78455300Y-72362600D01*
X78110300Y-72362600D01*
X78095842Y-72361890D01*
X78081524Y-72359766D01*
X78067483Y-72356249D01*
X78053854Y-72351372D01*
X78040769Y-72345183D01*
X78028353Y-72337742D01*
X78016727Y-72329119D01*
X78006002Y-72319398D01*
X77996281Y-72308673D01*
X77987658Y-72297047D01*
X77980217Y-72284631D01*
X77974028Y-72271546D01*
X77969151Y-72257917D01*
X77965634Y-72243876D01*
X77963510Y-72229558D01*
X77962800Y-72215100D01*
X77962800Y-71920100D01*
X77963510Y-71905642D01*
X77965634Y-71891324D01*
X77969151Y-71877283D01*
X77974028Y-71863654D01*
X77980217Y-71850569D01*
X77987658Y-71838153D01*
X77996281Y-71826527D01*
X78006002Y-71815802D01*
X78016727Y-71806081D01*
X78028353Y-71797458D01*
X78040769Y-71790017D01*
X78053854Y-71783828D01*
X78067483Y-71778951D01*
X78081524Y-71775434D01*
X78095842Y-71773310D01*
X78110300Y-71772600D01*
X78455300Y-71772600D01*
X78469758Y-71773310D01*
X78469758Y-71773310D01*
G37*
D11*
X78282800Y-72067600D03*
D10*
G36*
X78469758Y-72743310D02*
G01*
X78484076Y-72745434D01*
X78498117Y-72748951D01*
X78511746Y-72753828D01*
X78524831Y-72760017D01*
X78537247Y-72767458D01*
X78548873Y-72776081D01*
X78559598Y-72785802D01*
X78569319Y-72796527D01*
X78577942Y-72808153D01*
X78585383Y-72820569D01*
X78591572Y-72833654D01*
X78596449Y-72847283D01*
X78599966Y-72861324D01*
X78602090Y-72875642D01*
X78602800Y-72890100D01*
X78602800Y-73185100D01*
X78602090Y-73199558D01*
X78599966Y-73213876D01*
X78596449Y-73227917D01*
X78591572Y-73241546D01*
X78585383Y-73254631D01*
X78577942Y-73267047D01*
X78569319Y-73278673D01*
X78559598Y-73289398D01*
X78548873Y-73299119D01*
X78537247Y-73307742D01*
X78524831Y-73315183D01*
X78511746Y-73321372D01*
X78498117Y-73326249D01*
X78484076Y-73329766D01*
X78469758Y-73331890D01*
X78455300Y-73332600D01*
X78110300Y-73332600D01*
X78095842Y-73331890D01*
X78081524Y-73329766D01*
X78067483Y-73326249D01*
X78053854Y-73321372D01*
X78040769Y-73315183D01*
X78028353Y-73307742D01*
X78016727Y-73299119D01*
X78006002Y-73289398D01*
X77996281Y-73278673D01*
X77987658Y-73267047D01*
X77980217Y-73254631D01*
X77974028Y-73241546D01*
X77969151Y-73227917D01*
X77965634Y-73213876D01*
X77963510Y-73199558D01*
X77962800Y-73185100D01*
X77962800Y-72890100D01*
X77963510Y-72875642D01*
X77965634Y-72861324D01*
X77969151Y-72847283D01*
X77974028Y-72833654D01*
X77980217Y-72820569D01*
X77987658Y-72808153D01*
X77996281Y-72796527D01*
X78006002Y-72785802D01*
X78016727Y-72776081D01*
X78028353Y-72767458D01*
X78040769Y-72760017D01*
X78053854Y-72753828D01*
X78067483Y-72748951D01*
X78081524Y-72745434D01*
X78095842Y-72743310D01*
X78110300Y-72742600D01*
X78455300Y-72742600D01*
X78469758Y-72743310D01*
X78469758Y-72743310D01*
G37*
D11*
X78282800Y-73037600D03*
D10*
G36*
X87349558Y-80210910D02*
G01*
X87363876Y-80213034D01*
X87377917Y-80216551D01*
X87391546Y-80221428D01*
X87404631Y-80227617D01*
X87417047Y-80235058D01*
X87428673Y-80243681D01*
X87439398Y-80253402D01*
X87449119Y-80264127D01*
X87457742Y-80275753D01*
X87465183Y-80288169D01*
X87471372Y-80301254D01*
X87476249Y-80314883D01*
X87479766Y-80328924D01*
X87481890Y-80343242D01*
X87482600Y-80357700D01*
X87482600Y-80652700D01*
X87481890Y-80667158D01*
X87479766Y-80681476D01*
X87476249Y-80695517D01*
X87471372Y-80709146D01*
X87465183Y-80722231D01*
X87457742Y-80734647D01*
X87449119Y-80746273D01*
X87439398Y-80756998D01*
X87428673Y-80766719D01*
X87417047Y-80775342D01*
X87404631Y-80782783D01*
X87391546Y-80788972D01*
X87377917Y-80793849D01*
X87363876Y-80797366D01*
X87349558Y-80799490D01*
X87335100Y-80800200D01*
X86990100Y-80800200D01*
X86975642Y-80799490D01*
X86961324Y-80797366D01*
X86947283Y-80793849D01*
X86933654Y-80788972D01*
X86920569Y-80782783D01*
X86908153Y-80775342D01*
X86896527Y-80766719D01*
X86885802Y-80756998D01*
X86876081Y-80746273D01*
X86867458Y-80734647D01*
X86860017Y-80722231D01*
X86853828Y-80709146D01*
X86848951Y-80695517D01*
X86845434Y-80681476D01*
X86843310Y-80667158D01*
X86842600Y-80652700D01*
X86842600Y-80357700D01*
X86843310Y-80343242D01*
X86845434Y-80328924D01*
X86848951Y-80314883D01*
X86853828Y-80301254D01*
X86860017Y-80288169D01*
X86867458Y-80275753D01*
X86876081Y-80264127D01*
X86885802Y-80253402D01*
X86896527Y-80243681D01*
X86908153Y-80235058D01*
X86920569Y-80227617D01*
X86933654Y-80221428D01*
X86947283Y-80216551D01*
X86961324Y-80213034D01*
X86975642Y-80210910D01*
X86990100Y-80210200D01*
X87335100Y-80210200D01*
X87349558Y-80210910D01*
X87349558Y-80210910D01*
G37*
D11*
X87162600Y-80505200D03*
D10*
G36*
X87349558Y-79240910D02*
G01*
X87363876Y-79243034D01*
X87377917Y-79246551D01*
X87391546Y-79251428D01*
X87404631Y-79257617D01*
X87417047Y-79265058D01*
X87428673Y-79273681D01*
X87439398Y-79283402D01*
X87449119Y-79294127D01*
X87457742Y-79305753D01*
X87465183Y-79318169D01*
X87471372Y-79331254D01*
X87476249Y-79344883D01*
X87479766Y-79358924D01*
X87481890Y-79373242D01*
X87482600Y-79387700D01*
X87482600Y-79682700D01*
X87481890Y-79697158D01*
X87479766Y-79711476D01*
X87476249Y-79725517D01*
X87471372Y-79739146D01*
X87465183Y-79752231D01*
X87457742Y-79764647D01*
X87449119Y-79776273D01*
X87439398Y-79786998D01*
X87428673Y-79796719D01*
X87417047Y-79805342D01*
X87404631Y-79812783D01*
X87391546Y-79818972D01*
X87377917Y-79823849D01*
X87363876Y-79827366D01*
X87349558Y-79829490D01*
X87335100Y-79830200D01*
X86990100Y-79830200D01*
X86975642Y-79829490D01*
X86961324Y-79827366D01*
X86947283Y-79823849D01*
X86933654Y-79818972D01*
X86920569Y-79812783D01*
X86908153Y-79805342D01*
X86896527Y-79796719D01*
X86885802Y-79786998D01*
X86876081Y-79776273D01*
X86867458Y-79764647D01*
X86860017Y-79752231D01*
X86853828Y-79739146D01*
X86848951Y-79725517D01*
X86845434Y-79711476D01*
X86843310Y-79697158D01*
X86842600Y-79682700D01*
X86842600Y-79387700D01*
X86843310Y-79373242D01*
X86845434Y-79358924D01*
X86848951Y-79344883D01*
X86853828Y-79331254D01*
X86860017Y-79318169D01*
X86867458Y-79305753D01*
X86876081Y-79294127D01*
X86885802Y-79283402D01*
X86896527Y-79273681D01*
X86908153Y-79265058D01*
X86920569Y-79257617D01*
X86933654Y-79251428D01*
X86947283Y-79246551D01*
X86961324Y-79243034D01*
X86975642Y-79240910D01*
X86990100Y-79240200D01*
X87335100Y-79240200D01*
X87349558Y-79240910D01*
X87349558Y-79240910D01*
G37*
D11*
X87162600Y-79535200D03*
D10*
G36*
X88368658Y-75230510D02*
G01*
X88382976Y-75232634D01*
X88397017Y-75236151D01*
X88410646Y-75241028D01*
X88423731Y-75247217D01*
X88436147Y-75254658D01*
X88447773Y-75263281D01*
X88458498Y-75273002D01*
X88468219Y-75283727D01*
X88476842Y-75295353D01*
X88484283Y-75307769D01*
X88490472Y-75320854D01*
X88495349Y-75334483D01*
X88498866Y-75348524D01*
X88500990Y-75362842D01*
X88501700Y-75377300D01*
X88501700Y-75722300D01*
X88500990Y-75736758D01*
X88498866Y-75751076D01*
X88495349Y-75765117D01*
X88490472Y-75778746D01*
X88484283Y-75791831D01*
X88476842Y-75804247D01*
X88468219Y-75815873D01*
X88458498Y-75826598D01*
X88447773Y-75836319D01*
X88436147Y-75844942D01*
X88423731Y-75852383D01*
X88410646Y-75858572D01*
X88397017Y-75863449D01*
X88382976Y-75866966D01*
X88368658Y-75869090D01*
X88354200Y-75869800D01*
X88059200Y-75869800D01*
X88044742Y-75869090D01*
X88030424Y-75866966D01*
X88016383Y-75863449D01*
X88002754Y-75858572D01*
X87989669Y-75852383D01*
X87977253Y-75844942D01*
X87965627Y-75836319D01*
X87954902Y-75826598D01*
X87945181Y-75815873D01*
X87936558Y-75804247D01*
X87929117Y-75791831D01*
X87922928Y-75778746D01*
X87918051Y-75765117D01*
X87914534Y-75751076D01*
X87912410Y-75736758D01*
X87911700Y-75722300D01*
X87911700Y-75377300D01*
X87912410Y-75362842D01*
X87914534Y-75348524D01*
X87918051Y-75334483D01*
X87922928Y-75320854D01*
X87929117Y-75307769D01*
X87936558Y-75295353D01*
X87945181Y-75283727D01*
X87954902Y-75273002D01*
X87965627Y-75263281D01*
X87977253Y-75254658D01*
X87989669Y-75247217D01*
X88002754Y-75241028D01*
X88016383Y-75236151D01*
X88030424Y-75232634D01*
X88044742Y-75230510D01*
X88059200Y-75229800D01*
X88354200Y-75229800D01*
X88368658Y-75230510D01*
X88368658Y-75230510D01*
G37*
D11*
X88206700Y-75549800D03*
D10*
G36*
X89338658Y-75230510D02*
G01*
X89352976Y-75232634D01*
X89367017Y-75236151D01*
X89380646Y-75241028D01*
X89393731Y-75247217D01*
X89406147Y-75254658D01*
X89417773Y-75263281D01*
X89428498Y-75273002D01*
X89438219Y-75283727D01*
X89446842Y-75295353D01*
X89454283Y-75307769D01*
X89460472Y-75320854D01*
X89465349Y-75334483D01*
X89468866Y-75348524D01*
X89470990Y-75362842D01*
X89471700Y-75377300D01*
X89471700Y-75722300D01*
X89470990Y-75736758D01*
X89468866Y-75751076D01*
X89465349Y-75765117D01*
X89460472Y-75778746D01*
X89454283Y-75791831D01*
X89446842Y-75804247D01*
X89438219Y-75815873D01*
X89428498Y-75826598D01*
X89417773Y-75836319D01*
X89406147Y-75844942D01*
X89393731Y-75852383D01*
X89380646Y-75858572D01*
X89367017Y-75863449D01*
X89352976Y-75866966D01*
X89338658Y-75869090D01*
X89324200Y-75869800D01*
X89029200Y-75869800D01*
X89014742Y-75869090D01*
X89000424Y-75866966D01*
X88986383Y-75863449D01*
X88972754Y-75858572D01*
X88959669Y-75852383D01*
X88947253Y-75844942D01*
X88935627Y-75836319D01*
X88924902Y-75826598D01*
X88915181Y-75815873D01*
X88906558Y-75804247D01*
X88899117Y-75791831D01*
X88892928Y-75778746D01*
X88888051Y-75765117D01*
X88884534Y-75751076D01*
X88882410Y-75736758D01*
X88881700Y-75722300D01*
X88881700Y-75377300D01*
X88882410Y-75362842D01*
X88884534Y-75348524D01*
X88888051Y-75334483D01*
X88892928Y-75320854D01*
X88899117Y-75307769D01*
X88906558Y-75295353D01*
X88915181Y-75283727D01*
X88924902Y-75273002D01*
X88935627Y-75263281D01*
X88947253Y-75254658D01*
X88959669Y-75247217D01*
X88972754Y-75241028D01*
X88986383Y-75236151D01*
X89000424Y-75232634D01*
X89014742Y-75230510D01*
X89029200Y-75229800D01*
X89324200Y-75229800D01*
X89338658Y-75230510D01*
X89338658Y-75230510D01*
G37*
D11*
X89176700Y-75549800D03*
D10*
G36*
X94551058Y-72583810D02*
G01*
X94565376Y-72585934D01*
X94579417Y-72589451D01*
X94593046Y-72594328D01*
X94606131Y-72600517D01*
X94618547Y-72607958D01*
X94630173Y-72616581D01*
X94640898Y-72626302D01*
X94650619Y-72637027D01*
X94659242Y-72648653D01*
X94666683Y-72661069D01*
X94672872Y-72674154D01*
X94677749Y-72687783D01*
X94681266Y-72701824D01*
X94683390Y-72716142D01*
X94684100Y-72730600D01*
X94684100Y-73075600D01*
X94683390Y-73090058D01*
X94681266Y-73104376D01*
X94677749Y-73118417D01*
X94672872Y-73132046D01*
X94666683Y-73145131D01*
X94659242Y-73157547D01*
X94650619Y-73169173D01*
X94640898Y-73179898D01*
X94630173Y-73189619D01*
X94618547Y-73198242D01*
X94606131Y-73205683D01*
X94593046Y-73211872D01*
X94579417Y-73216749D01*
X94565376Y-73220266D01*
X94551058Y-73222390D01*
X94536600Y-73223100D01*
X94241600Y-73223100D01*
X94227142Y-73222390D01*
X94212824Y-73220266D01*
X94198783Y-73216749D01*
X94185154Y-73211872D01*
X94172069Y-73205683D01*
X94159653Y-73198242D01*
X94148027Y-73189619D01*
X94137302Y-73179898D01*
X94127581Y-73169173D01*
X94118958Y-73157547D01*
X94111517Y-73145131D01*
X94105328Y-73132046D01*
X94100451Y-73118417D01*
X94096934Y-73104376D01*
X94094810Y-73090058D01*
X94094100Y-73075600D01*
X94094100Y-72730600D01*
X94094810Y-72716142D01*
X94096934Y-72701824D01*
X94100451Y-72687783D01*
X94105328Y-72674154D01*
X94111517Y-72661069D01*
X94118958Y-72648653D01*
X94127581Y-72637027D01*
X94137302Y-72626302D01*
X94148027Y-72616581D01*
X94159653Y-72607958D01*
X94172069Y-72600517D01*
X94185154Y-72594328D01*
X94198783Y-72589451D01*
X94212824Y-72585934D01*
X94227142Y-72583810D01*
X94241600Y-72583100D01*
X94536600Y-72583100D01*
X94551058Y-72583810D01*
X94551058Y-72583810D01*
G37*
D11*
X94389100Y-72903100D03*
D10*
G36*
X95521058Y-72583810D02*
G01*
X95535376Y-72585934D01*
X95549417Y-72589451D01*
X95563046Y-72594328D01*
X95576131Y-72600517D01*
X95588547Y-72607958D01*
X95600173Y-72616581D01*
X95610898Y-72626302D01*
X95620619Y-72637027D01*
X95629242Y-72648653D01*
X95636683Y-72661069D01*
X95642872Y-72674154D01*
X95647749Y-72687783D01*
X95651266Y-72701824D01*
X95653390Y-72716142D01*
X95654100Y-72730600D01*
X95654100Y-73075600D01*
X95653390Y-73090058D01*
X95651266Y-73104376D01*
X95647749Y-73118417D01*
X95642872Y-73132046D01*
X95636683Y-73145131D01*
X95629242Y-73157547D01*
X95620619Y-73169173D01*
X95610898Y-73179898D01*
X95600173Y-73189619D01*
X95588547Y-73198242D01*
X95576131Y-73205683D01*
X95563046Y-73211872D01*
X95549417Y-73216749D01*
X95535376Y-73220266D01*
X95521058Y-73222390D01*
X95506600Y-73223100D01*
X95211600Y-73223100D01*
X95197142Y-73222390D01*
X95182824Y-73220266D01*
X95168783Y-73216749D01*
X95155154Y-73211872D01*
X95142069Y-73205683D01*
X95129653Y-73198242D01*
X95118027Y-73189619D01*
X95107302Y-73179898D01*
X95097581Y-73169173D01*
X95088958Y-73157547D01*
X95081517Y-73145131D01*
X95075328Y-73132046D01*
X95070451Y-73118417D01*
X95066934Y-73104376D01*
X95064810Y-73090058D01*
X95064100Y-73075600D01*
X95064100Y-72730600D01*
X95064810Y-72716142D01*
X95066934Y-72701824D01*
X95070451Y-72687783D01*
X95075328Y-72674154D01*
X95081517Y-72661069D01*
X95088958Y-72648653D01*
X95097581Y-72637027D01*
X95107302Y-72626302D01*
X95118027Y-72616581D01*
X95129653Y-72607958D01*
X95142069Y-72600517D01*
X95155154Y-72594328D01*
X95168783Y-72589451D01*
X95182824Y-72585934D01*
X95197142Y-72583810D01*
X95211600Y-72583100D01*
X95506600Y-72583100D01*
X95521058Y-72583810D01*
X95521058Y-72583810D01*
G37*
D11*
X95359100Y-72903100D03*
D20*
X83665100Y-87493200D03*
X83665100Y-93893200D03*
D21*
X78973600Y-54823300D03*
X84423600Y-54823300D03*
X78973600Y-45923300D03*
X84423600Y-45923300D03*
D22*
X84523600Y-51973300D03*
X84523600Y-51173300D03*
X84523600Y-50373300D03*
X84523600Y-49573300D03*
X84523600Y-48773300D03*
D23*
X83666100Y-84927400D03*
X86966100Y-84927400D03*
D10*
G36*
X79607658Y-72733110D02*
G01*
X79621976Y-72735234D01*
X79636017Y-72738751D01*
X79649646Y-72743628D01*
X79662731Y-72749817D01*
X79675147Y-72757258D01*
X79686773Y-72765881D01*
X79697498Y-72775602D01*
X79707219Y-72786327D01*
X79715842Y-72797953D01*
X79723283Y-72810369D01*
X79729472Y-72823454D01*
X79734349Y-72837083D01*
X79737866Y-72851124D01*
X79739990Y-72865442D01*
X79740700Y-72879900D01*
X79740700Y-73174900D01*
X79739990Y-73189358D01*
X79737866Y-73203676D01*
X79734349Y-73217717D01*
X79729472Y-73231346D01*
X79723283Y-73244431D01*
X79715842Y-73256847D01*
X79707219Y-73268473D01*
X79697498Y-73279198D01*
X79686773Y-73288919D01*
X79675147Y-73297542D01*
X79662731Y-73304983D01*
X79649646Y-73311172D01*
X79636017Y-73316049D01*
X79621976Y-73319566D01*
X79607658Y-73321690D01*
X79593200Y-73322400D01*
X79248200Y-73322400D01*
X79233742Y-73321690D01*
X79219424Y-73319566D01*
X79205383Y-73316049D01*
X79191754Y-73311172D01*
X79178669Y-73304983D01*
X79166253Y-73297542D01*
X79154627Y-73288919D01*
X79143902Y-73279198D01*
X79134181Y-73268473D01*
X79125558Y-73256847D01*
X79118117Y-73244431D01*
X79111928Y-73231346D01*
X79107051Y-73217717D01*
X79103534Y-73203676D01*
X79101410Y-73189358D01*
X79100700Y-73174900D01*
X79100700Y-72879900D01*
X79101410Y-72865442D01*
X79103534Y-72851124D01*
X79107051Y-72837083D01*
X79111928Y-72823454D01*
X79118117Y-72810369D01*
X79125558Y-72797953D01*
X79134181Y-72786327D01*
X79143902Y-72775602D01*
X79154627Y-72765881D01*
X79166253Y-72757258D01*
X79178669Y-72749817D01*
X79191754Y-72743628D01*
X79205383Y-72738751D01*
X79219424Y-72735234D01*
X79233742Y-72733110D01*
X79248200Y-72732400D01*
X79593200Y-72732400D01*
X79607658Y-72733110D01*
X79607658Y-72733110D01*
G37*
D11*
X79420700Y-73027400D03*
D10*
G36*
X79607658Y-71763110D02*
G01*
X79621976Y-71765234D01*
X79636017Y-71768751D01*
X79649646Y-71773628D01*
X79662731Y-71779817D01*
X79675147Y-71787258D01*
X79686773Y-71795881D01*
X79697498Y-71805602D01*
X79707219Y-71816327D01*
X79715842Y-71827953D01*
X79723283Y-71840369D01*
X79729472Y-71853454D01*
X79734349Y-71867083D01*
X79737866Y-71881124D01*
X79739990Y-71895442D01*
X79740700Y-71909900D01*
X79740700Y-72204900D01*
X79739990Y-72219358D01*
X79737866Y-72233676D01*
X79734349Y-72247717D01*
X79729472Y-72261346D01*
X79723283Y-72274431D01*
X79715842Y-72286847D01*
X79707219Y-72298473D01*
X79697498Y-72309198D01*
X79686773Y-72318919D01*
X79675147Y-72327542D01*
X79662731Y-72334983D01*
X79649646Y-72341172D01*
X79636017Y-72346049D01*
X79621976Y-72349566D01*
X79607658Y-72351690D01*
X79593200Y-72352400D01*
X79248200Y-72352400D01*
X79233742Y-72351690D01*
X79219424Y-72349566D01*
X79205383Y-72346049D01*
X79191754Y-72341172D01*
X79178669Y-72334983D01*
X79166253Y-72327542D01*
X79154627Y-72318919D01*
X79143902Y-72309198D01*
X79134181Y-72298473D01*
X79125558Y-72286847D01*
X79118117Y-72274431D01*
X79111928Y-72261346D01*
X79107051Y-72247717D01*
X79103534Y-72233676D01*
X79101410Y-72219358D01*
X79100700Y-72204900D01*
X79100700Y-71909900D01*
X79101410Y-71895442D01*
X79103534Y-71881124D01*
X79107051Y-71867083D01*
X79111928Y-71853454D01*
X79118117Y-71840369D01*
X79125558Y-71827953D01*
X79134181Y-71816327D01*
X79143902Y-71805602D01*
X79154627Y-71795881D01*
X79166253Y-71787258D01*
X79178669Y-71779817D01*
X79191754Y-71773628D01*
X79205383Y-71768751D01*
X79219424Y-71765234D01*
X79233742Y-71763110D01*
X79248200Y-71762400D01*
X79593200Y-71762400D01*
X79607658Y-71763110D01*
X79607658Y-71763110D01*
G37*
D11*
X79420700Y-72057400D03*
D10*
G36*
X89364942Y-86303374D02*
G01*
X89388603Y-86306884D01*
X89411807Y-86312696D01*
X89434329Y-86320754D01*
X89455953Y-86330982D01*
X89476470Y-86343279D01*
X89495683Y-86357529D01*
X89513407Y-86373593D01*
X89529471Y-86391317D01*
X89543721Y-86410530D01*
X89556018Y-86431047D01*
X89566246Y-86452671D01*
X89574304Y-86475193D01*
X89580116Y-86498397D01*
X89583626Y-86522058D01*
X89584800Y-86545950D01*
X89584800Y-87033450D01*
X89583626Y-87057342D01*
X89580116Y-87081003D01*
X89574304Y-87104207D01*
X89566246Y-87126729D01*
X89556018Y-87148353D01*
X89543721Y-87168870D01*
X89529471Y-87188083D01*
X89513407Y-87205807D01*
X89495683Y-87221871D01*
X89476470Y-87236121D01*
X89455953Y-87248418D01*
X89434329Y-87258646D01*
X89411807Y-87266704D01*
X89388603Y-87272516D01*
X89364942Y-87276026D01*
X89341050Y-87277200D01*
X88428550Y-87277200D01*
X88404658Y-87276026D01*
X88380997Y-87272516D01*
X88357793Y-87266704D01*
X88335271Y-87258646D01*
X88313647Y-87248418D01*
X88293130Y-87236121D01*
X88273917Y-87221871D01*
X88256193Y-87205807D01*
X88240129Y-87188083D01*
X88225879Y-87168870D01*
X88213582Y-87148353D01*
X88203354Y-87126729D01*
X88195296Y-87104207D01*
X88189484Y-87081003D01*
X88185974Y-87057342D01*
X88184800Y-87033450D01*
X88184800Y-86545950D01*
X88185974Y-86522058D01*
X88189484Y-86498397D01*
X88195296Y-86475193D01*
X88203354Y-86452671D01*
X88213582Y-86431047D01*
X88225879Y-86410530D01*
X88240129Y-86391317D01*
X88256193Y-86373593D01*
X88273917Y-86357529D01*
X88293130Y-86343279D01*
X88313647Y-86330982D01*
X88335271Y-86320754D01*
X88357793Y-86312696D01*
X88380997Y-86306884D01*
X88404658Y-86303374D01*
X88428550Y-86302200D01*
X89341050Y-86302200D01*
X89364942Y-86303374D01*
X89364942Y-86303374D01*
G37*
D19*
X88884800Y-86789700D03*
D10*
G36*
X89364942Y-84428374D02*
G01*
X89388603Y-84431884D01*
X89411807Y-84437696D01*
X89434329Y-84445754D01*
X89455953Y-84455982D01*
X89476470Y-84468279D01*
X89495683Y-84482529D01*
X89513407Y-84498593D01*
X89529471Y-84516317D01*
X89543721Y-84535530D01*
X89556018Y-84556047D01*
X89566246Y-84577671D01*
X89574304Y-84600193D01*
X89580116Y-84623397D01*
X89583626Y-84647058D01*
X89584800Y-84670950D01*
X89584800Y-85158450D01*
X89583626Y-85182342D01*
X89580116Y-85206003D01*
X89574304Y-85229207D01*
X89566246Y-85251729D01*
X89556018Y-85273353D01*
X89543721Y-85293870D01*
X89529471Y-85313083D01*
X89513407Y-85330807D01*
X89495683Y-85346871D01*
X89476470Y-85361121D01*
X89455953Y-85373418D01*
X89434329Y-85383646D01*
X89411807Y-85391704D01*
X89388603Y-85397516D01*
X89364942Y-85401026D01*
X89341050Y-85402200D01*
X88428550Y-85402200D01*
X88404658Y-85401026D01*
X88380997Y-85397516D01*
X88357793Y-85391704D01*
X88335271Y-85383646D01*
X88313647Y-85373418D01*
X88293130Y-85361121D01*
X88273917Y-85346871D01*
X88256193Y-85330807D01*
X88240129Y-85313083D01*
X88225879Y-85293870D01*
X88213582Y-85273353D01*
X88203354Y-85251729D01*
X88195296Y-85229207D01*
X88189484Y-85206003D01*
X88185974Y-85182342D01*
X88184800Y-85158450D01*
X88184800Y-84670950D01*
X88185974Y-84647058D01*
X88189484Y-84623397D01*
X88195296Y-84600193D01*
X88203354Y-84577671D01*
X88213582Y-84556047D01*
X88225879Y-84535530D01*
X88240129Y-84516317D01*
X88256193Y-84498593D01*
X88273917Y-84482529D01*
X88293130Y-84468279D01*
X88313647Y-84455982D01*
X88335271Y-84445754D01*
X88357793Y-84437696D01*
X88380997Y-84431884D01*
X88404658Y-84428374D01*
X88428550Y-84427200D01*
X89341050Y-84427200D01*
X89364942Y-84428374D01*
X89364942Y-84428374D01*
G37*
D19*
X88884800Y-84914700D03*
D10*
G36*
X91017042Y-94604474D02*
G01*
X91040703Y-94607984D01*
X91063907Y-94613796D01*
X91086429Y-94621854D01*
X91108053Y-94632082D01*
X91128570Y-94644379D01*
X91147783Y-94658629D01*
X91165507Y-94674693D01*
X91181571Y-94692417D01*
X91195821Y-94711630D01*
X91208118Y-94732147D01*
X91218346Y-94753771D01*
X91226404Y-94776293D01*
X91232216Y-94799497D01*
X91235726Y-94823158D01*
X91236900Y-94847050D01*
X91236900Y-95759550D01*
X91235726Y-95783442D01*
X91232216Y-95807103D01*
X91226404Y-95830307D01*
X91218346Y-95852829D01*
X91208118Y-95874453D01*
X91195821Y-95894970D01*
X91181571Y-95914183D01*
X91165507Y-95931907D01*
X91147783Y-95947971D01*
X91128570Y-95962221D01*
X91108053Y-95974518D01*
X91086429Y-95984746D01*
X91063907Y-95992804D01*
X91040703Y-95998616D01*
X91017042Y-96002126D01*
X90993150Y-96003300D01*
X90505650Y-96003300D01*
X90481758Y-96002126D01*
X90458097Y-95998616D01*
X90434893Y-95992804D01*
X90412371Y-95984746D01*
X90390747Y-95974518D01*
X90370230Y-95962221D01*
X90351017Y-95947971D01*
X90333293Y-95931907D01*
X90317229Y-95914183D01*
X90302979Y-95894970D01*
X90290682Y-95874453D01*
X90280454Y-95852829D01*
X90272396Y-95830307D01*
X90266584Y-95807103D01*
X90263074Y-95783442D01*
X90261900Y-95759550D01*
X90261900Y-94847050D01*
X90263074Y-94823158D01*
X90266584Y-94799497D01*
X90272396Y-94776293D01*
X90280454Y-94753771D01*
X90290682Y-94732147D01*
X90302979Y-94711630D01*
X90317229Y-94692417D01*
X90333293Y-94674693D01*
X90351017Y-94658629D01*
X90370230Y-94644379D01*
X90390747Y-94632082D01*
X90412371Y-94621854D01*
X90434893Y-94613796D01*
X90458097Y-94607984D01*
X90481758Y-94604474D01*
X90505650Y-94603300D01*
X90993150Y-94603300D01*
X91017042Y-94604474D01*
X91017042Y-94604474D01*
G37*
D19*
X90749400Y-95303300D03*
D10*
G36*
X89142042Y-94604474D02*
G01*
X89165703Y-94607984D01*
X89188907Y-94613796D01*
X89211429Y-94621854D01*
X89233053Y-94632082D01*
X89253570Y-94644379D01*
X89272783Y-94658629D01*
X89290507Y-94674693D01*
X89306571Y-94692417D01*
X89320821Y-94711630D01*
X89333118Y-94732147D01*
X89343346Y-94753771D01*
X89351404Y-94776293D01*
X89357216Y-94799497D01*
X89360726Y-94823158D01*
X89361900Y-94847050D01*
X89361900Y-95759550D01*
X89360726Y-95783442D01*
X89357216Y-95807103D01*
X89351404Y-95830307D01*
X89343346Y-95852829D01*
X89333118Y-95874453D01*
X89320821Y-95894970D01*
X89306571Y-95914183D01*
X89290507Y-95931907D01*
X89272783Y-95947971D01*
X89253570Y-95962221D01*
X89233053Y-95974518D01*
X89211429Y-95984746D01*
X89188907Y-95992804D01*
X89165703Y-95998616D01*
X89142042Y-96002126D01*
X89118150Y-96003300D01*
X88630650Y-96003300D01*
X88606758Y-96002126D01*
X88583097Y-95998616D01*
X88559893Y-95992804D01*
X88537371Y-95984746D01*
X88515747Y-95974518D01*
X88495230Y-95962221D01*
X88476017Y-95947971D01*
X88458293Y-95931907D01*
X88442229Y-95914183D01*
X88427979Y-95894970D01*
X88415682Y-95874453D01*
X88405454Y-95852829D01*
X88397396Y-95830307D01*
X88391584Y-95807103D01*
X88388074Y-95783442D01*
X88386900Y-95759550D01*
X88386900Y-94847050D01*
X88388074Y-94823158D01*
X88391584Y-94799497D01*
X88397396Y-94776293D01*
X88405454Y-94753771D01*
X88415682Y-94732147D01*
X88427979Y-94711630D01*
X88442229Y-94692417D01*
X88458293Y-94674693D01*
X88476017Y-94658629D01*
X88495230Y-94644379D01*
X88515747Y-94632082D01*
X88537371Y-94621854D01*
X88559893Y-94613796D01*
X88583097Y-94607984D01*
X88606758Y-94604474D01*
X88630650Y-94603300D01*
X89118150Y-94603300D01*
X89142042Y-94604474D01*
X89142042Y-94604474D01*
G37*
D19*
X88874400Y-95303300D03*
D10*
G36*
X90111158Y-57176110D02*
G01*
X90125476Y-57178234D01*
X90139517Y-57181751D01*
X90153146Y-57186628D01*
X90166231Y-57192817D01*
X90178647Y-57200258D01*
X90190273Y-57208881D01*
X90200998Y-57218602D01*
X90210719Y-57229327D01*
X90219342Y-57240953D01*
X90226783Y-57253369D01*
X90232972Y-57266454D01*
X90237849Y-57280083D01*
X90241366Y-57294124D01*
X90243490Y-57308442D01*
X90244200Y-57322900D01*
X90244200Y-57667900D01*
X90243490Y-57682358D01*
X90241366Y-57696676D01*
X90237849Y-57710717D01*
X90232972Y-57724346D01*
X90226783Y-57737431D01*
X90219342Y-57749847D01*
X90210719Y-57761473D01*
X90200998Y-57772198D01*
X90190273Y-57781919D01*
X90178647Y-57790542D01*
X90166231Y-57797983D01*
X90153146Y-57804172D01*
X90139517Y-57809049D01*
X90125476Y-57812566D01*
X90111158Y-57814690D01*
X90096700Y-57815400D01*
X89801700Y-57815400D01*
X89787242Y-57814690D01*
X89772924Y-57812566D01*
X89758883Y-57809049D01*
X89745254Y-57804172D01*
X89732169Y-57797983D01*
X89719753Y-57790542D01*
X89708127Y-57781919D01*
X89697402Y-57772198D01*
X89687681Y-57761473D01*
X89679058Y-57749847D01*
X89671617Y-57737431D01*
X89665428Y-57724346D01*
X89660551Y-57710717D01*
X89657034Y-57696676D01*
X89654910Y-57682358D01*
X89654200Y-57667900D01*
X89654200Y-57322900D01*
X89654910Y-57308442D01*
X89657034Y-57294124D01*
X89660551Y-57280083D01*
X89665428Y-57266454D01*
X89671617Y-57253369D01*
X89679058Y-57240953D01*
X89687681Y-57229327D01*
X89697402Y-57218602D01*
X89708127Y-57208881D01*
X89719753Y-57200258D01*
X89732169Y-57192817D01*
X89745254Y-57186628D01*
X89758883Y-57181751D01*
X89772924Y-57178234D01*
X89787242Y-57176110D01*
X89801700Y-57175400D01*
X90096700Y-57175400D01*
X90111158Y-57176110D01*
X90111158Y-57176110D01*
G37*
D11*
X89949200Y-57495400D03*
D10*
G36*
X91081158Y-57176110D02*
G01*
X91095476Y-57178234D01*
X91109517Y-57181751D01*
X91123146Y-57186628D01*
X91136231Y-57192817D01*
X91148647Y-57200258D01*
X91160273Y-57208881D01*
X91170998Y-57218602D01*
X91180719Y-57229327D01*
X91189342Y-57240953D01*
X91196783Y-57253369D01*
X91202972Y-57266454D01*
X91207849Y-57280083D01*
X91211366Y-57294124D01*
X91213490Y-57308442D01*
X91214200Y-57322900D01*
X91214200Y-57667900D01*
X91213490Y-57682358D01*
X91211366Y-57696676D01*
X91207849Y-57710717D01*
X91202972Y-57724346D01*
X91196783Y-57737431D01*
X91189342Y-57749847D01*
X91180719Y-57761473D01*
X91170998Y-57772198D01*
X91160273Y-57781919D01*
X91148647Y-57790542D01*
X91136231Y-57797983D01*
X91123146Y-57804172D01*
X91109517Y-57809049D01*
X91095476Y-57812566D01*
X91081158Y-57814690D01*
X91066700Y-57815400D01*
X90771700Y-57815400D01*
X90757242Y-57814690D01*
X90742924Y-57812566D01*
X90728883Y-57809049D01*
X90715254Y-57804172D01*
X90702169Y-57797983D01*
X90689753Y-57790542D01*
X90678127Y-57781919D01*
X90667402Y-57772198D01*
X90657681Y-57761473D01*
X90649058Y-57749847D01*
X90641617Y-57737431D01*
X90635428Y-57724346D01*
X90630551Y-57710717D01*
X90627034Y-57696676D01*
X90624910Y-57682358D01*
X90624200Y-57667900D01*
X90624200Y-57322900D01*
X90624910Y-57308442D01*
X90627034Y-57294124D01*
X90630551Y-57280083D01*
X90635428Y-57266454D01*
X90641617Y-57253369D01*
X90649058Y-57240953D01*
X90657681Y-57229327D01*
X90667402Y-57218602D01*
X90678127Y-57208881D01*
X90689753Y-57200258D01*
X90702169Y-57192817D01*
X90715254Y-57186628D01*
X90728883Y-57181751D01*
X90742924Y-57178234D01*
X90757242Y-57176110D01*
X90771700Y-57175400D01*
X91066700Y-57175400D01*
X91081158Y-57176110D01*
X91081158Y-57176110D01*
G37*
D11*
X90919200Y-57495400D03*
D10*
G36*
X90529658Y-71554510D02*
G01*
X90543976Y-71556634D01*
X90558017Y-71560151D01*
X90571646Y-71565028D01*
X90584731Y-71571217D01*
X90597147Y-71578658D01*
X90608773Y-71587281D01*
X90619498Y-71597002D01*
X90629219Y-71607727D01*
X90637842Y-71619353D01*
X90645283Y-71631769D01*
X90651472Y-71644854D01*
X90656349Y-71658483D01*
X90659866Y-71672524D01*
X90661990Y-71686842D01*
X90662700Y-71701300D01*
X90662700Y-71996300D01*
X90661990Y-72010758D01*
X90659866Y-72025076D01*
X90656349Y-72039117D01*
X90651472Y-72052746D01*
X90645283Y-72065831D01*
X90637842Y-72078247D01*
X90629219Y-72089873D01*
X90619498Y-72100598D01*
X90608773Y-72110319D01*
X90597147Y-72118942D01*
X90584731Y-72126383D01*
X90571646Y-72132572D01*
X90558017Y-72137449D01*
X90543976Y-72140966D01*
X90529658Y-72143090D01*
X90515200Y-72143800D01*
X90170200Y-72143800D01*
X90155742Y-72143090D01*
X90141424Y-72140966D01*
X90127383Y-72137449D01*
X90113754Y-72132572D01*
X90100669Y-72126383D01*
X90088253Y-72118942D01*
X90076627Y-72110319D01*
X90065902Y-72100598D01*
X90056181Y-72089873D01*
X90047558Y-72078247D01*
X90040117Y-72065831D01*
X90033928Y-72052746D01*
X90029051Y-72039117D01*
X90025534Y-72025076D01*
X90023410Y-72010758D01*
X90022700Y-71996300D01*
X90022700Y-71701300D01*
X90023410Y-71686842D01*
X90025534Y-71672524D01*
X90029051Y-71658483D01*
X90033928Y-71644854D01*
X90040117Y-71631769D01*
X90047558Y-71619353D01*
X90056181Y-71607727D01*
X90065902Y-71597002D01*
X90076627Y-71587281D01*
X90088253Y-71578658D01*
X90100669Y-71571217D01*
X90113754Y-71565028D01*
X90127383Y-71560151D01*
X90141424Y-71556634D01*
X90155742Y-71554510D01*
X90170200Y-71553800D01*
X90515200Y-71553800D01*
X90529658Y-71554510D01*
X90529658Y-71554510D01*
G37*
D11*
X90342700Y-71848800D03*
D10*
G36*
X90529658Y-70584510D02*
G01*
X90543976Y-70586634D01*
X90558017Y-70590151D01*
X90571646Y-70595028D01*
X90584731Y-70601217D01*
X90597147Y-70608658D01*
X90608773Y-70617281D01*
X90619498Y-70627002D01*
X90629219Y-70637727D01*
X90637842Y-70649353D01*
X90645283Y-70661769D01*
X90651472Y-70674854D01*
X90656349Y-70688483D01*
X90659866Y-70702524D01*
X90661990Y-70716842D01*
X90662700Y-70731300D01*
X90662700Y-71026300D01*
X90661990Y-71040758D01*
X90659866Y-71055076D01*
X90656349Y-71069117D01*
X90651472Y-71082746D01*
X90645283Y-71095831D01*
X90637842Y-71108247D01*
X90629219Y-71119873D01*
X90619498Y-71130598D01*
X90608773Y-71140319D01*
X90597147Y-71148942D01*
X90584731Y-71156383D01*
X90571646Y-71162572D01*
X90558017Y-71167449D01*
X90543976Y-71170966D01*
X90529658Y-71173090D01*
X90515200Y-71173800D01*
X90170200Y-71173800D01*
X90155742Y-71173090D01*
X90141424Y-71170966D01*
X90127383Y-71167449D01*
X90113754Y-71162572D01*
X90100669Y-71156383D01*
X90088253Y-71148942D01*
X90076627Y-71140319D01*
X90065902Y-71130598D01*
X90056181Y-71119873D01*
X90047558Y-71108247D01*
X90040117Y-71095831D01*
X90033928Y-71082746D01*
X90029051Y-71069117D01*
X90025534Y-71055076D01*
X90023410Y-71040758D01*
X90022700Y-71026300D01*
X90022700Y-70731300D01*
X90023410Y-70716842D01*
X90025534Y-70702524D01*
X90029051Y-70688483D01*
X90033928Y-70674854D01*
X90040117Y-70661769D01*
X90047558Y-70649353D01*
X90056181Y-70637727D01*
X90065902Y-70627002D01*
X90076627Y-70617281D01*
X90088253Y-70608658D01*
X90100669Y-70601217D01*
X90113754Y-70595028D01*
X90127383Y-70590151D01*
X90141424Y-70586634D01*
X90155742Y-70584510D01*
X90170200Y-70583800D01*
X90515200Y-70583800D01*
X90529658Y-70584510D01*
X90529658Y-70584510D01*
G37*
D11*
X90342700Y-70878800D03*
D10*
G36*
X82427058Y-71541810D02*
G01*
X82441376Y-71543934D01*
X82455417Y-71547451D01*
X82469046Y-71552328D01*
X82482131Y-71558517D01*
X82494547Y-71565958D01*
X82506173Y-71574581D01*
X82516898Y-71584302D01*
X82526619Y-71595027D01*
X82535242Y-71606653D01*
X82542683Y-71619069D01*
X82548872Y-71632154D01*
X82553749Y-71645783D01*
X82557266Y-71659824D01*
X82559390Y-71674142D01*
X82560100Y-71688600D01*
X82560100Y-71983600D01*
X82559390Y-71998058D01*
X82557266Y-72012376D01*
X82553749Y-72026417D01*
X82548872Y-72040046D01*
X82542683Y-72053131D01*
X82535242Y-72065547D01*
X82526619Y-72077173D01*
X82516898Y-72087898D01*
X82506173Y-72097619D01*
X82494547Y-72106242D01*
X82482131Y-72113683D01*
X82469046Y-72119872D01*
X82455417Y-72124749D01*
X82441376Y-72128266D01*
X82427058Y-72130390D01*
X82412600Y-72131100D01*
X82067600Y-72131100D01*
X82053142Y-72130390D01*
X82038824Y-72128266D01*
X82024783Y-72124749D01*
X82011154Y-72119872D01*
X81998069Y-72113683D01*
X81985653Y-72106242D01*
X81974027Y-72097619D01*
X81963302Y-72087898D01*
X81953581Y-72077173D01*
X81944958Y-72065547D01*
X81937517Y-72053131D01*
X81931328Y-72040046D01*
X81926451Y-72026417D01*
X81922934Y-72012376D01*
X81920810Y-71998058D01*
X81920100Y-71983600D01*
X81920100Y-71688600D01*
X81920810Y-71674142D01*
X81922934Y-71659824D01*
X81926451Y-71645783D01*
X81931328Y-71632154D01*
X81937517Y-71619069D01*
X81944958Y-71606653D01*
X81953581Y-71595027D01*
X81963302Y-71584302D01*
X81974027Y-71574581D01*
X81985653Y-71565958D01*
X81998069Y-71558517D01*
X82011154Y-71552328D01*
X82024783Y-71547451D01*
X82038824Y-71543934D01*
X82053142Y-71541810D01*
X82067600Y-71541100D01*
X82412600Y-71541100D01*
X82427058Y-71541810D01*
X82427058Y-71541810D01*
G37*
D11*
X82240100Y-71836100D03*
D10*
G36*
X82427058Y-70571810D02*
G01*
X82441376Y-70573934D01*
X82455417Y-70577451D01*
X82469046Y-70582328D01*
X82482131Y-70588517D01*
X82494547Y-70595958D01*
X82506173Y-70604581D01*
X82516898Y-70614302D01*
X82526619Y-70625027D01*
X82535242Y-70636653D01*
X82542683Y-70649069D01*
X82548872Y-70662154D01*
X82553749Y-70675783D01*
X82557266Y-70689824D01*
X82559390Y-70704142D01*
X82560100Y-70718600D01*
X82560100Y-71013600D01*
X82559390Y-71028058D01*
X82557266Y-71042376D01*
X82553749Y-71056417D01*
X82548872Y-71070046D01*
X82542683Y-71083131D01*
X82535242Y-71095547D01*
X82526619Y-71107173D01*
X82516898Y-71117898D01*
X82506173Y-71127619D01*
X82494547Y-71136242D01*
X82482131Y-71143683D01*
X82469046Y-71149872D01*
X82455417Y-71154749D01*
X82441376Y-71158266D01*
X82427058Y-71160390D01*
X82412600Y-71161100D01*
X82067600Y-71161100D01*
X82053142Y-71160390D01*
X82038824Y-71158266D01*
X82024783Y-71154749D01*
X82011154Y-71149872D01*
X81998069Y-71143683D01*
X81985653Y-71136242D01*
X81974027Y-71127619D01*
X81963302Y-71117898D01*
X81953581Y-71107173D01*
X81944958Y-71095547D01*
X81937517Y-71083131D01*
X81931328Y-71070046D01*
X81926451Y-71056417D01*
X81922934Y-71042376D01*
X81920810Y-71028058D01*
X81920100Y-71013600D01*
X81920100Y-70718600D01*
X81920810Y-70704142D01*
X81922934Y-70689824D01*
X81926451Y-70675783D01*
X81931328Y-70662154D01*
X81937517Y-70649069D01*
X81944958Y-70636653D01*
X81953581Y-70625027D01*
X81963302Y-70614302D01*
X81974027Y-70604581D01*
X81985653Y-70595958D01*
X81998069Y-70588517D01*
X82011154Y-70582328D01*
X82024783Y-70577451D01*
X82038824Y-70573934D01*
X82053142Y-70571810D01*
X82067600Y-70571100D01*
X82412600Y-70571100D01*
X82427058Y-70571810D01*
X82427058Y-70571810D01*
G37*
D11*
X82240100Y-70866100D03*
D10*
G36*
X87349558Y-77477810D02*
G01*
X87363876Y-77479934D01*
X87377917Y-77483451D01*
X87391546Y-77488328D01*
X87404631Y-77494517D01*
X87417047Y-77501958D01*
X87428673Y-77510581D01*
X87439398Y-77520302D01*
X87449119Y-77531027D01*
X87457742Y-77542653D01*
X87465183Y-77555069D01*
X87471372Y-77568154D01*
X87476249Y-77581783D01*
X87479766Y-77595824D01*
X87481890Y-77610142D01*
X87482600Y-77624600D01*
X87482600Y-77919600D01*
X87481890Y-77934058D01*
X87479766Y-77948376D01*
X87476249Y-77962417D01*
X87471372Y-77976046D01*
X87465183Y-77989131D01*
X87457742Y-78001547D01*
X87449119Y-78013173D01*
X87439398Y-78023898D01*
X87428673Y-78033619D01*
X87417047Y-78042242D01*
X87404631Y-78049683D01*
X87391546Y-78055872D01*
X87377917Y-78060749D01*
X87363876Y-78064266D01*
X87349558Y-78066390D01*
X87335100Y-78067100D01*
X86990100Y-78067100D01*
X86975642Y-78066390D01*
X86961324Y-78064266D01*
X86947283Y-78060749D01*
X86933654Y-78055872D01*
X86920569Y-78049683D01*
X86908153Y-78042242D01*
X86896527Y-78033619D01*
X86885802Y-78023898D01*
X86876081Y-78013173D01*
X86867458Y-78001547D01*
X86860017Y-77989131D01*
X86853828Y-77976046D01*
X86848951Y-77962417D01*
X86845434Y-77948376D01*
X86843310Y-77934058D01*
X86842600Y-77919600D01*
X86842600Y-77624600D01*
X86843310Y-77610142D01*
X86845434Y-77595824D01*
X86848951Y-77581783D01*
X86853828Y-77568154D01*
X86860017Y-77555069D01*
X86867458Y-77542653D01*
X86876081Y-77531027D01*
X86885802Y-77520302D01*
X86896527Y-77510581D01*
X86908153Y-77501958D01*
X86920569Y-77494517D01*
X86933654Y-77488328D01*
X86947283Y-77483451D01*
X86961324Y-77479934D01*
X86975642Y-77477810D01*
X86990100Y-77477100D01*
X87335100Y-77477100D01*
X87349558Y-77477810D01*
X87349558Y-77477810D01*
G37*
D11*
X87162600Y-77772100D03*
D10*
G36*
X87349558Y-76507810D02*
G01*
X87363876Y-76509934D01*
X87377917Y-76513451D01*
X87391546Y-76518328D01*
X87404631Y-76524517D01*
X87417047Y-76531958D01*
X87428673Y-76540581D01*
X87439398Y-76550302D01*
X87449119Y-76561027D01*
X87457742Y-76572653D01*
X87465183Y-76585069D01*
X87471372Y-76598154D01*
X87476249Y-76611783D01*
X87479766Y-76625824D01*
X87481890Y-76640142D01*
X87482600Y-76654600D01*
X87482600Y-76949600D01*
X87481890Y-76964058D01*
X87479766Y-76978376D01*
X87476249Y-76992417D01*
X87471372Y-77006046D01*
X87465183Y-77019131D01*
X87457742Y-77031547D01*
X87449119Y-77043173D01*
X87439398Y-77053898D01*
X87428673Y-77063619D01*
X87417047Y-77072242D01*
X87404631Y-77079683D01*
X87391546Y-77085872D01*
X87377917Y-77090749D01*
X87363876Y-77094266D01*
X87349558Y-77096390D01*
X87335100Y-77097100D01*
X86990100Y-77097100D01*
X86975642Y-77096390D01*
X86961324Y-77094266D01*
X86947283Y-77090749D01*
X86933654Y-77085872D01*
X86920569Y-77079683D01*
X86908153Y-77072242D01*
X86896527Y-77063619D01*
X86885802Y-77053898D01*
X86876081Y-77043173D01*
X86867458Y-77031547D01*
X86860017Y-77019131D01*
X86853828Y-77006046D01*
X86848951Y-76992417D01*
X86845434Y-76978376D01*
X86843310Y-76964058D01*
X86842600Y-76949600D01*
X86842600Y-76654600D01*
X86843310Y-76640142D01*
X86845434Y-76625824D01*
X86848951Y-76611783D01*
X86853828Y-76598154D01*
X86860017Y-76585069D01*
X86867458Y-76572653D01*
X86876081Y-76561027D01*
X86885802Y-76550302D01*
X86896527Y-76540581D01*
X86908153Y-76531958D01*
X86920569Y-76524517D01*
X86933654Y-76518328D01*
X86947283Y-76513451D01*
X86961324Y-76509934D01*
X86975642Y-76507810D01*
X86990100Y-76507100D01*
X87335100Y-76507100D01*
X87349558Y-76507810D01*
X87349558Y-76507810D01*
G37*
D11*
X87162600Y-76802100D03*
D10*
G36*
X83814458Y-57338710D02*
G01*
X83828776Y-57340834D01*
X83842817Y-57344351D01*
X83856446Y-57349228D01*
X83869531Y-57355417D01*
X83881947Y-57362858D01*
X83893573Y-57371481D01*
X83904298Y-57381202D01*
X83914019Y-57391927D01*
X83922642Y-57403553D01*
X83930083Y-57415969D01*
X83936272Y-57429054D01*
X83941149Y-57442683D01*
X83944666Y-57456724D01*
X83946790Y-57471042D01*
X83947500Y-57485500D01*
X83947500Y-57830500D01*
X83946790Y-57844958D01*
X83944666Y-57859276D01*
X83941149Y-57873317D01*
X83936272Y-57886946D01*
X83930083Y-57900031D01*
X83922642Y-57912447D01*
X83914019Y-57924073D01*
X83904298Y-57934798D01*
X83893573Y-57944519D01*
X83881947Y-57953142D01*
X83869531Y-57960583D01*
X83856446Y-57966772D01*
X83842817Y-57971649D01*
X83828776Y-57975166D01*
X83814458Y-57977290D01*
X83800000Y-57978000D01*
X83505000Y-57978000D01*
X83490542Y-57977290D01*
X83476224Y-57975166D01*
X83462183Y-57971649D01*
X83448554Y-57966772D01*
X83435469Y-57960583D01*
X83423053Y-57953142D01*
X83411427Y-57944519D01*
X83400702Y-57934798D01*
X83390981Y-57924073D01*
X83382358Y-57912447D01*
X83374917Y-57900031D01*
X83368728Y-57886946D01*
X83363851Y-57873317D01*
X83360334Y-57859276D01*
X83358210Y-57844958D01*
X83357500Y-57830500D01*
X83357500Y-57485500D01*
X83358210Y-57471042D01*
X83360334Y-57456724D01*
X83363851Y-57442683D01*
X83368728Y-57429054D01*
X83374917Y-57415969D01*
X83382358Y-57403553D01*
X83390981Y-57391927D01*
X83400702Y-57381202D01*
X83411427Y-57371481D01*
X83423053Y-57362858D01*
X83435469Y-57355417D01*
X83448554Y-57349228D01*
X83462183Y-57344351D01*
X83476224Y-57340834D01*
X83490542Y-57338710D01*
X83505000Y-57338000D01*
X83800000Y-57338000D01*
X83814458Y-57338710D01*
X83814458Y-57338710D01*
G37*
D11*
X83652500Y-57658000D03*
D10*
G36*
X84784458Y-57338710D02*
G01*
X84798776Y-57340834D01*
X84812817Y-57344351D01*
X84826446Y-57349228D01*
X84839531Y-57355417D01*
X84851947Y-57362858D01*
X84863573Y-57371481D01*
X84874298Y-57381202D01*
X84884019Y-57391927D01*
X84892642Y-57403553D01*
X84900083Y-57415969D01*
X84906272Y-57429054D01*
X84911149Y-57442683D01*
X84914666Y-57456724D01*
X84916790Y-57471042D01*
X84917500Y-57485500D01*
X84917500Y-57830500D01*
X84916790Y-57844958D01*
X84914666Y-57859276D01*
X84911149Y-57873317D01*
X84906272Y-57886946D01*
X84900083Y-57900031D01*
X84892642Y-57912447D01*
X84884019Y-57924073D01*
X84874298Y-57934798D01*
X84863573Y-57944519D01*
X84851947Y-57953142D01*
X84839531Y-57960583D01*
X84826446Y-57966772D01*
X84812817Y-57971649D01*
X84798776Y-57975166D01*
X84784458Y-57977290D01*
X84770000Y-57978000D01*
X84475000Y-57978000D01*
X84460542Y-57977290D01*
X84446224Y-57975166D01*
X84432183Y-57971649D01*
X84418554Y-57966772D01*
X84405469Y-57960583D01*
X84393053Y-57953142D01*
X84381427Y-57944519D01*
X84370702Y-57934798D01*
X84360981Y-57924073D01*
X84352358Y-57912447D01*
X84344917Y-57900031D01*
X84338728Y-57886946D01*
X84333851Y-57873317D01*
X84330334Y-57859276D01*
X84328210Y-57844958D01*
X84327500Y-57830500D01*
X84327500Y-57485500D01*
X84328210Y-57471042D01*
X84330334Y-57456724D01*
X84333851Y-57442683D01*
X84338728Y-57429054D01*
X84344917Y-57415969D01*
X84352358Y-57403553D01*
X84360981Y-57391927D01*
X84370702Y-57381202D01*
X84381427Y-57371481D01*
X84393053Y-57362858D01*
X84405469Y-57355417D01*
X84418554Y-57349228D01*
X84432183Y-57344351D01*
X84446224Y-57340834D01*
X84460542Y-57338710D01*
X84475000Y-57338000D01*
X84770000Y-57338000D01*
X84784458Y-57338710D01*
X84784458Y-57338710D01*
G37*
D11*
X84622500Y-57658000D03*
D10*
G36*
X95746858Y-58819010D02*
G01*
X95761176Y-58821134D01*
X95775217Y-58824651D01*
X95788846Y-58829528D01*
X95801931Y-58835717D01*
X95814347Y-58843158D01*
X95825973Y-58851781D01*
X95836698Y-58861502D01*
X95846419Y-58872227D01*
X95855042Y-58883853D01*
X95862483Y-58896269D01*
X95868672Y-58909354D01*
X95873549Y-58922983D01*
X95877066Y-58937024D01*
X95879190Y-58951342D01*
X95879900Y-58965800D01*
X95879900Y-59260800D01*
X95879190Y-59275258D01*
X95877066Y-59289576D01*
X95873549Y-59303617D01*
X95868672Y-59317246D01*
X95862483Y-59330331D01*
X95855042Y-59342747D01*
X95846419Y-59354373D01*
X95836698Y-59365098D01*
X95825973Y-59374819D01*
X95814347Y-59383442D01*
X95801931Y-59390883D01*
X95788846Y-59397072D01*
X95775217Y-59401949D01*
X95761176Y-59405466D01*
X95746858Y-59407590D01*
X95732400Y-59408300D01*
X95387400Y-59408300D01*
X95372942Y-59407590D01*
X95358624Y-59405466D01*
X95344583Y-59401949D01*
X95330954Y-59397072D01*
X95317869Y-59390883D01*
X95305453Y-59383442D01*
X95293827Y-59374819D01*
X95283102Y-59365098D01*
X95273381Y-59354373D01*
X95264758Y-59342747D01*
X95257317Y-59330331D01*
X95251128Y-59317246D01*
X95246251Y-59303617D01*
X95242734Y-59289576D01*
X95240610Y-59275258D01*
X95239900Y-59260800D01*
X95239900Y-58965800D01*
X95240610Y-58951342D01*
X95242734Y-58937024D01*
X95246251Y-58922983D01*
X95251128Y-58909354D01*
X95257317Y-58896269D01*
X95264758Y-58883853D01*
X95273381Y-58872227D01*
X95283102Y-58861502D01*
X95293827Y-58851781D01*
X95305453Y-58843158D01*
X95317869Y-58835717D01*
X95330954Y-58829528D01*
X95344583Y-58824651D01*
X95358624Y-58821134D01*
X95372942Y-58819010D01*
X95387400Y-58818300D01*
X95732400Y-58818300D01*
X95746858Y-58819010D01*
X95746858Y-58819010D01*
G37*
D11*
X95559900Y-59113300D03*
D10*
G36*
X95746858Y-57849010D02*
G01*
X95761176Y-57851134D01*
X95775217Y-57854651D01*
X95788846Y-57859528D01*
X95801931Y-57865717D01*
X95814347Y-57873158D01*
X95825973Y-57881781D01*
X95836698Y-57891502D01*
X95846419Y-57902227D01*
X95855042Y-57913853D01*
X95862483Y-57926269D01*
X95868672Y-57939354D01*
X95873549Y-57952983D01*
X95877066Y-57967024D01*
X95879190Y-57981342D01*
X95879900Y-57995800D01*
X95879900Y-58290800D01*
X95879190Y-58305258D01*
X95877066Y-58319576D01*
X95873549Y-58333617D01*
X95868672Y-58347246D01*
X95862483Y-58360331D01*
X95855042Y-58372747D01*
X95846419Y-58384373D01*
X95836698Y-58395098D01*
X95825973Y-58404819D01*
X95814347Y-58413442D01*
X95801931Y-58420883D01*
X95788846Y-58427072D01*
X95775217Y-58431949D01*
X95761176Y-58435466D01*
X95746858Y-58437590D01*
X95732400Y-58438300D01*
X95387400Y-58438300D01*
X95372942Y-58437590D01*
X95358624Y-58435466D01*
X95344583Y-58431949D01*
X95330954Y-58427072D01*
X95317869Y-58420883D01*
X95305453Y-58413442D01*
X95293827Y-58404819D01*
X95283102Y-58395098D01*
X95273381Y-58384373D01*
X95264758Y-58372747D01*
X95257317Y-58360331D01*
X95251128Y-58347246D01*
X95246251Y-58333617D01*
X95242734Y-58319576D01*
X95240610Y-58305258D01*
X95239900Y-58290800D01*
X95239900Y-57995800D01*
X95240610Y-57981342D01*
X95242734Y-57967024D01*
X95246251Y-57952983D01*
X95251128Y-57939354D01*
X95257317Y-57926269D01*
X95264758Y-57913853D01*
X95273381Y-57902227D01*
X95283102Y-57891502D01*
X95293827Y-57881781D01*
X95305453Y-57873158D01*
X95317869Y-57865717D01*
X95330954Y-57859528D01*
X95344583Y-57854651D01*
X95358624Y-57851134D01*
X95372942Y-57849010D01*
X95387400Y-57848300D01*
X95732400Y-57848300D01*
X95746858Y-57849010D01*
X95746858Y-57849010D01*
G37*
D11*
X95559900Y-58143300D03*
D10*
G36*
X92744558Y-60541410D02*
G01*
X92758876Y-60543534D01*
X92772917Y-60547051D01*
X92786546Y-60551928D01*
X92799631Y-60558117D01*
X92812047Y-60565558D01*
X92823673Y-60574181D01*
X92834398Y-60583902D01*
X92844119Y-60594627D01*
X92852742Y-60606253D01*
X92860183Y-60618669D01*
X92866372Y-60631754D01*
X92871249Y-60645383D01*
X92874766Y-60659424D01*
X92876890Y-60673742D01*
X92877600Y-60688200D01*
X92877600Y-60983200D01*
X92876890Y-60997658D01*
X92874766Y-61011976D01*
X92871249Y-61026017D01*
X92866372Y-61039646D01*
X92860183Y-61052731D01*
X92852742Y-61065147D01*
X92844119Y-61076773D01*
X92834398Y-61087498D01*
X92823673Y-61097219D01*
X92812047Y-61105842D01*
X92799631Y-61113283D01*
X92786546Y-61119472D01*
X92772917Y-61124349D01*
X92758876Y-61127866D01*
X92744558Y-61129990D01*
X92730100Y-61130700D01*
X92385100Y-61130700D01*
X92370642Y-61129990D01*
X92356324Y-61127866D01*
X92342283Y-61124349D01*
X92328654Y-61119472D01*
X92315569Y-61113283D01*
X92303153Y-61105842D01*
X92291527Y-61097219D01*
X92280802Y-61087498D01*
X92271081Y-61076773D01*
X92262458Y-61065147D01*
X92255017Y-61052731D01*
X92248828Y-61039646D01*
X92243951Y-61026017D01*
X92240434Y-61011976D01*
X92238310Y-60997658D01*
X92237600Y-60983200D01*
X92237600Y-60688200D01*
X92238310Y-60673742D01*
X92240434Y-60659424D01*
X92243951Y-60645383D01*
X92248828Y-60631754D01*
X92255017Y-60618669D01*
X92262458Y-60606253D01*
X92271081Y-60594627D01*
X92280802Y-60583902D01*
X92291527Y-60574181D01*
X92303153Y-60565558D01*
X92315569Y-60558117D01*
X92328654Y-60551928D01*
X92342283Y-60547051D01*
X92356324Y-60543534D01*
X92370642Y-60541410D01*
X92385100Y-60540700D01*
X92730100Y-60540700D01*
X92744558Y-60541410D01*
X92744558Y-60541410D01*
G37*
D11*
X92557600Y-60835700D03*
D10*
G36*
X92744558Y-61511410D02*
G01*
X92758876Y-61513534D01*
X92772917Y-61517051D01*
X92786546Y-61521928D01*
X92799631Y-61528117D01*
X92812047Y-61535558D01*
X92823673Y-61544181D01*
X92834398Y-61553902D01*
X92844119Y-61564627D01*
X92852742Y-61576253D01*
X92860183Y-61588669D01*
X92866372Y-61601754D01*
X92871249Y-61615383D01*
X92874766Y-61629424D01*
X92876890Y-61643742D01*
X92877600Y-61658200D01*
X92877600Y-61953200D01*
X92876890Y-61967658D01*
X92874766Y-61981976D01*
X92871249Y-61996017D01*
X92866372Y-62009646D01*
X92860183Y-62022731D01*
X92852742Y-62035147D01*
X92844119Y-62046773D01*
X92834398Y-62057498D01*
X92823673Y-62067219D01*
X92812047Y-62075842D01*
X92799631Y-62083283D01*
X92786546Y-62089472D01*
X92772917Y-62094349D01*
X92758876Y-62097866D01*
X92744558Y-62099990D01*
X92730100Y-62100700D01*
X92385100Y-62100700D01*
X92370642Y-62099990D01*
X92356324Y-62097866D01*
X92342283Y-62094349D01*
X92328654Y-62089472D01*
X92315569Y-62083283D01*
X92303153Y-62075842D01*
X92291527Y-62067219D01*
X92280802Y-62057498D01*
X92271081Y-62046773D01*
X92262458Y-62035147D01*
X92255017Y-62022731D01*
X92248828Y-62009646D01*
X92243951Y-61996017D01*
X92240434Y-61981976D01*
X92238310Y-61967658D01*
X92237600Y-61953200D01*
X92237600Y-61658200D01*
X92238310Y-61643742D01*
X92240434Y-61629424D01*
X92243951Y-61615383D01*
X92248828Y-61601754D01*
X92255017Y-61588669D01*
X92262458Y-61576253D01*
X92271081Y-61564627D01*
X92280802Y-61553902D01*
X92291527Y-61544181D01*
X92303153Y-61535558D01*
X92315569Y-61528117D01*
X92328654Y-61521928D01*
X92342283Y-61517051D01*
X92356324Y-61513534D01*
X92370642Y-61511410D01*
X92385100Y-61510700D01*
X92730100Y-61510700D01*
X92744558Y-61511410D01*
X92744558Y-61511410D01*
G37*
D11*
X92557600Y-61805700D03*
D10*
G36*
X82228958Y-68598010D02*
G01*
X82243276Y-68600134D01*
X82257317Y-68603651D01*
X82270946Y-68608528D01*
X82284031Y-68614717D01*
X82296447Y-68622158D01*
X82308073Y-68630781D01*
X82318798Y-68640502D01*
X82328519Y-68651227D01*
X82337142Y-68662853D01*
X82344583Y-68675269D01*
X82350772Y-68688354D01*
X82355649Y-68701983D01*
X82359166Y-68716024D01*
X82361290Y-68730342D01*
X82362000Y-68744800D01*
X82362000Y-69039800D01*
X82361290Y-69054258D01*
X82359166Y-69068576D01*
X82355649Y-69082617D01*
X82350772Y-69096246D01*
X82344583Y-69109331D01*
X82337142Y-69121747D01*
X82328519Y-69133373D01*
X82318798Y-69144098D01*
X82308073Y-69153819D01*
X82296447Y-69162442D01*
X82284031Y-69169883D01*
X82270946Y-69176072D01*
X82257317Y-69180949D01*
X82243276Y-69184466D01*
X82228958Y-69186590D01*
X82214500Y-69187300D01*
X81869500Y-69187300D01*
X81855042Y-69186590D01*
X81840724Y-69184466D01*
X81826683Y-69180949D01*
X81813054Y-69176072D01*
X81799969Y-69169883D01*
X81787553Y-69162442D01*
X81775927Y-69153819D01*
X81765202Y-69144098D01*
X81755481Y-69133373D01*
X81746858Y-69121747D01*
X81739417Y-69109331D01*
X81733228Y-69096246D01*
X81728351Y-69082617D01*
X81724834Y-69068576D01*
X81722710Y-69054258D01*
X81722000Y-69039800D01*
X81722000Y-68744800D01*
X81722710Y-68730342D01*
X81724834Y-68716024D01*
X81728351Y-68701983D01*
X81733228Y-68688354D01*
X81739417Y-68675269D01*
X81746858Y-68662853D01*
X81755481Y-68651227D01*
X81765202Y-68640502D01*
X81775927Y-68630781D01*
X81787553Y-68622158D01*
X81799969Y-68614717D01*
X81813054Y-68608528D01*
X81826683Y-68603651D01*
X81840724Y-68600134D01*
X81855042Y-68598010D01*
X81869500Y-68597300D01*
X82214500Y-68597300D01*
X82228958Y-68598010D01*
X82228958Y-68598010D01*
G37*
D11*
X82042000Y-68892300D03*
D10*
G36*
X82228958Y-67628010D02*
G01*
X82243276Y-67630134D01*
X82257317Y-67633651D01*
X82270946Y-67638528D01*
X82284031Y-67644717D01*
X82296447Y-67652158D01*
X82308073Y-67660781D01*
X82318798Y-67670502D01*
X82328519Y-67681227D01*
X82337142Y-67692853D01*
X82344583Y-67705269D01*
X82350772Y-67718354D01*
X82355649Y-67731983D01*
X82359166Y-67746024D01*
X82361290Y-67760342D01*
X82362000Y-67774800D01*
X82362000Y-68069800D01*
X82361290Y-68084258D01*
X82359166Y-68098576D01*
X82355649Y-68112617D01*
X82350772Y-68126246D01*
X82344583Y-68139331D01*
X82337142Y-68151747D01*
X82328519Y-68163373D01*
X82318798Y-68174098D01*
X82308073Y-68183819D01*
X82296447Y-68192442D01*
X82284031Y-68199883D01*
X82270946Y-68206072D01*
X82257317Y-68210949D01*
X82243276Y-68214466D01*
X82228958Y-68216590D01*
X82214500Y-68217300D01*
X81869500Y-68217300D01*
X81855042Y-68216590D01*
X81840724Y-68214466D01*
X81826683Y-68210949D01*
X81813054Y-68206072D01*
X81799969Y-68199883D01*
X81787553Y-68192442D01*
X81775927Y-68183819D01*
X81765202Y-68174098D01*
X81755481Y-68163373D01*
X81746858Y-68151747D01*
X81739417Y-68139331D01*
X81733228Y-68126246D01*
X81728351Y-68112617D01*
X81724834Y-68098576D01*
X81722710Y-68084258D01*
X81722000Y-68069800D01*
X81722000Y-67774800D01*
X81722710Y-67760342D01*
X81724834Y-67746024D01*
X81728351Y-67731983D01*
X81733228Y-67718354D01*
X81739417Y-67705269D01*
X81746858Y-67692853D01*
X81755481Y-67681227D01*
X81765202Y-67670502D01*
X81775927Y-67660781D01*
X81787553Y-67652158D01*
X81799969Y-67644717D01*
X81813054Y-67638528D01*
X81826683Y-67633651D01*
X81840724Y-67630134D01*
X81855042Y-67628010D01*
X81869500Y-67627300D01*
X82214500Y-67627300D01*
X82228958Y-67628010D01*
X82228958Y-67628010D01*
G37*
D11*
X82042000Y-67922300D03*
M02*
