M48
; DRILL file {KiCad (5.1.0)-1} date 13/02/2021 20:01:38
; FORMAT={-:-/ absolute / metric / decimal}
; #@! TF.CreationDate,2021-02-13T20:01:38+01:00
; #@! TF.GenerationSoftware,Kicad,Pcbnew,(5.1.0)-1
; #@! TF.FileFunction,Plated,1,2,PTH
FMAT,2
METRIC
T1C0.400
T2C1.000
T3C1.016
%
G90
G05
T1
X80.834Y-61.831
X80.95Y-60.518
X81.081Y-63.626
X81.095Y-64.724
X81.298Y-71.261
X84.725Y-60.909
X85.104Y-64.812
X85.211Y-63.305
X85.897Y-64.037
X86.346Y-66.531
X87.163Y-75.76
X87.267Y-69.865
X87.664Y-65.57
X87.846Y-60.93
X88.846Y-61.432
X90.098Y-60.193
X96.281Y-66.384
T2
X91.735Y-75.555
X91.735Y-78.095
X91.735Y-80.635
X95.357Y-75.555
X95.357Y-78.095
X95.357Y-80.635
X78.115Y-60.33
X78.115Y-62.87
X78.115Y-65.41
X78.115Y-67.95
X110.15Y-88.56
X110.15Y-91.1
X110.15Y-93.64
X110.15Y-96.18
T3
X111.792Y-50.596
X111.792Y-53.136
X111.792Y-55.676
X111.792Y-58.216
X111.792Y-60.756
X111.792Y-63.296
X111.792Y-65.836
X111.792Y-68.376
X111.792Y-70.916
X111.792Y-73.456
X111.792Y-75.996
X111.792Y-78.536
X111.792Y-81.076
X114.332Y-50.596
X114.332Y-53.136
X114.332Y-55.676
X114.332Y-58.216
X114.332Y-60.756
X114.332Y-63.296
X114.332Y-65.836
X114.332Y-68.376
X114.332Y-70.916
X114.332Y-73.456
X114.332Y-75.996
X114.332Y-78.536
X114.332Y-81.076
X101.072Y-50.596
X101.072Y-53.136
X101.072Y-55.676
X101.072Y-58.216
X101.072Y-60.756
X101.072Y-63.296
X101.072Y-65.836
X101.072Y-68.376
X101.072Y-70.916
X101.072Y-73.456
X101.072Y-75.996
X101.072Y-78.536
X101.072Y-81.076
X101.072Y-83.616
X101.072Y-86.156
X101.072Y-88.696
X101.072Y-91.236
X103.612Y-50.596
X103.612Y-53.136
X103.612Y-55.676
X103.612Y-58.216
X103.612Y-60.756
X103.612Y-63.296
X103.612Y-65.836
X103.612Y-68.376
X103.612Y-70.916
X103.612Y-73.456
X103.612Y-75.996
X103.612Y-78.536
X103.612Y-81.076
X103.612Y-83.616
X103.612Y-86.156
X103.612Y-88.696
X103.612Y-91.236
T0
M30
