G04 #@! TF.GenerationSoftware,KiCad,Pcbnew,(5.1.0)-1*
G04 #@! TF.CreationDate,2021-02-13T20:01:35+01:00*
G04 #@! TF.ProjectId,GreaseWeazle,47726561-7365-4576-9561-7a6c652e6b69,rev?*
G04 #@! TF.SameCoordinates,Original*
G04 #@! TF.FileFunction,Copper,L2,Bot*
G04 #@! TF.FilePolarity,Positive*
%FSLAX46Y46*%
G04 Gerber Fmt 4.6, Leading zero omitted, Abs format (unit mm)*
G04 Created by KiCad (PCBNEW (5.1.0)-1) date 2021-02-13 20:01:35*
%MOMM*%
%LPD*%
G04 APERTURE LIST*
%ADD10O,1.700000X1.700000*%
%ADD11R,1.700000X1.700000*%
%ADD12O,1.727200X1.727200*%
%ADD13R,1.727200X1.727200*%
%ADD14C,0.800000*%
%ADD15C,0.250000*%
%ADD16C,0.254000*%
G04 APERTURE END LIST*
D10*
X91734600Y-80634800D03*
X91734600Y-78094800D03*
D11*
X91734600Y-75554800D03*
D10*
X95356700Y-80634800D03*
X95356700Y-78094800D03*
D11*
X95356700Y-75554800D03*
D12*
X114332000Y-81076400D03*
X111792000Y-81076400D03*
X114332000Y-78536400D03*
X111792000Y-78536400D03*
X114332000Y-75996400D03*
X111792000Y-75996400D03*
X114332000Y-73456400D03*
X111792000Y-73456400D03*
X114332000Y-70916400D03*
X111792000Y-70916400D03*
X114332000Y-68376400D03*
X111792000Y-68376400D03*
X114332000Y-65836400D03*
X111792000Y-65836400D03*
X114332000Y-63296400D03*
X111792000Y-63296400D03*
X114332000Y-60756400D03*
X111792000Y-60756400D03*
X114332000Y-58216400D03*
X111792000Y-58216400D03*
X114332000Y-55676400D03*
X111792000Y-55676400D03*
X114332000Y-53136400D03*
X111792000Y-53136400D03*
X114332000Y-50596400D03*
D13*
X111792000Y-50596400D03*
D12*
X103612000Y-91236400D03*
X101072000Y-91236400D03*
X103612000Y-88696400D03*
X101072000Y-88696400D03*
X103612000Y-86156400D03*
X101072000Y-86156400D03*
X103612000Y-83616400D03*
X101072000Y-83616400D03*
X103612000Y-81076400D03*
X101072000Y-81076400D03*
X103612000Y-78536400D03*
X101072000Y-78536400D03*
X103612000Y-75996400D03*
X101072000Y-75996400D03*
X103612000Y-73456400D03*
X101072000Y-73456400D03*
X103612000Y-70916400D03*
X101072000Y-70916400D03*
X103612000Y-68376400D03*
X101072000Y-68376400D03*
X103612000Y-65836400D03*
X101072000Y-65836400D03*
X103612000Y-63296400D03*
X101072000Y-63296400D03*
X103612000Y-60756400D03*
X101072000Y-60756400D03*
X103612000Y-58216400D03*
X101072000Y-58216400D03*
X103612000Y-55676400D03*
X101072000Y-55676400D03*
X103612000Y-53136400D03*
X101072000Y-53136400D03*
X103612000Y-50596400D03*
D13*
X101072000Y-50596400D03*
D10*
X110150000Y-96179600D03*
X110150000Y-93639600D03*
X110150000Y-91099600D03*
D11*
X110150000Y-88559600D03*
D10*
X78115200Y-60330100D03*
X78115200Y-62870100D03*
X78115200Y-65410100D03*
D11*
X78115200Y-67950100D03*
D14*
X81298400Y-71261300D03*
X87162600Y-75759600D03*
X86346200Y-66531000D03*
X87266600Y-69865100D03*
X80949500Y-60517800D03*
X84724900Y-60909200D03*
X87846200Y-60930100D03*
X87664200Y-65569800D03*
X85104200Y-64812500D03*
X85897500Y-64037500D03*
X85211300Y-63305500D03*
X88846200Y-61431800D03*
X90097600Y-60193400D03*
X96280900Y-66383900D03*
X81080800Y-63626000D03*
X80834400Y-61831400D03*
X81095400Y-64724400D03*
D15*
X81597800Y-70961900D02*
X81298400Y-71261300D01*
X81597800Y-70961900D02*
X81597800Y-69260000D01*
X81597800Y-69260000D02*
X78923200Y-66585400D01*
X78923200Y-66585400D02*
X78115200Y-66585400D01*
X87162600Y-75759600D02*
X82364900Y-70961900D01*
X82364900Y-70961900D02*
X81597800Y-70961900D01*
X78115200Y-65410100D02*
X78115200Y-66585400D01*
X91734600Y-80634800D02*
X90559300Y-80634800D01*
X87162600Y-75759600D02*
X87162600Y-77238100D01*
X87162600Y-77238100D02*
X90559300Y-80634800D01*
X95356700Y-80634800D02*
X91734600Y-80634800D01*
X107866200Y-89991100D02*
X108974700Y-91099600D01*
X102817200Y-89991100D02*
X107866200Y-89991100D01*
X107866200Y-89991100D02*
X107866200Y-86191100D01*
X107866200Y-86191100D02*
X111792000Y-82265300D01*
X111792000Y-81076400D02*
X111792000Y-82265300D01*
X102260900Y-91236400D02*
X102260900Y-90547400D01*
X102260900Y-90547400D02*
X102817200Y-89991100D01*
X102817200Y-89991100D02*
X102260900Y-89434800D01*
X102260900Y-89434800D02*
X102260900Y-88696400D01*
X110150000Y-91099600D02*
X108974700Y-91099600D01*
X101072000Y-88696400D02*
X102260900Y-88696400D01*
X101072000Y-53136400D02*
X101072000Y-55676400D01*
X101072000Y-68376400D02*
X101072000Y-65836400D01*
X101072000Y-60756400D02*
X101072000Y-63296400D01*
X101072000Y-91236400D02*
X102260900Y-91236400D01*
X87266600Y-69865100D02*
X86346200Y-68944700D01*
X86346200Y-68944700D02*
X86346200Y-66531000D01*
X78115200Y-60330100D02*
X80761800Y-60330100D01*
X80761800Y-60330100D02*
X80949500Y-60517800D01*
X84724900Y-60909200D02*
X82764000Y-62870100D01*
X82764000Y-62870100D02*
X79290500Y-62870100D01*
X78115200Y-62870100D02*
X79290500Y-62870100D01*
X103612000Y-87426400D02*
X100658000Y-87426400D01*
X100658000Y-87426400D02*
X96607200Y-83375600D01*
X96607200Y-83375600D02*
X96607200Y-74604600D01*
X96607200Y-74604600D02*
X88317400Y-66314800D01*
X88317400Y-66314800D02*
X87269700Y-66314800D01*
X87269700Y-66314800D02*
X86757700Y-65802800D01*
X86757700Y-65802800D02*
X85066700Y-65802800D01*
X85066700Y-65802800D02*
X84350800Y-65086900D01*
X84350800Y-65086900D02*
X84350800Y-63127500D01*
X84350800Y-63127500D02*
X86548200Y-60930100D01*
X86548200Y-60930100D02*
X87846200Y-60930100D01*
X113143100Y-78536400D02*
X113143100Y-78908000D01*
X113143100Y-78908000D02*
X112325800Y-79725300D01*
X112325800Y-79725300D02*
X111454300Y-79725300D01*
X111454300Y-79725300D02*
X110202400Y-80977200D01*
X110202400Y-80977200D02*
X110202400Y-81261100D01*
X110202400Y-81261100D02*
X104037100Y-87426400D01*
X104037100Y-87426400D02*
X103612000Y-87426400D01*
X103612000Y-87426400D02*
X103612000Y-88402100D01*
X114332000Y-78536400D02*
X113143100Y-78536400D01*
X103612000Y-88696400D02*
X103612000Y-88402100D01*
X87664200Y-65569800D02*
X88209300Y-65569800D01*
X88209300Y-65569800D02*
X97057600Y-74418100D01*
X97057600Y-74418100D02*
X97057600Y-78747500D01*
X97057600Y-78747500D02*
X100656500Y-82346400D01*
X100656500Y-82346400D02*
X101505300Y-82346400D01*
X101505300Y-82346400D02*
X102261000Y-83102100D01*
X102261000Y-83102100D02*
X102261000Y-83997600D01*
X102261000Y-83997600D02*
X103068700Y-84805300D01*
X103068700Y-84805300D02*
X103612000Y-84805300D01*
X103612000Y-84805300D02*
X104187100Y-84805300D01*
X104187100Y-84805300D02*
X110376400Y-78616000D01*
X110376400Y-78616000D02*
X110376400Y-78194200D01*
X110376400Y-78194200D02*
X111385300Y-77185300D01*
X111385300Y-77185300D02*
X112325800Y-77185300D01*
X112325800Y-77185300D02*
X113143100Y-76368000D01*
X113143100Y-76368000D02*
X113143100Y-75996400D01*
X103612000Y-85567800D02*
X103612000Y-84805300D01*
X114332000Y-75996400D02*
X113143100Y-75996400D01*
X103612000Y-86156400D02*
X103612000Y-85567800D01*
X103624200Y-82828200D02*
X102261000Y-81465000D01*
X102261000Y-81465000D02*
X102261000Y-80562100D01*
X102261000Y-80562100D02*
X101505300Y-79806400D01*
X101505300Y-79806400D02*
X100592700Y-79806400D01*
X100592700Y-79806400D02*
X98172300Y-77386000D01*
X98172300Y-77386000D02*
X98172300Y-74818700D01*
X98172300Y-74818700D02*
X88166100Y-64812500D01*
X88166100Y-64812500D02*
X85104200Y-64812500D01*
X103624200Y-82828200D02*
X110202400Y-76250000D01*
X110202400Y-76250000D02*
X110202400Y-75869000D01*
X110202400Y-75869000D02*
X111426100Y-74645300D01*
X111426100Y-74645300D02*
X112325800Y-74645300D01*
X112325800Y-74645300D02*
X113143100Y-73828000D01*
X113143100Y-73828000D02*
X113143100Y-73456400D01*
X103612000Y-83027800D02*
X103612000Y-82840400D01*
X103612000Y-82840400D02*
X103624200Y-82828200D01*
X114332000Y-73456400D02*
X113143100Y-73456400D01*
X103612000Y-83616400D02*
X103612000Y-83027800D01*
X103612000Y-80042000D02*
X103379400Y-80042000D01*
X103379400Y-80042000D02*
X102261000Y-78923600D01*
X102261000Y-78923600D02*
X102261000Y-78022100D01*
X102261000Y-78022100D02*
X101505300Y-77266400D01*
X101505300Y-77266400D02*
X100598700Y-77266400D01*
X100598700Y-77266400D02*
X99412200Y-76079900D01*
X99412200Y-76079900D02*
X99412200Y-75415100D01*
X99412200Y-75415100D02*
X88034600Y-64037500D01*
X88034600Y-64037500D02*
X85897500Y-64037500D01*
X103612000Y-80042000D02*
X103612000Y-79887500D01*
X103612000Y-80184700D02*
X103612000Y-80042000D01*
X103612000Y-80184700D02*
X103612000Y-80605100D01*
X103612000Y-81076400D02*
X103612000Y-80605100D01*
X114332000Y-70916400D02*
X113143100Y-70916400D01*
X103612000Y-79887500D02*
X103958000Y-79887500D01*
X103958000Y-79887500D02*
X104800900Y-79044600D01*
X104800900Y-79044600D02*
X104800900Y-78763500D01*
X104800900Y-78763500D02*
X111459100Y-72105300D01*
X111459100Y-72105300D02*
X112325800Y-72105300D01*
X112325800Y-72105300D02*
X113143100Y-71288000D01*
X113143100Y-71288000D02*
X113143100Y-70916400D01*
X103612000Y-78536400D02*
X103612000Y-77347500D01*
X103612000Y-77347500D02*
X104014900Y-77347500D01*
X104014900Y-77347500D02*
X105927100Y-75435300D01*
X105927100Y-75435300D02*
X105927100Y-75073800D01*
X105927100Y-75073800D02*
X111435600Y-69565300D01*
X111435600Y-69565300D02*
X112325800Y-69565300D01*
X112325800Y-69565300D02*
X113143100Y-68748000D01*
X113143100Y-68748000D02*
X113143100Y-68376400D01*
X114332000Y-68376400D02*
X113143100Y-68376400D01*
X85211300Y-63305500D02*
X89184100Y-63305500D01*
X89184100Y-63305500D02*
X100686100Y-74807500D01*
X100686100Y-74807500D02*
X103612000Y-74807500D01*
X103612000Y-74920100D02*
X103612000Y-74807500D01*
X103612000Y-74807500D02*
X104019100Y-74807500D01*
X104019100Y-74807500D02*
X105927100Y-72899500D01*
X105927100Y-72899500D02*
X105927100Y-72557400D01*
X105927100Y-72557400D02*
X111459200Y-67025300D01*
X111459200Y-67025300D02*
X112325800Y-67025300D01*
X112325800Y-67025300D02*
X113143100Y-66208000D01*
X113143100Y-66208000D02*
X113143100Y-65836400D01*
X103612000Y-75996400D02*
X103612000Y-74920100D01*
X114332000Y-65836400D02*
X113143100Y-65836400D01*
X103612000Y-72267600D02*
X103530800Y-72186400D01*
X103530800Y-72186400D02*
X99600800Y-72186400D01*
X99600800Y-72186400D02*
X88846200Y-61431800D01*
X103612000Y-72267600D02*
X104015000Y-72267600D01*
X104015000Y-72267600D02*
X105927100Y-70355500D01*
X105927100Y-70355500D02*
X105927100Y-69994000D01*
X105927100Y-69994000D02*
X111435800Y-64485300D01*
X111435800Y-64485300D02*
X112325800Y-64485300D01*
X112325800Y-64485300D02*
X113143100Y-63668000D01*
X113143100Y-63668000D02*
X113143100Y-63296400D01*
X103612000Y-72380100D02*
X103612000Y-72267600D01*
X103612000Y-73456400D02*
X103612000Y-72380100D01*
X114332000Y-63296400D02*
X113143100Y-63296400D01*
X103612000Y-69727500D02*
X98594600Y-69727500D01*
X98594600Y-69727500D02*
X90097600Y-61230500D01*
X90097600Y-61230500D02*
X90097600Y-60193400D01*
X103612000Y-69840100D02*
X103612000Y-69727500D01*
X103612000Y-69727500D02*
X103958700Y-69727500D01*
X103958700Y-69727500D02*
X104800900Y-68885300D01*
X104800900Y-68885300D02*
X104800900Y-68604400D01*
X104800900Y-68604400D02*
X111460000Y-61945300D01*
X111460000Y-61945300D02*
X112325800Y-61945300D01*
X112325800Y-61945300D02*
X113143100Y-61128000D01*
X113143100Y-61128000D02*
X113143100Y-60756400D01*
X103612000Y-70916400D02*
X103612000Y-69840100D01*
X114332000Y-60756400D02*
X113143100Y-60756400D01*
X114332000Y-58216400D02*
X113143100Y-58216400D01*
X103612000Y-68376400D02*
X103612000Y-67187500D01*
X103612000Y-67187500D02*
X103943700Y-67187500D01*
X103943700Y-67187500D02*
X104800900Y-66330300D01*
X104800900Y-66330300D02*
X104800900Y-66044400D01*
X104800900Y-66044400D02*
X111440000Y-59405300D01*
X111440000Y-59405300D02*
X112325800Y-59405300D01*
X112325800Y-59405300D02*
X113143100Y-58588000D01*
X113143100Y-58588000D02*
X113143100Y-58216400D01*
X96280900Y-66383900D02*
X98162300Y-64502500D01*
X98162300Y-64502500D02*
X101817300Y-64502500D01*
X101817300Y-64502500D02*
X103612000Y-62707800D01*
X103612000Y-62707800D02*
X103612000Y-62107500D01*
X103612000Y-63296400D02*
X103612000Y-62707800D01*
X114332000Y-53136400D02*
X113143100Y-53136400D01*
X103612000Y-62107500D02*
X104012400Y-62107500D01*
X104012400Y-62107500D02*
X104800900Y-61319000D01*
X104800900Y-61319000D02*
X104800900Y-60960400D01*
X104800900Y-60960400D02*
X111436000Y-54325300D01*
X111436000Y-54325300D02*
X112325800Y-54325300D01*
X112325800Y-54325300D02*
X113143100Y-53508000D01*
X113143100Y-53508000D02*
X113143100Y-53136400D01*
X81080800Y-63626000D02*
X83033900Y-63626000D01*
X83033900Y-63626000D02*
X89670200Y-56989700D01*
X89670200Y-56989700D02*
X102408600Y-56989700D01*
X102408600Y-56989700D02*
X103635300Y-58216400D01*
X103635300Y-58216400D02*
X103705000Y-58216400D01*
X103612000Y-58216400D02*
X103635300Y-58216400D01*
X103735800Y-58216400D02*
X104107200Y-58216400D01*
X103735800Y-58216400D02*
X103705000Y-58216400D01*
X104206500Y-58216400D02*
X104800900Y-58216400D01*
X104206500Y-58216400D02*
X104107200Y-58216400D01*
X114332000Y-50596400D02*
X113143100Y-50596400D01*
X104800900Y-58216400D02*
X111232000Y-51785300D01*
X111232000Y-51785300D02*
X112845900Y-51785300D01*
X112845900Y-51785300D02*
X113143100Y-51488100D01*
X113143100Y-51488100D02*
X113143100Y-50596400D01*
X103612000Y-50596400D02*
X102423100Y-50596400D01*
X102423100Y-50596400D02*
X102423100Y-51488100D01*
X102423100Y-51488100D02*
X102125900Y-51785300D01*
X102125900Y-51785300D02*
X90880500Y-51785300D01*
X90880500Y-51785300D02*
X80834400Y-61831400D01*
X81095400Y-64724400D02*
X88252500Y-71881500D01*
X88252500Y-71881500D02*
X90229300Y-71881500D01*
X90229300Y-71881500D02*
X94181400Y-75833600D01*
X94181400Y-75833600D02*
X94181400Y-76546300D01*
X94181400Y-76546300D02*
X94554600Y-76919500D01*
X94554600Y-76919500D02*
X95356700Y-76919500D01*
X95356700Y-78094800D02*
X95356700Y-76919500D01*
D16*
G36*
X117793241Y-97833679D02*
G01*
X76113240Y-97839902D01*
X76113240Y-96179600D01*
X108657815Y-96179600D01*
X108686487Y-96470711D01*
X108771401Y-96750634D01*
X108909294Y-97008614D01*
X109094866Y-97234734D01*
X109320986Y-97420306D01*
X109578966Y-97558199D01*
X109858889Y-97643113D01*
X110077050Y-97664600D01*
X110222950Y-97664600D01*
X110441111Y-97643113D01*
X110721034Y-97558199D01*
X110979014Y-97420306D01*
X111205134Y-97234734D01*
X111390706Y-97008614D01*
X111528599Y-96750634D01*
X111613513Y-96470711D01*
X111642185Y-96179600D01*
X111613513Y-95888489D01*
X111528599Y-95608566D01*
X111390706Y-95350586D01*
X111205134Y-95124466D01*
X110979014Y-94938894D01*
X110914477Y-94904399D01*
X111031355Y-94834778D01*
X111247588Y-94639869D01*
X111421641Y-94406520D01*
X111546825Y-94143699D01*
X111591476Y-93996490D01*
X111470155Y-93766600D01*
X110277000Y-93766600D01*
X110277000Y-93786600D01*
X110023000Y-93786600D01*
X110023000Y-93766600D01*
X108829845Y-93766600D01*
X108708524Y-93996490D01*
X108753175Y-94143699D01*
X108878359Y-94406520D01*
X109052412Y-94639869D01*
X109268645Y-94834778D01*
X109385523Y-94904399D01*
X109320986Y-94938894D01*
X109094866Y-95124466D01*
X108909294Y-95350586D01*
X108771401Y-95608566D01*
X108686487Y-95888489D01*
X108657815Y-96179600D01*
X76113240Y-96179600D01*
X76113240Y-91595426D01*
X99617042Y-91595426D01*
X99662778Y-91746214D01*
X99789316Y-92011344D01*
X99965146Y-92246693D01*
X100183512Y-92443217D01*
X100436022Y-92593364D01*
X100712973Y-92691363D01*
X100945000Y-92570864D01*
X100945000Y-91363400D01*
X99738183Y-91363400D01*
X99617042Y-91595426D01*
X76113240Y-91595426D01*
X76113240Y-89055426D01*
X99617042Y-89055426D01*
X99662778Y-89206214D01*
X99789316Y-89471344D01*
X99965146Y-89706693D01*
X100183512Y-89903217D01*
X100289770Y-89966400D01*
X100183512Y-90029583D01*
X99965146Y-90226107D01*
X99789316Y-90461456D01*
X99662778Y-90726586D01*
X99617042Y-90877374D01*
X99738183Y-91109400D01*
X100945000Y-91109400D01*
X100945000Y-88823400D01*
X99738183Y-88823400D01*
X99617042Y-89055426D01*
X76113240Y-89055426D01*
X76113240Y-80991690D01*
X90293124Y-80991690D01*
X90337775Y-81138899D01*
X90462959Y-81401720D01*
X90637012Y-81635069D01*
X90853245Y-81829978D01*
X91103348Y-81978957D01*
X91377709Y-82076281D01*
X91607600Y-81955614D01*
X91607600Y-80761800D01*
X91861600Y-80761800D01*
X91861600Y-81955614D01*
X92091491Y-82076281D01*
X92365852Y-81978957D01*
X92615955Y-81829978D01*
X92832188Y-81635069D01*
X93006241Y-81401720D01*
X93131425Y-81138899D01*
X93176076Y-80991690D01*
X93915224Y-80991690D01*
X93959875Y-81138899D01*
X94085059Y-81401720D01*
X94259112Y-81635069D01*
X94475345Y-81829978D01*
X94725448Y-81978957D01*
X94999809Y-82076281D01*
X95229700Y-81955614D01*
X95229700Y-80761800D01*
X94036545Y-80761800D01*
X93915224Y-80991690D01*
X93176076Y-80991690D01*
X93054755Y-80761800D01*
X91861600Y-80761800D01*
X91607600Y-80761800D01*
X90414445Y-80761800D01*
X90293124Y-80991690D01*
X76113240Y-80991690D01*
X76113240Y-67100100D01*
X76627128Y-67100100D01*
X76627128Y-68800100D01*
X76639388Y-68924582D01*
X76675698Y-69044280D01*
X76734663Y-69154594D01*
X76814015Y-69251285D01*
X76910706Y-69330637D01*
X77021020Y-69389602D01*
X77140718Y-69425912D01*
X77265200Y-69438172D01*
X78965200Y-69438172D01*
X79089682Y-69425912D01*
X79209380Y-69389602D01*
X79319694Y-69330637D01*
X79416385Y-69251285D01*
X79495737Y-69154594D01*
X79554702Y-69044280D01*
X79591012Y-68924582D01*
X79603272Y-68800100D01*
X79603272Y-67100100D01*
X79591012Y-66975618D01*
X79554702Y-66855920D01*
X79495737Y-66745606D01*
X79416385Y-66648915D01*
X79319694Y-66569563D01*
X79209380Y-66510598D01*
X79128734Y-66486134D01*
X79212788Y-66410369D01*
X79386841Y-66177020D01*
X79512025Y-65914199D01*
X79556676Y-65766990D01*
X79435355Y-65537100D01*
X78242200Y-65537100D01*
X78242200Y-65557100D01*
X77988200Y-65557100D01*
X77988200Y-65537100D01*
X76795045Y-65537100D01*
X76673724Y-65766990D01*
X76718375Y-65914199D01*
X76843559Y-66177020D01*
X77017612Y-66410369D01*
X77101666Y-66486134D01*
X77021020Y-66510598D01*
X76910706Y-66569563D01*
X76814015Y-66648915D01*
X76734663Y-66745606D01*
X76675698Y-66855920D01*
X76639388Y-66975618D01*
X76627128Y-67100100D01*
X76113240Y-67100100D01*
X76113240Y-60330100D01*
X76623015Y-60330100D01*
X76651687Y-60621211D01*
X76736601Y-60901134D01*
X76874494Y-61159114D01*
X77060066Y-61385234D01*
X77286186Y-61570806D01*
X77340991Y-61600100D01*
X77286186Y-61629394D01*
X77060066Y-61814966D01*
X76874494Y-62041086D01*
X76736601Y-62299066D01*
X76651687Y-62578989D01*
X76623015Y-62870100D01*
X76651687Y-63161211D01*
X76736601Y-63441134D01*
X76874494Y-63699114D01*
X77060066Y-63925234D01*
X77286186Y-64110806D01*
X77350723Y-64145301D01*
X77233845Y-64214922D01*
X77017612Y-64409831D01*
X76843559Y-64643180D01*
X76718375Y-64906001D01*
X76673724Y-65053210D01*
X76795045Y-65283100D01*
X77988200Y-65283100D01*
X77988200Y-65263100D01*
X78242200Y-65263100D01*
X78242200Y-65283100D01*
X79435355Y-65283100D01*
X79556676Y-65053210D01*
X79512025Y-64906001D01*
X79386841Y-64643180D01*
X79212788Y-64409831D01*
X78996555Y-64214922D01*
X78879677Y-64145301D01*
X78944214Y-64110806D01*
X79170334Y-63925234D01*
X79355906Y-63699114D01*
X79392795Y-63630100D01*
X80045800Y-63630100D01*
X80045800Y-63727939D01*
X80085574Y-63927898D01*
X80163595Y-64116256D01*
X80210280Y-64186125D01*
X80178195Y-64234144D01*
X80100174Y-64422502D01*
X80060400Y-64622461D01*
X80060400Y-64826339D01*
X80100174Y-65026298D01*
X80178195Y-65214656D01*
X80291463Y-65384174D01*
X80435626Y-65528337D01*
X80605144Y-65641605D01*
X80793502Y-65719626D01*
X80993461Y-65759400D01*
X81055599Y-65759400D01*
X87688700Y-72392502D01*
X87712499Y-72421501D01*
X87741497Y-72445299D01*
X87828223Y-72516474D01*
X87904790Y-72557400D01*
X87960253Y-72587046D01*
X88103514Y-72630503D01*
X88215167Y-72641500D01*
X88215177Y-72641500D01*
X88252500Y-72645176D01*
X88289823Y-72641500D01*
X89914499Y-72641500D01*
X91339726Y-74066728D01*
X90884600Y-74066728D01*
X90760118Y-74078988D01*
X90640420Y-74115298D01*
X90530106Y-74174263D01*
X90433415Y-74253615D01*
X90354063Y-74350306D01*
X90295098Y-74460620D01*
X90258788Y-74580318D01*
X90246528Y-74704800D01*
X90246528Y-76404800D01*
X90258788Y-76529282D01*
X90295098Y-76648980D01*
X90354063Y-76759294D01*
X90433415Y-76855985D01*
X90530106Y-76935337D01*
X90640420Y-76994302D01*
X90709287Y-77015193D01*
X90679466Y-77039666D01*
X90493894Y-77265786D01*
X90356001Y-77523766D01*
X90271087Y-77803689D01*
X90242415Y-78094800D01*
X90271087Y-78385911D01*
X90356001Y-78665834D01*
X90493894Y-78923814D01*
X90679466Y-79149934D01*
X90905586Y-79335506D01*
X90970123Y-79370001D01*
X90853245Y-79439622D01*
X90637012Y-79634531D01*
X90462959Y-79867880D01*
X90337775Y-80130701D01*
X90293124Y-80277910D01*
X90414445Y-80507800D01*
X91607600Y-80507800D01*
X91607600Y-80487800D01*
X91861600Y-80487800D01*
X91861600Y-80507800D01*
X93054755Y-80507800D01*
X93176076Y-80277910D01*
X93131425Y-80130701D01*
X93006241Y-79867880D01*
X92832188Y-79634531D01*
X92615955Y-79439622D01*
X92499077Y-79370001D01*
X92563614Y-79335506D01*
X92789734Y-79149934D01*
X92975306Y-78923814D01*
X93113199Y-78665834D01*
X93198113Y-78385911D01*
X93226785Y-78094800D01*
X93198113Y-77803689D01*
X93113199Y-77523766D01*
X92975306Y-77265786D01*
X92789734Y-77039666D01*
X92759913Y-77015193D01*
X92828780Y-76994302D01*
X92939094Y-76935337D01*
X93035785Y-76855985D01*
X93115137Y-76759294D01*
X93174102Y-76648980D01*
X93210412Y-76529282D01*
X93222672Y-76404800D01*
X93222672Y-75949675D01*
X93421400Y-76148403D01*
X93421400Y-76508978D01*
X93417724Y-76546300D01*
X93421400Y-76583622D01*
X93421400Y-76583633D01*
X93432397Y-76695286D01*
X93455469Y-76771344D01*
X93475854Y-76838546D01*
X93546426Y-76970576D01*
X93615920Y-77055254D01*
X93641400Y-77086301D01*
X93670398Y-77110099D01*
X93990796Y-77430497D01*
X94013298Y-77457916D01*
X93978101Y-77523766D01*
X93893187Y-77803689D01*
X93864515Y-78094800D01*
X93893187Y-78385911D01*
X93978101Y-78665834D01*
X94115994Y-78923814D01*
X94301566Y-79149934D01*
X94527686Y-79335506D01*
X94592223Y-79370001D01*
X94475345Y-79439622D01*
X94259112Y-79634531D01*
X94085059Y-79867880D01*
X93959875Y-80130701D01*
X93915224Y-80277910D01*
X94036545Y-80507800D01*
X95229700Y-80507800D01*
X95229700Y-80487800D01*
X95483700Y-80487800D01*
X95483700Y-80507800D01*
X95503700Y-80507800D01*
X95503700Y-80761800D01*
X95483700Y-80761800D01*
X95483700Y-81955614D01*
X95713591Y-82076281D01*
X95847200Y-82028886D01*
X95847200Y-83338278D01*
X95843524Y-83375600D01*
X95847200Y-83412922D01*
X95847200Y-83412932D01*
X95858197Y-83524585D01*
X95897373Y-83653732D01*
X95901654Y-83667846D01*
X95972226Y-83799876D01*
X95978603Y-83807646D01*
X96067199Y-83915601D01*
X96096203Y-83939404D01*
X99912873Y-87756075D01*
X99789316Y-87921456D01*
X99662778Y-88186586D01*
X99617042Y-88337374D01*
X99738183Y-88569400D01*
X100945000Y-88569400D01*
X100945000Y-88549400D01*
X101199000Y-88549400D01*
X101199000Y-88569400D01*
X101219000Y-88569400D01*
X101219000Y-88823400D01*
X101199000Y-88823400D01*
X101199000Y-91109400D01*
X101219000Y-91109400D01*
X101219000Y-91363400D01*
X101199000Y-91363400D01*
X101199000Y-92570864D01*
X101431027Y-92691363D01*
X101707978Y-92593364D01*
X101960488Y-92443217D01*
X102178854Y-92246693D01*
X102338530Y-92032967D01*
X102359931Y-92073006D01*
X102547203Y-92301197D01*
X102775394Y-92488469D01*
X103035736Y-92627625D01*
X103318223Y-92713316D01*
X103538381Y-92735000D01*
X103685619Y-92735000D01*
X103905777Y-92713316D01*
X104188264Y-92627625D01*
X104448606Y-92488469D01*
X104676797Y-92301197D01*
X104864069Y-92073006D01*
X105003225Y-91812664D01*
X105088916Y-91530177D01*
X105096173Y-91456490D01*
X108708524Y-91456490D01*
X108753175Y-91603699D01*
X108878359Y-91866520D01*
X109052412Y-92099869D01*
X109268645Y-92294778D01*
X109394255Y-92369600D01*
X109268645Y-92444422D01*
X109052412Y-92639331D01*
X108878359Y-92872680D01*
X108753175Y-93135501D01*
X108708524Y-93282710D01*
X108829845Y-93512600D01*
X110023000Y-93512600D01*
X110023000Y-91226600D01*
X110277000Y-91226600D01*
X110277000Y-93512600D01*
X111470155Y-93512600D01*
X111591476Y-93282710D01*
X111546825Y-93135501D01*
X111421641Y-92872680D01*
X111247588Y-92639331D01*
X111031355Y-92444422D01*
X110905745Y-92369600D01*
X111031355Y-92294778D01*
X111247588Y-92099869D01*
X111421641Y-91866520D01*
X111546825Y-91603699D01*
X111591476Y-91456490D01*
X111470155Y-91226600D01*
X110277000Y-91226600D01*
X110023000Y-91226600D01*
X108829845Y-91226600D01*
X108708524Y-91456490D01*
X105096173Y-91456490D01*
X105117851Y-91236400D01*
X105088916Y-90942623D01*
X105003225Y-90660136D01*
X104864069Y-90399794D01*
X104676797Y-90171603D01*
X104448606Y-89984331D01*
X104415060Y-89966400D01*
X104448606Y-89948469D01*
X104676797Y-89761197D01*
X104864069Y-89533006D01*
X105003225Y-89272664D01*
X105088916Y-88990177D01*
X105117851Y-88696400D01*
X105088916Y-88402623D01*
X105003225Y-88120136D01*
X104864069Y-87859794D01*
X104780426Y-87757875D01*
X104828701Y-87709600D01*
X108661928Y-87709600D01*
X108661928Y-89409600D01*
X108674188Y-89534082D01*
X108710498Y-89653780D01*
X108769463Y-89764094D01*
X108848815Y-89860785D01*
X108945506Y-89940137D01*
X109055820Y-89999102D01*
X109136466Y-90023566D01*
X109052412Y-90099331D01*
X108878359Y-90332680D01*
X108753175Y-90595501D01*
X108708524Y-90742710D01*
X108829845Y-90972600D01*
X110023000Y-90972600D01*
X110023000Y-90952600D01*
X110277000Y-90952600D01*
X110277000Y-90972600D01*
X111470155Y-90972600D01*
X111591476Y-90742710D01*
X111546825Y-90595501D01*
X111421641Y-90332680D01*
X111247588Y-90099331D01*
X111163534Y-90023566D01*
X111244180Y-89999102D01*
X111354494Y-89940137D01*
X111451185Y-89860785D01*
X111530537Y-89764094D01*
X111589502Y-89653780D01*
X111625812Y-89534082D01*
X111638072Y-89409600D01*
X111638072Y-87709600D01*
X111625812Y-87585118D01*
X111589502Y-87465420D01*
X111530537Y-87355106D01*
X111451185Y-87258415D01*
X111354494Y-87179063D01*
X111244180Y-87120098D01*
X111124482Y-87083788D01*
X111000000Y-87071528D01*
X109300000Y-87071528D01*
X109175518Y-87083788D01*
X109055820Y-87120098D01*
X108945506Y-87179063D01*
X108848815Y-87258415D01*
X108769463Y-87355106D01*
X108710498Y-87465420D01*
X108674188Y-87585118D01*
X108661928Y-87709600D01*
X104828701Y-87709600D01*
X110585280Y-81953022D01*
X110685146Y-82086693D01*
X110903512Y-82283217D01*
X111156022Y-82433364D01*
X111432973Y-82531363D01*
X111665000Y-82410864D01*
X111665000Y-81203400D01*
X111645000Y-81203400D01*
X111645000Y-80949400D01*
X111665000Y-80949400D01*
X111665000Y-80929400D01*
X111919000Y-80929400D01*
X111919000Y-80949400D01*
X111939000Y-80949400D01*
X111939000Y-81203400D01*
X111919000Y-81203400D01*
X111919000Y-82410864D01*
X112151027Y-82531363D01*
X112427978Y-82433364D01*
X112680488Y-82283217D01*
X112898854Y-82086693D01*
X113058530Y-81872967D01*
X113079931Y-81913006D01*
X113267203Y-82141197D01*
X113495394Y-82328469D01*
X113755736Y-82467625D01*
X114038223Y-82553316D01*
X114258381Y-82575000D01*
X114405619Y-82575000D01*
X114625777Y-82553316D01*
X114908264Y-82467625D01*
X115168606Y-82328469D01*
X115396797Y-82141197D01*
X115584069Y-81913006D01*
X115723225Y-81652664D01*
X115808916Y-81370177D01*
X115837851Y-81076400D01*
X115808916Y-80782623D01*
X115723225Y-80500136D01*
X115584069Y-80239794D01*
X115396797Y-80011603D01*
X115168606Y-79824331D01*
X115135060Y-79806400D01*
X115168606Y-79788469D01*
X115396797Y-79601197D01*
X115584069Y-79373006D01*
X115723225Y-79112664D01*
X115808916Y-78830177D01*
X115837851Y-78536400D01*
X115808916Y-78242623D01*
X115723225Y-77960136D01*
X115584069Y-77699794D01*
X115396797Y-77471603D01*
X115168606Y-77284331D01*
X115135060Y-77266400D01*
X115168606Y-77248469D01*
X115396797Y-77061197D01*
X115584069Y-76833006D01*
X115723225Y-76572664D01*
X115808916Y-76290177D01*
X115837851Y-75996400D01*
X115808916Y-75702623D01*
X115723225Y-75420136D01*
X115584069Y-75159794D01*
X115396797Y-74931603D01*
X115168606Y-74744331D01*
X115135060Y-74726400D01*
X115168606Y-74708469D01*
X115396797Y-74521197D01*
X115584069Y-74293006D01*
X115723225Y-74032664D01*
X115808916Y-73750177D01*
X115837851Y-73456400D01*
X115808916Y-73162623D01*
X115723225Y-72880136D01*
X115584069Y-72619794D01*
X115396797Y-72391603D01*
X115168606Y-72204331D01*
X115135060Y-72186400D01*
X115168606Y-72168469D01*
X115396797Y-71981197D01*
X115584069Y-71753006D01*
X115723225Y-71492664D01*
X115808916Y-71210177D01*
X115837851Y-70916400D01*
X115808916Y-70622623D01*
X115723225Y-70340136D01*
X115584069Y-70079794D01*
X115396797Y-69851603D01*
X115168606Y-69664331D01*
X115135060Y-69646400D01*
X115168606Y-69628469D01*
X115396797Y-69441197D01*
X115584069Y-69213006D01*
X115723225Y-68952664D01*
X115808916Y-68670177D01*
X115837851Y-68376400D01*
X115808916Y-68082623D01*
X115723225Y-67800136D01*
X115584069Y-67539794D01*
X115396797Y-67311603D01*
X115168606Y-67124331D01*
X115135060Y-67106400D01*
X115168606Y-67088469D01*
X115396797Y-66901197D01*
X115584069Y-66673006D01*
X115723225Y-66412664D01*
X115808916Y-66130177D01*
X115837851Y-65836400D01*
X115808916Y-65542623D01*
X115723225Y-65260136D01*
X115584069Y-64999794D01*
X115396797Y-64771603D01*
X115168606Y-64584331D01*
X115135060Y-64566400D01*
X115168606Y-64548469D01*
X115396797Y-64361197D01*
X115584069Y-64133006D01*
X115723225Y-63872664D01*
X115808916Y-63590177D01*
X115837851Y-63296400D01*
X115808916Y-63002623D01*
X115723225Y-62720136D01*
X115584069Y-62459794D01*
X115396797Y-62231603D01*
X115168606Y-62044331D01*
X115135060Y-62026400D01*
X115168606Y-62008469D01*
X115396797Y-61821197D01*
X115584069Y-61593006D01*
X115723225Y-61332664D01*
X115808916Y-61050177D01*
X115837851Y-60756400D01*
X115808916Y-60462623D01*
X115723225Y-60180136D01*
X115584069Y-59919794D01*
X115396797Y-59691603D01*
X115168606Y-59504331D01*
X115135060Y-59486400D01*
X115168606Y-59468469D01*
X115396797Y-59281197D01*
X115584069Y-59053006D01*
X115723225Y-58792664D01*
X115808916Y-58510177D01*
X115837851Y-58216400D01*
X115808916Y-57922623D01*
X115723225Y-57640136D01*
X115584069Y-57379794D01*
X115396797Y-57151603D01*
X115168606Y-56964331D01*
X115135060Y-56946400D01*
X115168606Y-56928469D01*
X115396797Y-56741197D01*
X115584069Y-56513006D01*
X115723225Y-56252664D01*
X115808916Y-55970177D01*
X115837851Y-55676400D01*
X115808916Y-55382623D01*
X115723225Y-55100136D01*
X115584069Y-54839794D01*
X115396797Y-54611603D01*
X115168606Y-54424331D01*
X115135060Y-54406400D01*
X115168606Y-54388469D01*
X115396797Y-54201197D01*
X115584069Y-53973006D01*
X115723225Y-53712664D01*
X115808916Y-53430177D01*
X115837851Y-53136400D01*
X115808916Y-52842623D01*
X115723225Y-52560136D01*
X115584069Y-52299794D01*
X115396797Y-52071603D01*
X115168606Y-51884331D01*
X115135060Y-51866400D01*
X115168606Y-51848469D01*
X115396797Y-51661197D01*
X115584069Y-51433006D01*
X115723225Y-51172664D01*
X115808916Y-50890177D01*
X115837851Y-50596400D01*
X115808916Y-50302623D01*
X115723225Y-50020136D01*
X115584069Y-49759794D01*
X115396797Y-49531603D01*
X115168606Y-49344331D01*
X114908264Y-49205175D01*
X114625777Y-49119484D01*
X114405619Y-49097800D01*
X114258381Y-49097800D01*
X114038223Y-49119484D01*
X113755736Y-49205175D01*
X113495394Y-49344331D01*
X113267203Y-49531603D01*
X113260586Y-49539665D01*
X113245102Y-49488620D01*
X113186137Y-49378306D01*
X113106785Y-49281615D01*
X113010094Y-49202263D01*
X112899780Y-49143298D01*
X112780082Y-49106988D01*
X112655600Y-49094728D01*
X112077750Y-49097800D01*
X111919000Y-49256550D01*
X111919000Y-50469400D01*
X111939000Y-50469400D01*
X111939000Y-50723400D01*
X111919000Y-50723400D01*
X111919000Y-50743400D01*
X111665000Y-50743400D01*
X111665000Y-50723400D01*
X110452150Y-50723400D01*
X110293400Y-50882150D01*
X110290328Y-51460000D01*
X110302588Y-51584482D01*
X110315489Y-51627009D01*
X104728228Y-57214271D01*
X104676797Y-57151603D01*
X104448606Y-56964331D01*
X104415060Y-56946400D01*
X104448606Y-56928469D01*
X104676797Y-56741197D01*
X104864069Y-56513006D01*
X105003225Y-56252664D01*
X105088916Y-55970177D01*
X105117851Y-55676400D01*
X105088916Y-55382623D01*
X105003225Y-55100136D01*
X104864069Y-54839794D01*
X104676797Y-54611603D01*
X104448606Y-54424331D01*
X104415060Y-54406400D01*
X104448606Y-54388469D01*
X104676797Y-54201197D01*
X104864069Y-53973006D01*
X105003225Y-53712664D01*
X105088916Y-53430177D01*
X105117851Y-53136400D01*
X105088916Y-52842623D01*
X105003225Y-52560136D01*
X104864069Y-52299794D01*
X104676797Y-52071603D01*
X104448606Y-51884331D01*
X104415060Y-51866400D01*
X104448606Y-51848469D01*
X104676797Y-51661197D01*
X104864069Y-51433006D01*
X105003225Y-51172664D01*
X105088916Y-50890177D01*
X105117851Y-50596400D01*
X105088916Y-50302623D01*
X105003225Y-50020136D01*
X104864069Y-49759794D01*
X104841916Y-49732800D01*
X110290328Y-49732800D01*
X110293400Y-50310650D01*
X110452150Y-50469400D01*
X111665000Y-50469400D01*
X111665000Y-49256550D01*
X111506250Y-49097800D01*
X110928400Y-49094728D01*
X110803918Y-49106988D01*
X110684220Y-49143298D01*
X110573906Y-49202263D01*
X110477215Y-49281615D01*
X110397863Y-49378306D01*
X110338898Y-49488620D01*
X110302588Y-49608318D01*
X110290328Y-49732800D01*
X104841916Y-49732800D01*
X104676797Y-49531603D01*
X104448606Y-49344331D01*
X104188264Y-49205175D01*
X103905777Y-49119484D01*
X103685619Y-49097800D01*
X103538381Y-49097800D01*
X103318223Y-49119484D01*
X103035736Y-49205175D01*
X102775394Y-49344331D01*
X102547203Y-49531603D01*
X102540586Y-49539665D01*
X102525102Y-49488620D01*
X102466137Y-49378306D01*
X102386785Y-49281615D01*
X102290094Y-49202263D01*
X102179780Y-49143298D01*
X102060082Y-49106988D01*
X101935600Y-49094728D01*
X101357750Y-49097800D01*
X101199000Y-49256550D01*
X101199000Y-50469400D01*
X101219000Y-50469400D01*
X101219000Y-50723400D01*
X101199000Y-50723400D01*
X101199000Y-50743400D01*
X100945000Y-50743400D01*
X100945000Y-50723400D01*
X99732150Y-50723400D01*
X99573400Y-50882150D01*
X99572639Y-51025300D01*
X90917823Y-51025300D01*
X90880500Y-51021624D01*
X90843177Y-51025300D01*
X90843167Y-51025300D01*
X90731514Y-51036297D01*
X90588253Y-51079754D01*
X90456224Y-51150326D01*
X90340499Y-51245299D01*
X90316701Y-51274297D01*
X81743205Y-59847794D01*
X81609274Y-59713863D01*
X81439756Y-59600595D01*
X81251398Y-59522574D01*
X81051439Y-59482800D01*
X80847561Y-59482800D01*
X80647602Y-59522574D01*
X80532865Y-59570100D01*
X79392795Y-59570100D01*
X79355906Y-59501086D01*
X79170334Y-59274966D01*
X78944214Y-59089394D01*
X78686234Y-58951501D01*
X78406311Y-58866587D01*
X78188150Y-58845100D01*
X78042250Y-58845100D01*
X77824089Y-58866587D01*
X77544166Y-58951501D01*
X77286186Y-59089394D01*
X77060066Y-59274966D01*
X76874494Y-59501086D01*
X76736601Y-59759066D01*
X76651687Y-60038989D01*
X76623015Y-60330100D01*
X76113240Y-60330100D01*
X76113240Y-52461512D01*
X80688600Y-52461512D01*
X80688600Y-52685088D01*
X80732217Y-52904367D01*
X80817776Y-53110924D01*
X80941988Y-53296820D01*
X81100080Y-53454912D01*
X81285976Y-53579124D01*
X81492533Y-53664683D01*
X81711812Y-53708300D01*
X81935388Y-53708300D01*
X82154667Y-53664683D01*
X82361224Y-53579124D01*
X82547120Y-53454912D01*
X82705212Y-53296820D01*
X82829424Y-53110924D01*
X82914983Y-52904367D01*
X82958600Y-52685088D01*
X82958600Y-52461512D01*
X82914983Y-52242233D01*
X82829424Y-52035676D01*
X82705212Y-51849780D01*
X82547120Y-51691688D01*
X82361224Y-51567476D01*
X82154667Y-51481917D01*
X81935388Y-51438300D01*
X81711812Y-51438300D01*
X81492533Y-51481917D01*
X81285976Y-51567476D01*
X81100080Y-51691688D01*
X80941988Y-51849780D01*
X80817776Y-52035676D01*
X80732217Y-52242233D01*
X80688600Y-52461512D01*
X76113240Y-52461512D01*
X76113240Y-49732800D01*
X99570328Y-49732800D01*
X99573400Y-50310650D01*
X99732150Y-50469400D01*
X100945000Y-50469400D01*
X100945000Y-49256550D01*
X100786250Y-49097800D01*
X100208400Y-49094728D01*
X100083918Y-49106988D01*
X99964220Y-49143298D01*
X99853906Y-49202263D01*
X99757215Y-49281615D01*
X99677863Y-49378306D01*
X99618898Y-49488620D01*
X99582588Y-49608318D01*
X99570328Y-49732800D01*
X76113240Y-49732800D01*
X76113240Y-48061512D01*
X80688600Y-48061512D01*
X80688600Y-48285088D01*
X80732217Y-48504367D01*
X80817776Y-48710924D01*
X80941988Y-48896820D01*
X81100080Y-49054912D01*
X81285976Y-49179124D01*
X81492533Y-49264683D01*
X81711812Y-49308300D01*
X81935388Y-49308300D01*
X82154667Y-49264683D01*
X82361224Y-49179124D01*
X82547120Y-49054912D01*
X82705212Y-48896820D01*
X82829424Y-48710924D01*
X82914983Y-48504367D01*
X82958600Y-48285088D01*
X82958600Y-48061512D01*
X82914983Y-47842233D01*
X82829424Y-47635676D01*
X82705212Y-47449780D01*
X82547120Y-47291688D01*
X82361224Y-47167476D01*
X82154667Y-47081917D01*
X81935388Y-47038300D01*
X81711812Y-47038300D01*
X81492533Y-47081917D01*
X81285976Y-47167476D01*
X81100080Y-47291688D01*
X80941988Y-47449780D01*
X80817776Y-47635676D01*
X80732217Y-47842233D01*
X80688600Y-48061512D01*
X76113240Y-48061512D01*
X76113240Y-44330121D01*
X117793240Y-44323898D01*
X117793241Y-97833679D01*
X117793241Y-97833679D01*
G37*
X117793241Y-97833679D02*
X76113240Y-97839902D01*
X76113240Y-96179600D01*
X108657815Y-96179600D01*
X108686487Y-96470711D01*
X108771401Y-96750634D01*
X108909294Y-97008614D01*
X109094866Y-97234734D01*
X109320986Y-97420306D01*
X109578966Y-97558199D01*
X109858889Y-97643113D01*
X110077050Y-97664600D01*
X110222950Y-97664600D01*
X110441111Y-97643113D01*
X110721034Y-97558199D01*
X110979014Y-97420306D01*
X111205134Y-97234734D01*
X111390706Y-97008614D01*
X111528599Y-96750634D01*
X111613513Y-96470711D01*
X111642185Y-96179600D01*
X111613513Y-95888489D01*
X111528599Y-95608566D01*
X111390706Y-95350586D01*
X111205134Y-95124466D01*
X110979014Y-94938894D01*
X110914477Y-94904399D01*
X111031355Y-94834778D01*
X111247588Y-94639869D01*
X111421641Y-94406520D01*
X111546825Y-94143699D01*
X111591476Y-93996490D01*
X111470155Y-93766600D01*
X110277000Y-93766600D01*
X110277000Y-93786600D01*
X110023000Y-93786600D01*
X110023000Y-93766600D01*
X108829845Y-93766600D01*
X108708524Y-93996490D01*
X108753175Y-94143699D01*
X108878359Y-94406520D01*
X109052412Y-94639869D01*
X109268645Y-94834778D01*
X109385523Y-94904399D01*
X109320986Y-94938894D01*
X109094866Y-95124466D01*
X108909294Y-95350586D01*
X108771401Y-95608566D01*
X108686487Y-95888489D01*
X108657815Y-96179600D01*
X76113240Y-96179600D01*
X76113240Y-91595426D01*
X99617042Y-91595426D01*
X99662778Y-91746214D01*
X99789316Y-92011344D01*
X99965146Y-92246693D01*
X100183512Y-92443217D01*
X100436022Y-92593364D01*
X100712973Y-92691363D01*
X100945000Y-92570864D01*
X100945000Y-91363400D01*
X99738183Y-91363400D01*
X99617042Y-91595426D01*
X76113240Y-91595426D01*
X76113240Y-89055426D01*
X99617042Y-89055426D01*
X99662778Y-89206214D01*
X99789316Y-89471344D01*
X99965146Y-89706693D01*
X100183512Y-89903217D01*
X100289770Y-89966400D01*
X100183512Y-90029583D01*
X99965146Y-90226107D01*
X99789316Y-90461456D01*
X99662778Y-90726586D01*
X99617042Y-90877374D01*
X99738183Y-91109400D01*
X100945000Y-91109400D01*
X100945000Y-88823400D01*
X99738183Y-88823400D01*
X99617042Y-89055426D01*
X76113240Y-89055426D01*
X76113240Y-80991690D01*
X90293124Y-80991690D01*
X90337775Y-81138899D01*
X90462959Y-81401720D01*
X90637012Y-81635069D01*
X90853245Y-81829978D01*
X91103348Y-81978957D01*
X91377709Y-82076281D01*
X91607600Y-81955614D01*
X91607600Y-80761800D01*
X91861600Y-80761800D01*
X91861600Y-81955614D01*
X92091491Y-82076281D01*
X92365852Y-81978957D01*
X92615955Y-81829978D01*
X92832188Y-81635069D01*
X93006241Y-81401720D01*
X93131425Y-81138899D01*
X93176076Y-80991690D01*
X93915224Y-80991690D01*
X93959875Y-81138899D01*
X94085059Y-81401720D01*
X94259112Y-81635069D01*
X94475345Y-81829978D01*
X94725448Y-81978957D01*
X94999809Y-82076281D01*
X95229700Y-81955614D01*
X95229700Y-80761800D01*
X94036545Y-80761800D01*
X93915224Y-80991690D01*
X93176076Y-80991690D01*
X93054755Y-80761800D01*
X91861600Y-80761800D01*
X91607600Y-80761800D01*
X90414445Y-80761800D01*
X90293124Y-80991690D01*
X76113240Y-80991690D01*
X76113240Y-67100100D01*
X76627128Y-67100100D01*
X76627128Y-68800100D01*
X76639388Y-68924582D01*
X76675698Y-69044280D01*
X76734663Y-69154594D01*
X76814015Y-69251285D01*
X76910706Y-69330637D01*
X77021020Y-69389602D01*
X77140718Y-69425912D01*
X77265200Y-69438172D01*
X78965200Y-69438172D01*
X79089682Y-69425912D01*
X79209380Y-69389602D01*
X79319694Y-69330637D01*
X79416385Y-69251285D01*
X79495737Y-69154594D01*
X79554702Y-69044280D01*
X79591012Y-68924582D01*
X79603272Y-68800100D01*
X79603272Y-67100100D01*
X79591012Y-66975618D01*
X79554702Y-66855920D01*
X79495737Y-66745606D01*
X79416385Y-66648915D01*
X79319694Y-66569563D01*
X79209380Y-66510598D01*
X79128734Y-66486134D01*
X79212788Y-66410369D01*
X79386841Y-66177020D01*
X79512025Y-65914199D01*
X79556676Y-65766990D01*
X79435355Y-65537100D01*
X78242200Y-65537100D01*
X78242200Y-65557100D01*
X77988200Y-65557100D01*
X77988200Y-65537100D01*
X76795045Y-65537100D01*
X76673724Y-65766990D01*
X76718375Y-65914199D01*
X76843559Y-66177020D01*
X77017612Y-66410369D01*
X77101666Y-66486134D01*
X77021020Y-66510598D01*
X76910706Y-66569563D01*
X76814015Y-66648915D01*
X76734663Y-66745606D01*
X76675698Y-66855920D01*
X76639388Y-66975618D01*
X76627128Y-67100100D01*
X76113240Y-67100100D01*
X76113240Y-60330100D01*
X76623015Y-60330100D01*
X76651687Y-60621211D01*
X76736601Y-60901134D01*
X76874494Y-61159114D01*
X77060066Y-61385234D01*
X77286186Y-61570806D01*
X77340991Y-61600100D01*
X77286186Y-61629394D01*
X77060066Y-61814966D01*
X76874494Y-62041086D01*
X76736601Y-62299066D01*
X76651687Y-62578989D01*
X76623015Y-62870100D01*
X76651687Y-63161211D01*
X76736601Y-63441134D01*
X76874494Y-63699114D01*
X77060066Y-63925234D01*
X77286186Y-64110806D01*
X77350723Y-64145301D01*
X77233845Y-64214922D01*
X77017612Y-64409831D01*
X76843559Y-64643180D01*
X76718375Y-64906001D01*
X76673724Y-65053210D01*
X76795045Y-65283100D01*
X77988200Y-65283100D01*
X77988200Y-65263100D01*
X78242200Y-65263100D01*
X78242200Y-65283100D01*
X79435355Y-65283100D01*
X79556676Y-65053210D01*
X79512025Y-64906001D01*
X79386841Y-64643180D01*
X79212788Y-64409831D01*
X78996555Y-64214922D01*
X78879677Y-64145301D01*
X78944214Y-64110806D01*
X79170334Y-63925234D01*
X79355906Y-63699114D01*
X79392795Y-63630100D01*
X80045800Y-63630100D01*
X80045800Y-63727939D01*
X80085574Y-63927898D01*
X80163595Y-64116256D01*
X80210280Y-64186125D01*
X80178195Y-64234144D01*
X80100174Y-64422502D01*
X80060400Y-64622461D01*
X80060400Y-64826339D01*
X80100174Y-65026298D01*
X80178195Y-65214656D01*
X80291463Y-65384174D01*
X80435626Y-65528337D01*
X80605144Y-65641605D01*
X80793502Y-65719626D01*
X80993461Y-65759400D01*
X81055599Y-65759400D01*
X87688700Y-72392502D01*
X87712499Y-72421501D01*
X87741497Y-72445299D01*
X87828223Y-72516474D01*
X87904790Y-72557400D01*
X87960253Y-72587046D01*
X88103514Y-72630503D01*
X88215167Y-72641500D01*
X88215177Y-72641500D01*
X88252500Y-72645176D01*
X88289823Y-72641500D01*
X89914499Y-72641500D01*
X91339726Y-74066728D01*
X90884600Y-74066728D01*
X90760118Y-74078988D01*
X90640420Y-74115298D01*
X90530106Y-74174263D01*
X90433415Y-74253615D01*
X90354063Y-74350306D01*
X90295098Y-74460620D01*
X90258788Y-74580318D01*
X90246528Y-74704800D01*
X90246528Y-76404800D01*
X90258788Y-76529282D01*
X90295098Y-76648980D01*
X90354063Y-76759294D01*
X90433415Y-76855985D01*
X90530106Y-76935337D01*
X90640420Y-76994302D01*
X90709287Y-77015193D01*
X90679466Y-77039666D01*
X90493894Y-77265786D01*
X90356001Y-77523766D01*
X90271087Y-77803689D01*
X90242415Y-78094800D01*
X90271087Y-78385911D01*
X90356001Y-78665834D01*
X90493894Y-78923814D01*
X90679466Y-79149934D01*
X90905586Y-79335506D01*
X90970123Y-79370001D01*
X90853245Y-79439622D01*
X90637012Y-79634531D01*
X90462959Y-79867880D01*
X90337775Y-80130701D01*
X90293124Y-80277910D01*
X90414445Y-80507800D01*
X91607600Y-80507800D01*
X91607600Y-80487800D01*
X91861600Y-80487800D01*
X91861600Y-80507800D01*
X93054755Y-80507800D01*
X93176076Y-80277910D01*
X93131425Y-80130701D01*
X93006241Y-79867880D01*
X92832188Y-79634531D01*
X92615955Y-79439622D01*
X92499077Y-79370001D01*
X92563614Y-79335506D01*
X92789734Y-79149934D01*
X92975306Y-78923814D01*
X93113199Y-78665834D01*
X93198113Y-78385911D01*
X93226785Y-78094800D01*
X93198113Y-77803689D01*
X93113199Y-77523766D01*
X92975306Y-77265786D01*
X92789734Y-77039666D01*
X92759913Y-77015193D01*
X92828780Y-76994302D01*
X92939094Y-76935337D01*
X93035785Y-76855985D01*
X93115137Y-76759294D01*
X93174102Y-76648980D01*
X93210412Y-76529282D01*
X93222672Y-76404800D01*
X93222672Y-75949675D01*
X93421400Y-76148403D01*
X93421400Y-76508978D01*
X93417724Y-76546300D01*
X93421400Y-76583622D01*
X93421400Y-76583633D01*
X93432397Y-76695286D01*
X93455469Y-76771344D01*
X93475854Y-76838546D01*
X93546426Y-76970576D01*
X93615920Y-77055254D01*
X93641400Y-77086301D01*
X93670398Y-77110099D01*
X93990796Y-77430497D01*
X94013298Y-77457916D01*
X93978101Y-77523766D01*
X93893187Y-77803689D01*
X93864515Y-78094800D01*
X93893187Y-78385911D01*
X93978101Y-78665834D01*
X94115994Y-78923814D01*
X94301566Y-79149934D01*
X94527686Y-79335506D01*
X94592223Y-79370001D01*
X94475345Y-79439622D01*
X94259112Y-79634531D01*
X94085059Y-79867880D01*
X93959875Y-80130701D01*
X93915224Y-80277910D01*
X94036545Y-80507800D01*
X95229700Y-80507800D01*
X95229700Y-80487800D01*
X95483700Y-80487800D01*
X95483700Y-80507800D01*
X95503700Y-80507800D01*
X95503700Y-80761800D01*
X95483700Y-80761800D01*
X95483700Y-81955614D01*
X95713591Y-82076281D01*
X95847200Y-82028886D01*
X95847200Y-83338278D01*
X95843524Y-83375600D01*
X95847200Y-83412922D01*
X95847200Y-83412932D01*
X95858197Y-83524585D01*
X95897373Y-83653732D01*
X95901654Y-83667846D01*
X95972226Y-83799876D01*
X95978603Y-83807646D01*
X96067199Y-83915601D01*
X96096203Y-83939404D01*
X99912873Y-87756075D01*
X99789316Y-87921456D01*
X99662778Y-88186586D01*
X99617042Y-88337374D01*
X99738183Y-88569400D01*
X100945000Y-88569400D01*
X100945000Y-88549400D01*
X101199000Y-88549400D01*
X101199000Y-88569400D01*
X101219000Y-88569400D01*
X101219000Y-88823400D01*
X101199000Y-88823400D01*
X101199000Y-91109400D01*
X101219000Y-91109400D01*
X101219000Y-91363400D01*
X101199000Y-91363400D01*
X101199000Y-92570864D01*
X101431027Y-92691363D01*
X101707978Y-92593364D01*
X101960488Y-92443217D01*
X102178854Y-92246693D01*
X102338530Y-92032967D01*
X102359931Y-92073006D01*
X102547203Y-92301197D01*
X102775394Y-92488469D01*
X103035736Y-92627625D01*
X103318223Y-92713316D01*
X103538381Y-92735000D01*
X103685619Y-92735000D01*
X103905777Y-92713316D01*
X104188264Y-92627625D01*
X104448606Y-92488469D01*
X104676797Y-92301197D01*
X104864069Y-92073006D01*
X105003225Y-91812664D01*
X105088916Y-91530177D01*
X105096173Y-91456490D01*
X108708524Y-91456490D01*
X108753175Y-91603699D01*
X108878359Y-91866520D01*
X109052412Y-92099869D01*
X109268645Y-92294778D01*
X109394255Y-92369600D01*
X109268645Y-92444422D01*
X109052412Y-92639331D01*
X108878359Y-92872680D01*
X108753175Y-93135501D01*
X108708524Y-93282710D01*
X108829845Y-93512600D01*
X110023000Y-93512600D01*
X110023000Y-91226600D01*
X110277000Y-91226600D01*
X110277000Y-93512600D01*
X111470155Y-93512600D01*
X111591476Y-93282710D01*
X111546825Y-93135501D01*
X111421641Y-92872680D01*
X111247588Y-92639331D01*
X111031355Y-92444422D01*
X110905745Y-92369600D01*
X111031355Y-92294778D01*
X111247588Y-92099869D01*
X111421641Y-91866520D01*
X111546825Y-91603699D01*
X111591476Y-91456490D01*
X111470155Y-91226600D01*
X110277000Y-91226600D01*
X110023000Y-91226600D01*
X108829845Y-91226600D01*
X108708524Y-91456490D01*
X105096173Y-91456490D01*
X105117851Y-91236400D01*
X105088916Y-90942623D01*
X105003225Y-90660136D01*
X104864069Y-90399794D01*
X104676797Y-90171603D01*
X104448606Y-89984331D01*
X104415060Y-89966400D01*
X104448606Y-89948469D01*
X104676797Y-89761197D01*
X104864069Y-89533006D01*
X105003225Y-89272664D01*
X105088916Y-88990177D01*
X105117851Y-88696400D01*
X105088916Y-88402623D01*
X105003225Y-88120136D01*
X104864069Y-87859794D01*
X104780426Y-87757875D01*
X104828701Y-87709600D01*
X108661928Y-87709600D01*
X108661928Y-89409600D01*
X108674188Y-89534082D01*
X108710498Y-89653780D01*
X108769463Y-89764094D01*
X108848815Y-89860785D01*
X108945506Y-89940137D01*
X109055820Y-89999102D01*
X109136466Y-90023566D01*
X109052412Y-90099331D01*
X108878359Y-90332680D01*
X108753175Y-90595501D01*
X108708524Y-90742710D01*
X108829845Y-90972600D01*
X110023000Y-90972600D01*
X110023000Y-90952600D01*
X110277000Y-90952600D01*
X110277000Y-90972600D01*
X111470155Y-90972600D01*
X111591476Y-90742710D01*
X111546825Y-90595501D01*
X111421641Y-90332680D01*
X111247588Y-90099331D01*
X111163534Y-90023566D01*
X111244180Y-89999102D01*
X111354494Y-89940137D01*
X111451185Y-89860785D01*
X111530537Y-89764094D01*
X111589502Y-89653780D01*
X111625812Y-89534082D01*
X111638072Y-89409600D01*
X111638072Y-87709600D01*
X111625812Y-87585118D01*
X111589502Y-87465420D01*
X111530537Y-87355106D01*
X111451185Y-87258415D01*
X111354494Y-87179063D01*
X111244180Y-87120098D01*
X111124482Y-87083788D01*
X111000000Y-87071528D01*
X109300000Y-87071528D01*
X109175518Y-87083788D01*
X109055820Y-87120098D01*
X108945506Y-87179063D01*
X108848815Y-87258415D01*
X108769463Y-87355106D01*
X108710498Y-87465420D01*
X108674188Y-87585118D01*
X108661928Y-87709600D01*
X104828701Y-87709600D01*
X110585280Y-81953022D01*
X110685146Y-82086693D01*
X110903512Y-82283217D01*
X111156022Y-82433364D01*
X111432973Y-82531363D01*
X111665000Y-82410864D01*
X111665000Y-81203400D01*
X111645000Y-81203400D01*
X111645000Y-80949400D01*
X111665000Y-80949400D01*
X111665000Y-80929400D01*
X111919000Y-80929400D01*
X111919000Y-80949400D01*
X111939000Y-80949400D01*
X111939000Y-81203400D01*
X111919000Y-81203400D01*
X111919000Y-82410864D01*
X112151027Y-82531363D01*
X112427978Y-82433364D01*
X112680488Y-82283217D01*
X112898854Y-82086693D01*
X113058530Y-81872967D01*
X113079931Y-81913006D01*
X113267203Y-82141197D01*
X113495394Y-82328469D01*
X113755736Y-82467625D01*
X114038223Y-82553316D01*
X114258381Y-82575000D01*
X114405619Y-82575000D01*
X114625777Y-82553316D01*
X114908264Y-82467625D01*
X115168606Y-82328469D01*
X115396797Y-82141197D01*
X115584069Y-81913006D01*
X115723225Y-81652664D01*
X115808916Y-81370177D01*
X115837851Y-81076400D01*
X115808916Y-80782623D01*
X115723225Y-80500136D01*
X115584069Y-80239794D01*
X115396797Y-80011603D01*
X115168606Y-79824331D01*
X115135060Y-79806400D01*
X115168606Y-79788469D01*
X115396797Y-79601197D01*
X115584069Y-79373006D01*
X115723225Y-79112664D01*
X115808916Y-78830177D01*
X115837851Y-78536400D01*
X115808916Y-78242623D01*
X115723225Y-77960136D01*
X115584069Y-77699794D01*
X115396797Y-77471603D01*
X115168606Y-77284331D01*
X115135060Y-77266400D01*
X115168606Y-77248469D01*
X115396797Y-77061197D01*
X115584069Y-76833006D01*
X115723225Y-76572664D01*
X115808916Y-76290177D01*
X115837851Y-75996400D01*
X115808916Y-75702623D01*
X115723225Y-75420136D01*
X115584069Y-75159794D01*
X115396797Y-74931603D01*
X115168606Y-74744331D01*
X115135060Y-74726400D01*
X115168606Y-74708469D01*
X115396797Y-74521197D01*
X115584069Y-74293006D01*
X115723225Y-74032664D01*
X115808916Y-73750177D01*
X115837851Y-73456400D01*
X115808916Y-73162623D01*
X115723225Y-72880136D01*
X115584069Y-72619794D01*
X115396797Y-72391603D01*
X115168606Y-72204331D01*
X115135060Y-72186400D01*
X115168606Y-72168469D01*
X115396797Y-71981197D01*
X115584069Y-71753006D01*
X115723225Y-71492664D01*
X115808916Y-71210177D01*
X115837851Y-70916400D01*
X115808916Y-70622623D01*
X115723225Y-70340136D01*
X115584069Y-70079794D01*
X115396797Y-69851603D01*
X115168606Y-69664331D01*
X115135060Y-69646400D01*
X115168606Y-69628469D01*
X115396797Y-69441197D01*
X115584069Y-69213006D01*
X115723225Y-68952664D01*
X115808916Y-68670177D01*
X115837851Y-68376400D01*
X115808916Y-68082623D01*
X115723225Y-67800136D01*
X115584069Y-67539794D01*
X115396797Y-67311603D01*
X115168606Y-67124331D01*
X115135060Y-67106400D01*
X115168606Y-67088469D01*
X115396797Y-66901197D01*
X115584069Y-66673006D01*
X115723225Y-66412664D01*
X115808916Y-66130177D01*
X115837851Y-65836400D01*
X115808916Y-65542623D01*
X115723225Y-65260136D01*
X115584069Y-64999794D01*
X115396797Y-64771603D01*
X115168606Y-64584331D01*
X115135060Y-64566400D01*
X115168606Y-64548469D01*
X115396797Y-64361197D01*
X115584069Y-64133006D01*
X115723225Y-63872664D01*
X115808916Y-63590177D01*
X115837851Y-63296400D01*
X115808916Y-63002623D01*
X115723225Y-62720136D01*
X115584069Y-62459794D01*
X115396797Y-62231603D01*
X115168606Y-62044331D01*
X115135060Y-62026400D01*
X115168606Y-62008469D01*
X115396797Y-61821197D01*
X115584069Y-61593006D01*
X115723225Y-61332664D01*
X115808916Y-61050177D01*
X115837851Y-60756400D01*
X115808916Y-60462623D01*
X115723225Y-60180136D01*
X115584069Y-59919794D01*
X115396797Y-59691603D01*
X115168606Y-59504331D01*
X115135060Y-59486400D01*
X115168606Y-59468469D01*
X115396797Y-59281197D01*
X115584069Y-59053006D01*
X115723225Y-58792664D01*
X115808916Y-58510177D01*
X115837851Y-58216400D01*
X115808916Y-57922623D01*
X115723225Y-57640136D01*
X115584069Y-57379794D01*
X115396797Y-57151603D01*
X115168606Y-56964331D01*
X115135060Y-56946400D01*
X115168606Y-56928469D01*
X115396797Y-56741197D01*
X115584069Y-56513006D01*
X115723225Y-56252664D01*
X115808916Y-55970177D01*
X115837851Y-55676400D01*
X115808916Y-55382623D01*
X115723225Y-55100136D01*
X115584069Y-54839794D01*
X115396797Y-54611603D01*
X115168606Y-54424331D01*
X115135060Y-54406400D01*
X115168606Y-54388469D01*
X115396797Y-54201197D01*
X115584069Y-53973006D01*
X115723225Y-53712664D01*
X115808916Y-53430177D01*
X115837851Y-53136400D01*
X115808916Y-52842623D01*
X115723225Y-52560136D01*
X115584069Y-52299794D01*
X115396797Y-52071603D01*
X115168606Y-51884331D01*
X115135060Y-51866400D01*
X115168606Y-51848469D01*
X115396797Y-51661197D01*
X115584069Y-51433006D01*
X115723225Y-51172664D01*
X115808916Y-50890177D01*
X115837851Y-50596400D01*
X115808916Y-50302623D01*
X115723225Y-50020136D01*
X115584069Y-49759794D01*
X115396797Y-49531603D01*
X115168606Y-49344331D01*
X114908264Y-49205175D01*
X114625777Y-49119484D01*
X114405619Y-49097800D01*
X114258381Y-49097800D01*
X114038223Y-49119484D01*
X113755736Y-49205175D01*
X113495394Y-49344331D01*
X113267203Y-49531603D01*
X113260586Y-49539665D01*
X113245102Y-49488620D01*
X113186137Y-49378306D01*
X113106785Y-49281615D01*
X113010094Y-49202263D01*
X112899780Y-49143298D01*
X112780082Y-49106988D01*
X112655600Y-49094728D01*
X112077750Y-49097800D01*
X111919000Y-49256550D01*
X111919000Y-50469400D01*
X111939000Y-50469400D01*
X111939000Y-50723400D01*
X111919000Y-50723400D01*
X111919000Y-50743400D01*
X111665000Y-50743400D01*
X111665000Y-50723400D01*
X110452150Y-50723400D01*
X110293400Y-50882150D01*
X110290328Y-51460000D01*
X110302588Y-51584482D01*
X110315489Y-51627009D01*
X104728228Y-57214271D01*
X104676797Y-57151603D01*
X104448606Y-56964331D01*
X104415060Y-56946400D01*
X104448606Y-56928469D01*
X104676797Y-56741197D01*
X104864069Y-56513006D01*
X105003225Y-56252664D01*
X105088916Y-55970177D01*
X105117851Y-55676400D01*
X105088916Y-55382623D01*
X105003225Y-55100136D01*
X104864069Y-54839794D01*
X104676797Y-54611603D01*
X104448606Y-54424331D01*
X104415060Y-54406400D01*
X104448606Y-54388469D01*
X104676797Y-54201197D01*
X104864069Y-53973006D01*
X105003225Y-53712664D01*
X105088916Y-53430177D01*
X105117851Y-53136400D01*
X105088916Y-52842623D01*
X105003225Y-52560136D01*
X104864069Y-52299794D01*
X104676797Y-52071603D01*
X104448606Y-51884331D01*
X104415060Y-51866400D01*
X104448606Y-51848469D01*
X104676797Y-51661197D01*
X104864069Y-51433006D01*
X105003225Y-51172664D01*
X105088916Y-50890177D01*
X105117851Y-50596400D01*
X105088916Y-50302623D01*
X105003225Y-50020136D01*
X104864069Y-49759794D01*
X104841916Y-49732800D01*
X110290328Y-49732800D01*
X110293400Y-50310650D01*
X110452150Y-50469400D01*
X111665000Y-50469400D01*
X111665000Y-49256550D01*
X111506250Y-49097800D01*
X110928400Y-49094728D01*
X110803918Y-49106988D01*
X110684220Y-49143298D01*
X110573906Y-49202263D01*
X110477215Y-49281615D01*
X110397863Y-49378306D01*
X110338898Y-49488620D01*
X110302588Y-49608318D01*
X110290328Y-49732800D01*
X104841916Y-49732800D01*
X104676797Y-49531603D01*
X104448606Y-49344331D01*
X104188264Y-49205175D01*
X103905777Y-49119484D01*
X103685619Y-49097800D01*
X103538381Y-49097800D01*
X103318223Y-49119484D01*
X103035736Y-49205175D01*
X102775394Y-49344331D01*
X102547203Y-49531603D01*
X102540586Y-49539665D01*
X102525102Y-49488620D01*
X102466137Y-49378306D01*
X102386785Y-49281615D01*
X102290094Y-49202263D01*
X102179780Y-49143298D01*
X102060082Y-49106988D01*
X101935600Y-49094728D01*
X101357750Y-49097800D01*
X101199000Y-49256550D01*
X101199000Y-50469400D01*
X101219000Y-50469400D01*
X101219000Y-50723400D01*
X101199000Y-50723400D01*
X101199000Y-50743400D01*
X100945000Y-50743400D01*
X100945000Y-50723400D01*
X99732150Y-50723400D01*
X99573400Y-50882150D01*
X99572639Y-51025300D01*
X90917823Y-51025300D01*
X90880500Y-51021624D01*
X90843177Y-51025300D01*
X90843167Y-51025300D01*
X90731514Y-51036297D01*
X90588253Y-51079754D01*
X90456224Y-51150326D01*
X90340499Y-51245299D01*
X90316701Y-51274297D01*
X81743205Y-59847794D01*
X81609274Y-59713863D01*
X81439756Y-59600595D01*
X81251398Y-59522574D01*
X81051439Y-59482800D01*
X80847561Y-59482800D01*
X80647602Y-59522574D01*
X80532865Y-59570100D01*
X79392795Y-59570100D01*
X79355906Y-59501086D01*
X79170334Y-59274966D01*
X78944214Y-59089394D01*
X78686234Y-58951501D01*
X78406311Y-58866587D01*
X78188150Y-58845100D01*
X78042250Y-58845100D01*
X77824089Y-58866587D01*
X77544166Y-58951501D01*
X77286186Y-59089394D01*
X77060066Y-59274966D01*
X76874494Y-59501086D01*
X76736601Y-59759066D01*
X76651687Y-60038989D01*
X76623015Y-60330100D01*
X76113240Y-60330100D01*
X76113240Y-52461512D01*
X80688600Y-52461512D01*
X80688600Y-52685088D01*
X80732217Y-52904367D01*
X80817776Y-53110924D01*
X80941988Y-53296820D01*
X81100080Y-53454912D01*
X81285976Y-53579124D01*
X81492533Y-53664683D01*
X81711812Y-53708300D01*
X81935388Y-53708300D01*
X82154667Y-53664683D01*
X82361224Y-53579124D01*
X82547120Y-53454912D01*
X82705212Y-53296820D01*
X82829424Y-53110924D01*
X82914983Y-52904367D01*
X82958600Y-52685088D01*
X82958600Y-52461512D01*
X82914983Y-52242233D01*
X82829424Y-52035676D01*
X82705212Y-51849780D01*
X82547120Y-51691688D01*
X82361224Y-51567476D01*
X82154667Y-51481917D01*
X81935388Y-51438300D01*
X81711812Y-51438300D01*
X81492533Y-51481917D01*
X81285976Y-51567476D01*
X81100080Y-51691688D01*
X80941988Y-51849780D01*
X80817776Y-52035676D01*
X80732217Y-52242233D01*
X80688600Y-52461512D01*
X76113240Y-52461512D01*
X76113240Y-49732800D01*
X99570328Y-49732800D01*
X99573400Y-50310650D01*
X99732150Y-50469400D01*
X100945000Y-50469400D01*
X100945000Y-49256550D01*
X100786250Y-49097800D01*
X100208400Y-49094728D01*
X100083918Y-49106988D01*
X99964220Y-49143298D01*
X99853906Y-49202263D01*
X99757215Y-49281615D01*
X99677863Y-49378306D01*
X99618898Y-49488620D01*
X99582588Y-49608318D01*
X99570328Y-49732800D01*
X76113240Y-49732800D01*
X76113240Y-48061512D01*
X80688600Y-48061512D01*
X80688600Y-48285088D01*
X80732217Y-48504367D01*
X80817776Y-48710924D01*
X80941988Y-48896820D01*
X81100080Y-49054912D01*
X81285976Y-49179124D01*
X81492533Y-49264683D01*
X81711812Y-49308300D01*
X81935388Y-49308300D01*
X82154667Y-49264683D01*
X82361224Y-49179124D01*
X82547120Y-49054912D01*
X82705212Y-48896820D01*
X82829424Y-48710924D01*
X82914983Y-48504367D01*
X82958600Y-48285088D01*
X82958600Y-48061512D01*
X82914983Y-47842233D01*
X82829424Y-47635676D01*
X82705212Y-47449780D01*
X82547120Y-47291688D01*
X82361224Y-47167476D01*
X82154667Y-47081917D01*
X81935388Y-47038300D01*
X81711812Y-47038300D01*
X81492533Y-47081917D01*
X81285976Y-47167476D01*
X81100080Y-47291688D01*
X80941988Y-47449780D01*
X80817776Y-47635676D01*
X80732217Y-47842233D01*
X80688600Y-48061512D01*
X76113240Y-48061512D01*
X76113240Y-44330121D01*
X117793240Y-44323898D01*
X117793241Y-97833679D01*
G36*
X102359931Y-89533006D02*
G01*
X102547203Y-89761197D01*
X102775394Y-89948469D01*
X102808940Y-89966400D01*
X102775394Y-89984331D01*
X102547203Y-90171603D01*
X102359931Y-90399794D01*
X102338530Y-90439833D01*
X102178854Y-90226107D01*
X101960488Y-90029583D01*
X101854230Y-89966400D01*
X101960488Y-89903217D01*
X102178854Y-89706693D01*
X102338530Y-89492967D01*
X102359931Y-89533006D01*
X102359931Y-89533006D01*
G37*
X102359931Y-89533006D02*
X102547203Y-89761197D01*
X102775394Y-89948469D01*
X102808940Y-89966400D01*
X102775394Y-89984331D01*
X102547203Y-90171603D01*
X102359931Y-90399794D01*
X102338530Y-90439833D01*
X102178854Y-90226107D01*
X101960488Y-90029583D01*
X101854230Y-89966400D01*
X101960488Y-89903217D01*
X102178854Y-89706693D01*
X102338530Y-89492967D01*
X102359931Y-89533006D01*
G36*
X99912231Y-82676933D02*
G01*
X99789316Y-82841456D01*
X99662778Y-83106586D01*
X99617042Y-83257374D01*
X99738183Y-83489400D01*
X100945000Y-83489400D01*
X100945000Y-83469400D01*
X101199000Y-83469400D01*
X101199000Y-83489400D01*
X101219000Y-83489400D01*
X101219000Y-83743400D01*
X101199000Y-83743400D01*
X101199000Y-86029400D01*
X101219000Y-86029400D01*
X101219000Y-86283400D01*
X101199000Y-86283400D01*
X101199000Y-86303400D01*
X100945000Y-86303400D01*
X100945000Y-86283400D01*
X100925000Y-86283400D01*
X100925000Y-86029400D01*
X100945000Y-86029400D01*
X100945000Y-83743400D01*
X99738183Y-83743400D01*
X99617042Y-83975426D01*
X99662778Y-84126214D01*
X99789316Y-84391344D01*
X99965146Y-84626693D01*
X100183512Y-84823217D01*
X100289770Y-84886400D01*
X100183512Y-84949583D01*
X99965146Y-85146107D01*
X99789316Y-85381456D01*
X99756537Y-85450136D01*
X97367200Y-83060799D01*
X97367200Y-80131901D01*
X99912231Y-82676933D01*
X99912231Y-82676933D01*
G37*
X99912231Y-82676933D02*
X99789316Y-82841456D01*
X99662778Y-83106586D01*
X99617042Y-83257374D01*
X99738183Y-83489400D01*
X100945000Y-83489400D01*
X100945000Y-83469400D01*
X101199000Y-83469400D01*
X101199000Y-83489400D01*
X101219000Y-83489400D01*
X101219000Y-83743400D01*
X101199000Y-83743400D01*
X101199000Y-86029400D01*
X101219000Y-86029400D01*
X101219000Y-86283400D01*
X101199000Y-86283400D01*
X101199000Y-86303400D01*
X100945000Y-86303400D01*
X100945000Y-86283400D01*
X100925000Y-86283400D01*
X100925000Y-86029400D01*
X100945000Y-86029400D01*
X100945000Y-83743400D01*
X99738183Y-83743400D01*
X99617042Y-83975426D01*
X99662778Y-84126214D01*
X99789316Y-84391344D01*
X99965146Y-84626693D01*
X100183512Y-84823217D01*
X100289770Y-84886400D01*
X100183512Y-84949583D01*
X99965146Y-85146107D01*
X99789316Y-85381456D01*
X99756537Y-85450136D01*
X97367200Y-83060799D01*
X97367200Y-80131901D01*
X99912231Y-82676933D01*
G36*
X101199000Y-80949400D02*
G01*
X101219000Y-80949400D01*
X101219000Y-81203400D01*
X101199000Y-81203400D01*
X101199000Y-81223400D01*
X100945000Y-81223400D01*
X100945000Y-81203400D01*
X100925000Y-81203400D01*
X100925000Y-80949400D01*
X100945000Y-80949400D01*
X100945000Y-80929400D01*
X101199000Y-80929400D01*
X101199000Y-80949400D01*
X101199000Y-80949400D01*
G37*
X101199000Y-80949400D02*
X101219000Y-80949400D01*
X101219000Y-81203400D01*
X101199000Y-81203400D01*
X101199000Y-81223400D01*
X100945000Y-81223400D01*
X100945000Y-81203400D01*
X100925000Y-81203400D01*
X100925000Y-80949400D01*
X100945000Y-80949400D01*
X100945000Y-80929400D01*
X101199000Y-80929400D01*
X101199000Y-80949400D01*
G36*
X111919000Y-78409400D02*
G01*
X111939000Y-78409400D01*
X111939000Y-78663400D01*
X111919000Y-78663400D01*
X111919000Y-78683400D01*
X111665000Y-78683400D01*
X111665000Y-78663400D01*
X111645000Y-78663400D01*
X111645000Y-78409400D01*
X111665000Y-78409400D01*
X111665000Y-78389400D01*
X111919000Y-78389400D01*
X111919000Y-78409400D01*
X111919000Y-78409400D01*
G37*
X111919000Y-78409400D02*
X111939000Y-78409400D01*
X111939000Y-78663400D01*
X111919000Y-78663400D01*
X111919000Y-78683400D01*
X111665000Y-78683400D01*
X111665000Y-78663400D01*
X111645000Y-78663400D01*
X111645000Y-78409400D01*
X111665000Y-78409400D01*
X111665000Y-78389400D01*
X111919000Y-78389400D01*
X111919000Y-78409400D01*
G36*
X101199000Y-78409400D02*
G01*
X101219000Y-78409400D01*
X101219000Y-78663400D01*
X101199000Y-78663400D01*
X101199000Y-78683400D01*
X100945000Y-78683400D01*
X100945000Y-78663400D01*
X100925000Y-78663400D01*
X100925000Y-78409400D01*
X100945000Y-78409400D01*
X100945000Y-78389400D01*
X101199000Y-78389400D01*
X101199000Y-78409400D01*
X101199000Y-78409400D01*
G37*
X101199000Y-78409400D02*
X101219000Y-78409400D01*
X101219000Y-78663400D01*
X101199000Y-78663400D01*
X101199000Y-78683400D01*
X100945000Y-78683400D01*
X100945000Y-78663400D01*
X100925000Y-78663400D01*
X100925000Y-78409400D01*
X100945000Y-78409400D01*
X100945000Y-78389400D01*
X101199000Y-78389400D01*
X101199000Y-78409400D01*
G36*
X111919000Y-75869400D02*
G01*
X111939000Y-75869400D01*
X111939000Y-76123400D01*
X111919000Y-76123400D01*
X111919000Y-76143400D01*
X111665000Y-76143400D01*
X111665000Y-76123400D01*
X111645000Y-76123400D01*
X111645000Y-75869400D01*
X111665000Y-75869400D01*
X111665000Y-75849400D01*
X111919000Y-75849400D01*
X111919000Y-75869400D01*
X111919000Y-75869400D01*
G37*
X111919000Y-75869400D02*
X111939000Y-75869400D01*
X111939000Y-76123400D01*
X111919000Y-76123400D01*
X111919000Y-76143400D01*
X111665000Y-76143400D01*
X111665000Y-76123400D01*
X111645000Y-76123400D01*
X111645000Y-75869400D01*
X111665000Y-75869400D01*
X111665000Y-75849400D01*
X111919000Y-75849400D01*
X111919000Y-75869400D01*
G36*
X101199000Y-75869400D02*
G01*
X101219000Y-75869400D01*
X101219000Y-76123400D01*
X101199000Y-76123400D01*
X101199000Y-76143400D01*
X100945000Y-76143400D01*
X100945000Y-76123400D01*
X100925000Y-76123400D01*
X100925000Y-75869400D01*
X100945000Y-75869400D01*
X100945000Y-75849400D01*
X101199000Y-75849400D01*
X101199000Y-75869400D01*
X101199000Y-75869400D01*
G37*
X101199000Y-75869400D02*
X101219000Y-75869400D01*
X101219000Y-76123400D01*
X101199000Y-76123400D01*
X101199000Y-76143400D01*
X100945000Y-76143400D01*
X100945000Y-76123400D01*
X100925000Y-76123400D01*
X100925000Y-75869400D01*
X100945000Y-75869400D01*
X100945000Y-75849400D01*
X101199000Y-75849400D01*
X101199000Y-75869400D01*
G36*
X101199000Y-73329400D02*
G01*
X101219000Y-73329400D01*
X101219000Y-73583400D01*
X101199000Y-73583400D01*
X101199000Y-73603400D01*
X100945000Y-73603400D01*
X100945000Y-73583400D01*
X100925000Y-73583400D01*
X100925000Y-73329400D01*
X100945000Y-73329400D01*
X100945000Y-73309400D01*
X101199000Y-73309400D01*
X101199000Y-73329400D01*
X101199000Y-73329400D01*
G37*
X101199000Y-73329400D02*
X101219000Y-73329400D01*
X101219000Y-73583400D01*
X101199000Y-73583400D01*
X101199000Y-73603400D01*
X100945000Y-73603400D01*
X100945000Y-73583400D01*
X100925000Y-73583400D01*
X100925000Y-73329400D01*
X100945000Y-73329400D01*
X100945000Y-73309400D01*
X101199000Y-73309400D01*
X101199000Y-73329400D01*
G36*
X111919000Y-73329400D02*
G01*
X111939000Y-73329400D01*
X111939000Y-73583400D01*
X111919000Y-73583400D01*
X111919000Y-73603400D01*
X111665000Y-73603400D01*
X111665000Y-73583400D01*
X111645000Y-73583400D01*
X111645000Y-73329400D01*
X111665000Y-73329400D01*
X111665000Y-73309400D01*
X111919000Y-73309400D01*
X111919000Y-73329400D01*
X111919000Y-73329400D01*
G37*
X111919000Y-73329400D02*
X111939000Y-73329400D01*
X111939000Y-73583400D01*
X111919000Y-73583400D01*
X111919000Y-73603400D01*
X111665000Y-73603400D01*
X111665000Y-73583400D01*
X111645000Y-73583400D01*
X111645000Y-73329400D01*
X111665000Y-73329400D01*
X111665000Y-73309400D01*
X111919000Y-73309400D01*
X111919000Y-73329400D01*
G36*
X99617042Y-70557374D02*
G01*
X99738183Y-70789400D01*
X100945000Y-70789400D01*
X100945000Y-70769400D01*
X101199000Y-70769400D01*
X101199000Y-70789400D01*
X101219000Y-70789400D01*
X101219000Y-71043400D01*
X101199000Y-71043400D01*
X101199000Y-71063400D01*
X100945000Y-71063400D01*
X100945000Y-71043400D01*
X99738183Y-71043400D01*
X99667666Y-71178464D01*
X98976702Y-70487500D01*
X99638236Y-70487500D01*
X99617042Y-70557374D01*
X99617042Y-70557374D01*
G37*
X99617042Y-70557374D02*
X99738183Y-70789400D01*
X100945000Y-70789400D01*
X100945000Y-70769400D01*
X101199000Y-70769400D01*
X101199000Y-70789400D01*
X101219000Y-70789400D01*
X101219000Y-71043400D01*
X101199000Y-71043400D01*
X101199000Y-71063400D01*
X100945000Y-71063400D01*
X100945000Y-71043400D01*
X99738183Y-71043400D01*
X99667666Y-71178464D01*
X98976702Y-70487500D01*
X99638236Y-70487500D01*
X99617042Y-70557374D01*
G36*
X111919000Y-70789400D02*
G01*
X111939000Y-70789400D01*
X111939000Y-71043400D01*
X111919000Y-71043400D01*
X111919000Y-71063400D01*
X111665000Y-71063400D01*
X111665000Y-71043400D01*
X111645000Y-71043400D01*
X111645000Y-70789400D01*
X111665000Y-70789400D01*
X111665000Y-70769400D01*
X111919000Y-70769400D01*
X111919000Y-70789400D01*
X111919000Y-70789400D01*
G37*
X111919000Y-70789400D02*
X111939000Y-70789400D01*
X111939000Y-71043400D01*
X111919000Y-71043400D01*
X111919000Y-71063400D01*
X111665000Y-71063400D01*
X111665000Y-71043400D01*
X111645000Y-71043400D01*
X111645000Y-70789400D01*
X111665000Y-70789400D01*
X111665000Y-70769400D01*
X111919000Y-70769400D01*
X111919000Y-70789400D01*
G36*
X99662778Y-65326586D02*
G01*
X99617042Y-65477374D01*
X99738183Y-65709400D01*
X100945000Y-65709400D01*
X100945000Y-65689400D01*
X101199000Y-65689400D01*
X101199000Y-65709400D01*
X101219000Y-65709400D01*
X101219000Y-65963400D01*
X101199000Y-65963400D01*
X101199000Y-68249400D01*
X101219000Y-68249400D01*
X101219000Y-68503400D01*
X101199000Y-68503400D01*
X101199000Y-68523400D01*
X100945000Y-68523400D01*
X100945000Y-68503400D01*
X99738183Y-68503400D01*
X99617042Y-68735426D01*
X99662778Y-68886214D01*
X99701573Y-68967500D01*
X98909402Y-68967500D01*
X97035206Y-67093305D01*
X97084837Y-67043674D01*
X97198105Y-66874156D01*
X97276126Y-66685798D01*
X97315900Y-66485839D01*
X97315900Y-66423702D01*
X97544176Y-66195426D01*
X99617042Y-66195426D01*
X99662778Y-66346214D01*
X99789316Y-66611344D01*
X99965146Y-66846693D01*
X100183512Y-67043217D01*
X100289770Y-67106400D01*
X100183512Y-67169583D01*
X99965146Y-67366107D01*
X99789316Y-67601456D01*
X99662778Y-67866586D01*
X99617042Y-68017374D01*
X99738183Y-68249400D01*
X100945000Y-68249400D01*
X100945000Y-65963400D01*
X99738183Y-65963400D01*
X99617042Y-66195426D01*
X97544176Y-66195426D01*
X98477103Y-65262500D01*
X99693364Y-65262500D01*
X99662778Y-65326586D01*
X99662778Y-65326586D01*
G37*
X99662778Y-65326586D02*
X99617042Y-65477374D01*
X99738183Y-65709400D01*
X100945000Y-65709400D01*
X100945000Y-65689400D01*
X101199000Y-65689400D01*
X101199000Y-65709400D01*
X101219000Y-65709400D01*
X101219000Y-65963400D01*
X101199000Y-65963400D01*
X101199000Y-68249400D01*
X101219000Y-68249400D01*
X101219000Y-68503400D01*
X101199000Y-68503400D01*
X101199000Y-68523400D01*
X100945000Y-68523400D01*
X100945000Y-68503400D01*
X99738183Y-68503400D01*
X99617042Y-68735426D01*
X99662778Y-68886214D01*
X99701573Y-68967500D01*
X98909402Y-68967500D01*
X97035206Y-67093305D01*
X97084837Y-67043674D01*
X97198105Y-66874156D01*
X97276126Y-66685798D01*
X97315900Y-66485839D01*
X97315900Y-66423702D01*
X97544176Y-66195426D01*
X99617042Y-66195426D01*
X99662778Y-66346214D01*
X99789316Y-66611344D01*
X99965146Y-66846693D01*
X100183512Y-67043217D01*
X100289770Y-67106400D01*
X100183512Y-67169583D01*
X99965146Y-67366107D01*
X99789316Y-67601456D01*
X99662778Y-67866586D01*
X99617042Y-68017374D01*
X99738183Y-68249400D01*
X100945000Y-68249400D01*
X100945000Y-65963400D01*
X99738183Y-65963400D01*
X99617042Y-66195426D01*
X97544176Y-66195426D01*
X98477103Y-65262500D01*
X99693364Y-65262500D01*
X99662778Y-65326586D01*
G36*
X111919000Y-68249400D02*
G01*
X111939000Y-68249400D01*
X111939000Y-68503400D01*
X111919000Y-68503400D01*
X111919000Y-68523400D01*
X111665000Y-68523400D01*
X111665000Y-68503400D01*
X111645000Y-68503400D01*
X111645000Y-68249400D01*
X111665000Y-68249400D01*
X111665000Y-68229400D01*
X111919000Y-68229400D01*
X111919000Y-68249400D01*
X111919000Y-68249400D01*
G37*
X111919000Y-68249400D02*
X111939000Y-68249400D01*
X111939000Y-68503400D01*
X111919000Y-68503400D01*
X111919000Y-68523400D01*
X111665000Y-68523400D01*
X111665000Y-68503400D01*
X111645000Y-68503400D01*
X111645000Y-68249400D01*
X111665000Y-68249400D01*
X111665000Y-68229400D01*
X111919000Y-68229400D01*
X111919000Y-68249400D01*
G36*
X111919000Y-65709400D02*
G01*
X111939000Y-65709400D01*
X111939000Y-65963400D01*
X111919000Y-65963400D01*
X111919000Y-65983400D01*
X111665000Y-65983400D01*
X111665000Y-65963400D01*
X111645000Y-65963400D01*
X111645000Y-65709400D01*
X111665000Y-65709400D01*
X111665000Y-65689400D01*
X111919000Y-65689400D01*
X111919000Y-65709400D01*
X111919000Y-65709400D01*
G37*
X111919000Y-65709400D02*
X111939000Y-65709400D01*
X111939000Y-65963400D01*
X111919000Y-65963400D01*
X111919000Y-65983400D01*
X111665000Y-65983400D01*
X111665000Y-65963400D01*
X111645000Y-65963400D01*
X111645000Y-65709400D01*
X111665000Y-65709400D01*
X111665000Y-65689400D01*
X111919000Y-65689400D01*
X111919000Y-65709400D01*
G36*
X99617042Y-57857374D02*
G01*
X99738183Y-58089400D01*
X100945000Y-58089400D01*
X100945000Y-58069400D01*
X101199000Y-58069400D01*
X101199000Y-58089400D01*
X101219000Y-58089400D01*
X101219000Y-58343400D01*
X101199000Y-58343400D01*
X101199000Y-60629400D01*
X101219000Y-60629400D01*
X101219000Y-60883400D01*
X101199000Y-60883400D01*
X101199000Y-63169400D01*
X101219000Y-63169400D01*
X101219000Y-63423400D01*
X101199000Y-63423400D01*
X101199000Y-63443400D01*
X100945000Y-63443400D01*
X100945000Y-63423400D01*
X99738183Y-63423400D01*
X99617042Y-63655426D01*
X99643453Y-63742500D01*
X98199622Y-63742500D01*
X98162299Y-63738824D01*
X98124976Y-63742500D01*
X98124967Y-63742500D01*
X98013314Y-63753497D01*
X97870053Y-63796954D01*
X97738024Y-63867526D01*
X97738022Y-63867527D01*
X97738023Y-63867527D01*
X97651296Y-63938701D01*
X97651292Y-63938705D01*
X97622299Y-63962499D01*
X97598505Y-63991492D01*
X96241098Y-65348900D01*
X96178961Y-65348900D01*
X95979002Y-65388674D01*
X95790644Y-65466695D01*
X95621126Y-65579963D01*
X95571495Y-65629594D01*
X91057327Y-61115426D01*
X99617042Y-61115426D01*
X99662778Y-61266214D01*
X99789316Y-61531344D01*
X99965146Y-61766693D01*
X100183512Y-61963217D01*
X100289770Y-62026400D01*
X100183512Y-62089583D01*
X99965146Y-62286107D01*
X99789316Y-62521456D01*
X99662778Y-62786586D01*
X99617042Y-62937374D01*
X99738183Y-63169400D01*
X100945000Y-63169400D01*
X100945000Y-60883400D01*
X99738183Y-60883400D01*
X99617042Y-61115426D01*
X91057327Y-61115426D01*
X90857600Y-60915699D01*
X90857600Y-60897111D01*
X90901537Y-60853174D01*
X91014805Y-60683656D01*
X91092826Y-60495298D01*
X91132600Y-60295339D01*
X91132600Y-60091461D01*
X91092826Y-59891502D01*
X91014805Y-59703144D01*
X90901537Y-59533626D01*
X90757374Y-59389463D01*
X90587856Y-59276195D01*
X90399498Y-59198174D01*
X90199539Y-59158400D01*
X89995661Y-59158400D01*
X89795702Y-59198174D01*
X89607344Y-59276195D01*
X89437826Y-59389463D01*
X89293663Y-59533626D01*
X89180395Y-59703144D01*
X89102374Y-59891502D01*
X89062600Y-60091461D01*
X89062600Y-60295339D01*
X89088328Y-60424685D01*
X88948139Y-60396800D01*
X88744261Y-60396800D01*
X88735772Y-60398489D01*
X88650137Y-60270326D01*
X88505974Y-60126163D01*
X88336456Y-60012895D01*
X88148098Y-59934874D01*
X87948139Y-59895100D01*
X87839602Y-59895100D01*
X89159276Y-58575426D01*
X99617042Y-58575426D01*
X99662778Y-58726214D01*
X99789316Y-58991344D01*
X99965146Y-59226693D01*
X100183512Y-59423217D01*
X100289770Y-59486400D01*
X100183512Y-59549583D01*
X99965146Y-59746107D01*
X99789316Y-59981456D01*
X99662778Y-60246586D01*
X99617042Y-60397374D01*
X99738183Y-60629400D01*
X100945000Y-60629400D01*
X100945000Y-58343400D01*
X99738183Y-58343400D01*
X99617042Y-58575426D01*
X89159276Y-58575426D01*
X89985003Y-57749700D01*
X99649701Y-57749700D01*
X99617042Y-57857374D01*
X99617042Y-57857374D01*
G37*
X99617042Y-57857374D02*
X99738183Y-58089400D01*
X100945000Y-58089400D01*
X100945000Y-58069400D01*
X101199000Y-58069400D01*
X101199000Y-58089400D01*
X101219000Y-58089400D01*
X101219000Y-58343400D01*
X101199000Y-58343400D01*
X101199000Y-60629400D01*
X101219000Y-60629400D01*
X101219000Y-60883400D01*
X101199000Y-60883400D01*
X101199000Y-63169400D01*
X101219000Y-63169400D01*
X101219000Y-63423400D01*
X101199000Y-63423400D01*
X101199000Y-63443400D01*
X100945000Y-63443400D01*
X100945000Y-63423400D01*
X99738183Y-63423400D01*
X99617042Y-63655426D01*
X99643453Y-63742500D01*
X98199622Y-63742500D01*
X98162299Y-63738824D01*
X98124976Y-63742500D01*
X98124967Y-63742500D01*
X98013314Y-63753497D01*
X97870053Y-63796954D01*
X97738024Y-63867526D01*
X97738022Y-63867527D01*
X97738023Y-63867527D01*
X97651296Y-63938701D01*
X97651292Y-63938705D01*
X97622299Y-63962499D01*
X97598505Y-63991492D01*
X96241098Y-65348900D01*
X96178961Y-65348900D01*
X95979002Y-65388674D01*
X95790644Y-65466695D01*
X95621126Y-65579963D01*
X95571495Y-65629594D01*
X91057327Y-61115426D01*
X99617042Y-61115426D01*
X99662778Y-61266214D01*
X99789316Y-61531344D01*
X99965146Y-61766693D01*
X100183512Y-61963217D01*
X100289770Y-62026400D01*
X100183512Y-62089583D01*
X99965146Y-62286107D01*
X99789316Y-62521456D01*
X99662778Y-62786586D01*
X99617042Y-62937374D01*
X99738183Y-63169400D01*
X100945000Y-63169400D01*
X100945000Y-60883400D01*
X99738183Y-60883400D01*
X99617042Y-61115426D01*
X91057327Y-61115426D01*
X90857600Y-60915699D01*
X90857600Y-60897111D01*
X90901537Y-60853174D01*
X91014805Y-60683656D01*
X91092826Y-60495298D01*
X91132600Y-60295339D01*
X91132600Y-60091461D01*
X91092826Y-59891502D01*
X91014805Y-59703144D01*
X90901537Y-59533626D01*
X90757374Y-59389463D01*
X90587856Y-59276195D01*
X90399498Y-59198174D01*
X90199539Y-59158400D01*
X89995661Y-59158400D01*
X89795702Y-59198174D01*
X89607344Y-59276195D01*
X89437826Y-59389463D01*
X89293663Y-59533626D01*
X89180395Y-59703144D01*
X89102374Y-59891502D01*
X89062600Y-60091461D01*
X89062600Y-60295339D01*
X89088328Y-60424685D01*
X88948139Y-60396800D01*
X88744261Y-60396800D01*
X88735772Y-60398489D01*
X88650137Y-60270326D01*
X88505974Y-60126163D01*
X88336456Y-60012895D01*
X88148098Y-59934874D01*
X87948139Y-59895100D01*
X87839602Y-59895100D01*
X89159276Y-58575426D01*
X99617042Y-58575426D01*
X99662778Y-58726214D01*
X99789316Y-58991344D01*
X99965146Y-59226693D01*
X100183512Y-59423217D01*
X100289770Y-59486400D01*
X100183512Y-59549583D01*
X99965146Y-59746107D01*
X99789316Y-59981456D01*
X99662778Y-60246586D01*
X99617042Y-60397374D01*
X99738183Y-60629400D01*
X100945000Y-60629400D01*
X100945000Y-58343400D01*
X99738183Y-58343400D01*
X99617042Y-58575426D01*
X89159276Y-58575426D01*
X89985003Y-57749700D01*
X99649701Y-57749700D01*
X99617042Y-57857374D01*
G36*
X111919000Y-55549400D02*
G01*
X111939000Y-55549400D01*
X111939000Y-55803400D01*
X111919000Y-55803400D01*
X111919000Y-58089400D01*
X111939000Y-58089400D01*
X111939000Y-58343400D01*
X111919000Y-58343400D01*
X111919000Y-58363400D01*
X111665000Y-58363400D01*
X111665000Y-58343400D01*
X110458183Y-58343400D01*
X110337042Y-58575426D01*
X110382778Y-58726214D01*
X110509316Y-58991344D01*
X110624705Y-59145793D01*
X104821985Y-64948514D01*
X104676797Y-64771603D01*
X104448606Y-64584331D01*
X104415060Y-64566400D01*
X104448606Y-64548469D01*
X104676797Y-64361197D01*
X104864069Y-64133006D01*
X105003225Y-63872664D01*
X105088916Y-63590177D01*
X105117851Y-63296400D01*
X105088916Y-63002623D01*
X105003225Y-62720136D01*
X104864069Y-62459794D01*
X104805849Y-62388853D01*
X105311909Y-61882794D01*
X105340901Y-61859001D01*
X105364695Y-61830008D01*
X105364699Y-61830004D01*
X105435873Y-61743277D01*
X105435874Y-61743276D01*
X105506446Y-61611247D01*
X105549903Y-61467986D01*
X105560900Y-61356333D01*
X105560900Y-61356324D01*
X105564576Y-61319001D01*
X105560900Y-61281678D01*
X105560900Y-61275201D01*
X110469075Y-56367028D01*
X110509316Y-56451344D01*
X110685146Y-56686693D01*
X110903512Y-56883217D01*
X111009770Y-56946400D01*
X110903512Y-57009583D01*
X110685146Y-57206107D01*
X110509316Y-57441456D01*
X110382778Y-57706586D01*
X110337042Y-57857374D01*
X110458183Y-58089400D01*
X111665000Y-58089400D01*
X111665000Y-55803400D01*
X111645000Y-55803400D01*
X111645000Y-55549400D01*
X111665000Y-55549400D01*
X111665000Y-55529400D01*
X111919000Y-55529400D01*
X111919000Y-55549400D01*
X111919000Y-55549400D01*
G37*
X111919000Y-55549400D02*
X111939000Y-55549400D01*
X111939000Y-55803400D01*
X111919000Y-55803400D01*
X111919000Y-58089400D01*
X111939000Y-58089400D01*
X111939000Y-58343400D01*
X111919000Y-58343400D01*
X111919000Y-58363400D01*
X111665000Y-58363400D01*
X111665000Y-58343400D01*
X110458183Y-58343400D01*
X110337042Y-58575426D01*
X110382778Y-58726214D01*
X110509316Y-58991344D01*
X110624705Y-59145793D01*
X104821985Y-64948514D01*
X104676797Y-64771603D01*
X104448606Y-64584331D01*
X104415060Y-64566400D01*
X104448606Y-64548469D01*
X104676797Y-64361197D01*
X104864069Y-64133006D01*
X105003225Y-63872664D01*
X105088916Y-63590177D01*
X105117851Y-63296400D01*
X105088916Y-63002623D01*
X105003225Y-62720136D01*
X104864069Y-62459794D01*
X104805849Y-62388853D01*
X105311909Y-61882794D01*
X105340901Y-61859001D01*
X105364695Y-61830008D01*
X105364699Y-61830004D01*
X105435873Y-61743277D01*
X105435874Y-61743276D01*
X105506446Y-61611247D01*
X105549903Y-61467986D01*
X105560900Y-61356333D01*
X105560900Y-61356324D01*
X105564576Y-61319001D01*
X105560900Y-61281678D01*
X105560900Y-61275201D01*
X110469075Y-56367028D01*
X110509316Y-56451344D01*
X110685146Y-56686693D01*
X110903512Y-56883217D01*
X111009770Y-56946400D01*
X110903512Y-57009583D01*
X110685146Y-57206107D01*
X110509316Y-57441456D01*
X110382778Y-57706586D01*
X110337042Y-57857374D01*
X110458183Y-58089400D01*
X111665000Y-58089400D01*
X111665000Y-55803400D01*
X111645000Y-55803400D01*
X111645000Y-55549400D01*
X111665000Y-55549400D01*
X111665000Y-55529400D01*
X111919000Y-55529400D01*
X111919000Y-55549400D01*
G36*
X111919000Y-63169400D02*
G01*
X111939000Y-63169400D01*
X111939000Y-63423400D01*
X111919000Y-63423400D01*
X111919000Y-63443400D01*
X111665000Y-63443400D01*
X111665000Y-63423400D01*
X111645000Y-63423400D01*
X111645000Y-63169400D01*
X111665000Y-63169400D01*
X111665000Y-63149400D01*
X111919000Y-63149400D01*
X111919000Y-63169400D01*
X111919000Y-63169400D01*
G37*
X111919000Y-63169400D02*
X111939000Y-63169400D01*
X111939000Y-63423400D01*
X111919000Y-63423400D01*
X111919000Y-63443400D01*
X111665000Y-63443400D01*
X111665000Y-63423400D01*
X111645000Y-63423400D01*
X111645000Y-63169400D01*
X111665000Y-63169400D01*
X111665000Y-63149400D01*
X111919000Y-63149400D01*
X111919000Y-63169400D01*
G36*
X99662778Y-52626586D02*
G01*
X99617042Y-52777374D01*
X99738183Y-53009400D01*
X100945000Y-53009400D01*
X100945000Y-52989400D01*
X101199000Y-52989400D01*
X101199000Y-53009400D01*
X101219000Y-53009400D01*
X101219000Y-53263400D01*
X101199000Y-53263400D01*
X101199000Y-55549400D01*
X101219000Y-55549400D01*
X101219000Y-55803400D01*
X101199000Y-55803400D01*
X101199000Y-55823400D01*
X100945000Y-55823400D01*
X100945000Y-55803400D01*
X99738183Y-55803400D01*
X99617042Y-56035426D01*
X99662778Y-56186214D01*
X99683532Y-56229700D01*
X89707522Y-56229700D01*
X89670199Y-56226024D01*
X89632876Y-56229700D01*
X89632867Y-56229700D01*
X89521214Y-56240697D01*
X89377953Y-56284154D01*
X89245924Y-56354726D01*
X89245922Y-56354727D01*
X89245923Y-56354727D01*
X89159196Y-56425901D01*
X89159192Y-56425905D01*
X89130199Y-56449699D01*
X89106405Y-56478692D01*
X85432255Y-60152844D01*
X85384674Y-60105263D01*
X85215156Y-59991995D01*
X85026798Y-59913974D01*
X84826839Y-59874200D01*
X84622961Y-59874200D01*
X84423002Y-59913974D01*
X84234644Y-59991995D01*
X84065126Y-60105263D01*
X83920963Y-60249426D01*
X83807695Y-60418944D01*
X83729674Y-60607302D01*
X83689900Y-60807261D01*
X83689900Y-60869398D01*
X82449199Y-62110100D01*
X81834240Y-62110100D01*
X81869400Y-61933339D01*
X81869400Y-61871201D01*
X90245175Y-53495426D01*
X99617042Y-53495426D01*
X99662778Y-53646214D01*
X99789316Y-53911344D01*
X99965146Y-54146693D01*
X100183512Y-54343217D01*
X100289770Y-54406400D01*
X100183512Y-54469583D01*
X99965146Y-54666107D01*
X99789316Y-54901456D01*
X99662778Y-55166586D01*
X99617042Y-55317374D01*
X99738183Y-55549400D01*
X100945000Y-55549400D01*
X100945000Y-53263400D01*
X99738183Y-53263400D01*
X99617042Y-53495426D01*
X90245175Y-53495426D01*
X91195302Y-52545300D01*
X99701573Y-52545300D01*
X99662778Y-52626586D01*
X99662778Y-52626586D01*
G37*
X99662778Y-52626586D02*
X99617042Y-52777374D01*
X99738183Y-53009400D01*
X100945000Y-53009400D01*
X100945000Y-52989400D01*
X101199000Y-52989400D01*
X101199000Y-53009400D01*
X101219000Y-53009400D01*
X101219000Y-53263400D01*
X101199000Y-53263400D01*
X101199000Y-55549400D01*
X101219000Y-55549400D01*
X101219000Y-55803400D01*
X101199000Y-55803400D01*
X101199000Y-55823400D01*
X100945000Y-55823400D01*
X100945000Y-55803400D01*
X99738183Y-55803400D01*
X99617042Y-56035426D01*
X99662778Y-56186214D01*
X99683532Y-56229700D01*
X89707522Y-56229700D01*
X89670199Y-56226024D01*
X89632876Y-56229700D01*
X89632867Y-56229700D01*
X89521214Y-56240697D01*
X89377953Y-56284154D01*
X89245924Y-56354726D01*
X89245922Y-56354727D01*
X89245923Y-56354727D01*
X89159196Y-56425901D01*
X89159192Y-56425905D01*
X89130199Y-56449699D01*
X89106405Y-56478692D01*
X85432255Y-60152844D01*
X85384674Y-60105263D01*
X85215156Y-59991995D01*
X85026798Y-59913974D01*
X84826839Y-59874200D01*
X84622961Y-59874200D01*
X84423002Y-59913974D01*
X84234644Y-59991995D01*
X84065126Y-60105263D01*
X83920963Y-60249426D01*
X83807695Y-60418944D01*
X83729674Y-60607302D01*
X83689900Y-60807261D01*
X83689900Y-60869398D01*
X82449199Y-62110100D01*
X81834240Y-62110100D01*
X81869400Y-61933339D01*
X81869400Y-61871201D01*
X90245175Y-53495426D01*
X99617042Y-53495426D01*
X99662778Y-53646214D01*
X99789316Y-53911344D01*
X99965146Y-54146693D01*
X100183512Y-54343217D01*
X100289770Y-54406400D01*
X100183512Y-54469583D01*
X99965146Y-54666107D01*
X99789316Y-54901456D01*
X99662778Y-55166586D01*
X99617042Y-55317374D01*
X99738183Y-55549400D01*
X100945000Y-55549400D01*
X100945000Y-53263400D01*
X99738183Y-53263400D01*
X99617042Y-53495426D01*
X90245175Y-53495426D01*
X91195302Y-52545300D01*
X99701573Y-52545300D01*
X99662778Y-52626586D01*
G36*
X111919000Y-60629400D02*
G01*
X111939000Y-60629400D01*
X111939000Y-60883400D01*
X111919000Y-60883400D01*
X111919000Y-60903400D01*
X111665000Y-60903400D01*
X111665000Y-60883400D01*
X111645000Y-60883400D01*
X111645000Y-60629400D01*
X111665000Y-60629400D01*
X111665000Y-60609400D01*
X111919000Y-60609400D01*
X111919000Y-60629400D01*
X111919000Y-60629400D01*
G37*
X111919000Y-60629400D02*
X111939000Y-60629400D01*
X111939000Y-60883400D01*
X111919000Y-60883400D01*
X111919000Y-60903400D01*
X111665000Y-60903400D01*
X111665000Y-60883400D01*
X111645000Y-60883400D01*
X111645000Y-60629400D01*
X111665000Y-60629400D01*
X111665000Y-60609400D01*
X111919000Y-60609400D01*
X111919000Y-60629400D01*
G36*
X111919000Y-53009400D02*
G01*
X111939000Y-53009400D01*
X111939000Y-53263400D01*
X111919000Y-53263400D01*
X111919000Y-53283400D01*
X111665000Y-53283400D01*
X111665000Y-53263400D01*
X111645000Y-53263400D01*
X111645000Y-53009400D01*
X111665000Y-53009400D01*
X111665000Y-52989400D01*
X111919000Y-52989400D01*
X111919000Y-53009400D01*
X111919000Y-53009400D01*
G37*
X111919000Y-53009400D02*
X111939000Y-53009400D01*
X111939000Y-53263400D01*
X111919000Y-53263400D01*
X111919000Y-53283400D01*
X111665000Y-53283400D01*
X111665000Y-53263400D01*
X111645000Y-53263400D01*
X111645000Y-53009400D01*
X111665000Y-53009400D01*
X111665000Y-52989400D01*
X111919000Y-52989400D01*
X111919000Y-53009400D01*
M02*
