G04 #@! TF.GenerationSoftware,KiCad,Pcbnew,(5.1.0)-1*
G04 #@! TF.CreationDate,2021-02-13T20:01:35+01:00*
G04 #@! TF.ProjectId,GreaseWeazle,47726561-7365-4576-9561-7a6c652e6b69,rev?*
G04 #@! TF.SameCoordinates,Original*
G04 #@! TF.FileFunction,Legend,Top*
G04 #@! TF.FilePolarity,Positive*
%FSLAX46Y46*%
G04 Gerber Fmt 4.6, Leading zero omitted, Abs format (unit mm)*
G04 Created by KiCad (PCBNEW (5.1.0)-1) date 2021-02-13 20:01:35*
%MOMM*%
%LPD*%
G04 APERTURE LIST*
%ADD10C,0.150000*%
%ADD11C,0.120000*%
%ADD12C,0.100000*%
G04 APERTURE END LIST*
D10*
X80669733Y-82561866D02*
X80436400Y-82228533D01*
X80269733Y-82561866D02*
X80269733Y-81861866D01*
X80536400Y-81861866D01*
X80603066Y-81895200D01*
X80636400Y-81928533D01*
X80669733Y-81995200D01*
X80669733Y-82095200D01*
X80636400Y-82161866D01*
X80603066Y-82195200D01*
X80536400Y-82228533D01*
X80269733Y-82228533D01*
X80969733Y-82195200D02*
X81203066Y-82195200D01*
X81303066Y-82561866D02*
X80969733Y-82561866D01*
X80969733Y-81861866D01*
X81303066Y-81861866D01*
X81569733Y-82528533D02*
X81669733Y-82561866D01*
X81836400Y-82561866D01*
X81903066Y-82528533D01*
X81936400Y-82495200D01*
X81969733Y-82428533D01*
X81969733Y-82361866D01*
X81936400Y-82295200D01*
X81903066Y-82261866D01*
X81836400Y-82228533D01*
X81703066Y-82195200D01*
X81636400Y-82161866D01*
X81603066Y-82128533D01*
X81569733Y-82061866D01*
X81569733Y-81995200D01*
X81603066Y-81928533D01*
X81636400Y-81895200D01*
X81703066Y-81861866D01*
X81869733Y-81861866D01*
X81969733Y-81895200D01*
X82269733Y-82195200D02*
X82503066Y-82195200D01*
X82603066Y-82561866D02*
X82269733Y-82561866D01*
X82269733Y-81861866D01*
X82603066Y-81861866D01*
X82803066Y-81861866D02*
X83203066Y-81861866D01*
X83003066Y-82561866D02*
X83003066Y-81861866D01*
X113195195Y-93175200D02*
X113099957Y-93127580D01*
X112957100Y-93127580D01*
X112814242Y-93175200D01*
X112719004Y-93270438D01*
X112671385Y-93365676D01*
X112623766Y-93556152D01*
X112623766Y-93699009D01*
X112671385Y-93889485D01*
X112719004Y-93984723D01*
X112814242Y-94079961D01*
X112957100Y-94127580D01*
X113052338Y-94127580D01*
X113195195Y-94079961D01*
X113242814Y-94032342D01*
X113242814Y-93699009D01*
X113052338Y-93699009D01*
X113671385Y-94127580D02*
X113671385Y-93127580D01*
X114242814Y-94127580D01*
X114242814Y-93127580D01*
X114719004Y-94127580D02*
X114719004Y-93127580D01*
X114957100Y-93127580D01*
X115099957Y-93175200D01*
X115195195Y-93270438D01*
X115242814Y-93365676D01*
X115290433Y-93556152D01*
X115290433Y-93699009D01*
X115242814Y-93889485D01*
X115195195Y-93984723D01*
X115099957Y-94079961D01*
X114957100Y-94127580D01*
X114719004Y-94127580D01*
X113207895Y-90482800D02*
X113112657Y-90435180D01*
X112969800Y-90435180D01*
X112826942Y-90482800D01*
X112731704Y-90578038D01*
X112684085Y-90673276D01*
X112636466Y-90863752D01*
X112636466Y-91006609D01*
X112684085Y-91197085D01*
X112731704Y-91292323D01*
X112826942Y-91387561D01*
X112969800Y-91435180D01*
X113065038Y-91435180D01*
X113207895Y-91387561D01*
X113255514Y-91339942D01*
X113255514Y-91006609D01*
X113065038Y-91006609D01*
X113684085Y-91435180D02*
X113684085Y-90435180D01*
X114255514Y-91435180D01*
X114255514Y-90435180D01*
X114731704Y-91435180D02*
X114731704Y-90435180D01*
X114969800Y-90435180D01*
X115112657Y-90482800D01*
X115207895Y-90578038D01*
X115255514Y-90673276D01*
X115303133Y-90863752D01*
X115303133Y-91006609D01*
X115255514Y-91197085D01*
X115207895Y-91292323D01*
X115112657Y-91387561D01*
X114969800Y-91435180D01*
X114731704Y-91435180D01*
X112245995Y-88590428D02*
X113007900Y-88590428D01*
X112626947Y-88971380D02*
X112626947Y-88209476D01*
X114007900Y-88971380D02*
X113436471Y-88971380D01*
X113722185Y-88971380D02*
X113722185Y-87971380D01*
X113626947Y-88114238D01*
X113531709Y-88209476D01*
X113436471Y-88257095D01*
X114388852Y-88066619D02*
X114436471Y-88019000D01*
X114531709Y-87971380D01*
X114769804Y-87971380D01*
X114865042Y-88019000D01*
X114912661Y-88066619D01*
X114960280Y-88161857D01*
X114960280Y-88257095D01*
X114912661Y-88399952D01*
X114341233Y-88971380D01*
X114960280Y-88971380D01*
X115245995Y-87971380D02*
X115579328Y-88971380D01*
X115912661Y-87971380D01*
X112214185Y-96235828D02*
X112976090Y-96235828D01*
X112595138Y-96616780D02*
X112595138Y-95854876D01*
X113928471Y-95616780D02*
X113452280Y-95616780D01*
X113404661Y-96092971D01*
X113452280Y-96045352D01*
X113547519Y-95997733D01*
X113785614Y-95997733D01*
X113880852Y-96045352D01*
X113928471Y-96092971D01*
X113976090Y-96188209D01*
X113976090Y-96426304D01*
X113928471Y-96521542D01*
X113880852Y-96569161D01*
X113785614Y-96616780D01*
X113547519Y-96616780D01*
X113452280Y-96569161D01*
X113404661Y-96521542D01*
X114261804Y-95616780D02*
X114595138Y-96616780D01*
X114928471Y-95616780D01*
X90512266Y-83056260D02*
X90612266Y-83089593D01*
X90645600Y-83122926D01*
X90678933Y-83189593D01*
X90678933Y-83289593D01*
X90645600Y-83356260D01*
X90612266Y-83389593D01*
X90545600Y-83422926D01*
X90278933Y-83422926D01*
X90278933Y-82722926D01*
X90512266Y-82722926D01*
X90578933Y-82756260D01*
X90612266Y-82789593D01*
X90645600Y-82856260D01*
X90645600Y-82922926D01*
X90612266Y-82989593D01*
X90578933Y-83022926D01*
X90512266Y-83056260D01*
X90278933Y-83056260D01*
X91112266Y-82722926D02*
X91245600Y-82722926D01*
X91312266Y-82756260D01*
X91378933Y-82822926D01*
X91412266Y-82956260D01*
X91412266Y-83189593D01*
X91378933Y-83322926D01*
X91312266Y-83389593D01*
X91245600Y-83422926D01*
X91112266Y-83422926D01*
X91045600Y-83389593D01*
X90978933Y-83322926D01*
X90945600Y-83189593D01*
X90945600Y-82956260D01*
X90978933Y-82822926D01*
X91045600Y-82756260D01*
X91112266Y-82722926D01*
X91845600Y-82722926D02*
X91978933Y-82722926D01*
X92045600Y-82756260D01*
X92112266Y-82822926D01*
X92145600Y-82956260D01*
X92145600Y-83189593D01*
X92112266Y-83322926D01*
X92045600Y-83389593D01*
X91978933Y-83422926D01*
X91845600Y-83422926D01*
X91778933Y-83389593D01*
X91712266Y-83322926D01*
X91678933Y-83189593D01*
X91678933Y-82956260D01*
X91712266Y-82822926D01*
X91778933Y-82756260D01*
X91845600Y-82722926D01*
X92345600Y-82722926D02*
X92745600Y-82722926D01*
X92545600Y-83422926D02*
X92545600Y-82722926D01*
X93345600Y-83422926D02*
X92945600Y-83422926D01*
X93145600Y-83422926D02*
X93145600Y-82722926D01*
X93078933Y-82822926D01*
X93012266Y-82889593D01*
X92945600Y-82922926D01*
X94070806Y-83063880D02*
X94170806Y-83097213D01*
X94204140Y-83130546D01*
X94237473Y-83197213D01*
X94237473Y-83297213D01*
X94204140Y-83363880D01*
X94170806Y-83397213D01*
X94104140Y-83430546D01*
X93837473Y-83430546D01*
X93837473Y-82730546D01*
X94070806Y-82730546D01*
X94137473Y-82763880D01*
X94170806Y-82797213D01*
X94204140Y-82863880D01*
X94204140Y-82930546D01*
X94170806Y-82997213D01*
X94137473Y-83030546D01*
X94070806Y-83063880D01*
X93837473Y-83063880D01*
X94670806Y-82730546D02*
X94804140Y-82730546D01*
X94870806Y-82763880D01*
X94937473Y-82830546D01*
X94970806Y-82963880D01*
X94970806Y-83197213D01*
X94937473Y-83330546D01*
X94870806Y-83397213D01*
X94804140Y-83430546D01*
X94670806Y-83430546D01*
X94604140Y-83397213D01*
X94537473Y-83330546D01*
X94504140Y-83197213D01*
X94504140Y-82963880D01*
X94537473Y-82830546D01*
X94604140Y-82763880D01*
X94670806Y-82730546D01*
X95404140Y-82730546D02*
X95537473Y-82730546D01*
X95604140Y-82763880D01*
X95670806Y-82830546D01*
X95704140Y-82963880D01*
X95704140Y-83197213D01*
X95670806Y-83330546D01*
X95604140Y-83397213D01*
X95537473Y-83430546D01*
X95404140Y-83430546D01*
X95337473Y-83397213D01*
X95270806Y-83330546D01*
X95237473Y-83197213D01*
X95237473Y-82963880D01*
X95270806Y-82830546D01*
X95337473Y-82763880D01*
X95404140Y-82730546D01*
X95904140Y-82730546D02*
X96304140Y-82730546D01*
X96104140Y-83430546D02*
X96104140Y-82730546D01*
X96670806Y-82730546D02*
X96737473Y-82730546D01*
X96804140Y-82763880D01*
X96837473Y-82797213D01*
X96870806Y-82863880D01*
X96904140Y-82997213D01*
X96904140Y-83163880D01*
X96870806Y-83297213D01*
X96837473Y-83363880D01*
X96804140Y-83397213D01*
X96737473Y-83430546D01*
X96670806Y-83430546D01*
X96604140Y-83397213D01*
X96570806Y-83363880D01*
X96537473Y-83297213D01*
X96504140Y-83163880D01*
X96504140Y-82997213D01*
X96537473Y-82863880D01*
X96570806Y-82797213D01*
X96604140Y-82763880D01*
X96670806Y-82730546D01*
D11*
X89928636Y-56581700D02*
X91132764Y-56581700D01*
X89928636Y-54761700D02*
X91132764Y-54761700D01*
X89928636Y-46409000D02*
X91132764Y-46409000D01*
X89928636Y-44589000D02*
X91132764Y-44589000D01*
X83228700Y-73659100D02*
X88978700Y-73659100D01*
X83228700Y-70059100D02*
X83228700Y-73659100D01*
X88978700Y-70059100D02*
X83228700Y-70059100D01*
X91548900Y-93041000D02*
X91548900Y-90591000D01*
X88328900Y-91241000D02*
X88328900Y-93041000D01*
X96408700Y-53976300D02*
X90398700Y-53976300D01*
X94158700Y-47156300D02*
X90398700Y-47156300D01*
X90398700Y-53976300D02*
X90398700Y-52716300D01*
X90398700Y-47156300D02*
X90398700Y-48416300D01*
X83436200Y-67341100D02*
X83436200Y-68631100D01*
X82986200Y-67341100D02*
X83436200Y-67341100D01*
X82986200Y-66891100D02*
X82986200Y-67341100D01*
X82986200Y-60121100D02*
X83436200Y-60121100D01*
X82986200Y-60571100D02*
X82986200Y-60121100D01*
X90206200Y-67341100D02*
X89756200Y-67341100D01*
X90206200Y-66891100D02*
X90206200Y-67341100D01*
X90206200Y-60121100D02*
X89756200Y-60121100D01*
X90206200Y-60571100D02*
X90206200Y-60121100D01*
X83126200Y-81378700D02*
X83616200Y-80888700D01*
X80226200Y-81378700D02*
X83126200Y-81378700D01*
X80226200Y-81378700D02*
X79736200Y-80888700D01*
X80226200Y-75938700D02*
X83126200Y-75938700D01*
X80226200Y-75938700D02*
X79736200Y-76428700D01*
X84396200Y-79698700D02*
X84396200Y-77618700D01*
X83126200Y-75938700D02*
X83616200Y-76428700D01*
X78956200Y-79698700D02*
X78956200Y-77618700D01*
X89553322Y-89701400D02*
X90070478Y-89701400D01*
X89553322Y-88281400D02*
X90070478Y-88281400D01*
X92276900Y-91869722D02*
X92276900Y-92386878D01*
X93696900Y-91869722D02*
X93696900Y-92386878D01*
X90232200Y-85595922D02*
X90232200Y-86113078D01*
X91652200Y-85595922D02*
X91652200Y-86113078D01*
X79965100Y-86993200D02*
X82265100Y-86993200D01*
X79965100Y-94393200D02*
X79965100Y-86993200D01*
X82265100Y-94393200D02*
X79965100Y-94393200D01*
X87365100Y-94393200D02*
X85065100Y-94393200D01*
X87365100Y-86993200D02*
X87365100Y-94393200D01*
X85065100Y-86993200D02*
X87365100Y-86993200D01*
X90404600Y-74224800D02*
X91734600Y-74224800D01*
X90404600Y-75554800D02*
X90404600Y-74224800D01*
X90404600Y-76824800D02*
X93064600Y-76824800D01*
X93064600Y-76824800D02*
X93064600Y-81964800D01*
X90404600Y-76824800D02*
X90404600Y-81964800D01*
X90404600Y-81964800D02*
X93064600Y-81964800D01*
X94026700Y-74224800D02*
X95356700Y-74224800D01*
X94026700Y-75554800D02*
X94026700Y-74224800D01*
X94026700Y-76824800D02*
X96686700Y-76824800D01*
X96686700Y-76824800D02*
X96686700Y-81964800D01*
X94026700Y-76824800D02*
X94026700Y-81964800D01*
X94026700Y-81964800D02*
X96686700Y-81964800D01*
X108137000Y-44996400D02*
X110677000Y-44996400D01*
X108137000Y-44996400D02*
X108137000Y-47536400D01*
X108387000Y-45246400D02*
X117737000Y-45246400D01*
X108387000Y-86426400D02*
X108387000Y-45246400D01*
X117737000Y-86426400D02*
X108387000Y-86426400D01*
X117737000Y-45246400D02*
X117737000Y-86426400D01*
X75913600Y-46463300D02*
X77863600Y-46463300D01*
X80083600Y-46463300D02*
X83313600Y-46463300D01*
X85233600Y-47183300D02*
X85233600Y-48263300D01*
X85233600Y-52483300D02*
X85233600Y-53563300D01*
X80083600Y-54283300D02*
X83313600Y-54283300D01*
X75913600Y-54283300D02*
X77863600Y-54283300D01*
X85233600Y-48263300D02*
X85663600Y-48263300D01*
X75913600Y-54283300D02*
X75913600Y-46463300D01*
X97417000Y-44996400D02*
X99957000Y-44996400D01*
X97417000Y-44996400D02*
X97417000Y-47536400D01*
X97667000Y-45246400D02*
X107017000Y-45246400D01*
X97667000Y-96586400D02*
X97667000Y-45246400D01*
X107017000Y-96586400D02*
X97667000Y-96586400D01*
X107017000Y-45246400D02*
X107017000Y-96586400D01*
X108820000Y-87229600D02*
X110150000Y-87229600D01*
X108820000Y-88559600D02*
X108820000Y-87229600D01*
X108820000Y-89829600D02*
X111480000Y-89829600D01*
X111480000Y-89829600D02*
X111480000Y-97509600D01*
X108820000Y-89829600D02*
X108820000Y-97509600D01*
X108820000Y-97509600D02*
X111480000Y-97509600D01*
X79445200Y-69280100D02*
X78115200Y-69280100D01*
X79445200Y-67950100D02*
X79445200Y-69280100D01*
X79445200Y-66680100D02*
X76785200Y-66680100D01*
X76785200Y-66680100D02*
X76785200Y-59000100D01*
X79445200Y-66680100D02*
X79445200Y-59000100D01*
X79445200Y-59000100D02*
X76785200Y-59000100D01*
X87566100Y-85927400D02*
X83666100Y-85927400D01*
X87566100Y-83927400D02*
X83666100Y-83927400D01*
X87566100Y-85927400D02*
X87566100Y-83927400D01*
D12*
X79470700Y-71452400D02*
G75*
G03X79470700Y-71452400I-50000J0D01*
G01*
D11*
X88174800Y-85593622D02*
X88174800Y-86110778D01*
X89594800Y-85593622D02*
X89594800Y-86110778D01*
X89553322Y-96013300D02*
X90070478Y-96013300D01*
X89553322Y-94593300D02*
X90070478Y-94593300D01*
D10*
X78872253Y-57636846D02*
X78638920Y-57303513D01*
X78472253Y-57636846D02*
X78472253Y-56936846D01*
X78738920Y-56936846D01*
X78805586Y-56970180D01*
X78838920Y-57003513D01*
X78872253Y-57070180D01*
X78872253Y-57170180D01*
X78838920Y-57236846D01*
X78805586Y-57270180D01*
X78738920Y-57303513D01*
X78472253Y-57303513D01*
X79505586Y-56936846D02*
X79172253Y-56936846D01*
X79138920Y-57270180D01*
X79172253Y-57236846D01*
X79238920Y-57203513D01*
X79405586Y-57203513D01*
X79472253Y-57236846D01*
X79505586Y-57270180D01*
X79538920Y-57336846D01*
X79538920Y-57503513D01*
X79505586Y-57570180D01*
X79472253Y-57603513D01*
X79405586Y-57636846D01*
X79238920Y-57636846D01*
X79172253Y-57603513D01*
X79138920Y-57570180D01*
X93660153Y-55926780D02*
X93626820Y-55960113D01*
X93526820Y-55993446D01*
X93460153Y-55993446D01*
X93360153Y-55960113D01*
X93293486Y-55893446D01*
X93260153Y-55826780D01*
X93226820Y-55693446D01*
X93226820Y-55593446D01*
X93260153Y-55460113D01*
X93293486Y-55393446D01*
X93360153Y-55326780D01*
X93460153Y-55293446D01*
X93526820Y-55293446D01*
X93626820Y-55326780D01*
X93660153Y-55360113D01*
X93993486Y-55993446D02*
X94126820Y-55993446D01*
X94193486Y-55960113D01*
X94226820Y-55926780D01*
X94293486Y-55826780D01*
X94326820Y-55693446D01*
X94326820Y-55426780D01*
X94293486Y-55360113D01*
X94260153Y-55326780D01*
X94193486Y-55293446D01*
X94060153Y-55293446D01*
X93993486Y-55326780D01*
X93960153Y-55360113D01*
X93926820Y-55426780D01*
X93926820Y-55593446D01*
X93960153Y-55660113D01*
X93993486Y-55693446D01*
X94060153Y-55726780D01*
X94193486Y-55726780D01*
X94260153Y-55693446D01*
X94293486Y-55660113D01*
X94326820Y-55593446D01*
X93756673Y-45743920D02*
X93723340Y-45777253D01*
X93623340Y-45810586D01*
X93556673Y-45810586D01*
X93456673Y-45777253D01*
X93390006Y-45710586D01*
X93356673Y-45643920D01*
X93323340Y-45510586D01*
X93323340Y-45410586D01*
X93356673Y-45277253D01*
X93390006Y-45210586D01*
X93456673Y-45143920D01*
X93556673Y-45110586D01*
X93623340Y-45110586D01*
X93723340Y-45143920D01*
X93756673Y-45177253D01*
X94156673Y-45410586D02*
X94090006Y-45377253D01*
X94056673Y-45343920D01*
X94023340Y-45277253D01*
X94023340Y-45243920D01*
X94056673Y-45177253D01*
X94090006Y-45143920D01*
X94156673Y-45110586D01*
X94290006Y-45110586D01*
X94356673Y-45143920D01*
X94390006Y-45177253D01*
X94423340Y-45243920D01*
X94423340Y-45277253D01*
X94390006Y-45343920D01*
X94356673Y-45377253D01*
X94290006Y-45410586D01*
X94156673Y-45410586D01*
X94090006Y-45443920D01*
X94056673Y-45477253D01*
X94023340Y-45543920D01*
X94023340Y-45677253D01*
X94056673Y-45743920D01*
X94090006Y-45777253D01*
X94156673Y-45810586D01*
X94290006Y-45810586D01*
X94356673Y-45777253D01*
X94390006Y-45743920D01*
X94423340Y-45677253D01*
X94423340Y-45543920D01*
X94390006Y-45477253D01*
X94356673Y-45443920D01*
X94290006Y-45410586D01*
X84528046Y-74519593D02*
X84528046Y-74852926D01*
X84294713Y-74152926D02*
X84528046Y-74519593D01*
X84761380Y-74152926D01*
X85361380Y-74852926D02*
X84961380Y-74852926D01*
X85161380Y-74852926D02*
X85161380Y-74152926D01*
X85094713Y-74252926D01*
X85028046Y-74319593D01*
X84961380Y-74352926D01*
X91968426Y-94251946D02*
X91968426Y-94818613D01*
X92001760Y-94885280D01*
X92035093Y-94918613D01*
X92101760Y-94951946D01*
X92235093Y-94951946D01*
X92301760Y-94918613D01*
X92335093Y-94885280D01*
X92368426Y-94818613D01*
X92368426Y-94251946D01*
X92635093Y-94251946D02*
X93068426Y-94251946D01*
X92835093Y-94518613D01*
X92935093Y-94518613D01*
X93001760Y-94551946D01*
X93035093Y-94585280D01*
X93068426Y-94651946D01*
X93068426Y-94818613D01*
X93035093Y-94885280D01*
X93001760Y-94918613D01*
X92935093Y-94951946D01*
X92735093Y-94951946D01*
X92668426Y-94918613D01*
X92635093Y-94885280D01*
X87538675Y-53244480D02*
X87538675Y-54054004D01*
X87586294Y-54149242D01*
X87633913Y-54196861D01*
X87729151Y-54244480D01*
X87919627Y-54244480D01*
X88014865Y-54196861D01*
X88062484Y-54149242D01*
X88110103Y-54054004D01*
X88110103Y-53244480D01*
X88538675Y-53339719D02*
X88586294Y-53292100D01*
X88681532Y-53244480D01*
X88919627Y-53244480D01*
X89014865Y-53292100D01*
X89062484Y-53339719D01*
X89110103Y-53434957D01*
X89110103Y-53530195D01*
X89062484Y-53673052D01*
X88491056Y-54244480D01*
X89110103Y-54244480D01*
X90180235Y-67768180D02*
X90180235Y-68577704D01*
X90227854Y-68672942D01*
X90275473Y-68720561D01*
X90370711Y-68768180D01*
X90561187Y-68768180D01*
X90656425Y-68720561D01*
X90704044Y-68672942D01*
X90751663Y-68577704D01*
X90751663Y-67768180D01*
X91751663Y-68768180D02*
X91180235Y-68768180D01*
X91465949Y-68768180D02*
X91465949Y-67768180D01*
X91370711Y-67911038D01*
X91275473Y-68006276D01*
X91180235Y-68053895D01*
X92237773Y-89343626D02*
X92004440Y-89010293D01*
X91837773Y-89343626D02*
X91837773Y-88643626D01*
X92104440Y-88643626D01*
X92171106Y-88676960D01*
X92204440Y-88710293D01*
X92237773Y-88776960D01*
X92237773Y-88876960D01*
X92204440Y-88943626D01*
X92171106Y-88976960D01*
X92104440Y-89010293D01*
X91837773Y-89010293D01*
X92637773Y-88943626D02*
X92571106Y-88910293D01*
X92537773Y-88876960D01*
X92504440Y-88810293D01*
X92504440Y-88776960D01*
X92537773Y-88710293D01*
X92571106Y-88676960D01*
X92637773Y-88643626D01*
X92771106Y-88643626D01*
X92837773Y-88676960D01*
X92871106Y-88710293D01*
X92904440Y-88776960D01*
X92904440Y-88810293D01*
X92871106Y-88876960D01*
X92837773Y-88910293D01*
X92771106Y-88943626D01*
X92637773Y-88943626D01*
X92571106Y-88976960D01*
X92537773Y-89010293D01*
X92504440Y-89076960D01*
X92504440Y-89210293D01*
X92537773Y-89276960D01*
X92571106Y-89310293D01*
X92637773Y-89343626D01*
X92771106Y-89343626D01*
X92837773Y-89310293D01*
X92871106Y-89276960D01*
X92904440Y-89210293D01*
X92904440Y-89076960D01*
X92871106Y-89010293D01*
X92837773Y-88976960D01*
X92771106Y-88943626D01*
X94625373Y-92455126D02*
X94392040Y-92121793D01*
X94225373Y-92455126D02*
X94225373Y-91755126D01*
X94492040Y-91755126D01*
X94558706Y-91788460D01*
X94592040Y-91821793D01*
X94625373Y-91888460D01*
X94625373Y-91988460D01*
X94592040Y-92055126D01*
X94558706Y-92088460D01*
X94492040Y-92121793D01*
X94225373Y-92121793D01*
X94858706Y-91755126D02*
X95325373Y-91755126D01*
X95025373Y-92455126D01*
X92644173Y-86166086D02*
X92410840Y-85832753D01*
X92244173Y-86166086D02*
X92244173Y-85466086D01*
X92510840Y-85466086D01*
X92577506Y-85499420D01*
X92610840Y-85532753D01*
X92644173Y-85599420D01*
X92644173Y-85699420D01*
X92610840Y-85766086D01*
X92577506Y-85799420D01*
X92510840Y-85832753D01*
X92244173Y-85832753D01*
X93244173Y-85466086D02*
X93110840Y-85466086D01*
X93044173Y-85499420D01*
X93010840Y-85532753D01*
X92944173Y-85632753D01*
X92910840Y-85766086D01*
X92910840Y-86032753D01*
X92944173Y-86099420D01*
X92977506Y-86132753D01*
X93044173Y-86166086D01*
X93177506Y-86166086D01*
X93244173Y-86132753D01*
X93277506Y-86099420D01*
X93310840Y-86032753D01*
X93310840Y-85866086D01*
X93277506Y-85799420D01*
X93244173Y-85766086D01*
X93177506Y-85732753D01*
X93044173Y-85732753D01*
X92977506Y-85766086D01*
X92944173Y-85799420D01*
X92910840Y-85866086D01*
X76830093Y-72859106D02*
X76596760Y-72525773D01*
X76430093Y-72859106D02*
X76430093Y-72159106D01*
X76696760Y-72159106D01*
X76763426Y-72192440D01*
X76796760Y-72225773D01*
X76830093Y-72292440D01*
X76830093Y-72392440D01*
X76796760Y-72459106D01*
X76763426Y-72492440D01*
X76696760Y-72525773D01*
X76430093Y-72525773D01*
X77430093Y-72392440D02*
X77430093Y-72859106D01*
X77263426Y-72125773D02*
X77096760Y-72625773D01*
X77530093Y-72625773D01*
X88270213Y-80336866D02*
X88036880Y-80003533D01*
X87870213Y-80336866D02*
X87870213Y-79636866D01*
X88136880Y-79636866D01*
X88203546Y-79670200D01*
X88236880Y-79703533D01*
X88270213Y-79770200D01*
X88270213Y-79870200D01*
X88236880Y-79936866D01*
X88203546Y-79970200D01*
X88136880Y-80003533D01*
X87870213Y-80003533D01*
X88503546Y-79636866D02*
X88936880Y-79636866D01*
X88703546Y-79903533D01*
X88803546Y-79903533D01*
X88870213Y-79936866D01*
X88903546Y-79970200D01*
X88936880Y-80036866D01*
X88936880Y-80203533D01*
X88903546Y-80270200D01*
X88870213Y-80303533D01*
X88803546Y-80336866D01*
X88603546Y-80336866D01*
X88536880Y-80303533D01*
X88503546Y-80270200D01*
X88575033Y-74901266D02*
X88341700Y-74567933D01*
X88175033Y-74901266D02*
X88175033Y-74201266D01*
X88441700Y-74201266D01*
X88508366Y-74234600D01*
X88541700Y-74267933D01*
X88575033Y-74334600D01*
X88575033Y-74434600D01*
X88541700Y-74501266D01*
X88508366Y-74534600D01*
X88441700Y-74567933D01*
X88175033Y-74567933D01*
X88841700Y-74267933D02*
X88875033Y-74234600D01*
X88941700Y-74201266D01*
X89108366Y-74201266D01*
X89175033Y-74234600D01*
X89208366Y-74267933D01*
X89241700Y-74334600D01*
X89241700Y-74401266D01*
X89208366Y-74501266D01*
X88808366Y-74901266D01*
X89241700Y-74901266D01*
X94747273Y-72051366D02*
X94513940Y-71718033D01*
X94347273Y-72051366D02*
X94347273Y-71351366D01*
X94613940Y-71351366D01*
X94680606Y-71384700D01*
X94713940Y-71418033D01*
X94747273Y-71484700D01*
X94747273Y-71584700D01*
X94713940Y-71651366D01*
X94680606Y-71684700D01*
X94613940Y-71718033D01*
X94347273Y-71718033D01*
X95413940Y-72051366D02*
X95013940Y-72051366D01*
X95213940Y-72051366D02*
X95213940Y-71351366D01*
X95147273Y-71451366D01*
X95080606Y-71518033D01*
X95013940Y-71551366D01*
X78560673Y-91130340D02*
X78084482Y-91130340D01*
X78084482Y-90130340D01*
X79417816Y-91130340D02*
X78846387Y-91130340D01*
X79132101Y-91130340D02*
X79132101Y-90130340D01*
X79036863Y-90273198D01*
X78941625Y-90368436D01*
X78846387Y-90416055D01*
X77781866Y-69732480D02*
X77781866Y-70446766D01*
X77734247Y-70589623D01*
X77639009Y-70684861D01*
X77496152Y-70732480D01*
X77400914Y-70732480D01*
X78781866Y-70732480D02*
X78210438Y-70732480D01*
X78496152Y-70732480D02*
X78496152Y-69732480D01*
X78400914Y-69875338D01*
X78305676Y-69970576D01*
X78210438Y-70018195D01*
X81550773Y-85216126D02*
X81550773Y-84516126D01*
X81717440Y-84516126D01*
X81817440Y-84549460D01*
X81884106Y-84616126D01*
X81917440Y-84682793D01*
X81950773Y-84816126D01*
X81950773Y-84916126D01*
X81917440Y-85049460D01*
X81884106Y-85116126D01*
X81817440Y-85182793D01*
X81717440Y-85216126D01*
X81550773Y-85216126D01*
X82217440Y-84582793D02*
X82250773Y-84549460D01*
X82317440Y-84516126D01*
X82484106Y-84516126D01*
X82550773Y-84549460D01*
X82584106Y-84582793D01*
X82617440Y-84649460D01*
X82617440Y-84716126D01*
X82584106Y-84816126D01*
X82184106Y-85216126D01*
X82617440Y-85216126D01*
X78904033Y-74489746D02*
X78904033Y-73789746D01*
X79070700Y-73789746D01*
X79170700Y-73823080D01*
X79237366Y-73889746D01*
X79270700Y-73956413D01*
X79304033Y-74089746D01*
X79304033Y-74189746D01*
X79270700Y-74323080D01*
X79237366Y-74389746D01*
X79170700Y-74456413D01*
X79070700Y-74489746D01*
X78904033Y-74489746D01*
X79970700Y-74489746D02*
X79570700Y-74489746D01*
X79770700Y-74489746D02*
X79770700Y-73789746D01*
X79704033Y-73889746D01*
X79637366Y-73956413D01*
X79570700Y-73989746D01*
X88450040Y-83826120D02*
X88416706Y-83859453D01*
X88316706Y-83892786D01*
X88250040Y-83892786D01*
X88150040Y-83859453D01*
X88083373Y-83792786D01*
X88050040Y-83726120D01*
X88016706Y-83592786D01*
X88016706Y-83492786D01*
X88050040Y-83359453D01*
X88083373Y-83292786D01*
X88150040Y-83226120D01*
X88250040Y-83192786D01*
X88316706Y-83192786D01*
X88416706Y-83226120D01*
X88450040Y-83259453D01*
X89116706Y-83892786D02*
X88716706Y-83892786D01*
X88916706Y-83892786D02*
X88916706Y-83192786D01*
X88850040Y-83292786D01*
X88783373Y-83359453D01*
X88716706Y-83392786D01*
X89383373Y-83259453D02*
X89416706Y-83226120D01*
X89483373Y-83192786D01*
X89650040Y-83192786D01*
X89716706Y-83226120D01*
X89750040Y-83259453D01*
X89783373Y-83326120D01*
X89783373Y-83392786D01*
X89750040Y-83492786D01*
X89350040Y-83892786D01*
X89783373Y-83892786D01*
X89361900Y-97125560D02*
X89328566Y-97158893D01*
X89228566Y-97192226D01*
X89161900Y-97192226D01*
X89061900Y-97158893D01*
X88995233Y-97092226D01*
X88961900Y-97025560D01*
X88928566Y-96892226D01*
X88928566Y-96792226D01*
X88961900Y-96658893D01*
X88995233Y-96592226D01*
X89061900Y-96525560D01*
X89161900Y-96492226D01*
X89228566Y-96492226D01*
X89328566Y-96525560D01*
X89361900Y-96558893D01*
X90028566Y-97192226D02*
X89628566Y-97192226D01*
X89828566Y-97192226D02*
X89828566Y-96492226D01*
X89761900Y-96592226D01*
X89695233Y-96658893D01*
X89628566Y-96692226D01*
X90695233Y-97192226D02*
X90295233Y-97192226D01*
X90495233Y-97192226D02*
X90495233Y-96492226D01*
X90428566Y-96592226D01*
X90361900Y-96658893D01*
X90295233Y-96692226D01*
X92072080Y-57735240D02*
X92038746Y-57768573D01*
X91938746Y-57801906D01*
X91872080Y-57801906D01*
X91772080Y-57768573D01*
X91705413Y-57701906D01*
X91672080Y-57635240D01*
X91638746Y-57501906D01*
X91638746Y-57401906D01*
X91672080Y-57268573D01*
X91705413Y-57201906D01*
X91772080Y-57135240D01*
X91872080Y-57101906D01*
X91938746Y-57101906D01*
X92038746Y-57135240D01*
X92072080Y-57168573D01*
X92738746Y-57801906D02*
X92338746Y-57801906D01*
X92538746Y-57801906D02*
X92538746Y-57101906D01*
X92472080Y-57201906D01*
X92405413Y-57268573D01*
X92338746Y-57301906D01*
X93172080Y-57101906D02*
X93238746Y-57101906D01*
X93305413Y-57135240D01*
X93338746Y-57168573D01*
X93372080Y-57235240D01*
X93405413Y-57368573D01*
X93405413Y-57535240D01*
X93372080Y-57668573D01*
X93338746Y-57735240D01*
X93305413Y-57768573D01*
X93238746Y-57801906D01*
X93172080Y-57801906D01*
X93105413Y-57768573D01*
X93072080Y-57735240D01*
X93038746Y-57668573D01*
X93005413Y-57535240D01*
X93005413Y-57368573D01*
X93038746Y-57235240D01*
X93072080Y-57168573D01*
X93105413Y-57135240D01*
X93172080Y-57101906D01*
X91480793Y-71613800D02*
X91447460Y-71647133D01*
X91347460Y-71680466D01*
X91280793Y-71680466D01*
X91180793Y-71647133D01*
X91114126Y-71580466D01*
X91080793Y-71513800D01*
X91047460Y-71380466D01*
X91047460Y-71280466D01*
X91080793Y-71147133D01*
X91114126Y-71080466D01*
X91180793Y-71013800D01*
X91280793Y-70980466D01*
X91347460Y-70980466D01*
X91447460Y-71013800D01*
X91480793Y-71047133D01*
X91714126Y-70980466D02*
X92180793Y-70980466D01*
X91880793Y-71680466D01*
X80797553Y-71603640D02*
X80764220Y-71636973D01*
X80664220Y-71670306D01*
X80597553Y-71670306D01*
X80497553Y-71636973D01*
X80430886Y-71570306D01*
X80397553Y-71503640D01*
X80364220Y-71370306D01*
X80364220Y-71270306D01*
X80397553Y-71136973D01*
X80430886Y-71070306D01*
X80497553Y-71003640D01*
X80597553Y-70970306D01*
X80664220Y-70970306D01*
X80764220Y-71003640D01*
X80797553Y-71036973D01*
X81397553Y-70970306D02*
X81264220Y-70970306D01*
X81197553Y-71003640D01*
X81164220Y-71036973D01*
X81097553Y-71136973D01*
X81064220Y-71270306D01*
X81064220Y-71536973D01*
X81097553Y-71603640D01*
X81130886Y-71636973D01*
X81197553Y-71670306D01*
X81330886Y-71670306D01*
X81397553Y-71636973D01*
X81430886Y-71603640D01*
X81464220Y-71536973D01*
X81464220Y-71370306D01*
X81430886Y-71303640D01*
X81397553Y-71270306D01*
X81330886Y-71236973D01*
X81197553Y-71236973D01*
X81130886Y-71270306D01*
X81097553Y-71303640D01*
X81064220Y-71370306D01*
X88285453Y-77539640D02*
X88252120Y-77572973D01*
X88152120Y-77606306D01*
X88085453Y-77606306D01*
X87985453Y-77572973D01*
X87918786Y-77506306D01*
X87885453Y-77439640D01*
X87852120Y-77306306D01*
X87852120Y-77206306D01*
X87885453Y-77072973D01*
X87918786Y-77006306D01*
X87985453Y-76939640D01*
X88085453Y-76906306D01*
X88152120Y-76906306D01*
X88252120Y-76939640D01*
X88285453Y-76972973D01*
X88918786Y-76906306D02*
X88585453Y-76906306D01*
X88552120Y-77239640D01*
X88585453Y-77206306D01*
X88652120Y-77172973D01*
X88818786Y-77172973D01*
X88885453Y-77206306D01*
X88918786Y-77239640D01*
X88952120Y-77306306D01*
X88952120Y-77472973D01*
X88918786Y-77539640D01*
X88885453Y-77572973D01*
X88818786Y-77606306D01*
X88652120Y-77606306D01*
X88585453Y-77572973D01*
X88552120Y-77539640D01*
X85775973Y-57920700D02*
X85742640Y-57954033D01*
X85642640Y-57987366D01*
X85575973Y-57987366D01*
X85475973Y-57954033D01*
X85409306Y-57887366D01*
X85375973Y-57820700D01*
X85342640Y-57687366D01*
X85342640Y-57587366D01*
X85375973Y-57454033D01*
X85409306Y-57387366D01*
X85475973Y-57320700D01*
X85575973Y-57287366D01*
X85642640Y-57287366D01*
X85742640Y-57320700D01*
X85775973Y-57354033D01*
X86375973Y-57520700D02*
X86375973Y-57987366D01*
X86209306Y-57254033D02*
X86042640Y-57754033D01*
X86475973Y-57754033D01*
X95443233Y-60463260D02*
X95409900Y-60496593D01*
X95309900Y-60529926D01*
X95243233Y-60529926D01*
X95143233Y-60496593D01*
X95076566Y-60429926D01*
X95043233Y-60363260D01*
X95009900Y-60229926D01*
X95009900Y-60129926D01*
X95043233Y-59996593D01*
X95076566Y-59929926D01*
X95143233Y-59863260D01*
X95243233Y-59829926D01*
X95309900Y-59829926D01*
X95409900Y-59863260D01*
X95443233Y-59896593D01*
X95676566Y-59829926D02*
X96109900Y-59829926D01*
X95876566Y-60096593D01*
X95976566Y-60096593D01*
X96043233Y-60129926D01*
X96076566Y-60163260D01*
X96109900Y-60229926D01*
X96109900Y-60396593D01*
X96076566Y-60463260D01*
X96043233Y-60496593D01*
X95976566Y-60529926D01*
X95776566Y-60529926D01*
X95709900Y-60496593D01*
X95676566Y-60463260D01*
X93695693Y-61560540D02*
X93662360Y-61593873D01*
X93562360Y-61627206D01*
X93495693Y-61627206D01*
X93395693Y-61593873D01*
X93329026Y-61527206D01*
X93295693Y-61460540D01*
X93262360Y-61327206D01*
X93262360Y-61227206D01*
X93295693Y-61093873D01*
X93329026Y-61027206D01*
X93395693Y-60960540D01*
X93495693Y-60927206D01*
X93562360Y-60927206D01*
X93662360Y-60960540D01*
X93695693Y-60993873D01*
X93962360Y-60993873D02*
X93995693Y-60960540D01*
X94062360Y-60927206D01*
X94229026Y-60927206D01*
X94295693Y-60960540D01*
X94329026Y-60993873D01*
X94362360Y-61060540D01*
X94362360Y-61127206D01*
X94329026Y-61227206D01*
X93929026Y-61627206D01*
X94362360Y-61627206D01*
X80662953Y-68649680D02*
X80629620Y-68683013D01*
X80529620Y-68716346D01*
X80462953Y-68716346D01*
X80362953Y-68683013D01*
X80296286Y-68616346D01*
X80262953Y-68549680D01*
X80229620Y-68416346D01*
X80229620Y-68316346D01*
X80262953Y-68183013D01*
X80296286Y-68116346D01*
X80362953Y-68049680D01*
X80462953Y-68016346D01*
X80529620Y-68016346D01*
X80629620Y-68049680D01*
X80662953Y-68083013D01*
X81329620Y-68716346D02*
X80929620Y-68716346D01*
X81129620Y-68716346D02*
X81129620Y-68016346D01*
X81062953Y-68116346D01*
X80996286Y-68183013D01*
X80929620Y-68216346D01*
M02*
